<?xml version="1.0" encoding="UTF-8" standalone="no"?>
<!DOCTYPE svg PUBLIC "-//W3C//DTD SVG 1.1//EN"
 "http://www.w3.org/Graphics/SVG/1.1/DTD/svg11.dtd">
<!-- Generated by graphviz version 2.38.0 (20140413.2041)
 -->
<!-- Title: %3 Pages: 1 -->
<svg width="89pt" height="188pt"
 viewBox="0.00 0.00 89.00 188.00" xmlns="http://www.w3.org/2000/svg" xmlns:xlink="http://www.w3.org/1999/xlink">
<g id="graph0" class="graph" transform="scale(1 1) rotate(0) translate(4 184)">
<title>%3</title>
<polygon fill="white" stroke="none" points="-4,4 -4,-184 85,-184 85,4 -4,4"/>
<!-- a -->
<g id="node1" class="node"><title>a</title>
<ellipse fill="none" stroke="black" cx="54" cy="-162" rx="27" ry="18"/>
<text text-anchor="middle" x="54" y="-158.3" font-family="Times,serif" font-size="14.00">a</text>
</g>
<!-- b -->
<g id="node2" class="node"><title>b</title>
<ellipse fill="none" stroke="black" cx="27" cy="-90" rx="27" ry="18"/>
<text text-anchor="middle" x="27" y="-86.3" font-family="Times,serif" font-size="14.00">b</text>
</g>
<!-- a&#45;&#45;b -->
<g id="edge1" class="edge"><title>a&#45;&#45;b</title>
<path fill="none" stroke="black" d="M47.6014,-144.411C43.3597,-133.414 37.8106,-119.027 33.5403,-107.956"/>
</g>
<!-- c -->
<g id="node3" class="node"><title>c</title>
<ellipse fill="none" stroke="black" cx="54" cy="-18" rx="27" ry="18"/>
<text text-anchor="middle" x="54" y="-14.3" font-family="Times,serif" font-size="14.00">c</text>
</g>
<!-- b&#45;&#45;c -->
<g id="edge2" class="edge"><title>b&#45;&#45;c</title>
<path fill="none" stroke="black" d="M33.3986,-72.411C37.6403,-61.4141 43.1894,-47.0274 47.4597,-35.9562"/>
</g>
<!-- c&#45;&#45;a -->
<g id="edge3" class="edge"><title>c&#45;&#45;a</title>
<path fill="none" stroke="black" d="M57.6538,-36.0925C59.6758,-46.4315 61.9808,-59.9098 63,-72 64.3441,-87.9434 64.3441,-92.0566 63,-108 61.9808,-120.09 59.6758,-133.569 57.6538,-143.908"/>
</g>
</g>
</svg>
