<?xml version="1.0" encoding="UTF-8" standalone="no"?>
<!DOCTYPE svg PUBLIC "-//W3C//DTD SVG 1.1//EN"
 "http://www.w3.org/Graphics/SVG/1.1/DTD/svg11.dtd">
<!-- Generated by graphviz version 2.38.0 (20140413.2041)
 -->
<!-- Title: %3 Pages: 1 -->
<svg width="634pt" height="491pt"
 viewBox="0.00 0.00 633.74 490.50" xmlns="http://www.w3.org/2000/svg" xmlns:xlink="http://www.w3.org/1999/xlink">
<g id="graph0" class="graph" transform="scale(1 1) rotate(0) translate(4 486.5)">
<title>%3</title>
<polygon fill="white" stroke="none" points="-4,4 -4,-486.5 629.737,-486.5 629.737,4 -4,4"/>
<!-- sh_nn -->
<g id="node1" class="node"><title>sh_nn</title>
<polygon fill="#f0e444" stroke="#f0e444" points="102,-266 7.10543e-15,-266 7.10543e-15,-213 102,-213 102,-266"/>
<text text-anchor="middle" x="51" y="-250.8" font-family="Times,serif" font-size="14.00">Sh</text>
<text text-anchor="middle" x="51" y="-235.8" font-family="Times,serif" font-size="14.00">Non&#45;Login</text>
<text text-anchor="middle" x="51" y="-220.8" font-family="Times,serif" font-size="14.00">Non&#45;Interactive</text>
</g>
<!-- sh_ni -->
<g id="node2" class="node"><title>sh_ni</title>
<polygon fill="#f0e444" stroke="#f0e444" points="89.5,-195 12.5,-195 12.5,-142 89.5,-142 89.5,-195"/>
<text text-anchor="middle" x="51" y="-179.8" font-family="Times,serif" font-size="14.00">Sh</text>
<text text-anchor="middle" x="51" y="-164.8" font-family="Times,serif" font-size="14.00">Non&#45;Login</text>
<text text-anchor="middle" x="51" y="-149.8" font-family="Times,serif" font-size="14.00">Interactive</text>
</g>
<!-- sh_nn&#45;&gt;sh_ni -->
<g id="edge1" class="edge"><title>sh_nn&#45;&gt;sh_ni</title>
<path fill="none" stroke="#f0e444" stroke-width="4" d="M51,-212.806C51,-206.912 51,-201.019 51,-195.125"/>
</g>
<!-- sh_nn_running -->
<g id="node5" class="node"><title>sh_nn_running</title>
<polygon fill="#0072b2" stroke="#0072b2" points="529.545,-262.5 433.162,-228 625.929,-228 529.545,-262.5"/>
<text text-anchor="middle" x="529.545" y="-235.8" font-family="Times,serif" font-size="14.00">Running...</text>
</g>
<!-- sh_nn&#45;&gt;sh_nn_running -->
<g id="edge16" class="edge"><title>sh_nn&#45;&gt;sh_nn_running</title>
<path fill="none" stroke="black" stroke-width="4" stroke-dasharray="5,2" d="M102.098,-239.5C186.455,-239.5 357.208,-239.5 455.121,-239.5"/>
<polygon fill="black" stroke="black" stroke-width="4" points="455.236,-243 465.236,-239.5 455.236,-236 455.236,-243"/>
</g>
<!-- sh_ln -->
<g id="node3" class="node"><title>sh_ln</title>
<polygon fill="#f0e444" stroke="#f0e444" points="102,-124 7.10543e-15,-124 7.10543e-15,-71 102,-71 102,-124"/>
<text text-anchor="middle" x="51" y="-108.8" font-family="Times,serif" font-size="14.00">Sh</text>
<text text-anchor="middle" x="51" y="-93.8" font-family="Times,serif" font-size="14.00">Login</text>
<text text-anchor="middle" x="51" y="-78.8" font-family="Times,serif" font-size="14.00">Non&#45;Interactive</text>
</g>
<!-- sh_ni&#45;&gt;sh_ln -->
<g id="edge2" class="edge"><title>sh_ni&#45;&gt;sh_ln</title>
<path fill="none" stroke="#f0e444" stroke-width="4" d="M51,-141.806C51,-135.912 51,-130.019 51,-124.125"/>
</g>
<!-- sh_ni_env -->
<g id="node9" class="node"><title>sh_ni_env</title>
<polygon fill="#d55e00" stroke="#d55e00" points="350.477,-186.5 303.722,-168.5 350.477,-150.5 397.231,-168.5 350.477,-186.5"/>
<text text-anchor="middle" x="350.477" y="-164.8" font-family="Times,serif" font-size="14.00">$ENV</text>
</g>
<!-- sh_ni&#45;&gt;sh_ni_env -->
<g id="edge17" class="edge"><title>sh_ni&#45;&gt;sh_ni_env</title>
<path fill="none" stroke="orange" stroke-width="4" stroke-dasharray="5,2" d="M89.6756,-168.5C141.075,-168.5 233.584,-168.5 293.216,-168.5"/>
<polygon fill="orange" stroke="orange" stroke-width="4" points="293.586,-172 303.586,-168.5 293.586,-165 293.586,-172"/>
</g>
<!-- sh_li -->
<g id="node4" class="node"><title>sh_li</title>
<polygon fill="#f0e444" stroke="#f0e444" points="88,-53 14,-53 14,-3.55271e-15 88,-3.55271e-15 88,-53"/>
<text text-anchor="middle" x="51" y="-37.8" font-family="Times,serif" font-size="14.00">Sh</text>
<text text-anchor="middle" x="51" y="-22.8" font-family="Times,serif" font-size="14.00">Login</text>
<text text-anchor="middle" x="51" y="-7.8" font-family="Times,serif" font-size="14.00">Interactive</text>
</g>
<!-- sh_ln&#45;&gt;sh_li -->
<g id="edge3" class="edge"><title>sh_ln&#45;&gt;sh_li</title>
<path fill="none" stroke="#f0e444" stroke-width="4" d="M51,-70.8057C51,-64.9121 51,-59.0186 51,-53.125"/>
</g>
<!-- sh_ln_home_profile -->
<g id="node11" class="node"><title>sh_ln_home_profile</title>
<polygon fill="#cc79a7" stroke="#cc79a7" points="267.4,-115.5 164.636,-115.5 138.2,-79.5 240.964,-79.5 267.4,-115.5"/>
<text text-anchor="middle" x="202.8" y="-93.8" font-family="Times,serif" font-size="14.00">~/.profile</text>
</g>
<!-- sh_ln&#45;&gt;sh_ln_home_profile -->
<g id="edge19" class="edge"><title>sh_ln&#45;&gt;sh_ln_home_profile</title>
<path fill="none" stroke="#35b4e9" stroke-width="4" stroke-dasharray="5,2" d="M102.298,-97.5C114.773,-97.5 128.271,-97.5 141.182,-97.5"/>
<polygon fill="#35b4e9" stroke="#35b4e9" stroke-width="4" points="141.38,-101 151.38,-97.5 141.38,-94.0001 141.38,-101"/>
</g>
<!-- sh_li_home_profile -->
<g id="node12" class="node"><title>sh_li_home_profile</title>
<polygon fill="#cc79a7" stroke="#cc79a7" points="267.4,-44.5 164.636,-44.5 138.2,-8.5 240.964,-8.5 267.4,-44.5"/>
<text text-anchor="middle" x="202.8" y="-22.8" font-family="Times,serif" font-size="14.00">~/.profile</text>
</g>
<!-- sh_li&#45;&gt;sh_li_home_profile -->
<g id="edge21" class="edge"><title>sh_li&#45;&gt;sh_li_home_profile</title>
<path fill="none" stroke="#009e73" stroke-width="4" stroke-dasharray="5,2" d="M88.2624,-26.5C104.116,-26.5 123.149,-26.5 141.061,-26.5"/>
<polygon fill="#009e73" stroke="#009e73" stroke-width="4" points="141.156,-30.0001 151.156,-26.5 141.156,-23.0001 141.156,-30.0001"/>
</g>
<!-- sh_ni_running -->
<g id="node6" class="node"><title>sh_ni_running</title>
<polygon fill="#0072b2" stroke="#0072b2" points="529.545,-191.5 433.162,-157 625.929,-157 529.545,-191.5"/>
<text text-anchor="middle" x="529.545" y="-164.8" font-family="Times,serif" font-size="14.00">Running...</text>
</g>
<!-- sh_nn_running&#45;&gt;sh_ni_running -->
<g id="edge4" class="edge"><title>sh_nn_running&#45;&gt;sh_ni_running</title>
<path fill="none" stroke="#0072b2" stroke-width="4" d="M529.545,-227.88C529.545,-215.76 529.545,-203.64 529.545,-191.52"/>
</g>
<!-- sh_ln_running -->
<g id="node7" class="node"><title>sh_ln_running</title>
<polygon fill="#0072b2" stroke="#0072b2" points="529.545,-120.5 433.162,-86 625.929,-86 529.545,-120.5"/>
<text text-anchor="middle" x="529.545" y="-93.8" font-family="Times,serif" font-size="14.00">Running...</text>
</g>
<!-- sh_ni_running&#45;&gt;sh_ln_running -->
<g id="edge5" class="edge"><title>sh_ni_running&#45;&gt;sh_ln_running</title>
<path fill="none" stroke="#0072b2" stroke-width="4" d="M529.545,-156.88C529.545,-144.76 529.545,-132.64 529.545,-120.52"/>
</g>
<!-- sh_li_running -->
<g id="node8" class="node"><title>sh_li_running</title>
<polygon fill="#0072b2" stroke="#0072b2" points="529.545,-49.5 433.162,-15 625.929,-15 529.545,-49.5"/>
<text text-anchor="middle" x="529.545" y="-22.8" font-family="Times,serif" font-size="14.00">Running...</text>
</g>
<!-- sh_ln_running&#45;&gt;sh_li_running -->
<g id="edge6" class="edge"><title>sh_ln_running&#45;&gt;sh_li_running</title>
<path fill="none" stroke="#0072b2" stroke-width="4" d="M529.545,-85.8797C529.545,-73.7597 529.545,-61.6396 529.545,-49.5195"/>
</g>
<!-- sh_ni_env&#45;&gt;sh_ni_running -->
<g id="edge18" class="edge"><title>sh_ni_env&#45;&gt;sh_ni_running</title>
<path fill="none" stroke="orange" stroke-width="4" stroke-dasharray="5,2" d="M397.537,-168.5C415.076,-168.5 435.53,-168.5 454.989,-168.5"/>
<polygon fill="orange" stroke="orange" stroke-width="4" points="455.054,-172 465.054,-168.5 455.054,-165 455.054,-172"/>
</g>
<!-- sh_li_env -->
<g id="node10" class="node"><title>sh_li_env</title>
<polygon fill="#d55e00" stroke="#d55e00" points="350.477,-44.5 303.722,-26.5 350.477,-8.5 397.231,-26.5 350.477,-44.5"/>
<text text-anchor="middle" x="350.477" y="-22.8" font-family="Times,serif" font-size="14.00">$ENV</text>
</g>
<!-- sh_ni_env&#45;&gt;sh_li_env -->
<g id="edge7" class="edge"><title>sh_ni_env&#45;&gt;sh_li_env</title>
<path fill="none" stroke="#d55e00" stroke-width="4" d="M350.477,-150.098C350.477,-114.908 350.477,-79.7175 350.477,-44.5273"/>
</g>
<!-- sh_li_env&#45;&gt;sh_li_running -->
<g id="edge23" class="edge"><title>sh_li_env&#45;&gt;sh_li_running</title>
<path fill="none" stroke="#009e73" stroke-width="4" stroke-dasharray="5,2" d="M397.537,-26.5C415.076,-26.5 435.53,-26.5 454.989,-26.5"/>
<polygon fill="#009e73" stroke="#009e73" stroke-width="4" points="455.054,-30.0001 465.054,-26.5 455.054,-23.0001 455.054,-30.0001"/>
</g>
<!-- sh_ln_home_profile&#45;&gt;sh_ln_running -->
<g id="edge20" class="edge"><title>sh_ln_home_profile&#45;&gt;sh_ln_running</title>
<path fill="none" stroke="#35b4e9" stroke-width="4" stroke-dasharray="5,2" d="M254.185,-97.5C308.019,-97.5 393.875,-97.5 455.203,-97.5"/>
<polygon fill="#35b4e9" stroke="#35b4e9" stroke-width="4" points="455.208,-101 465.208,-97.5 455.208,-94.0001 455.208,-101"/>
</g>
<!-- sh_ln_home_profile&#45;&gt;sh_li_home_profile -->
<g id="edge8" class="edge"><title>sh_ln_home_profile&#45;&gt;sh_li_home_profile</title>
<path fill="none" stroke="#cc79a7" stroke-width="4" d="M202.8,-79.2906C202.8,-67.7029 202.8,-56.1151 202.8,-44.5273"/>
</g>
<!-- sh_li_home_profile&#45;&gt;sh_li_env -->
<g id="edge22" class="edge"><title>sh_li_home_profile&#45;&gt;sh_li_env</title>
<path fill="none" stroke="#009e73" stroke-width="4" stroke-dasharray="5,2" d="M254.342,-26.5C266.921,-26.5 280.483,-26.5 293.315,-26.5"/>
<polygon fill="#009e73" stroke="#009e73" stroke-width="4" points="293.417,-30.0001 303.416,-26.5 293.416,-23.0001 293.417,-30.0001"/>
</g>
<!-- B2 -->
<g id="node13" class="node"><title>B2</title>
<ellipse fill="black" stroke="black" cx="202.8" cy="-410.5" rx="18" ry="18"/>
<text text-anchor="middle" x="202.8" y="-406.8" font-family="Times,serif" font-size="14.00" fill="white">B</text>
</g>
<!-- B3 -->
<g id="node14" class="node"><title>B3</title>
<ellipse fill="black" stroke="black" cx="202.8" cy="-356.5" rx="18" ry="18"/>
<text text-anchor="middle" x="202.8" y="-352.8" font-family="Times,serif" font-size="14.00" fill="white">B</text>
</g>
<!-- B2&#45;&gt;B3 -->
<g id="edge9" class="edge"><title>B2&#45;&gt;B3</title>
<path fill="none" stroke="black" stroke-width="4" d="M202.8,-392.29C202.8,-386.407 202.8,-380.524 202.8,-374.641"/>
</g>
<!-- B4 -->
<g id="node15" class="node"><title>B4</title>
<ellipse fill="black" stroke="black" cx="202.8" cy="-302.5" rx="18" ry="18"/>
<text text-anchor="middle" x="202.8" y="-298.8" font-family="Times,serif" font-size="14.00" fill="white">B</text>
</g>
<!-- B3&#45;&gt;B4 -->
<g id="edge10" class="edge"><title>B3&#45;&gt;B4</title>
<path fill="none" stroke="black" stroke-width="4" d="M202.8,-338.29C202.8,-332.407 202.8,-326.524 202.8,-320.641"/>
</g>
<!-- C3 -->
<g id="node19" class="node"><title>C3</title>
<polygon fill="white" stroke="none" points="377.477,-374.5 323.477,-374.5 323.477,-338.5 377.477,-338.5 377.477,-374.5"/>
<text text-anchor="middle" x="350.477" y="-352.8" font-family="Times,serif" font-size="14.00">C</text>
</g>
<!-- B3&#45;&gt;C3 -->
<g id="edge14" class="edge"><title>B3&#45;&gt;C3</title>
<path fill="none" stroke="black" stroke-width="4" stroke-dasharray="5,2" d="M221.083,-356.5C243.637,-356.5 283.687,-356.5 313.076,-356.5"/>
<polygon fill="black" stroke="black" stroke-width="4" points="313.37,-360 323.37,-356.5 313.37,-353 313.37,-360"/>
</g>
<!-- C4 -->
<g id="node17" class="node"><title>C4</title>
<polygon fill="white" stroke="none" points="377.477,-320.5 323.477,-320.5 323.477,-284.5 377.477,-284.5 377.477,-320.5"/>
<text text-anchor="middle" x="350.477" y="-298.8" font-family="Times,serif" font-size="14.00">C</text>
</g>
<!-- B4&#45;&gt;C4 -->
<g id="edge12" class="edge"><title>B4&#45;&gt;C4</title>
<path fill="none" stroke="black" stroke-width="4" stroke-dasharray="5,2" d="M221.083,-302.5C243.637,-302.5 283.687,-302.5 313.076,-302.5"/>
<polygon fill="black" stroke="black" stroke-width="4" points="313.37,-306 323.37,-302.5 313.37,-299 313.37,-306"/>
</g>
<!-- A4 -->
<g id="node16" class="node"><title>A4</title>
<polygon fill="white" stroke="none" points="78,-320.5 24,-320.5 24,-284.5 78,-284.5 78,-320.5"/>
<text text-anchor="middle" x="51" y="-298.8" font-family="Times,serif" font-size="14.00">A</text>
</g>
<!-- A4&#45;&gt;B4 -->
<g id="edge11" class="edge"><title>A4&#45;&gt;B4</title>
<path fill="none" stroke="black" stroke-width="4" stroke-dasharray="5,2" d="M78.0931,-302.5C105.03,-302.5 146.884,-302.5 174.32,-302.5"/>
<polygon fill="black" stroke="black" stroke-width="4" points="174.415,-306 184.415,-302.5 174.415,-299 174.415,-306"/>
</g>
<!-- D4 -->
<g id="node18" class="node"><title>D4</title>
<polygon fill="white" stroke="none" points="556.545,-320.5 502.545,-320.5 502.545,-284.5 556.545,-284.5 556.545,-320.5"/>
<text text-anchor="middle" x="529.545" y="-298.8" font-family="Times,serif" font-size="14.00">D</text>
</g>
<!-- C4&#45;&gt;D4 -->
<g id="edge13" class="edge"><title>C4&#45;&gt;D4</title>
<path fill="none" stroke="black" stroke-width="4" stroke-dasharray="5,2" d="M377.604,-302.5C407.943,-302.5 458.176,-302.5 492.283,-302.5"/>
<polygon fill="black" stroke="black" stroke-width="4" points="492.311,-306 502.311,-302.5 492.311,-299 492.311,-306"/>
</g>
<!-- A2 -->
<g id="node20" class="node"><title>A2</title>
<polygon fill="white" stroke="none" points="78,-428.5 24,-428.5 24,-392.5 78,-392.5 78,-428.5"/>
<text text-anchor="middle" x="51" y="-406.8" font-family="Times,serif" font-size="14.00">A</text>
</g>
<!-- A2&#45;&gt;B2 -->
<g id="edge15" class="edge"><title>A2&#45;&gt;B2</title>
<path fill="none" stroke="black" stroke-width="4" stroke-dasharray="5,2" d="M78.0931,-410.5C105.03,-410.5 146.884,-410.5 174.32,-410.5"/>
<polygon fill="black" stroke="black" stroke-width="4" points="174.415,-414 184.415,-410.5 174.415,-407 174.415,-414"/>
</g>
<!-- A1 -->
<g id="node21" class="node"><title>A1</title>
<polygon fill="white" stroke="none" points="78,-482.5 24,-482.5 24,-446.5 78,-446.5 78,-482.5"/>
<text text-anchor="middle" x="51" y="-460.8" font-family="Times,serif" font-size="14.00">A</text>
</g>
</g>
</svg>
