<?xml version="1.0" encoding="UTF-8" standalone="no"?>
<!DOCTYPE svg PUBLIC "-//W3C//DTD SVG 1.1//EN"
 "http://www.w3.org/Graphics/SVG/1.1/DTD/svg11.dtd">
<!-- Generated by graphviz version 2.38.0 (20140413.2041)
 -->
<!-- Title: %3 Pages: 1 -->
<svg width="166pt" height="476pt"
 viewBox="0.00 0.00 166.00 476.00" xmlns="http://www.w3.org/2000/svg" xmlns:xlink="http://www.w3.org/1999/xlink">
<g id="graph0" class="graph" transform="scale(1 1) rotate(0) translate(4 472)">
<title>%3</title>
<polygon fill="white" stroke="none" points="-4,4 -4,-472 162,-472 162,4 -4,4"/>
<!-- A -->
<g id="node1" class="node"><title>A</title>
<ellipse fill="#f0e442" stroke="#e69f00" stroke-width="8" cx="111" cy="-450" rx="27" ry="18"/>
<text text-anchor="middle" x="111" y="-446.3" font-family="Times,serif" font-size="14.00">A</text>
</g>
<!-- B -->
<g id="node2" class="node"><title>B</title>
<ellipse fill="#f0e442" stroke="#009e73" stroke-width="8" cx="56" cy="-378" rx="27" ry="18"/>
<text text-anchor="middle" x="56" y="-374.3" font-family="Times,serif" font-size="14.00">B</text>
</g>
<!-- A&#45;&#45;B -->
<g id="edge1" class="edge"><title>A&#45;&#45;B</title>
<path fill="none" stroke="black" d="M99.0658,-433.811C89.8405,-422.07 77.1304,-405.893 67.9109,-394.159"/>
</g>
<!-- D -->
<g id="node4" class="node"><title>D</title>
<ellipse fill="#56b4e9" stroke="#e69f00" stroke-width="8" cx="82" cy="-18" rx="27" ry="18"/>
<text text-anchor="middle" x="82" y="-14.3" font-family="Times,serif" font-size="14.00">D</text>
</g>
<!-- A&#45;&#45;D -->
<g id="edge10" class="edge"><title>A&#45;&#45;D</title>
<path fill="none" stroke="black" d="M120.062,-432.96C133.72,-407.234 158,-354.781 158,-307 158,-307 158,-307 158,-161 158,-109.271 118.31,-58.1496 96.295,-33.7722"/>
</g>
<!-- C -->
<g id="node3" class="node"><title>C</title>
<ellipse fill="#f0e442" stroke="#cc79a7" stroke-width="8" cx="103" cy="-306" rx="27" ry="18"/>
<text text-anchor="middle" x="103" y="-302.3" font-family="Times,serif" font-size="14.00">C</text>
</g>
<!-- B&#45;&#45;C -->
<g id="edge2" class="edge"><title>B&#45;&#45;C</title>
<path fill="none" stroke="black" d="M66.665,-361.116C74.3569,-349.66 84.695,-334.263 92.3772,-322.821"/>
</g>
<!-- G -->
<g id="node7" class="node"><title>G</title>
<ellipse fill="#d55e00" stroke="#e69f00" stroke-width="8" cx="31" cy="-306" rx="27" ry="18"/>
<text text-anchor="middle" x="31" y="-302.3" font-family="Times,serif" font-size="14.00">G</text>
</g>
<!-- B&#45;&#45;G -->
<g id="edge11" class="edge"><title>B&#45;&#45;G</title>
<path fill="none" stroke="black" d="M50.0753,-360.411C46.1479,-349.414 41.0098,-335.027 37.0558,-323.956"/>
</g>
<!-- C&#45;&#45;A -->
<g id="edge3" class="edge"><title>C&#45;&#45;A</title>
<path fill="none" stroke="black" d="M103.968,-324.189C105.508,-351.52 108.497,-404.578 110.035,-431.871"/>
</g>
<!-- E -->
<g id="node5" class="node"><title>E</title>
<ellipse fill="#56b4e9" stroke="#009e73" stroke-width="8" cx="27" cy="-162" rx="27" ry="18"/>
<text text-anchor="middle" x="27" y="-158.3" font-family="Times,serif" font-size="14.00">E</text>
</g>
<!-- D&#45;&#45;E -->
<g id="edge4" class="edge"><title>D&#45;&#45;E</title>
<path fill="none" stroke="black" d="M69.2521,-34.2982C61.4415,-44.413 51.8523,-58.2917 46,-72 35.8264,-95.8305 30.8901,-125.654 28.6561,-144.012"/>
</g>
<!-- F -->
<g id="node6" class="node"><title>F</title>
<ellipse fill="#56b4e9" stroke="#cc79a7" stroke-width="8" cx="82" cy="-90" rx="27" ry="18"/>
<text text-anchor="middle" x="82" y="-86.3" font-family="Times,serif" font-size="14.00">F</text>
</g>
<!-- E&#45;&#45;F -->
<g id="edge5" class="edge"><title>E&#45;&#45;F</title>
<path fill="none" stroke="black" d="M38.9342,-145.811C48.1595,-134.07 60.8696,-117.893 70.0891,-106.159"/>
</g>
<!-- F&#45;&#45;D -->
<g id="edge6" class="edge"><title>F&#45;&#45;D</title>
<path fill="none" stroke="black" d="M82,-71.6966C82,-60.8463 82,-46.9167 82,-36.1043"/>
</g>
<!-- H -->
<g id="node8" class="node"><title>H</title>
<ellipse fill="#d55e00" stroke="#009e73" stroke-width="8" cx="31" cy="-234" rx="27" ry="18"/>
<text text-anchor="middle" x="31" y="-230.3" font-family="Times,serif" font-size="14.00">H</text>
</g>
<!-- G&#45;&#45;H -->
<g id="edge7" class="edge"><title>G&#45;&#45;H</title>
<path fill="none" stroke="black" d="M31,-287.697C31,-276.846 31,-262.917 31,-252.104"/>
</g>
<!-- H&#45;&#45;E -->
<g id="edge12" class="edge"><title>H&#45;&#45;E</title>
<path fill="none" stroke="black" d="M30.0112,-215.697C29.3912,-204.846 28.5952,-190.917 27.9774,-180.104"/>
</g>
<!-- I -->
<g id="node9" class="node"><title>I</title>
<ellipse fill="#d55e00" stroke="#cc79a7" stroke-width="8" cx="99" cy="-162" rx="27" ry="18"/>
<text text-anchor="middle" x="99" y="-158.3" font-family="Times,serif" font-size="14.00">I</text>
</g>
<!-- H&#45;&#45;I -->
<g id="edge8" class="edge"><title>H&#45;&#45;I</title>
<path fill="none" stroke="black" d="M45.0896,-218.496C56.7601,-206.482 73.2629,-189.494 84.9284,-177.485"/>
</g>
<!-- I&#45;&#45;G -->
<g id="edge9" class="edge"><title>I&#45;&#45;G</title>
<path fill="none" stroke="black" d="M94.3056,-179.924C88.914,-198.226 79.2174,-228.003 67,-252 60.2375,-265.283 50.691,-279.182 43.1278,-289.412"/>
</g>
</g>
</svg>
