<?xml version="1.0" encoding="UTF-8" standalone="no"?>
<!DOCTYPE svg PUBLIC "-//W3C//DTD SVG 1.1//EN"
 "http://www.w3.org/Graphics/SVG/1.1/DTD/svg11.dtd">
<!-- Generated by graphviz version 2.38.0 (20140413.2041)
 -->
<!-- Title: %3 Pages: 1 -->
<svg width="244pt" height="172pt"
 viewBox="0.00 0.00 244.00 172.00" xmlns="http://www.w3.org/2000/svg" xmlns:xlink="http://www.w3.org/1999/xlink">
<g id="graph0" class="graph" transform="scale(1 1) rotate(0) translate(4 168)">
<title>%3</title>
<polygon fill="white" stroke="none" points="-4,4 -4,-168 240,-168 240,4 -4,4"/>
<g id="clust1" class="cluster"><title>clusterA</title>
<polygon fill="none" stroke="black" points="0,-84 0,-164 116,-164 116,-84 0,-84"/>
</g>
<g id="clust2" class="cluster"><title>clusterB</title>
<polygon fill="none" stroke="black" points="120,-84 120,-164 236,-164 236,-84 120,-84"/>
</g>
<g id="clust3" class="cluster"><title>clusterC</title>
<polygon fill="none" stroke="black" points="0,-0 0,-80 116,-80 116,-0 0,-0"/>
</g>
<!-- A -->
<g id="node1" class="node"><title>A</title>
<ellipse fill="none" stroke="black" cx="29" cy="-144" rx="27" ry="18"/>
<text text-anchor="middle" x="29" y="-140.3" font-family="Times,serif" font-size="14.00">A</text>
</g>
<!-- B -->
<g id="node2" class="node"><title>B</title>
<ellipse fill="none" stroke="black" cx="87" cy="-144" rx="27" ry="18"/>
<text text-anchor="middle" x="87" y="-140.3" font-family="Times,serif" font-size="14.00">B</text>
</g>
<!-- A&#45;&#45;B -->
<g id="edge1" class="edge"><title>A&#45;&#45;B</title>
<path fill="none" stroke="black" d="M56.3016,-144C57.4769,-144 58.6559,-144 59.8309,-144"/>
</g>
<!-- D -->
<g id="node4" class="node"><title>D</title>
<ellipse fill="none" stroke="black" cx="149" cy="-144" rx="27" ry="18"/>
<text text-anchor="middle" x="149" y="-140.3" font-family="Times,serif" font-size="14.00">D</text>
</g>
<!-- A&#45;&#45;D -->
<g id="edge10" class="edge"><title>A&#45;&#45;D</title>
<path fill="none" stroke="black" d="M56.2299,-144C75.8686,-144 102.264,-144 121.878,-144"/>
</g>
<!-- C -->
<g id="node3" class="node"><title>C</title>
<ellipse fill="none" stroke="black" cx="29" cy="-104" rx="27" ry="18"/>
<text text-anchor="middle" x="29" y="-100.3" font-family="Times,serif" font-size="14.00">C</text>
</g>
<!-- B&#45;&#45;C -->
<g id="edge2" class="edge"><title>B&#45;&#45;C</title>
<path fill="none" stroke="black" d="M68.0086,-130.903C61.5333,-126.437 54.2991,-121.448 47.8359,-116.99"/>
</g>
<!-- G -->
<g id="node7" class="node"><title>G</title>
<ellipse fill="none" stroke="black" cx="29" cy="-60" rx="27" ry="18"/>
<text text-anchor="middle" x="29" y="-56.3" font-family="Times,serif" font-size="14.00">G</text>
</g>
<!-- B&#45;&#45;G -->
<g id="edge11" class="edge"><title>B&#45;&#45;G</title>
<path fill="none" stroke="black" d="M75.5411,-127.404C65.3729,-112.678 50.5961,-91.2771 40.4351,-76.5612"/>
</g>
<!-- C&#45;&#45;A -->
<g id="edge3" class="edge"><title>C&#45;&#45;A</title>
<path fill="none" stroke="black" d="M29,-122.127C29,-123.285 29,-124.451 29,-125.61"/>
</g>
<!-- E -->
<g id="node5" class="node"><title>E</title>
<ellipse fill="none" stroke="black" cx="207" cy="-144" rx="27" ry="18"/>
<text text-anchor="middle" x="207" y="-140.3" font-family="Times,serif" font-size="14.00">E</text>
</g>
<!-- D&#45;&#45;E -->
<g id="edge4" class="edge"><title>D&#45;&#45;E</title>
<path fill="none" stroke="black" d="M176.302,-144C177.477,-144 178.656,-144 179.831,-144"/>
</g>
<!-- F -->
<g id="node6" class="node"><title>F</title>
<ellipse fill="none" stroke="black" cx="149" cy="-104" rx="27" ry="18"/>
<text text-anchor="middle" x="149" y="-100.3" font-family="Times,serif" font-size="14.00">F</text>
</g>
<!-- E&#45;&#45;F -->
<g id="edge5" class="edge"><title>E&#45;&#45;F</title>
<path fill="none" stroke="black" d="M188.009,-130.903C181.533,-126.437 174.299,-121.448 167.836,-116.99"/>
</g>
<!-- F&#45;&#45;D -->
<g id="edge6" class="edge"><title>F&#45;&#45;D</title>
<path fill="none" stroke="black" d="M149,-122.127C149,-123.285 149,-124.451 149,-125.61"/>
</g>
<!-- H -->
<g id="node8" class="node"><title>H</title>
<ellipse fill="none" stroke="black" cx="87" cy="-60" rx="27" ry="18"/>
<text text-anchor="middle" x="87" y="-56.3" font-family="Times,serif" font-size="14.00">H</text>
</g>
<!-- G&#45;&#45;H -->
<g id="edge7" class="edge"><title>G&#45;&#45;H</title>
<path fill="none" stroke="black" d="M56.3016,-60C57.4769,-60 58.6559,-60 59.8309,-60"/>
</g>
<!-- H&#45;&#45;E -->
<g id="edge12" class="edge"><title>H&#45;&#45;E</title>
<path fill="none" stroke="black" d="M105.75,-73.125C128.162,-88.8135 165.457,-114.92 187.986,-130.69"/>
</g>
<!-- I -->
<g id="node9" class="node"><title>I</title>
<ellipse fill="none" stroke="black" cx="29" cy="-20" rx="27" ry="18"/>
<text text-anchor="middle" x="29" y="-16.3" font-family="Times,serif" font-size="14.00">I</text>
</g>
<!-- H&#45;&#45;I -->
<g id="edge8" class="edge"><title>H&#45;&#45;I</title>
<path fill="none" stroke="black" d="M68.0086,-46.9025C61.5333,-42.4367 54.2991,-37.4476 47.8359,-32.9903"/>
</g>
<!-- I&#45;&#45;G -->
<g id="edge9" class="edge"><title>I&#45;&#45;G</title>
<path fill="none" stroke="black" d="M29,-38.1274C29,-39.285 29,-40.451 29,-41.6098"/>
</g>
</g>
</svg>
