<?xml version="1.0" encoding="UTF-8" standalone="no"?>
<!DOCTYPE svg PUBLIC "-//W3C//DTD SVG 1.1//EN"
 "http://www.w3.org/Graphics/SVG/1.1/DTD/svg11.dtd">
<!-- Generated by graphviz version 2.43.0 (0)
 -->
<!-- Title: %3 Pages: 1 -->
<svg width="244pt" height="172pt"
 viewBox="0.00 0.00 244.00 172.00" xmlns="http://www.w3.org/2000/svg" xmlns:xlink="http://www.w3.org/1999/xlink">
<g id="graph0" class="graph" transform="scale(1 1) rotate(0) translate(4 168)">
<title>%3</title>
<polygon fill="white" stroke="transparent" points="-4,4 -4,-168 240,-168 240,4 -4,4"/>
<g id="clust1" class="cluster">
<title>clusterA</title>
<polygon fill="none" stroke="black" points="0,-84 0,-164 116,-164 116,-84 0,-84"/>
</g>
<g id="clust2" class="cluster">
<title>clusterB</title>
<polygon fill="none" stroke="black" points="120,-84 120,-164 236,-164 236,-84 120,-84"/>
</g>
<g id="clust3" class="cluster">
<title>clusterC</title>
<polygon fill="none" stroke="black" points="0,0 0,-80 116,-80 116,0 0,0"/>
</g>
<!-- A -->
<g id="node1" class="node">
<title>A</title>
<ellipse fill="#f0e442" stroke="#e69f00" stroke-width="8" cx="29" cy="-144" rx="27" ry="18"/>
<text text-anchor="middle" x="29" y="-140.3" font-family="Times,serif" font-size="14.00">A</text>
</g>
<!-- B -->
<g id="node2" class="node">
<title>B</title>
<ellipse fill="#f0e442" stroke="#009e73" stroke-width="8" cx="87" cy="-144" rx="27" ry="18"/>
<text text-anchor="middle" x="87" y="-140.3" font-family="Times,serif" font-size="14.00">B</text>
</g>
<!-- A&#45;&#45;B -->
<g id="edge1" class="edge">
<title>A&#45;&#45;B</title>
<path fill="none" stroke="black" d="M56.3,-144C57.48,-144 58.66,-144 59.83,-144"/>
</g>
<!-- D -->
<g id="node4" class="node">
<title>D</title>
<ellipse fill="#56b4e9" stroke="#e69f00" stroke-width="8" cx="149" cy="-144" rx="27" ry="18"/>
<text text-anchor="middle" x="149" y="-140.3" font-family="Times,serif" font-size="14.00">D</text>
</g>
<!-- A&#45;&#45;D -->
<g id="edge10" class="edge">
<title>A&#45;&#45;D</title>
<path fill="none" stroke="black" d="M56.23,-144C75.87,-144 102.26,-144 121.88,-144"/>
</g>
<!-- C -->
<g id="node3" class="node">
<title>C</title>
<ellipse fill="#f0e442" stroke="#cc79a7" stroke-width="8" cx="29" cy="-104" rx="27" ry="18"/>
<text text-anchor="middle" x="29" y="-100.3" font-family="Times,serif" font-size="14.00">C</text>
</g>
<!-- B&#45;&#45;C -->
<g id="edge2" class="edge">
<title>B&#45;&#45;C</title>
<path fill="none" stroke="black" d="M68.01,-130.9C61.53,-126.44 54.3,-121.45 47.84,-116.99"/>
</g>
<!-- G -->
<g id="node7" class="node">
<title>G</title>
<ellipse fill="#d55e00" stroke="#e69f00" stroke-width="8" cx="29" cy="-60" rx="27" ry="18"/>
<text text-anchor="middle" x="29" y="-56.3" font-family="Times,serif" font-size="14.00">G</text>
</g>
<!-- B&#45;&#45;G -->
<g id="edge11" class="edge">
<title>B&#45;&#45;G</title>
<path fill="none" stroke="black" d="M75.54,-127.4C65.37,-112.68 50.6,-91.28 40.44,-76.56"/>
</g>
<!-- C&#45;&#45;A -->
<g id="edge3" class="edge">
<title>C&#45;&#45;A</title>
<path fill="none" stroke="black" d="M29,-122.13C29,-123.29 29,-124.45 29,-125.61"/>
</g>
<!-- E -->
<g id="node5" class="node">
<title>E</title>
<ellipse fill="#56b4e9" stroke="#009e73" stroke-width="8" cx="207" cy="-144" rx="27" ry="18"/>
<text text-anchor="middle" x="207" y="-140.3" font-family="Times,serif" font-size="14.00">E</text>
</g>
<!-- D&#45;&#45;E -->
<g id="edge4" class="edge">
<title>D&#45;&#45;E</title>
<path fill="none" stroke="black" d="M176.3,-144C177.48,-144 178.66,-144 179.83,-144"/>
</g>
<!-- F -->
<g id="node6" class="node">
<title>F</title>
<ellipse fill="#56b4e9" stroke="#cc79a7" stroke-width="8" cx="149" cy="-104" rx="27" ry="18"/>
<text text-anchor="middle" x="149" y="-100.3" font-family="Times,serif" font-size="14.00">F</text>
</g>
<!-- E&#45;&#45;F -->
<g id="edge5" class="edge">
<title>E&#45;&#45;F</title>
<path fill="none" stroke="black" d="M188.01,-130.9C181.53,-126.44 174.3,-121.45 167.84,-116.99"/>
</g>
<!-- F&#45;&#45;D -->
<g id="edge6" class="edge">
<title>F&#45;&#45;D</title>
<path fill="none" stroke="black" d="M149,-122.13C149,-123.29 149,-124.45 149,-125.61"/>
</g>
<!-- H -->
<g id="node8" class="node">
<title>H</title>
<ellipse fill="#d55e00" stroke="#009e73" stroke-width="8" cx="87" cy="-60" rx="27" ry="18"/>
<text text-anchor="middle" x="87" y="-56.3" font-family="Times,serif" font-size="14.00">H</text>
</g>
<!-- G&#45;&#45;H -->
<g id="edge7" class="edge">
<title>G&#45;&#45;H</title>
<path fill="none" stroke="black" d="M56.3,-60C57.48,-60 58.66,-60 59.83,-60"/>
</g>
<!-- H&#45;&#45;E -->
<g id="edge12" class="edge">
<title>H&#45;&#45;E</title>
<path fill="none" stroke="black" d="M105.75,-73.12C128.16,-88.81 165.46,-114.92 187.99,-130.69"/>
</g>
<!-- I -->
<g id="node9" class="node">
<title>I</title>
<ellipse fill="#d55e00" stroke="#cc79a7" stroke-width="8" cx="29" cy="-20" rx="27" ry="18"/>
<text text-anchor="middle" x="29" y="-16.3" font-family="Times,serif" font-size="14.00">I</text>
</g>
<!-- H&#45;&#45;I -->
<g id="edge8" class="edge">
<title>H&#45;&#45;I</title>
<path fill="none" stroke="black" d="M68.01,-46.9C61.53,-42.44 54.3,-37.45 47.84,-32.99"/>
</g>
<!-- I&#45;&#45;G -->
<g id="edge9" class="edge">
<title>I&#45;&#45;G</title>
<path fill="none" stroke="black" d="M29,-38.13C29,-39.29 29,-40.45 29,-41.61"/>
</g>
</g>
</svg>
