<?xml version="1.0" encoding="UTF-8" standalone="no"?>
<!DOCTYPE svg PUBLIC "-//W3C//DTD SVG 1.1//EN"
 "http://www.w3.org/Graphics/SVG/1.1/DTD/svg11.dtd">
<!-- Generated by graphviz version 2.38.0 (20140413.2041)
 -->
<!-- Title: blog_workflow Pages: 1 -->
<svg width="699pt" height="775pt"
 viewBox="0.00 0.00 698.54 775.48" xmlns="http://www.w3.org/2000/svg" xmlns:xlink="http://www.w3.org/1999/xlink">
<g id="graph0" class="graph" transform="scale(1 1) rotate(0) translate(4 771.48)">
<title>blog_workflow</title>
<polygon fill="white" stroke="none" points="-4,4 -4,-771.48 694.543,-771.48 694.543,4 -4,4"/>
<!-- vscode -->
<g id="node1" class="node"><title>vscode</title>
<ellipse fill="none" stroke="black" cx="438.597" cy="-662.48" rx="79.8859" ry="18"/>
<text text-anchor="middle" x="438.597" y="-658.78" font-family="Times,serif" font-size="14.00">Visual Studio Code</text>
</g>
<!-- git_local -->
<g id="node2" class="node"><title>git_local</title>
<ellipse fill="none" stroke="black" cx="221.597" cy="-575.48" rx="60.3893" ry="18"/>
<text text-anchor="middle" x="221.597" y="-571.78" font-family="Times,serif" font-size="14.00">Local git repo</text>
</g>
<!-- vscode&#45;&gt;git_local -->
<g id="edge1" class="edge"><title>vscode&#45;&gt;git_local</title>
<path fill="none" stroke="black" d="M400.302,-646.48C362.838,-631.805 305.804,-609.465 266.288,-593.986"/>
<polygon fill="black" stroke="black" points="267.229,-590.595 256.641,-590.207 264.676,-597.113 267.229,-590.595"/>
<text text-anchor="middle" x="310.097" y="-615.28" font-family="Times,serif" font-size="14.00">Primary interface for</text>
</g>
<!-- vscode&#45;&gt;git_local -->
<g id="edge2" class="edge"><title>vscode&#45;&gt;git_local</title>
<path fill="none" stroke="black" d="M400.302,-646.48C362.838,-631.805 305.804,-609.465 266.288,-593.986"/>
<polygon fill="black" stroke="black" points="267.229,-590.595 256.641,-590.207 264.676,-597.113 267.229,-590.595"/>
<text text-anchor="middle" x="424.597" y="-615.28" font-family="Times,serif" font-size="14.00">For writing to</text>
</g>
<!-- gv_preview -->
<g id="node3" class="node"><title>gv_preview</title>
<ellipse fill="none" stroke="black" cx="488.597" cy="-575.48" rx="27" ry="18"/>
<text text-anchor="middle" x="488.597" y="-571.78" font-family="Times,serif" font-size="14.00">Dot</text>
</g>
<!-- vscode&#45;&gt;gv_preview -->
<g id="edge3" class="edge"><title>vscode&#45;&gt;gv_preview</title>
<path fill="none" stroke="black" d="M448.716,-644.279C455.949,-631.982 465.797,-615.241 473.896,-601.472"/>
<polygon fill="black" stroke="black" points="477.117,-602.899 479.171,-592.506 471.084,-599.35 477.117,-602.899"/>
<text text-anchor="middle" x="498.597" y="-615.28" font-family="Times,serif" font-size="14.00">Previews</text>
</g>
<!-- md_preview -->
<g id="node4" class="node"><title>md_preview</title>
<ellipse fill="none" stroke="black" cx="583.597" cy="-575.48" rx="50.0912" ry="18"/>
<text text-anchor="middle" x="583.597" y="-571.78" font-family="Times,serif" font-size="14.00">Markdown</text>
</g>
<!-- vscode&#45;&gt;md_preview -->
<g id="edge4" class="edge"><title>vscode&#45;&gt;md_preview</title>
<path fill="none" stroke="black" d="M465.871,-645.492C489.544,-631.615 523.928,-611.459 549.43,-596.51"/>
<polygon fill="black" stroke="black" points="551.53,-599.335 558.387,-591.259 547.99,-593.297 551.53,-599.335"/>
<text text-anchor="middle" x="569.597" y="-615.28" font-family="Times,serif" font-size="14.00">Previews</text>
</g>
<!-- jekyll_local -->
<g id="node6" class="node"><title>jekyll_local</title>
<ellipse fill="none" stroke="black" cx="221.597" cy="-479.61" rx="60.2083" ry="26.7407"/>
<text text-anchor="middle" x="221.597" y="-483.41" font-family="Times,serif" font-size="14.00">Jekyll</text>
<text text-anchor="middle" x="221.597" y="-468.41" font-family="Times,serif" font-size="14.00">(locally&#45;run)</text>
</g>
<!-- git_local&#45;&gt;jekyll_local -->
<g id="edge6" class="edge"><title>git_local&#45;&gt;jekyll_local</title>
<path fill="none" stroke="black" d="M221.597,-557.263C221.597,-545.959 221.597,-530.749 221.597,-516.858"/>
<polygon fill="black" stroke="black" points="225.098,-516.579 221.597,-506.579 218.098,-516.579 225.098,-516.579"/>
<text text-anchor="middle" x="261.097" y="-528.28" font-family="Times,serif" font-size="14.00">Read from for</text>
</g>
<!-- gv_render -->
<g id="node7" class="node"><title>gv_render</title>
<ellipse fill="none" stroke="black" cx="97.5975" cy="-479.61" rx="45.4919" ry="18"/>
<text text-anchor="middle" x="97.5975" y="-475.91" font-family="Times,serif" font-size="14.00">GraphViz</text>
</g>
<!-- git_local&#45;&gt;gv_render -->
<g id="edge7" class="edge"><title>git_local&#45;&gt;gv_render</title>
<path fill="none" stroke="black" d="M200.563,-558.556C180.098,-543.065 148.857,-519.415 126.154,-502.228"/>
<polygon fill="black" stroke="black" points="127.996,-499.233 117.911,-495.988 123.771,-504.814 127.996,-499.233"/>
<text text-anchor="middle" x="178.097" y="-528.28" font-family="Times,serif" font-size="14.00">Read from for</text>
</g>
<!-- git_github -->
<g id="node8" class="node"><title>git_github</title>
<ellipse fill="none" stroke="black" cx="366.597" cy="-479.61" rx="66.8882" ry="18"/>
<text text-anchor="middle" x="366.597" y="-475.91" font-family="Times,serif" font-size="14.00">GitHub git repo</text>
</g>
<!-- git_local&#45;&gt;git_github -->
<g id="edge8" class="edge"><title>git_local&#45;&gt;git_github</title>
<path fill="none" stroke="black" d="M245.867,-558.768C269.77,-543.294 306.474,-519.533 333.138,-502.271"/>
<polygon fill="black" stroke="black" points="335.27,-505.06 341.763,-496.688 331.466,-499.184 335.27,-505.06"/>
<text text-anchor="middle" x="345.597" y="-528.28" font-family="Times,serif" font-size="14.00">Pushes to</text>
</g>
<!-- Content -->
<g id="node5" class="node"><title>Content</title>
<ellipse fill="none" stroke="black" cx="438.597" cy="-749.48" rx="38.1938" ry="18"/>
<text text-anchor="middle" x="438.597" y="-745.78" font-family="Times,serif" font-size="14.00">Content</text>
</g>
<!-- Content&#45;&gt;vscode -->
<g id="edge5" class="edge"><title>Content&#45;&gt;vscode</title>
<path fill="none" stroke="black" d="M438.597,-731.279C438.597,-719.643 438.597,-704.028 438.597,-690.717"/>
<polygon fill="black" stroke="black" points="442.098,-690.656 438.597,-680.656 435.098,-690.656 442.098,-690.656"/>
<text text-anchor="middle" x="471.597" y="-702.28" font-family="Times,serif" font-size="14.00">Authored in</text>
</g>
<!-- PNG -->
<g id="node9" class="node"><title>PNG</title>
<ellipse fill="none" stroke="black" cx="28.5975" cy="-662.48" rx="28.6953" ry="18"/>
<text text-anchor="middle" x="28.5975" y="-658.78" font-family="Times,serif" font-size="14.00">PNG</text>
</g>
<!-- gv_render&#45;&gt;PNG -->
<g id="edge9" class="edge"><title>gv_render&#45;&gt;PNG</title>
<path fill="none" stroke="black" d="M85.8926,-497.145C66.2065,-526.637 28.5975,-582.98 28.5975,-582.98 28.5975,-582.98 28.5975,-611.303 28.5975,-634.138"/>
<polygon fill="black" stroke="black" points="25.0976,-634.44 28.5975,-644.44 32.0976,-634.44 25.0976,-634.44"/>
<text text-anchor="middle" x="70.0975" y="-571.78" font-family="Times,serif" font-size="14.00">Renders Dot to</text>
</g>
<!-- SVG -->
<g id="node10" class="node"><title>SVG</title>
<ellipse fill="none" stroke="black" cx="152.597" cy="-662.48" rx="28.6953" ry="18"/>
<text text-anchor="middle" x="152.597" y="-658.78" font-family="Times,serif" font-size="14.00">SVG</text>
</g>
<!-- gv_render&#45;&gt;SVG -->
<g id="edge10" class="edge"><title>gv_render&#45;&gt;SVG</title>
<path fill="none" stroke="black" d="M128.739,-492.912C194.1,-520.831 339.597,-582.98 339.597,-582.98 339.597,-582.98 239.957,-625.341 186.142,-648.219"/>
<polygon fill="black" stroke="black" points="184.495,-645.116 176.662,-652.25 187.234,-651.558 184.495,-645.116"/>
<text text-anchor="middle" x="381.097" y="-571.78" font-family="Times,serif" font-size="14.00">Renders Dot to</text>
</g>
<!-- jekyll_gh -->
<g id="node11" class="node"><title>jekyll_gh</title>
<ellipse fill="none" stroke="black" cx="366.597" cy="-374.87" rx="84.2917" ry="26.7407"/>
<text text-anchor="middle" x="366.597" y="-378.67" font-family="Times,serif" font-size="14.00">Jekyll</text>
<text text-anchor="middle" x="366.597" y="-363.67" font-family="Times,serif" font-size="14.00">(on GitHub Pages)</text>
</g>
<!-- git_github&#45;&gt;jekyll_gh -->
<g id="edge11" class="edge"><title>git_github&#45;&gt;jekyll_gh</title>
<path fill="none" stroke="black" d="M366.597,-461.182C366.597,-447.717 366.597,-428.621 366.597,-411.909"/>
<polygon fill="black" stroke="black" points="370.098,-411.883 366.597,-401.883 363.098,-411.883 370.098,-411.883"/>
<text text-anchor="middle" x="382.597" y="-423.54" font-family="Times,serif" font-size="14.00">Feeds</text>
</g>
<!-- PNG&#45;&gt;git_local -->
<g id="edge15" class="edge"><title>PNG&#45;&gt;git_local</title>
<path fill="none" stroke="black" d="M51.495,-651.396C82.9761,-637.531 140.187,-612.334 179.503,-595.019"/>
<polygon fill="black" stroke="black" points="181.345,-598.032 189.086,-590.799 178.524,-591.626 181.345,-598.032"/>
<text text-anchor="middle" x="69.5975" y="-615.28" font-family="Times,serif" font-size="14.00">For writing to</text>
</g>
<!-- SVG&#45;&gt;git_local -->
<g id="edge16" class="edge"><title>SVG&#45;&gt;git_local</title>
<path fill="none" stroke="black" d="M165.253,-645.89C175.4,-633.39 189.83,-615.614 201.546,-601.181"/>
<polygon fill="black" stroke="black" points="204.493,-603.104 208.078,-593.134 199.059,-598.692 204.493,-603.104"/>
<text text-anchor="middle" x="192.597" y="-615.28" font-family="Times,serif" font-size="14.00">For writing to</text>
</g>
<!-- ga -->
<g id="node12" class="node"><title>ga</title>
<ellipse fill="none" stroke="black" cx="328.597" cy="-279" rx="72.5877" ry="18"/>
<text text-anchor="middle" x="328.597" y="-275.3" font-family="Times,serif" font-size="14.00">Google Analytics</text>
</g>
<!-- jekyll_gh&#45;&gt;ga -->
<g id="edge12" class="edge"><title>jekyll_gh&#45;&gt;ga</title>
<path fill="none" stroke="black" d="M356.113,-347.971C350.861,-334.998 344.515,-319.321 339.241,-306.293"/>
<polygon fill="black" stroke="black" points="342.45,-304.892 335.454,-296.936 335.962,-307.519 342.45,-304.892"/>
<text text-anchor="middle" x="376.597" y="-318.8" font-family="Times,serif" font-size="14.00">Integrates</text>
</g>
<!-- RSS -->
<g id="node13" class="node"><title>RSS</title>
<ellipse fill="none" stroke="black" cx="446.597" cy="-279" rx="27" ry="18"/>
<text text-anchor="middle" x="446.597" y="-275.3" font-family="Times,serif" font-size="14.00">RSS</text>
</g>
<!-- jekyll_gh&#45;&gt;RSS -->
<g id="edge13" class="edge"><title>jekyll_gh&#45;&gt;RSS</title>
<path fill="none" stroke="black" d="M388.036,-348.715C400.262,-334.369 415.461,-316.535 427.31,-302.631"/>
<polygon fill="black" stroke="black" points="430.03,-304.836 433.852,-294.955 424.702,-300.296 430.03,-304.836"/>
<text text-anchor="middle" x="444.097" y="-318.8" font-family="Times,serif" font-size="14.00">Generates</text>
</g>
<!-- IFTTT -->
<g id="node14" class="node"><title>IFTTT</title>
<ellipse fill="none" stroke="black" cx="446.597" cy="-192" rx="34.394" ry="18"/>
<text text-anchor="middle" x="446.597" y="-188.3" font-family="Times,serif" font-size="14.00">IFTTT</text>
</g>
<!-- RSS&#45;&gt;IFTTT -->
<g id="edge14" class="edge"><title>RSS&#45;&gt;IFTTT</title>
<path fill="none" stroke="black" d="M446.597,-260.799C446.597,-249.163 446.597,-233.548 446.597,-220.237"/>
<polygon fill="black" stroke="black" points="450.098,-220.175 446.597,-210.175 443.098,-220.175 450.098,-220.175"/>
<text text-anchor="middle" x="484.597" y="-231.8" font-family="Times,serif" font-size="14.00">Monitored by</text>
</g>
<!-- Twitter -->
<g id="node15" class="node"><title>Twitter</title>
<ellipse fill="none" stroke="black" cx="250.597" cy="-105" rx="36.2938" ry="18"/>
<text text-anchor="middle" x="250.597" y="-101.3" font-family="Times,serif" font-size="14.00">Twitter</text>
</g>
<!-- IFTTT&#45;&gt;Twitter -->
<g id="edge17" class="edge"><title>IFTTT&#45;&gt;Twitter</title>
<path fill="none" stroke="black" d="M420.974,-179.888C386.632,-164.995 325.5,-138.483 286.56,-121.596"/>
<polygon fill="black" stroke="black" points="287.735,-118.291 277.168,-117.523 284.95,-124.713 287.735,-118.291"/>
<text text-anchor="middle" x="365.597" y="-144.8" font-family="Times,serif" font-size="14.00">Post to</text>
</g>
<!-- Facebook -->
<g id="node16" class="node"><title>Facebook</title>
<ellipse fill="none" stroke="black" cx="349.597" cy="-105" rx="44.6926" ry="18"/>
<text text-anchor="middle" x="349.597" y="-101.3" font-family="Times,serif" font-size="14.00">Facebook</text>
</g>
<!-- IFTTT&#45;&gt;Facebook -->
<g id="edge18" class="edge"><title>IFTTT&#45;&gt;Facebook</title>
<path fill="none" stroke="black" d="M429.701,-176.194C414.639,-162.995 392.373,-143.484 375.137,-128.38"/>
<polygon fill="black" stroke="black" points="377.443,-125.747 367.615,-121.789 372.829,-131.012 377.443,-125.747"/>
<text text-anchor="middle" x="423.597" y="-144.8" font-family="Times,serif" font-size="14.00">Post to</text>
</g>
<!-- Reddit -->
<g id="node17" class="node"><title>Reddit</title>
<ellipse fill="none" stroke="black" cx="446.597" cy="-105" rx="34.394" ry="18"/>
<text text-anchor="middle" x="446.597" y="-101.3" font-family="Times,serif" font-size="14.00">Reddit</text>
</g>
<!-- IFTTT&#45;&gt;Reddit -->
<g id="edge19" class="edge"><title>IFTTT&#45;&gt;Reddit</title>
<path fill="none" stroke="black" d="M446.597,-173.799C446.597,-162.163 446.597,-146.548 446.597,-133.237"/>
<polygon fill="black" stroke="black" points="450.098,-133.175 446.597,-123.175 443.098,-133.175 450.098,-133.175"/>
<text text-anchor="middle" x="465.597" y="-144.8" font-family="Times,serif" font-size="14.00">Post to</text>
</g>
<!-- LinkedIn -->
<g id="node18" class="node"><title>LinkedIn</title>
<ellipse fill="none" stroke="black" cx="541.597" cy="-105" rx="42.7926" ry="18"/>
<text text-anchor="middle" x="541.597" y="-101.3" font-family="Times,serif" font-size="14.00">LinkedIn</text>
</g>
<!-- IFTTT&#45;&gt;LinkedIn -->
<g id="edge20" class="edge"><title>IFTTT&#45;&gt;LinkedIn</title>
<path fill="none" stroke="black" d="M463.145,-176.194C477.856,-163.032 499.581,-143.593 516.442,-128.507"/>
<polygon fill="black" stroke="black" points="519.158,-130.774 524.277,-121.498 514.49,-125.557 519.158,-130.774"/>
<text text-anchor="middle" x="523.597" y="-144.8" font-family="Times,serif" font-size="14.00">Post to</text>
</g>
<!-- Buffer -->
<g id="node19" class="node"><title>Buffer</title>
<ellipse fill="none" stroke="black" cx="636.597" cy="-105" rx="33.5952" ry="18"/>
<text text-anchor="middle" x="636.597" y="-101.3" font-family="Times,serif" font-size="14.00">Buffer</text>
</g>
<!-- IFTTT&#45;&gt;Buffer -->
<g id="edge21" class="edge"><title>IFTTT&#45;&gt;Buffer</title>
<path fill="none" stroke="black" d="M471.828,-179.713C505.28,-164.747 564.454,-138.275 602.04,-121.46"/>
<polygon fill="black" stroke="black" points="603.866,-124.477 611.565,-117.199 601.008,-118.087 603.866,-124.477"/>
<text text-anchor="middle" x="595.097" y="-144.8" font-family="Times,serif" font-size="14.00">Adds to</text>
</g>
<!-- gplus -->
<g id="node20" class="node"><title>gplus</title>
<ellipse fill="none" stroke="black" cx="636.597" cy="-18" rx="53.8905" ry="18"/>
<text text-anchor="middle" x="636.597" y="-14.3" font-family="Times,serif" font-size="14.00">Google Plus</text>
</g>
<!-- Buffer&#45;&gt;gplus -->
<g id="edge22" class="edge"><title>Buffer&#45;&gt;gplus</title>
<path fill="none" stroke="black" d="M636.597,-86.799C636.597,-75.1626 636.597,-59.5479 636.597,-46.2368"/>
<polygon fill="black" stroke="black" points="640.098,-46.1754 636.597,-36.1754 633.098,-46.1755 640.098,-46.1754"/>
<text text-anchor="middle" x="658.097" y="-57.8" font-family="Times,serif" font-size="14.00">Posts to</text>
</g>
</g>
</svg>
