<?xml version="1.0" encoding="UTF-8" standalone="no"?>
<!DOCTYPE svg PUBLIC "-//W3C//DTD SVG 1.1//EN"
 "http://www.w3.org/Graphics/SVG/1.1/DTD/svg11.dtd">
<!-- Generated by graphviz version 2.38.0 (20140413.2041)
 -->
<!-- Title: %3 Pages: 1 -->
<svg width="103pt" height="103pt"
 viewBox="0.00 0.00 102.87 102.87" xmlns="http://www.w3.org/2000/svg" xmlns:xlink="http://www.w3.org/1999/xlink">
<g id="graph0" class="graph" transform="scale(1 1) rotate(0) translate(4 98.8689)">
<title>%3</title>
<polygon fill="white" stroke="none" points="-4,4 -4,-98.8689 98.8689,-98.8689 98.8689,4 -4,4"/>
<!-- A -->
<g id="node1" class="node"><title>A</title>
<polygon fill="#f0e442" stroke="#e69f00" stroke-width="8" points="31.623,-94.8689 0,-94.8689 0,-63.2463 31.623,-63.2463 31.623,-94.8689"/>
<text text-anchor="middle" x="15.8115" y="-75.3576" font-family="Times,serif" font-size="14.00">A</text>
</g>
<!-- B -->
<g id="node2" class="node"><title>B</title>
<polygon fill="#f0e442" stroke="#009e73" stroke-width="8" points="63.2459,-94.8689 31.623,-94.8689 31.623,-63.2463 63.2459,-63.2463 63.2459,-94.8689"/>
<text text-anchor="middle" x="47.4344" y="-75.3576" font-family="Times,serif" font-size="14.00">B</text>
</g>
<!-- D -->
<g id="node4" class="node"><title>D</title>
<polygon fill="#56b4e9" stroke="#e69f00" stroke-width="8" points="31.6224,-63.2463 1.77636e-15,-63.2463 1.77636e-15,-31.6231 31.6224,-31.6231 31.6224,-63.2463"/>
<text text-anchor="middle" x="15.8112" y="-43.7347" font-family="Times,serif" font-size="14.00">D</text>
</g>
<!-- C -->
<g id="node3" class="node"><title>C</title>
<polygon fill="#f0e442" stroke="#cc79a7" stroke-width="8" points="94.8689,-94.8689 63.2459,-94.8689 63.2459,-63.2463 94.8689,-63.2463 94.8689,-94.8689"/>
<text text-anchor="middle" x="79.0574" y="-75.3576" font-family="Times,serif" font-size="14.00">C</text>
</g>
<!-- G -->
<g id="node7" class="node"><title>G</title>
<polygon fill="#d55e00" stroke="#e69f00" stroke-width="8" points="63.2449,-31.6231 31.6224,-31.6231 31.6224,3.55271e-15 63.2449,3.55271e-15 63.2449,-31.6231"/>
<text text-anchor="middle" x="47.4336" y="-12.1116" font-family="Times,serif" font-size="14.00">G</text>
</g>
<!-- E -->
<g id="node5" class="node"><title>E</title>
<polygon fill="#56b4e9" stroke="#009e73" stroke-width="8" points="31.6224,-31.6231 1.77636e-15,-31.6231 1.77636e-15,3.55271e-15 31.6224,3.55271e-15 31.6224,-31.6231"/>
<text text-anchor="middle" x="15.8112" y="-12.1116" font-family="Times,serif" font-size="14.00">E</text>
</g>
<!-- F -->
<g id="node6" class="node"><title>F</title>
<polygon fill="#56b4e9" stroke="#cc79a7" stroke-width="8" points="63.2449,-63.2463 31.6224,-63.2463 31.6224,-31.6231 63.2449,-31.6231 63.2449,-63.2463"/>
<text text-anchor="middle" x="47.4336" y="-43.7347" font-family="Times,serif" font-size="14.00">F</text>
</g>
<!-- H -->
<g id="node8" class="node"><title>H</title>
<polygon fill="#d55e00" stroke="#009e73" stroke-width="8" points="94.8689,-63.2463 63.2449,-63.2463 63.2449,-31.6247 94.8689,-31.6247 94.8689,-63.2463"/>
<text text-anchor="middle" x="79.0569" y="-43.7355" font-family="Times,serif" font-size="14.00">H</text>
</g>
<!-- I -->
<g id="node9" class="node"><title>I</title>
<polygon fill="#d55e00" stroke="#cc79a7" stroke-width="8" points="94.8689,-31.6247 63.2449,-31.6247 63.2449,-0.00316215 94.8689,-0.00316215 94.8689,-31.6247"/>
<text text-anchor="middle" x="79.0569" y="-12.1139" font-family="Times,serif" font-size="14.00">I</text>
</g>
</g>
</svg>
