<?xml version="1.0" encoding="UTF-8" standalone="no"?>
<!DOCTYPE svg PUBLIC "-//W3C//DTD SVG 1.1//EN"
 "http://www.w3.org/Graphics/SVG/1.1/DTD/svg11.dtd">
<!-- Generated by graphviz version 2.43.0 (0)
 -->
<!-- Title: %3 Pages: 1 -->
<svg width="103pt" height="103pt"
 viewBox="0.00 0.00 102.87 102.87" xmlns="http://www.w3.org/2000/svg" xmlns:xlink="http://www.w3.org/1999/xlink">
<g id="graph0" class="graph" transform="scale(1 1) rotate(0) translate(4 98.87)">
<title>%3</title>
<polygon fill="white" stroke="transparent" points="-4,4 -4,-98.87 98.87,-98.87 98.87,4 -4,4"/>
<g id="clust1" class="cluster">
<title>clusterA</title>
<polygon fill="none" stroke="black" points="0,-31.62 0,-94.87 47.43,-94.87 47.43,-31.62 0,-31.62"/>
</g>
<g id="clust2" class="cluster">
<title>clusterB</title>
<polygon fill="none" stroke="black" points="47.43,-31.62 47.43,-94.87 94.87,-94.87 94.87,-31.62 47.43,-31.62"/>
</g>
<g id="clust3" class="cluster">
<title>clusterC</title>
<polygon fill="none" stroke="black" points="0,0 0,-31.62 94.87,-31.62 94.87,0 0,0"/>
</g>
<!-- A -->
<g id="node1" class="node">
<title>A</title>
<polygon fill="#f0e442" stroke="#e69f00" stroke-width="8" points="23.72,-94.87 0,-94.87 0,-52.71 23.72,-52.71 23.72,-94.87"/>
<text text-anchor="middle" x="11.86" y="-70.09" font-family="Times,serif" font-size="14.00">A</text>
</g>
<!-- B -->
<g id="node2" class="node">
<title>B</title>
<polygon fill="#f0e442" stroke="#009e73" stroke-width="8" points="47.43,-94.87 23.72,-94.87 23.72,-52.71 47.43,-52.71 47.43,-94.87"/>
<text text-anchor="middle" x="35.58" y="-70.09" font-family="Times,serif" font-size="14.00">B</text>
</g>
<!-- D -->
<g id="node4" class="node">
<title>D</title>
<polygon fill="#56b4e9" stroke="#e69f00" stroke-width="8" points="71.15,-94.87 47.43,-94.87 47.43,-52.71 71.15,-52.71 71.15,-94.87"/>
<text text-anchor="middle" x="59.29" y="-70.09" font-family="Times,serif" font-size="14.00">D</text>
</g>
<!-- C -->
<g id="node3" class="node">
<title>C</title>
<polygon fill="#f0e442" stroke="#cc79a7" stroke-width="8" points="47.43,-52.71 0,-52.71 0,-31.62 47.43,-31.62 47.43,-52.71"/>
<text text-anchor="middle" x="23.72" y="-38.46" font-family="Times,serif" font-size="14.00">C</text>
</g>
<!-- G -->
<g id="node7" class="node">
<title>G</title>
<polygon fill="#d55e00" stroke="#e69f00" stroke-width="8" points="31.62,-31.62 0,-31.62 0,0 31.62,0 31.62,-31.62"/>
<text text-anchor="middle" x="15.81" y="-12.11" font-family="Times,serif" font-size="14.00">G</text>
</g>
<!-- E -->
<g id="node5" class="node">
<title>E</title>
<polygon fill="#56b4e9" stroke="#009e73" stroke-width="8" points="94.87,-94.87 71.15,-94.87 71.15,-52.71 94.87,-52.71 94.87,-94.87"/>
<text text-anchor="middle" x="83.01" y="-70.09" font-family="Times,serif" font-size="14.00">E</text>
</g>
<!-- F -->
<g id="node6" class="node">
<title>F</title>
<polygon fill="#56b4e9" stroke="#cc79a7" stroke-width="8" points="94.87,-52.71 47.43,-52.71 47.43,-31.62 94.87,-31.62 94.87,-52.71"/>
<text text-anchor="middle" x="71.15" y="-38.46" font-family="Times,serif" font-size="14.00">F</text>
</g>
<!-- H -->
<g id="node8" class="node">
<title>H</title>
<polygon fill="#d55e00" stroke="#009e73" stroke-width="8" points="63.24,-31.62 31.62,-31.62 31.62,0 63.24,0 63.24,-31.62"/>
<text text-anchor="middle" x="47.43" y="-12.11" font-family="Times,serif" font-size="14.00">H</text>
</g>
<!-- I -->
<g id="node9" class="node">
<title>I</title>
<polygon fill="#d55e00" stroke="#cc79a7" stroke-width="8" points="94.87,-31.62 63.24,-31.62 63.24,0 94.87,0 94.87,-31.62"/>
<text text-anchor="middle" x="79.05" y="-12.11" font-family="Times,serif" font-size="14.00">I</text>
</g>
</g>
</svg>
