<?xml version="1.0" encoding="UTF-8" standalone="no"?>
<!DOCTYPE svg PUBLIC "-//W3C//DTD SVG 1.1//EN"
 "http://www.w3.org/Graphics/SVG/1.1/DTD/svg11.dtd">
<!-- Generated by graphviz version 2.43.0 (0)
 -->
<!-- Title: blog_workflow Pages: 1 -->
<svg width="661pt" height="1248pt"
 viewBox="0.00 0.00 660.74 1248.48" xmlns="http://www.w3.org/2000/svg" xmlns:xlink="http://www.w3.org/1999/xlink">
<g id="graph0" class="graph" transform="scale(1 1) rotate(0) translate(4 1244.48)">
<title>blog_workflow</title>
<polygon fill="white" stroke="transparent" points="-4,4 -4,-1244.48 656.74,-1244.48 656.74,4 -4,4"/>
<!-- content_vscode_label -->
<g id="node1" class="node">
<title>content_vscode_label</title>
<text text-anchor="middle" x="277.79" y="-1146.78" font-family="Times,serif" font-size="14.00">Authored in</text>
</g>
<!-- vscode -->
<g id="node2" class="node">
<title>vscode</title>
<ellipse fill="none" stroke="black" cx="277.79" cy="-1078.48" rx="98.58" ry="18"/>
<text text-anchor="middle" x="277.79" y="-1074.78" font-family="Times,serif" font-size="14.00">Visual Studio Code</text>
</g>
<!-- content_vscode_label&#45;&gt;vscode -->
<g id="edge1" class="edge">
<title>content_vscode_label&#45;&gt;vscode</title>
<path fill="none" stroke="black" d="M277.79,-1132.18C277.79,-1124.46 277.79,-1115.19 277.79,-1106.59"/>
<polygon fill="black" stroke="black" points="281.29,-1106.58 277.79,-1096.58 274.29,-1106.58 281.29,-1106.58"/>
</g>
<!-- vscode_git_label -->
<g id="node4" class="node">
<title>vscode_git_label</title>
<text text-anchor="middle" x="277.79" y="-1009.28" font-family="Times,serif" font-size="14.00">Primary</text>
<text text-anchor="middle" x="277.79" y="-994.28" font-family="Times,serif" font-size="14.00">Interface</text>
<text text-anchor="middle" x="277.79" y="-979.28" font-family="Times,serif" font-size="14.00">For</text>
</g>
<!-- vscode&#45;&gt;vscode_git_label -->
<g id="edge3" class="edge">
<title>vscode&#45;&gt;vscode_git_label</title>
<path fill="none" stroke="black" d="M277.79,-1060.45C277.79,-1052.93 277.79,-1043.79 277.79,-1034.88"/>
<polygon fill="black" stroke="black" points="281.29,-1034.64 277.79,-1024.64 274.29,-1034.64 281.29,-1034.64"/>
</g>
<!-- vscode_preview_label -->
<g id="node5" class="node">
<title>vscode_preview_label</title>
<text text-anchor="middle" x="177.79" y="-994.28" font-family="Times,serif" font-size="14.00">Previews</text>
</g>
<!-- vscode&#45;&gt;vscode_preview_label -->
<g id="edge4" class="edge">
<title>vscode&#45;&gt;vscode_preview_label</title>
<path fill="none" stroke="black" d="M256.59,-1060.83C242.33,-1049.64 223.34,-1034.73 207.57,-1022.36"/>
<polygon fill="black" stroke="black" points="209.69,-1019.57 199.66,-1016.15 205.37,-1025.07 209.69,-1019.57"/>
</g>
<!-- git_write_label -->
<g id="node6" class="node">
<title>git_write_label</title>
<text text-anchor="middle" x="394.79" y="-994.28" font-family="Times,serif" font-size="14.00">For writing to</text>
</g>
<!-- vscode&#45;&gt;git_write_label -->
<g id="edge5" class="edge">
<title>vscode&#45;&gt;git_write_label</title>
<path fill="none" stroke="black" d="M302.32,-1061.02C319.21,-1049.69 341.89,-1034.48 360.56,-1021.95"/>
<polygon fill="black" stroke="black" points="362.73,-1024.71 369.08,-1016.23 358.83,-1018.9 362.73,-1024.71"/>
</g>
<!-- Content -->
<g id="node3" class="node">
<title>Content</title>
<ellipse fill="none" stroke="black" cx="277.79" cy="-1222.48" rx="48.19" ry="18"/>
<text text-anchor="middle" x="277.79" y="-1218.78" font-family="Times,serif" font-size="14.00">Content</text>
</g>
<!-- Content&#45;&gt;content_vscode_label -->
<g id="edge2" class="edge">
<title>Content&#45;&gt;content_vscode_label</title>
<path fill="none" stroke="black" d="M277.79,-1204.18C277.79,-1196.46 277.79,-1187.19 277.79,-1178.59"/>
<polygon fill="black" stroke="black" points="281.29,-1178.58 277.79,-1168.58 274.29,-1178.58 281.29,-1178.58"/>
</g>
<!-- git_local -->
<g id="node7" class="node">
<title>git_local</title>
<ellipse fill="none" stroke="black" cx="370.79" cy="-917.48" rx="74.99" ry="18"/>
<text text-anchor="middle" x="370.79" y="-913.78" font-family="Times,serif" font-size="14.00">Local git repo</text>
</g>
<!-- vscode_git_label&#45;&gt;git_local -->
<g id="edge6" class="edge">
<title>vscode_git_label&#45;&gt;git_local</title>
<path fill="none" stroke="black" d="M308.25,-971.28C319.59,-961.71 332.38,-950.91 343.42,-941.59"/>
<polygon fill="black" stroke="black" points="345.73,-944.22 351.11,-935.1 341.21,-938.87 345.73,-944.22"/>
</g>
<!-- gv_preview -->
<g id="node8" class="node">
<title>gv_preview</title>
<ellipse fill="none" stroke="black" cx="202.79" cy="-917.48" rx="27.1" ry="18"/>
<text text-anchor="middle" x="202.79" y="-913.78" font-family="Times,serif" font-size="14.00">Dot</text>
</g>
<!-- vscode_preview_label&#45;&gt;gv_preview -->
<g id="edge7" class="edge">
<title>vscode_preview_label&#45;&gt;gv_preview</title>
<path fill="none" stroke="black" d="M183.22,-979.95C186.48,-969.69 190.71,-956.42 194.4,-944.84"/>
<polygon fill="black" stroke="black" points="197.77,-945.8 197.47,-935.21 191.1,-943.68 197.77,-945.8"/>
</g>
<!-- md_preview -->
<g id="node9" class="node">
<title>md_preview</title>
<ellipse fill="none" stroke="black" cx="59.79" cy="-917.48" rx="59.59" ry="18"/>
<text text-anchor="middle" x="59.79" y="-913.78" font-family="Times,serif" font-size="14.00">Markdown</text>
</g>
<!-- vscode_preview_label&#45;&gt;md_preview -->
<g id="edge8" class="edge">
<title>vscode_preview_label&#45;&gt;md_preview</title>
<path fill="none" stroke="black" d="M152.19,-979.95C134.44,-968.14 110.67,-952.33 91.69,-939.7"/>
<polygon fill="black" stroke="black" points="93.61,-936.77 83.34,-934.15 89.73,-942.6 93.61,-936.77"/>
</g>
<!-- git_write_label&#45;&gt;git_local -->
<g id="edge9" class="edge">
<title>git_write_label&#45;&gt;git_local</title>
<path fill="none" stroke="black" d="M389.59,-979.95C386.47,-969.76 382.45,-956.6 378.93,-945.08"/>
<polygon fill="black" stroke="black" points="382.26,-944.02 375.99,-935.48 375.57,-946.07 382.26,-944.02"/>
</g>
<!-- git_local_source_label -->
<g id="node10" class="node">
<title>git_local_source_label</title>
<text text-anchor="middle" x="454.79" y="-841.78" font-family="Times,serif" font-size="14.00">Read from for</text>
</g>
<!-- git_local&#45;&gt;git_local_source_label -->
<g id="edge10" class="edge">
<title>git_local&#45;&gt;git_local_source_label</title>
<path fill="none" stroke="black" d="M390.7,-899.89C401.34,-891.02 414.63,-879.95 426.35,-870.19"/>
<polygon fill="black" stroke="black" points="428.71,-872.77 434.15,-863.68 424.23,-867.39 428.71,-872.77"/>
</g>
<!-- git_local_github_label -->
<g id="node11" class="node">
<title>git_local_github_label</title>
<text text-anchor="middle" x="285.79" y="-841.78" font-family="Times,serif" font-size="14.00">Pushes to</text>
</g>
<!-- git_local&#45;&gt;git_local_github_label -->
<g id="edge11" class="edge">
<title>git_local&#45;&gt;git_local_github_label</title>
<path fill="none" stroke="black" d="M350.65,-899.89C339.88,-891.02 326.43,-879.95 314.58,-870.19"/>
<polygon fill="black" stroke="black" points="316.63,-867.34 306.68,-863.68 312.18,-872.74 316.63,-867.34"/>
</g>
<!-- jekyll_local -->
<g id="node12" class="node">
<title>jekyll_local</title>
<ellipse fill="none" stroke="black" cx="454.79" cy="-764.61" rx="72.25" ry="26.74"/>
<text text-anchor="middle" x="454.79" y="-768.41" font-family="Times,serif" font-size="14.00">Jekyll</text>
<text text-anchor="middle" x="454.79" y="-753.41" font-family="Times,serif" font-size="14.00">(locally&#45;run)</text>
</g>
<!-- git_local_source_label&#45;&gt;jekyll_local -->
<g id="edge12" class="edge">
<title>git_local_source_label&#45;&gt;jekyll_local</title>
<path fill="none" stroke="black" d="M454.79,-827.37C454.79,-819.88 454.79,-810.79 454.79,-801.91"/>
<polygon fill="black" stroke="black" points="458.29,-801.69 454.79,-791.69 451.29,-801.69 458.29,-801.69"/>
</g>
<!-- gv_render -->
<g id="node13" class="node">
<title>gv_render</title>
<ellipse fill="none" stroke="black" cx="598.79" cy="-764.61" rx="53.89" ry="18"/>
<text text-anchor="middle" x="598.79" y="-760.91" font-family="Times,serif" font-size="14.00">GraphViz</text>
</g>
<!-- git_local_source_label&#45;&gt;gv_render -->
<g id="edge13" class="edge">
<title>git_local_source_label&#45;&gt;gv_render</title>
<path fill="none" stroke="black" d="M486.04,-827.37C508.68,-814.97 539.33,-798.18 562.96,-785.24"/>
<polygon fill="black" stroke="black" points="564.88,-788.18 571.97,-780.3 561.51,-782.04 564.88,-788.18"/>
</g>
<!-- git_github -->
<g id="node14" class="node">
<title>git_github</title>
<ellipse fill="none" stroke="black" cx="280.79" cy="-764.61" rx="83.69" ry="18"/>
<text text-anchor="middle" x="280.79" y="-760.91" font-family="Times,serif" font-size="14.00">GitHub git repo</text>
</g>
<!-- git_local_github_label&#45;&gt;git_github -->
<g id="edge14" class="edge">
<title>git_local_github_label&#45;&gt;git_github</title>
<path fill="none" stroke="black" d="M284.71,-827.37C284.07,-817.24 283.24,-804.18 282.51,-792.68"/>
<polygon fill="black" stroke="black" points="286,-792.45 281.88,-782.69 279.02,-792.89 286,-792.45"/>
</g>
<!-- gv_render_label -->
<g id="node20" class="node">
<title>gv_render_label</title>
<text text-anchor="middle" x="533.79" y="-994.28" font-family="Times,serif" font-size="14.00">Renders Dot to</text>
</g>
<!-- gv_render&#45;&gt;gv_render_label -->
<g id="edge19" class="edge">
<title>gv_render&#45;&gt;gv_render_label</title>
<path fill="none" stroke="black" d="M593.72,-782.84C582.42,-823.4 555.14,-921.36 541.63,-969.84"/>
<polygon fill="black" stroke="black" points="538.21,-969.1 538.9,-979.67 544.95,-970.97 538.21,-969.1"/>
</g>
<!-- git_github_jekyll_label -->
<g id="node23" class="node">
<title>git_github_jekyll_label</title>
<text text-anchor="middle" x="280.79" y="-680.04" font-family="Times,serif" font-size="14.00">Feeds</text>
</g>
<!-- git_github&#45;&gt;git_github_jekyll_label -->
<g id="edge22" class="edge">
<title>git_github&#45;&gt;git_github_jekyll_label</title>
<path fill="none" stroke="black" d="M280.79,-746.5C280.79,-736.47 280.79,-723.58 280.79,-712.16"/>
<polygon fill="black" stroke="black" points="284.29,-711.82 280.79,-701.82 277.29,-711.82 284.29,-711.82"/>
</g>
<!-- ga -->
<g id="node15" class="node">
<title>ga</title>
<ellipse fill="none" stroke="black" cx="213.79" cy="-450" rx="88.28" ry="18"/>
<text text-anchor="middle" x="213.79" y="-446.3" font-family="Times,serif" font-size="14.00">Google Analytics</text>
</g>
<!-- jekyll_gh -->
<g id="node16" class="node">
<title>jekyll_gh</title>
<ellipse fill="none" stroke="black" cx="280.79" cy="-602.87" rx="103.89" ry="26.74"/>
<text text-anchor="middle" x="280.79" y="-606.67" font-family="Times,serif" font-size="14.00">Jekyll</text>
<text text-anchor="middle" x="280.79" y="-591.67" font-family="Times,serif" font-size="14.00">(on GitHub Pages)</text>
</g>
<!-- jekyll_gh_ga_label -->
<g id="node17" class="node">
<title>jekyll_gh_ga_label</title>
<text text-anchor="middle" x="226.79" y="-518.3" font-family="Times,serif" font-size="14.00">Integrates</text>
</g>
<!-- jekyll_gh&#45;&gt;jekyll_gh_ga_label -->
<g id="edge15" class="edge">
<title>jekyll_gh&#45;&gt;jekyll_gh_ga_label</title>
<path fill="none" stroke="black" d="M263.11,-576.05C257.12,-567.28 250.42,-557.5 244.42,-548.75"/>
<polygon fill="black" stroke="black" points="247.25,-546.69 238.72,-540.41 241.48,-550.64 247.25,-546.69"/>
</g>
<!-- jekyll_gh_RSS_label -->
<g id="node18" class="node">
<title>jekyll_gh_RSS_label</title>
<text text-anchor="middle" x="342.79" y="-518.3" font-family="Times,serif" font-size="14.00">Generates</text>
</g>
<!-- jekyll_gh&#45;&gt;jekyll_gh_RSS_label -->
<g id="edge16" class="edge">
<title>jekyll_gh&#45;&gt;jekyll_gh_RSS_label</title>
<path fill="none" stroke="black" d="M300.75,-576.48C307.91,-567.38 315.97,-557.13 323.1,-548.05"/>
<polygon fill="black" stroke="black" points="325.91,-550.14 329.34,-540.12 320.41,-545.82 325.91,-550.14"/>
</g>
<!-- jekyll_gh_ga_label&#45;&gt;ga -->
<g id="edge17" class="edge">
<title>jekyll_gh_ga_label&#45;&gt;ga</title>
<path fill="none" stroke="black" d="M223.58,-503.7C222.15,-495.98 220.43,-486.71 218.83,-478.11"/>
<polygon fill="black" stroke="black" points="222.24,-477.3 216.97,-468.1 215.36,-478.58 222.24,-477.3"/>
</g>
<!-- RSS -->
<g id="node19" class="node">
<title>RSS</title>
<ellipse fill="none" stroke="black" cx="349.79" cy="-450" rx="29.8" ry="18"/>
<text text-anchor="middle" x="349.79" y="-446.3" font-family="Times,serif" font-size="14.00">RSS</text>
</g>
<!-- jekyll_gh_RSS_label&#45;&gt;RSS -->
<g id="edge18" class="edge">
<title>jekyll_gh_RSS_label&#45;&gt;RSS</title>
<path fill="none" stroke="black" d="M344.53,-503.7C345.3,-495.98 346.22,-486.71 347.08,-478.11"/>
<polygon fill="black" stroke="black" points="350.57,-478.4 348.08,-468.1 343.61,-477.71 350.57,-478.4"/>
</g>
<!-- RSS_IFTT_label -->
<g id="node24" class="node">
<title>RSS_IFTT_label</title>
<text text-anchor="middle" x="349.79" y="-374.3" font-family="Times,serif" font-size="14.00">Monitored by</text>
</g>
<!-- RSS&#45;&gt;RSS_IFTT_label -->
<g id="edge28" class="edge">
<title>RSS&#45;&gt;RSS_IFTT_label</title>
<path fill="none" stroke="black" d="M349.79,-431.7C349.79,-423.98 349.79,-414.71 349.79,-406.11"/>
<polygon fill="black" stroke="black" points="353.29,-406.1 349.79,-396.1 346.29,-406.1 353.29,-406.1"/>
</g>
<!-- PNG -->
<g id="node21" class="node">
<title>PNG</title>
<ellipse fill="none" stroke="black" cx="526.79" cy="-1078.48" rx="32.49" ry="18"/>
<text text-anchor="middle" x="526.79" y="-1074.78" font-family="Times,serif" font-size="14.00">PNG</text>
</g>
<!-- gv_render_label&#45;&gt;PNG -->
<g id="edge20" class="edge">
<title>gv_render_label&#45;&gt;PNG</title>
<path fill="none" stroke="black" d="M537.96,-1016.15C538.14,-1026.31 537.22,-1039.4 535.6,-1050.88"/>
<polygon fill="black" stroke="black" points="532.13,-1050.39 533.92,-1060.83 539.03,-1051.55 532.13,-1050.39"/>
</g>
<!-- SVG -->
<g id="node22" class="node">
<title>SVG</title>
<ellipse fill="none" stroke="black" cx="438.79" cy="-1078.48" rx="30.59" ry="18"/>
<text text-anchor="middle" x="438.79" y="-1074.78" font-family="Times,serif" font-size="14.00">SVG</text>
</g>
<!-- gv_render_label&#45;&gt;SVG -->
<g id="edge21" class="edge">
<title>gv_render_label&#45;&gt;SVG</title>
<path fill="none" stroke="black" d="M518.61,-1016.24C504.8,-1028.75 484.4,-1045.66 467.58,-1058.54"/>
<polygon fill="black" stroke="black" points="465.06,-1056.06 459.17,-1064.87 469.27,-1061.66 465.06,-1056.06"/>
</g>
<!-- PNG&#45;&gt;git_write_label -->
<g id="edge24" class="edge">
<title>PNG&#45;&gt;git_write_label</title>
<path fill="none" stroke="black" d="M505.29,-1064.69C485.6,-1052.98 456.01,-1035.39 432.41,-1021.35"/>
<polygon fill="black" stroke="black" points="434.08,-1018.27 423.69,-1016.16 430.5,-1024.28 434.08,-1018.27"/>
</g>
<!-- PNG&#45;&gt;gv_render_label -->
<!-- SVG&#45;&gt;git_write_label -->
<g id="edge26" class="edge">
<title>SVG&#45;&gt;git_write_label</title>
<path fill="none" stroke="black" d="M429.68,-1061.21C423.84,-1050.8 416.13,-1037.04 409.44,-1025.12"/>
<polygon fill="black" stroke="black" points="412.3,-1023.05 404.36,-1016.04 406.19,-1026.47 412.3,-1023.05"/>
</g>
<!-- SVG&#45;&gt;gv_render_label -->
<!-- git_github_jekyll_label&#45;&gt;jekyll_gh -->
<g id="edge23" class="edge">
<title>git_github_jekyll_label&#45;&gt;jekyll_gh</title>
<path fill="none" stroke="black" d="M280.79,-665.63C280.79,-658.14 280.79,-649.05 280.79,-640.17"/>
<polygon fill="black" stroke="black" points="284.29,-639.95 280.79,-629.95 277.29,-639.95 284.29,-639.95"/>
</g>
<!-- IFTTT -->
<g id="node25" class="node">
<title>IFTTT</title>
<ellipse fill="none" stroke="black" cx="349.79" cy="-306" rx="38.99" ry="18"/>
<text text-anchor="middle" x="349.79" y="-302.3" font-family="Times,serif" font-size="14.00">IFTTT</text>
</g>
<!-- RSS_IFTT_label&#45;&gt;IFTTT -->
<g id="edge29" class="edge">
<title>RSS_IFTT_label&#45;&gt;IFTTT</title>
<path fill="none" stroke="black" d="M349.79,-359.7C349.79,-351.98 349.79,-342.71 349.79,-334.11"/>
<polygon fill="black" stroke="black" points="353.29,-334.1 349.79,-324.1 346.29,-334.1 353.29,-334.1"/>
</g>
<!-- IFTTT_post_label -->
<g id="node26" class="node">
<title>IFTTT_post_label</title>
<text text-anchor="middle" x="306.79" y="-230.3" font-family="Times,serif" font-size="14.00">Post to</text>
</g>
<!-- IFTTT&#45;&gt;IFTTT_post_label -->
<g id="edge30" class="edge">
<title>IFTTT&#45;&gt;IFTTT_post_label</title>
<path fill="none" stroke="black" d="M339.6,-288.41C334.61,-280.28 328.48,-270.31 322.88,-261.18"/>
<polygon fill="black" stroke="black" points="325.73,-259.14 317.51,-252.45 319.76,-262.8 325.73,-259.14"/>
</g>
<!-- IFTTT_buffer_label -->
<g id="node27" class="node">
<title>IFTTT_buffer_label</title>
<text text-anchor="middle" x="456.79" y="-230.3" font-family="Times,serif" font-size="14.00">Adds to</text>
</g>
<!-- IFTTT&#45;&gt;IFTTT_buffer_label -->
<g id="edge31" class="edge">
<title>IFTTT&#45;&gt;IFTTT_buffer_label</title>
<path fill="none" stroke="black" d="M371.45,-290.83C386.01,-281.31 405.52,-268.55 422.21,-257.63"/>
<polygon fill="black" stroke="black" points="424.18,-260.52 430.64,-252.11 420.35,-254.66 424.18,-260.52"/>
</g>
<!-- Twitter -->
<g id="node28" class="node">
<title>Twitter</title>
<ellipse fill="none" stroke="black" cx="189.79" cy="-162" rx="44.69" ry="18"/>
<text text-anchor="middle" x="189.79" y="-158.3" font-family="Times,serif" font-size="14.00">Twitter</text>
</g>
<!-- IFTTT_post_label&#45;&gt;Twitter -->
<g id="edge32" class="edge">
<title>IFTTT_post_label&#45;&gt;Twitter</title>
<path fill="none" stroke="black" d="M278.17,-215.88C261.35,-205.81 240.02,-193.05 222.53,-182.59"/>
<polygon fill="black" stroke="black" points="224.16,-179.48 213.78,-177.35 220.57,-185.49 224.16,-179.48"/>
</g>
<!-- Facebook -->
<g id="node29" class="node">
<title>Facebook</title>
<ellipse fill="none" stroke="black" cx="306.79" cy="-162" rx="53.89" ry="18"/>
<text text-anchor="middle" x="306.79" y="-158.3" font-family="Times,serif" font-size="14.00">Facebook</text>
</g>
<!-- IFTTT_post_label&#45;&gt;Facebook -->
<g id="edge33" class="edge">
<title>IFTTT_post_label&#45;&gt;Facebook</title>
<path fill="none" stroke="black" d="M306.79,-215.7C306.79,-207.98 306.79,-198.71 306.79,-190.11"/>
<polygon fill="black" stroke="black" points="310.29,-190.1 306.79,-180.1 303.29,-190.1 310.29,-190.1"/>
</g>
<!-- Reddit -->
<g id="node30" class="node">
<title>Reddit</title>
<ellipse fill="none" stroke="black" cx="420.79" cy="-162" rx="41.69" ry="18"/>
<text text-anchor="middle" x="420.79" y="-158.3" font-family="Times,serif" font-size="14.00">Reddit</text>
</g>
<!-- IFTTT_post_label&#45;&gt;Reddit -->
<g id="edge34" class="edge">
<title>IFTTT_post_label&#45;&gt;Reddit</title>
<path fill="none" stroke="black" d="M334.68,-215.88C351.19,-205.74 372.14,-192.88 389.24,-182.37"/>
<polygon fill="black" stroke="black" points="391.1,-185.34 397.79,-177.12 387.44,-179.37 391.1,-185.34"/>
</g>
<!-- LinkedIn -->
<g id="node31" class="node">
<title>LinkedIn</title>
<ellipse fill="none" stroke="black" cx="75.79" cy="-162" rx="51.19" ry="18"/>
<text text-anchor="middle" x="75.79" y="-158.3" font-family="Times,serif" font-size="14.00">LinkedIn</text>
</g>
<!-- IFTTT_post_label&#45;&gt;LinkedIn -->
<g id="edge35" class="edge">
<title>IFTTT_post_label&#45;&gt;LinkedIn</title>
<path fill="none" stroke="black" d="M273.7,-222.97C234.26,-211.02 168.09,-190.97 123.22,-177.37"/>
<polygon fill="black" stroke="black" points="124.02,-173.96 113.43,-174.4 121.99,-180.65 124.02,-173.96"/>
</g>
<!-- Buffer -->
<g id="node32" class="node">
<title>Buffer</title>
<ellipse fill="none" stroke="black" cx="519.79" cy="-162" rx="39.79" ry="18"/>
<text text-anchor="middle" x="519.79" y="-158.3" font-family="Times,serif" font-size="14.00">Buffer</text>
</g>
<!-- IFTTT_buffer_label&#45;&gt;Buffer -->
<g id="edge36" class="edge">
<title>IFTTT_buffer_label&#45;&gt;Buffer</title>
<path fill="none" stroke="black" d="M472.37,-215.7C480.22,-206.97 489.88,-196.24 498.42,-186.75"/>
<polygon fill="black" stroke="black" points="501.18,-188.92 505.26,-179.14 495.97,-184.24 501.18,-188.92"/>
</g>
<!-- Buffer_posts_label -->
<g id="node33" class="node">
<title>Buffer_posts_label</title>
<text text-anchor="middle" x="519.79" y="-86.3" font-family="Times,serif" font-size="14.00">Posts to</text>
</g>
<!-- Buffer&#45;&gt;Buffer_posts_label -->
<g id="edge37" class="edge">
<title>Buffer&#45;&gt;Buffer_posts_label</title>
<path fill="none" stroke="black" d="M519.79,-143.7C519.79,-135.98 519.79,-126.71 519.79,-118.11"/>
<polygon fill="black" stroke="black" points="523.29,-118.1 519.79,-108.1 516.29,-118.1 523.29,-118.1"/>
</g>
<!-- gplus -->
<g id="node34" class="node">
<title>gplus</title>
<ellipse fill="none" stroke="black" cx="519.79" cy="-18" rx="65.79" ry="18"/>
<text text-anchor="middle" x="519.79" y="-14.3" font-family="Times,serif" font-size="14.00">Google Plus</text>
</g>
<!-- Buffer_posts_label&#45;&gt;gplus -->
<g id="edge38" class="edge">
<title>Buffer_posts_label&#45;&gt;gplus</title>
<path fill="none" stroke="black" d="M519.79,-71.7C519.79,-63.98 519.79,-54.71 519.79,-46.11"/>
<polygon fill="black" stroke="black" points="523.29,-46.1 519.79,-36.1 516.29,-46.1 523.29,-46.1"/>
</g>
</g>
</svg>
