<?xml version="1.0" encoding="UTF-8" standalone="no"?>
<!DOCTYPE svg PUBLIC "-//W3C//DTD SVG 1.1//EN"
 "http://www.w3.org/Graphics/SVG/1.1/DTD/svg11.dtd">
<!-- Generated by graphviz version 2.43.0 (0)
 -->
<!-- Title: %3 Pages: 1 -->
<svg width="489pt" height="521pt"
 viewBox="0.00 0.00 489.01 521.43" xmlns="http://www.w3.org/2000/svg" xmlns:xlink="http://www.w3.org/1999/xlink">
<g id="graph0" class="graph" transform="scale(1 1) rotate(0) translate(4 517.43)">
<title>%3</title>
<polygon fill="white" stroke="transparent" points="-4,4 -4,-517.43 485.01,-517.43 485.01,4 -4,4"/>
<!-- A -->
<g id="node1" class="node">
<title>A</title>
<ellipse fill="#f0e442" stroke="#e69f00" stroke-width="8" cx="337.43" cy="-317.61" rx="27" ry="18"/>
<text text-anchor="middle" x="337.43" y="-313.91" font-family="Times,serif" font-size="14.00">A</text>
</g>
<!-- B -->
<g id="node2" class="node">
<title>B</title>
<ellipse fill="#f0e442" stroke="#009e73" stroke-width="8" cx="329.09" cy="-163.64" rx="27" ry="18"/>
<text text-anchor="middle" x="329.09" y="-159.94" font-family="Times,serif" font-size="14.00">B</text>
</g>
<!-- A&#45;&#45;B -->
<g id="edge1" class="edge">
<title>A&#45;&#45;B</title>
<path fill="none" stroke="black" d="M336.44,-299.34C334.83,-269.71 331.68,-211.5 330.08,-181.88"/>
</g>
<!-- D -->
<g id="node4" class="node">
<title>D</title>
<ellipse fill="#56b4e9" stroke="#e69f00" stroke-width="8" cx="176.82" cy="-422.51" rx="27" ry="18"/>
<text text-anchor="middle" x="176.82" y="-418.81" font-family="Times,serif" font-size="14.00">D</text>
</g>
<!-- A&#45;&#45;D -->
<g id="edge10" class="edge">
<title>A&#45;&#45;D</title>
<path fill="none" stroke="black" d="M318.06,-330.26C287.19,-350.42 227.17,-389.62 196.26,-409.81"/>
</g>
<!-- C -->
<g id="node3" class="node">
<title>C</title>
<ellipse fill="#f0e442" stroke="#cc79a7" stroke-width="8" cx="454.01" cy="-233.87" rx="27" ry="18"/>
<text text-anchor="middle" x="454.01" y="-230.17" font-family="Times,serif" font-size="14.00">C</text>
</g>
<!-- B&#45;&#45;C -->
<g id="edge2" class="edge">
<title>B&#45;&#45;C</title>
<path fill="none" stroke="black" d="M350,-175.4C373.06,-188.36 409.95,-209.1 433.04,-222.08"/>
</g>
<!-- G -->
<g id="node7" class="node">
<title>G</title>
<ellipse fill="#d55e00" stroke="#e69f00" stroke-width="8" cx="157.85" cy="-76.99" rx="27" ry="18"/>
<text text-anchor="middle" x="157.85" y="-73.29" font-family="Times,serif" font-size="14.00">G</text>
</g>
<!-- B&#45;&#45;G -->
<g id="edge11" class="edge">
<title>B&#45;&#45;G</title>
<path fill="none" stroke="black" d="M307.4,-152.67C274.47,-136 212.2,-104.49 179.36,-87.88"/>
</g>
<!-- C&#45;&#45;A -->
<g id="edge3" class="edge">
<title>C&#45;&#45;A</title>
<path fill="none" stroke="black" d="M435.54,-247.14C413.71,-262.82 377.61,-288.75 355.82,-304.4"/>
</g>
<!-- E -->
<g id="node5" class="node">
<title>E</title>
<ellipse fill="#56b4e9" stroke="#009e73" stroke-width="8" cx="39.1" cy="-352.81" rx="27" ry="18"/>
<text text-anchor="middle" x="39.1" y="-349.11" font-family="Times,serif" font-size="14.00">E</text>
</g>
<!-- D&#45;&#45;E -->
<g id="edge4" class="edge">
<title>D&#45;&#45;E</title>
<path fill="none" stroke="black" d="M155.3,-411.62C129.58,-398.6 86.78,-376.94 60.92,-363.85"/>
</g>
<!-- F -->
<g id="node6" class="node">
<title>F</title>
<ellipse fill="#56b4e9" stroke="#cc79a7" stroke-width="8" cx="53.44" cy="-495.43" rx="27" ry="18"/>
<text text-anchor="middle" x="53.44" y="-491.73" font-family="Times,serif" font-size="14.00">F</text>
</g>
<!-- E&#45;&#45;F -->
<g id="edge5" class="edge">
<title>E&#45;&#45;F</title>
<path fill="none" stroke="black" d="M40.91,-370.87C43.66,-398.16 48.83,-449.6 51.59,-477.06"/>
</g>
<!-- F&#45;&#45;D -->
<g id="edge6" class="edge">
<title>F&#45;&#45;D</title>
<path fill="none" stroke="black" d="M73.81,-483.39C96.67,-469.88 133.54,-448.09 156.42,-434.57"/>
</g>
<!-- H -->
<g id="node8" class="node">
<title>H</title>
<ellipse fill="#d55e00" stroke="#009e73" stroke-width="8" cx="28.52" cy="-161.32" rx="27" ry="18"/>
<text text-anchor="middle" x="28.52" y="-157.62" font-family="Times,serif" font-size="14.00">H</text>
</g>
<!-- G&#45;&#45;H -->
<g id="edge7" class="edge">
<title>G&#45;&#45;H</title>
<path fill="none" stroke="black" d="M138.49,-89.62C114.11,-105.51 72.46,-132.67 48.01,-148.61"/>
</g>
<!-- H&#45;&#45;E -->
<g id="edge12" class="edge">
<title>H&#45;&#45;E</title>
<path fill="none" stroke="black" d="M29.51,-179.33C31.53,-215.83 36.08,-298.13 38.1,-334.7"/>
</g>
<!-- I -->
<g id="node9" class="node">
<title>I</title>
<ellipse fill="#d55e00" stroke="#cc79a7" stroke-width="8" cx="27" cy="-18" rx="27" ry="18"/>
<text text-anchor="middle" x="27" y="-14.3" font-family="Times,serif" font-size="14.00">I</text>
</g>
<!-- H&#45;&#45;I -->
<g id="edge8" class="edge">
<title>H&#45;&#45;I</title>
<path fill="none" stroke="black" d="M28.33,-143.17C28.03,-115.6 27.48,-63.48 27.19,-36"/>
</g>
<!-- I&#45;&#45;G -->
<g id="edge9" class="edge">
<title>I&#45;&#45;G</title>
<path fill="none" stroke="black" d="M49.49,-28.14C73.46,-38.95 111.19,-55.96 135.21,-66.79"/>
</g>
</g>
</svg>
