<?xml version="1.0" encoding="UTF-8" standalone="no"?>
<!DOCTYPE svg PUBLIC "-//W3C//DTD SVG 1.1//EN"
 "http://www.w3.org/Graphics/SVG/1.1/DTD/svg11.dtd">
<!-- Generated by graphviz version 2.38.0 (20140413.2041)
 -->
<!-- Title: %3 Pages: 1 -->
<svg width="279pt" height="255pt"
 viewBox="0.00 0.00 278.86 254.58" xmlns="http://www.w3.org/2000/svg" xmlns:xlink="http://www.w3.org/1999/xlink">
<g id="graph0" class="graph" transform="scale(1 1) rotate(0) translate(152.444 147.217)">
<title>%3</title>
<polygon fill="white" stroke="none" points="-152.444,107.36 -152.444,-147.217 126.413,-147.217 126.413,107.36 -152.444,107.36"/>
<!-- A -->
<g id="node1" class="node"><title>A</title>
<ellipse fill="#f0e442" stroke="#e69f00" stroke-width="8" cx="-78.933" cy="-17.3203" rx="27" ry="18"/>
<text text-anchor="middle" x="-78.933" y="-13.6203" font-family="Times,serif" font-size="14.00">A</text>
</g>
<!-- B -->
<g id="node2" class="node"><title>B</title>
<ellipse fill="#f0e442" stroke="#009e73" stroke-width="8" cx="-52.8931" cy="60.2687" rx="27" ry="18"/>
<text text-anchor="middle" x="-52.8931" y="63.9687" font-family="Times,serif" font-size="14.00">B</text>
</g>
<!-- A&#45;&#45;B -->
<g id="edge1" class="edge"><title>A&#45;&#45;B</title>
<path fill="none" stroke="black" d="M-73.0241,0.285813C-68.7925,12.8943 -63.1153,29.8102 -58.8687,42.4636"/>
</g>
<!-- D -->
<g id="node4" class="node"><title>D</title>
<ellipse fill="#56b4e9" stroke="#e69f00" stroke-width="8" cx="-26.0236" cy="-76.2478" rx="27" ry="18"/>
<text text-anchor="middle" x="-26.0236" y="-72.5478" font-family="Times,serif" font-size="14.00">D</text>
</g>
<!-- A&#45;&#45;D -->
<g id="edge10" class="edge"><title>A&#45;&#45;D</title>
<path fill="none" stroke="black" d="M-65.0317,-32.8028C-57.3161,-41.396 -47.7459,-52.0548 -40.0158,-60.6641"/>
</g>
<!-- C -->
<g id="node3" class="node"><title>C</title>
<ellipse fill="#f0e442" stroke="#cc79a7" stroke-width="8" cx="-121.444" cy="40.344" rx="27" ry="18"/>
<text text-anchor="middle" x="-121.444" y="44.044" font-family="Times,serif" font-size="14.00">C</text>
</g>
<!-- B&#45;&#45;C -->
<g id="edge2" class="edge"><title>B&#45;&#45;C</title>
<path fill="none" stroke="black" d="M-78.0295,52.9626C-83.9904,51.23 -90.3493,49.3817 -96.3101,47.6492"/>
</g>
<!-- G -->
<g id="node7" class="node"><title>G</title>
<ellipse fill="#d55e00" stroke="#e69f00" stroke-width="8" cx="24.4981" cy="76.5745" rx="27" ry="18"/>
<text text-anchor="middle" x="24.4981" y="80.2745" font-family="Times,serif" font-size="14.00">G</text>
</g>
<!-- B&#45;&#45;G -->
<g id="edge11" class="edge"><title>B&#45;&#45;G</title>
<path fill="none" stroke="black" d="M-27.1229,65.6983C-18.8564,67.44 -9.70068,69.369 -1.42335,71.113"/>
</g>
<!-- C&#45;&#45;A -->
<g id="edge3" class="edge"><title>C&#45;&#45;A</title>
<path fill="none" stroke="black" d="M-109.375,23.9739C-103.582,16.1158 -96.6619,6.72839 -90.8841,-1.10897"/>
</g>
<!-- E -->
<g id="node5" class="node"><title>E</title>
<ellipse fill="#56b4e9" stroke="#009e73" stroke-width="8" cx="54.0948" cy="-59.4264" rx="27" ry="18"/>
<text text-anchor="middle" x="54.0948" y="-55.7264" font-family="Times,serif" font-size="14.00">E</text>
</g>
<!-- D&#45;&#45;E -->
<g id="edge4" class="edge"><title>D&#45;&#45;E</title>
<path fill="none" stroke="black" d="M-0.232626,-70.8328C8.82477,-68.9311 19.0016,-66.7944 28.0775,-64.8889"/>
</g>
<!-- F -->
<g id="node6" class="node"><title>F</title>
<ellipse fill="#56b4e9" stroke="#cc79a7" stroke-width="8" cx="26.16" cy="-125.217" rx="27" ry="18"/>
<text text-anchor="middle" x="26.16" y="-121.517" font-family="Times,serif" font-size="14.00">F</text>
</g>
<!-- E&#45;&#45;F -->
<g id="edge5" class="edge"><title>E&#45;&#45;F</title>
<path fill="none" stroke="black" d="M46.6088,-77.0569C42.6008,-86.4963 37.6779,-98.0905 33.6667,-107.537"/>
</g>
<!-- F&#45;&#45;D -->
<g id="edge6" class="edge"><title>F&#45;&#45;D</title>
<path fill="none" stroke="black" d="M10.5032,-110.524C3.8985,-104.326 -3.77429,-97.1263 -10.3778,-90.9296"/>
</g>
<!-- H -->
<g id="node8" class="node"><title>H</title>
<ellipse fill="#d55e00" stroke="#009e73" stroke-width="8" cx="79.1276" cy="15.6634" rx="27" ry="18"/>
<text text-anchor="middle" x="79.1276" y="19.3634" font-family="Times,serif" font-size="14.00">H</text>
</g>
<!-- G&#45;&#45;H -->
<g id="edge7" class="edge"><title>G&#45;&#45;H</title>
<path fill="none" stroke="black" d="M38.5666,60.8884C46.6597,51.8646 56.8,40.5584 64.917,31.5081"/>
</g>
<!-- H&#45;&#45;E -->
<g id="edge12" class="edge"><title>H&#45;&#45;E</title>
<path fill="none" stroke="black" d="M73.1952,-2.13183C69.2047,-14.1017 63.9661,-29.8157 59.9846,-41.7589"/>
</g>
<!-- I -->
<g id="node9" class="node"><title>I</title>
<ellipse fill="#d55e00" stroke="#cc79a7" stroke-width="8" cx="95.4126" cy="85.3605" rx="27" ry="18"/>
<text text-anchor="middle" x="95.4126" y="89.0605" font-family="Times,serif" font-size="14.00">I</text>
</g>
<!-- H&#45;&#45;I -->
<g id="edge8" class="edge"><title>H&#45;&#45;I</title>
<path fill="none" stroke="black" d="M83.3214,33.6121C85.7339,43.9375 88.7567,56.8746 91.1764,67.2303"/>
</g>
<!-- I&#45;&#45;G -->
<g id="edge9" class="edge"><title>I&#45;&#45;G</title>
<path fill="none" stroke="black" d="M68.6029,82.0389C62.9549,81.3391 56.9951,80.6007 51.3457,79.9008"/>
</g>
</g>
</svg>
