<?xml version="1.0" encoding="UTF-8" standalone="no"?>
<!DOCTYPE svg PUBLIC "-//W3C//DTD SVG 1.1//EN"
 "http://www.w3.org/Graphics/SVG/1.1/DTD/svg11.dtd">
<!-- Generated by graphviz version 2.43.0 (0)
 -->
<!-- Title: %3 Pages: 1 -->
<svg width="279pt" height="255pt"
 viewBox="0.00 0.00 278.86 254.58" xmlns="http://www.w3.org/2000/svg" xmlns:xlink="http://www.w3.org/1999/xlink">
<g id="graph0" class="graph" transform="scale(1 1) rotate(0) translate(4 250.58)">
<title>%3</title>
<polygon fill="white" stroke="transparent" points="-4,4 -4,-250.58 274.86,-250.58 274.86,4 -4,4"/>
<!-- A -->
<g id="node1" class="node">
<title>A</title>
<ellipse fill="#f0e442" stroke="#e69f00" stroke-width="8" cx="69.51" cy="-120.68" rx="27" ry="18"/>
<text text-anchor="middle" x="69.51" y="-116.98" font-family="Times,serif" font-size="14.00">A</text>
</g>
<!-- B -->
<g id="node2" class="node">
<title>B</title>
<ellipse fill="#f0e442" stroke="#009e73" stroke-width="8" cx="95.55" cy="-43.09" rx="27" ry="18"/>
<text text-anchor="middle" x="95.55" y="-39.39" font-family="Times,serif" font-size="14.00">B</text>
</g>
<!-- A&#45;&#45;B -->
<g id="edge1" class="edge">
<title>A&#45;&#45;B</title>
<path fill="none" stroke="black" d="M75.42,-103.07C79.65,-90.47 85.33,-73.55 89.57,-60.9"/>
</g>
<!-- D -->
<g id="node4" class="node">
<title>D</title>
<ellipse fill="#56b4e9" stroke="#e69f00" stroke-width="8" cx="122.42" cy="-179.61" rx="27" ry="18"/>
<text text-anchor="middle" x="122.42" y="-175.91" font-family="Times,serif" font-size="14.00">D</text>
</g>
<!-- A&#45;&#45;D -->
<g id="edge10" class="edge">
<title>A&#45;&#45;D</title>
<path fill="none" stroke="black" d="M83.41,-136.16C91.13,-144.76 100.7,-155.42 108.43,-164.02"/>
</g>
<!-- C -->
<g id="node3" class="node">
<title>C</title>
<ellipse fill="#f0e442" stroke="#cc79a7" stroke-width="8" cx="27" cy="-63.02" rx="27" ry="18"/>
<text text-anchor="middle" x="27" y="-59.32" font-family="Times,serif" font-size="14.00">C</text>
</g>
<!-- B&#45;&#45;C -->
<g id="edge2" class="edge">
<title>B&#45;&#45;C</title>
<path fill="none" stroke="black" d="M70.41,-50.4C64.45,-52.13 58.09,-53.98 52.13,-55.71"/>
</g>
<!-- G -->
<g id="node7" class="node">
<title>G</title>
<ellipse fill="#d55e00" stroke="#e69f00" stroke-width="8" cx="172.94" cy="-26.79" rx="27" ry="18"/>
<text text-anchor="middle" x="172.94" y="-23.09" font-family="Times,serif" font-size="14.00">G</text>
</g>
<!-- B&#45;&#45;G -->
<g id="edge11" class="edge">
<title>B&#45;&#45;G</title>
<path fill="none" stroke="black" d="M121.32,-37.66C129.59,-35.92 138.74,-33.99 147.02,-32.25"/>
</g>
<!-- C&#45;&#45;A -->
<g id="edge3" class="edge">
<title>C&#45;&#45;A</title>
<path fill="none" stroke="black" d="M39.07,-79.39C44.86,-87.24 51.78,-96.63 57.56,-104.47"/>
</g>
<!-- E -->
<g id="node5" class="node">
<title>E</title>
<ellipse fill="#56b4e9" stroke="#009e73" stroke-width="8" cx="202.54" cy="-162.79" rx="27" ry="18"/>
<text text-anchor="middle" x="202.54" y="-159.09" font-family="Times,serif" font-size="14.00">E</text>
</g>
<!-- D&#45;&#45;E -->
<g id="edge4" class="edge">
<title>D&#45;&#45;E</title>
<path fill="none" stroke="black" d="M148.21,-174.19C157.27,-172.29 167.45,-170.15 176.52,-168.25"/>
</g>
<!-- F -->
<g id="node6" class="node">
<title>F</title>
<ellipse fill="#56b4e9" stroke="#cc79a7" stroke-width="8" cx="174.6" cy="-228.58" rx="27" ry="18"/>
<text text-anchor="middle" x="174.6" y="-224.88" font-family="Times,serif" font-size="14.00">F</text>
</g>
<!-- E&#45;&#45;F -->
<g id="edge5" class="edge">
<title>E&#45;&#45;F</title>
<path fill="none" stroke="black" d="M195.05,-180.42C191.04,-189.86 186.12,-201.45 182.11,-210.9"/>
</g>
<!-- F&#45;&#45;D -->
<g id="edge6" class="edge">
<title>F&#45;&#45;D</title>
<path fill="none" stroke="black" d="M158.95,-213.88C152.34,-207.69 144.67,-200.49 138.07,-194.29"/>
</g>
<!-- H -->
<g id="node8" class="node">
<title>H</title>
<ellipse fill="#d55e00" stroke="#009e73" stroke-width="8" cx="227.57" cy="-87.7" rx="27" ry="18"/>
<text text-anchor="middle" x="227.57" y="-84" font-family="Times,serif" font-size="14.00">H</text>
</g>
<!-- G&#45;&#45;H -->
<g id="edge7" class="edge">
<title>G&#45;&#45;H</title>
<path fill="none" stroke="black" d="M187.01,-42.47C195.1,-51.5 205.24,-62.8 213.36,-71.85"/>
</g>
<!-- H&#45;&#45;E -->
<g id="edge12" class="edge">
<title>H&#45;&#45;E</title>
<path fill="none" stroke="black" d="M221.64,-105.49C217.65,-117.46 212.41,-133.18 208.43,-145.12"/>
</g>
<!-- I -->
<g id="node9" class="node">
<title>I</title>
<ellipse fill="#d55e00" stroke="#cc79a7" stroke-width="8" cx="243.86" cy="-18" rx="27" ry="18"/>
<text text-anchor="middle" x="243.86" y="-14.3" font-family="Times,serif" font-size="14.00">I</text>
</g>
<!-- H&#45;&#45;I -->
<g id="edge8" class="edge">
<title>H&#45;&#45;I</title>
<path fill="none" stroke="black" d="M231.76,-69.75C234.18,-59.42 237.2,-46.49 239.62,-36.13"/>
</g>
<!-- I&#45;&#45;G -->
<g id="edge9" class="edge">
<title>I&#45;&#45;G</title>
<path fill="none" stroke="black" d="M217.05,-21.32C211.4,-22.02 205.44,-22.76 199.79,-23.46"/>
</g>
</g>
</svg>
