<?xml version="1.0" encoding="UTF-8" standalone="no"?>
<!DOCTYPE svg PUBLIC "-//W3C//DTD SVG 1.1//EN"
 "http://www.w3.org/Graphics/SVG/1.1/DTD/svg11.dtd">
<!-- Generated by graphviz version 2.38.0 (20140413.2041)
 -->
<!-- Title: blog_workflow Pages: 1 -->
<svg width="699pt" height="775pt"
 viewBox="0.00 0.00 698.54 775.48" xmlns="http://www.w3.org/2000/svg" xmlns:xlink="http://www.w3.org/1999/xlink">
<g id="graph0" class="graph" transform="scale(1 1) rotate(0) translate(4 771.48)">
<title>blog_workflow</title>
<polygon fill="white" stroke="none" points="-4,4 -4,-771.48 694.543,-771.48 694.543,4 -4,4"/>
<!-- vscode -->
<g id="node1" class="node"><title>vscode</title>
<ellipse fill="none" stroke="black" cx="438.597" cy="-662.48" rx="79.8859" ry="18"/>
<text text-anchor="middle" x="438.597" y="-658.78" font-family="Times,serif" font-size="14.00">Visual Studio Code</text>
</g>
<!-- git_local -->
<g id="node2" class="node"><title>git_local</title>
<ellipse fill="none" stroke="black" cx="221.597" cy="-575.48" rx="60.3893" ry="18"/>
<text text-anchor="middle" x="221.597" y="-571.78" font-family="Times,serif" font-size="14.00">Local git repo</text>
</g>
<!-- vscode&#45;&gt;git_local -->
<g id="edge1" class="edge"><title>vscode&#45;&gt;git_local</title>
<path fill="none" stroke="black" d="M367.425,-654.072C323.126,-648.335 271.163,-639.206 252.597,-626.48 243.969,-620.566 237.283,-611.38 232.366,-602.488"/>
<polygon fill="black" stroke="black" points="235.468,-600.866 227.875,-593.477 229.203,-603.988 235.468,-600.866"/>
<text text-anchor="middle" x="310.097" y="-615.28" font-family="Times,serif" font-size="14.00">Primary interface for</text>
</g>
<!-- vscode&#45;&gt;git_local -->
<g id="edge2" class="edge"><title>vscode&#45;&gt;git_local</title>
<path fill="none" stroke="black" d="M413.733,-645.3C405.049,-639.503 395.3,-632.83 386.597,-626.48 377.906,-620.139 377.277,-616.177 367.597,-611.48 352.243,-604.029 314.394,-595.043 281.081,-588.041"/>
<polygon fill="black" stroke="black" points="281.42,-584.537 270.918,-585.936 280,-591.392 281.42,-584.537"/>
<text text-anchor="middle" x="424.597" y="-615.28" font-family="Times,serif" font-size="14.00">For writing to</text>
</g>
<!-- gv_preview -->
<g id="node3" class="node"><title>gv_preview</title>
<ellipse fill="none" stroke="black" cx="488.597" cy="-575.48" rx="27" ry="18"/>
<text text-anchor="middle" x="488.597" y="-571.78" font-family="Times,serif" font-size="14.00">Dot</text>
</g>
<!-- vscode&#45;&gt;gv_preview -->
<g id="edge3" class="edge"><title>vscode&#45;&gt;gv_preview</title>
<path fill="none" stroke="black" d="M453.492,-644.688C458.026,-639.117 462.808,-632.737 466.597,-626.48 471.089,-619.066 475.177,-610.572 478.579,-602.714"/>
<polygon fill="black" stroke="black" points="481.913,-603.809 482.497,-593.231 475.443,-601.136 481.913,-603.809"/>
<text text-anchor="middle" x="499.597" y="-615.28" font-family="Times,serif" font-size="14.00">Previews</text>
</g>
<!-- md_preview -->
<g id="node4" class="node"><title>md_preview</title>
<ellipse fill="none" stroke="black" cx="583.597" cy="-575.48" rx="50.0912" ry="18"/>
<text text-anchor="middle" x="583.597" y="-571.78" font-family="Times,serif" font-size="14.00">Markdown</text>
</g>
<!-- vscode&#45;&gt;md_preview -->
<g id="edge4" class="edge"><title>vscode&#45;&gt;md_preview</title>
<path fill="none" stroke="black" d="M484.085,-647.483C498.836,-641.992 514.913,-634.952 528.597,-626.48 540.372,-619.191 551.939,-609.226 561.405,-600.111"/>
<polygon fill="black" stroke="black" points="563.883,-602.582 568.508,-593.05 558.949,-597.617 563.883,-602.582"/>
<text text-anchor="middle" x="573.597" y="-615.28" font-family="Times,serif" font-size="14.00">Previews</text>
</g>
<!-- jekyll_local -->
<g id="node6" class="node"><title>jekyll_local</title>
<ellipse fill="none" stroke="black" cx="221.597" cy="-479.61" rx="60.2083" ry="26.7407"/>
<text text-anchor="middle" x="221.597" y="-483.41" font-family="Times,serif" font-size="14.00">Jekyll</text>
<text text-anchor="middle" x="221.597" y="-468.41" font-family="Times,serif" font-size="14.00">(locally&#45;run)</text>
</g>
<!-- git_local&#45;&gt;jekyll_local -->
<g id="edge6" class="edge"><title>git_local&#45;&gt;jekyll_local</title>
<path fill="none" stroke="black" d="M221.597,-557.263C221.597,-545.959 221.597,-530.749 221.597,-516.858"/>
<polygon fill="black" stroke="black" points="225.098,-516.579 221.597,-506.579 218.098,-516.579 225.098,-516.579"/>
<text text-anchor="middle" x="261.097" y="-528.28" font-family="Times,serif" font-size="14.00">Read from for</text>
</g>
<!-- gv_render -->
<g id="node7" class="node"><title>gv_render</title>
<ellipse fill="none" stroke="black" cx="97.5975" cy="-479.61" rx="45.4919" ry="18"/>
<text text-anchor="middle" x="97.5975" y="-475.91" font-family="Times,serif" font-size="14.00">GraphViz</text>
</g>
<!-- git_local&#45;&gt;gv_render -->
<g id="edge7" class="edge"><title>git_local&#45;&gt;gv_render</title>
<path fill="none" stroke="black" d="M180.236,-562.294C166.073,-556.816 150.75,-549.323 138.597,-539.48 127.447,-530.45 118.03,-517.625 111.043,-506.25"/>
<polygon fill="black" stroke="black" points="114.029,-504.421 105.975,-497.538 107.978,-507.942 114.029,-504.421"/>
<text text-anchor="middle" x="178.097" y="-528.28" font-family="Times,serif" font-size="14.00">Read from for</text>
</g>
<!-- git_github -->
<g id="node8" class="node"><title>git_github</title>
<ellipse fill="none" stroke="black" cx="366.597" cy="-479.61" rx="66.8882" ry="18"/>
<text text-anchor="middle" x="366.597" y="-475.91" font-family="Times,serif" font-size="14.00">GitHub git repo</text>
</g>
<!-- git_local&#45;&gt;git_github -->
<g id="edge8" class="edge"><title>git_local&#45;&gt;git_github</title>
<path fill="none" stroke="black" d="M260.238,-561.532C274.737,-555.829 290.987,-548.384 304.597,-539.48 319.474,-529.749 334.001,-516.238 345.25,-504.614"/>
<polygon fill="black" stroke="black" points="347.826,-506.983 352.139,-497.306 342.732,-502.182 347.826,-506.983"/>
<text text-anchor="middle" x="349.597" y="-528.28" font-family="Times,serif" font-size="14.00">Pushes to</text>
</g>
<!-- Content -->
<g id="node5" class="node"><title>Content</title>
<ellipse fill="none" stroke="black" cx="438.597" cy="-749.48" rx="38.1938" ry="18"/>
<text text-anchor="middle" x="438.597" y="-745.78" font-family="Times,serif" font-size="14.00">Content</text>
</g>
<!-- Content&#45;&gt;vscode -->
<g id="edge5" class="edge"><title>Content&#45;&gt;vscode</title>
<path fill="none" stroke="black" d="M438.597,-731.279C438.597,-719.643 438.597,-704.028 438.597,-690.717"/>
<polygon fill="black" stroke="black" points="442.098,-690.656 438.597,-680.656 435.098,-690.656 442.098,-690.656"/>
<text text-anchor="middle" x="471.597" y="-702.28" font-family="Times,serif" font-size="14.00">Authored in</text>
</g>
<!-- PNG -->
<g id="node9" class="node"><title>PNG</title>
<ellipse fill="none" stroke="black" cx="28.5975" cy="-662.48" rx="28.6953" ry="18"/>
<text text-anchor="middle" x="28.5975" y="-658.78" font-family="Times,serif" font-size="14.00">PNG</text>
</g>
<!-- gv_render&#45;&gt;PNG -->
<g id="edge9" class="edge"><title>gv_render&#45;&gt;PNG</title>
<path fill="none" stroke="black" d="M83.7682,-497.013C64.925,-520.55 32.0982,-566.089 19.5975,-611.48 17.5366,-618.963 17.9561,-627.21 19.3941,-634.811"/>
<polygon fill="black" stroke="black" points="16.0309,-635.789 21.8493,-644.644 22.8224,-634.094 16.0309,-635.789"/>
<text text-anchor="middle" x="84.0975" y="-571.78" font-family="Times,serif" font-size="14.00">Renders Dot to</text>
</g>
<!-- SVG -->
<g id="node10" class="node"><title>SVG</title>
<ellipse fill="none" stroke="black" cx="152.597" cy="-662.48" rx="28.6953" ry="18"/>
<text text-anchor="middle" x="152.597" y="-658.78" font-family="Times,serif" font-size="14.00">SVG</text>
</g>
<!-- gv_render&#45;&gt;SVG -->
<g id="edge10" class="edge"><title>gv_render&#45;&gt;SVG</title>
<path fill="none" stroke="black" d="M122.615,-494.707C131.775,-499.234 142.398,-503.774 152.597,-506.48 177.052,-512.97 362.428,-505.896 379.597,-524.48 384.121,-529.377 382.868,-533.671 379.597,-539.48 356.901,-579.798 334.301,-578.294 290.597,-593.48 259.927,-604.138 167.096,-587.148 145.597,-611.48 139.841,-617.995 139.596,-626.968 141.456,-635.516"/>
<polygon fill="black" stroke="black" points="138.139,-636.637 144.402,-645.182 144.834,-634.596 138.139,-636.637"/>
<text text-anchor="middle" x="409.097" y="-571.78" font-family="Times,serif" font-size="14.00">Renders Dot to</text>
</g>
<!-- jekyll_gh -->
<g id="node11" class="node"><title>jekyll_gh</title>
<ellipse fill="none" stroke="black" cx="366.597" cy="-374.87" rx="84.2917" ry="26.7407"/>
<text text-anchor="middle" x="366.597" y="-378.67" font-family="Times,serif" font-size="14.00">Jekyll</text>
<text text-anchor="middle" x="366.597" y="-363.67" font-family="Times,serif" font-size="14.00">(on GitHub Pages)</text>
</g>
<!-- git_github&#45;&gt;jekyll_gh -->
<g id="edge11" class="edge"><title>git_github&#45;&gt;jekyll_gh</title>
<path fill="none" stroke="black" d="M366.597,-461.182C366.597,-447.717 366.597,-428.621 366.597,-411.909"/>
<polygon fill="black" stroke="black" points="370.098,-411.883 366.597,-401.883 363.098,-411.883 370.098,-411.883"/>
<text text-anchor="middle" x="382.597" y="-423.54" font-family="Times,serif" font-size="14.00">Feeds</text>
</g>
<!-- PNG&#45;&gt;git_local -->
<g id="edge15" class="edge"><title>PNG&#45;&gt;git_local</title>
<path fill="none" stroke="black" d="M23.924,-644.273C22.1354,-633.623 22.0559,-620.339 29.5975,-611.48 31.7685,-608.93 104.538,-596.172 159.847,-586.793"/>
<polygon fill="black" stroke="black" points="160.674,-590.203 169.95,-585.084 159.506,-583.301 160.674,-590.203"/>
<text text-anchor="middle" x="68.5975" y="-615.28" font-family="Times,serif" font-size="14.00">For writing to</text>
</g>
<!-- SVG&#45;&gt;git_local -->
<g id="edge16" class="edge"><title>SVG&#45;&gt;git_local</title>
<path fill="none" stroke="black" d="M148.805,-644.496C147.456,-634.194 147.532,-621.204 153.597,-611.48 158.093,-604.274 164.587,-598.484 171.801,-593.852"/>
<polygon fill="black" stroke="black" points="173.534,-596.893 180.524,-588.931 170.094,-590.796 173.534,-596.893"/>
<text text-anchor="middle" x="191.597" y="-615.28" font-family="Times,serif" font-size="14.00">For writing to</text>
</g>
<!-- ga -->
<g id="node12" class="node"><title>ga</title>
<ellipse fill="none" stroke="black" cx="328.597" cy="-279" rx="72.5877" ry="18"/>
<text text-anchor="middle" x="328.597" y="-275.3" font-family="Times,serif" font-size="14.00">Google Analytics</text>
</g>
<!-- jekyll_gh&#45;&gt;ga -->
<g id="edge12" class="edge"><title>jekyll_gh&#45;&gt;ga</title>
<path fill="none" stroke="black" d="M356.113,-347.971C350.861,-334.998 344.515,-319.321 339.241,-306.293"/>
<polygon fill="black" stroke="black" points="342.45,-304.892 335.454,-296.936 335.962,-307.519 342.45,-304.892"/>
<text text-anchor="middle" x="376.597" y="-318.8" font-family="Times,serif" font-size="14.00">Integrates</text>
</g>
<!-- RSS -->
<g id="node13" class="node"><title>RSS</title>
<ellipse fill="none" stroke="black" cx="446.597" cy="-279" rx="27" ry="18"/>
<text text-anchor="middle" x="446.597" y="-275.3" font-family="Times,serif" font-size="14.00">RSS</text>
</g>
<!-- jekyll_gh&#45;&gt;RSS -->
<g id="edge13" class="edge"><title>jekyll_gh&#45;&gt;RSS</title>
<path fill="none" stroke="black" d="M388.036,-348.715C400.262,-334.369 415.461,-316.535 427.31,-302.631"/>
<polygon fill="black" stroke="black" points="430.03,-304.836 433.852,-294.955 424.702,-300.296 430.03,-304.836"/>
<text text-anchor="middle" x="444.097" y="-318.8" font-family="Times,serif" font-size="14.00">Generates</text>
</g>
<!-- IFTTT -->
<g id="node14" class="node"><title>IFTTT</title>
<ellipse fill="none" stroke="black" cx="446.597" cy="-192" rx="34.394" ry="18"/>
<text text-anchor="middle" x="446.597" y="-188.3" font-family="Times,serif" font-size="14.00">IFTTT</text>
</g>
<!-- RSS&#45;&gt;IFTTT -->
<g id="edge14" class="edge"><title>RSS&#45;&gt;IFTTT</title>
<path fill="none" stroke="black" d="M446.597,-260.799C446.597,-249.163 446.597,-233.548 446.597,-220.237"/>
<polygon fill="black" stroke="black" points="450.098,-220.175 446.597,-210.175 443.098,-220.175 450.098,-220.175"/>
<text text-anchor="middle" x="484.597" y="-231.8" font-family="Times,serif" font-size="14.00">Monitored by</text>
</g>
<!-- Twitter -->
<g id="node15" class="node"><title>Twitter</title>
<ellipse fill="none" stroke="black" cx="250.597" cy="-105" rx="36.2938" ry="18"/>
<text text-anchor="middle" x="250.597" y="-101.3" font-family="Times,serif" font-size="14.00">Twitter</text>
</g>
<!-- IFTTT&#45;&gt;Twitter -->
<g id="edge17" class="edge"><title>IFTTT&#45;&gt;Twitter</title>
<path fill="none" stroke="black" d="M417.73,-182.113C397.527,-175.6 370.062,-166.154 346.597,-156 324.615,-146.487 300.723,-134.051 282.273,-123.962"/>
<polygon fill="black" stroke="black" points="283.869,-120.845 273.423,-119.075 280.485,-126.973 283.869,-120.845"/>
<text text-anchor="middle" x="365.597" y="-144.8" font-family="Times,serif" font-size="14.00">Post to</text>
</g>
<!-- Facebook -->
<g id="node16" class="node"><title>Facebook</title>
<ellipse fill="none" stroke="black" cx="349.597" cy="-105" rx="44.6926" ry="18"/>
<text text-anchor="middle" x="349.597" y="-101.3" font-family="Times,serif" font-size="14.00">Facebook</text>
</g>
<!-- IFTTT&#45;&gt;Facebook -->
<g id="edge18" class="edge"><title>IFTTT&#45;&gt;Facebook</title>
<path fill="none" stroke="black" d="M428.881,-176.522C421.334,-170.281 412.472,-162.855 404.597,-156 394.56,-147.262 383.684,-137.451 374.274,-128.848"/>
<polygon fill="black" stroke="black" points="376.5,-126.14 366.766,-121.956 371.766,-131.297 376.5,-126.14"/>
<text text-anchor="middle" x="423.597" y="-144.8" font-family="Times,serif" font-size="14.00">Post to</text>
</g>
<!-- Reddit -->
<g id="node17" class="node"><title>Reddit</title>
<ellipse fill="none" stroke="black" cx="446.597" cy="-105" rx="34.394" ry="18"/>
<text text-anchor="middle" x="446.597" y="-101.3" font-family="Times,serif" font-size="14.00">Reddit</text>
</g>
<!-- IFTTT&#45;&gt;Reddit -->
<g id="edge19" class="edge"><title>IFTTT&#45;&gt;Reddit</title>
<path fill="none" stroke="black" d="M446.597,-173.799C446.597,-162.163 446.597,-146.548 446.597,-133.237"/>
<polygon fill="black" stroke="black" points="450.098,-133.175 446.597,-123.175 443.098,-133.175 450.098,-133.175"/>
<text text-anchor="middle" x="465.597" y="-144.8" font-family="Times,serif" font-size="14.00">Post to</text>
</g>
<!-- LinkedIn -->
<g id="node18" class="node"><title>LinkedIn</title>
<ellipse fill="none" stroke="black" cx="541.597" cy="-105" rx="42.7926" ry="18"/>
<text text-anchor="middle" x="541.597" y="-101.3" font-family="Times,serif" font-size="14.00">LinkedIn</text>
</g>
<!-- IFTTT&#45;&gt;LinkedIn -->
<g id="edge20" class="edge"><title>IFTTT&#45;&gt;LinkedIn</title>
<path fill="none" stroke="black" d="M464.789,-176.252C472.255,-170.094 480.928,-162.802 488.597,-156 498.26,-147.431 508.645,-137.744 517.639,-129.195"/>
<polygon fill="black" stroke="black" points="520.323,-131.471 525.132,-122.03 515.486,-126.411 520.323,-131.471"/>
<text text-anchor="middle" x="524.597" y="-144.8" font-family="Times,serif" font-size="14.00">Post to</text>
</g>
<!-- Buffer -->
<g id="node19" class="node"><title>Buffer</title>
<ellipse fill="none" stroke="black" cx="636.597" cy="-105" rx="33.5952" ry="18"/>
<text text-anchor="middle" x="636.597" y="-101.3" font-family="Times,serif" font-size="14.00">Buffer</text>
</g>
<!-- IFTTT&#45;&gt;Buffer -->
<g id="edge21" class="edge"><title>IFTTT&#45;&gt;Buffer</title>
<path fill="none" stroke="black" d="M475.862,-182.382C496.318,-175.991 524.073,-166.582 547.597,-156 567.917,-146.859 589.743,-134.638 606.696,-124.566"/>
<polygon fill="black" stroke="black" points="608.808,-127.38 615.572,-119.225 605.199,-121.382 608.808,-127.38"/>
<text text-anchor="middle" x="600.097" y="-144.8" font-family="Times,serif" font-size="14.00">Adds to</text>
</g>
<!-- gplus -->
<g id="node20" class="node"><title>gplus</title>
<ellipse fill="none" stroke="black" cx="636.597" cy="-18" rx="53.8905" ry="18"/>
<text text-anchor="middle" x="636.597" y="-14.3" font-family="Times,serif" font-size="14.00">Google Plus</text>
</g>
<!-- Buffer&#45;&gt;gplus -->
<g id="edge22" class="edge"><title>Buffer&#45;&gt;gplus</title>
<path fill="none" stroke="black" d="M636.597,-86.799C636.597,-75.1626 636.597,-59.5479 636.597,-46.2368"/>
<polygon fill="black" stroke="black" points="640.098,-46.1754 636.597,-36.1754 633.098,-46.1755 640.098,-46.1754"/>
<text text-anchor="middle" x="658.097" y="-57.8" font-family="Times,serif" font-size="14.00">Posts to</text>
</g>
</g>
</svg>
