<?xml version="1.0" encoding="UTF-8" standalone="no"?>
<!DOCTYPE svg PUBLIC "-//W3C//DTD SVG 1.1//EN"
 "http://www.w3.org/Graphics/SVG/1.1/DTD/svg11.dtd">
<!-- Generated by graphviz version 2.38.0 (20140413.2041)
 -->
<!-- Title: %3 Pages: 1 -->
<svg width="199pt" height="165pt"
 viewBox="0.00 0.00 198.76 165.18" xmlns="http://www.w3.org/2000/svg" xmlns:xlink="http://www.w3.org/1999/xlink">
<g id="graph0" class="graph" transform="scale(1 1) rotate(0) translate(4 161.176)">
<title>%3</title>
<polygon fill="white" stroke="none" points="-4,4 -4,-161.176 194.763,-161.176 194.763,4 -4,4"/>
<!-- A -->
<g id="node1" class="node"><title>A</title>
<ellipse fill="#f0e442" stroke="#e69f00" stroke-width="8" cx="146.188" cy="-55.4438" rx="27" ry="18"/>
<text text-anchor="middle" x="146.188" y="-51.7438" font-family="Times,serif" font-size="14.00">A</text>
</g>
<!-- B -->
<g id="node2" class="node"><title>B</title>
<ellipse fill="#f0e442" stroke="#009e73" stroke-width="8" cx="122.73" cy="-18" rx="27" ry="18"/>
<text text-anchor="middle" x="122.73" y="-14.3" font-family="Times,serif" font-size="14.00">B</text>
</g>
<!-- A&#45;&#45;B -->
<g id="edge1" class="edge"><title>A&#45;&#45;B</title>
<path fill="none" stroke="black" d="M135.557,-38.4748C134.782,-37.2364 133.999,-35.9877 133.224,-34.7506"/>
</g>
<!-- D -->
<g id="node4" class="node"><title>D</title>
<ellipse fill="#56b4e9" stroke="#e69f00" stroke-width="8" cx="120.298" cy="-103.837" rx="27" ry="18"/>
<text text-anchor="middle" x="120.298" y="-100.137" font-family="Times,serif" font-size="14.00">D</text>
</g>
<!-- A&#45;&#45;D -->
<g id="edge10" class="edge"><title>A&#45;&#45;D</title>
<path fill="none" stroke="black" d="M136.987,-72.6417C134.546,-77.2058 131.909,-82.1334 129.469,-86.6945"/>
</g>
<!-- C -->
<g id="node3" class="node"><title>C</title>
<ellipse fill="#f0e442" stroke="#cc79a7" stroke-width="8" cx="163.763" cy="-18.4389" rx="27" ry="18"/>
<text text-anchor="middle" x="163.763" y="-14.7389" font-family="Times,serif" font-size="14.00">C</text>
</g>
<!-- B&#45;&#45;C -->
<g id="edge2" class="edge"><title>B&#45;&#45;C</title>
<path fill="none" stroke="black" d="M149.871,-18.2903C149.99,-18.2916 150.109,-18.2929 150.228,-18.2942"/>
</g>
<!-- G -->
<g id="node7" class="node"><title>G</title>
<ellipse fill="#d55e00" stroke="#e69f00" stroke-width="8" cx="67.9014" cy="-19.946" rx="27" ry="18"/>
<text text-anchor="middle" x="67.9014" y="-16.246" font-family="Times,serif" font-size="14.00">G</text>
</g>
<!-- B&#45;&#45;G -->
<g id="edge11" class="edge"><title>B&#45;&#45;G</title>
<path fill="none" stroke="black" d="M95.637,-18.9616C95.4212,-18.9693 95.2053,-18.9769 94.9895,-18.9846"/>
</g>
<!-- C&#45;&#45;A -->
<g id="edge3" class="edge"><title>C&#45;&#45;A</title>
<path fill="none" stroke="black" d="M155.593,-35.6414C155.234,-36.3963 154.874,-37.1542 154.515,-37.9099"/>
</g>
<!-- E -->
<g id="node5" class="node"><title>E</title>
<ellipse fill="#56b4e9" stroke="#009e73" stroke-width="8" cx="76.2428" cy="-105.435" rx="27" ry="18"/>
<text text-anchor="middle" x="76.2428" y="-101.735" font-family="Times,serif" font-size="14.00">E</text>
</g>
<!-- D&#45;&#45;E -->
<g id="edge4" class="edge"><title>D&#45;&#45;E</title>
<path fill="none" stroke="black" d="M93.1498,-104.822C93.0081,-104.827 92.8667,-104.832 92.7257,-104.837"/>
</g>
<!-- F -->
<g id="node6" class="node"><title>F</title>
<ellipse fill="#56b4e9" stroke="#cc79a7" stroke-width="8" cx="99.4855" cy="-139.176" rx="27" ry="18"/>
<text text-anchor="middle" x="99.4855" y="-135.476" font-family="Times,serif" font-size="14.00">F</text>
</g>
<!-- E&#45;&#45;F -->
<g id="edge5" class="edge"><title>E&#45;&#45;F</title>
<path fill="none" stroke="black" d="M87.5918,-121.91C87.7762,-122.178 87.9607,-122.446 88.145,-122.713"/>
</g>
<!-- F&#45;&#45;D -->
<g id="edge6" class="edge"><title>F&#45;&#45;D</title>
<path fill="none" stroke="black" d="M109.404,-122.335C109.739,-121.766 110.075,-121.196 110.41,-120.627"/>
</g>
<!-- H -->
<g id="node8" class="node"><title>H</title>
<ellipse fill="#d55e00" stroke="#009e73" stroke-width="8" cx="47.1465" cy="-58.8693" rx="27" ry="18"/>
<text text-anchor="middle" x="47.1465" y="-55.1693" font-family="Times,serif" font-size="14.00">H</text>
</g>
<!-- G&#45;&#45;H -->
<g id="edge7" class="edge"><title>G&#45;&#45;H</title>
<path fill="none" stroke="black" d="M58.7375,-37.1316C57.9557,-38.5979 57.1645,-40.0817 56.3821,-41.549"/>
</g>
<!-- H&#45;&#45;E -->
<g id="edge12" class="edge"><title>H&#45;&#45;E</title>
<path fill="none" stroke="black" d="M57.6509,-75.6806C60.3205,-79.953 63.1874,-84.5412 65.8513,-88.8045"/>
</g>
<!-- I -->
<g id="node9" class="node"><title>I</title>
<ellipse fill="#d55e00" stroke="#cc79a7" stroke-width="8" cx="27" cy="-23.1137" rx="27" ry="18"/>
<text text-anchor="middle" x="27" y="-19.4137" font-family="Times,serif" font-size="14.00">I</text>
</g>
<!-- H&#45;&#45;I -->
<g id="edge8" class="edge"><title>H&#45;&#45;I</title>
<path fill="none" stroke="black" d="M37.5453,-41.8292C37.2209,-41.2537 36.896,-40.6769 36.5717,-40.1014"/>
</g>
<!-- I&#45;&#45;G -->
<g id="edge9" class="edge"><title>I&#45;&#45;G</title>
<path fill="none" stroke="black" d="M54.054,-21.0184C54.1729,-21.0092 54.2914,-21.0001 54.4096,-20.9909"/>
</g>
</g>
</svg>
