<?xml version="1.0" encoding="UTF-8" standalone="no"?>
<!DOCTYPE svg PUBLIC "-//W3C//DTD SVG 1.1//EN"
 "http://www.w3.org/Graphics/SVG/1.1/DTD/svg11.dtd">
<!-- Generated by graphviz version 2.43.0 (0)
 -->
<!-- Title: %3 Pages: 1 -->
<svg width="204pt" height="361pt"
 viewBox="0.00 0.00 204.00 361.00" xmlns="http://www.w3.org/2000/svg" xmlns:xlink="http://www.w3.org/1999/xlink">
<g id="graph0" class="graph" transform="scale(1 1) rotate(0) translate(4 357)">
<title>%3</title>
<polygon fill="white" stroke="transparent" points="-4,4 -4,-357 200,-357 200,4 -4,4"/>
<!-- A -->
<g id="node1" class="node">
<title>A</title>
<ellipse fill="#f0e442" stroke="#e69f00" stroke-width="8" cx="63.54" cy="-167.02" rx="27" ry="18"/>
<text text-anchor="middle" x="63.54" y="-163.32" font-family="Times,serif" font-size="14.00">A</text>
</g>
<!-- B -->
<g id="node2" class="node">
<title>B</title>
<ellipse fill="#f0e442" stroke="#009e73" stroke-width="8" cx="102.94" cy="-71.11" rx="27" ry="18"/>
<text text-anchor="middle" x="102.94" y="-67.41" font-family="Times,serif" font-size="14.00">B</text>
</g>
<!-- A&#45;&#45;B -->
<g id="edge1" class="edge">
<title>A&#45;&#45;B</title>
<path fill="none" stroke="black" d="M70.76,-149.42C77.87,-132.12 88.66,-105.85 95.76,-88.59"/>
</g>
<!-- D -->
<g id="node4" class="node">
<title>D</title>
<ellipse fill="#56b4e9" stroke="#e69f00" stroke-width="8" cx="26.83" cy="-266.97" rx="27" ry="18"/>
<text text-anchor="middle" x="26.83" y="-263.27" font-family="Times,serif" font-size="14.00">D</text>
</g>
<!-- A&#45;&#45;D -->
<g id="edge10" class="edge">
<title>A&#45;&#45;D</title>
<path fill="none" stroke="black" d="M56.97,-184.89C50.29,-203.08 39.99,-231.12 33.33,-249.26"/>
</g>
<!-- C -->
<g id="node3" class="node">
<title>C</title>
<ellipse fill="#f0e442" stroke="#cc79a7" stroke-width="8" cx="168.6" cy="-146.45" rx="27" ry="18"/>
<text text-anchor="middle" x="168.6" y="-142.75" font-family="Times,serif" font-size="14.00">C</text>
</g>
<!-- B&#45;&#45;C -->
<g id="edge2" class="edge">
<title>B&#45;&#45;C</title>
<path fill="none" stroke="black" d="M116.54,-86.72C127.81,-99.65 143.75,-117.94 155.01,-130.86"/>
</g>
<!-- G -->
<g id="node7" class="node">
<title>G</title>
<ellipse fill="#d55e00" stroke="#e69f00" stroke-width="8" cx="115.18" cy="-18.42" rx="27" ry="18"/>
<text text-anchor="middle" x="115.18" y="-14.72" font-family="Times,serif" font-size="14.00">G</text>
</g>
<!-- B&#45;&#45;G -->
<g id="edge11" class="edge">
<title>B&#45;&#45;G</title>
<path fill="none" stroke="black" d="M107.08,-53.27C108.36,-47.78 109.76,-41.73 111.04,-36.24"/>
</g>
<!-- C&#45;&#45;A -->
<g id="edge3" class="edge">
<title>C&#45;&#45;A</title>
<path fill="none" stroke="black" d="M142.63,-151.54C126.47,-154.7 105.75,-158.75 89.57,-161.92"/>
</g>
<!-- E -->
<g id="node5" class="node">
<title>E</title>
<ellipse fill="#56b4e9" stroke="#009e73" stroke-width="8" cx="114" cy="-229.87" rx="27" ry="18"/>
<text text-anchor="middle" x="114" y="-226.17" font-family="Times,serif" font-size="14.00">E</text>
</g>
<!-- D&#45;&#45;E -->
<g id="edge4" class="edge">
<title>D&#45;&#45;E</title>
<path fill="none" stroke="black" d="M49.73,-257.22C62.44,-251.81 78.21,-245.1 90.95,-239.68"/>
</g>
<!-- F -->
<g id="node6" class="node">
<title>F</title>
<ellipse fill="#56b4e9" stroke="#cc79a7" stroke-width="8" cx="92.02" cy="-334.71" rx="27" ry="18"/>
<text text-anchor="middle" x="92.02" y="-331.01" font-family="Times,serif" font-size="14.00">F</text>
</g>
<!-- E&#45;&#45;F -->
<g id="edge5" class="edge">
<title>E&#45;&#45;F</title>
<path fill="none" stroke="black" d="M110.17,-248.13C106.14,-267.38 99.82,-297.5 95.8,-316.66"/>
</g>
<!-- F&#45;&#45;D -->
<g id="edge6" class="edge">
<title>F&#45;&#45;D</title>
<path fill="none" stroke="black" d="M77.22,-319.34C66.56,-308.25 52.22,-293.35 41.56,-282.28"/>
</g>
<!-- H -->
<g id="node8" class="node">
<title>H</title>
<ellipse fill="#d55e00" stroke="#009e73" stroke-width="8" cx="97.89" cy="-120.71" rx="27" ry="18"/>
<text text-anchor="middle" x="97.89" y="-117.01" font-family="Times,serif" font-size="14.00">H</text>
</g>
<!-- G&#45;&#45;H -->
<g id="edge7" class="edge">
<title>G&#45;&#45;H</title>
<path fill="none" stroke="black" d="M112.09,-36.71C108.94,-55.33 104.09,-84.02 100.95,-102.58"/>
</g>
<!-- H&#45;&#45;E -->
<g id="edge12" class="edge">
<title>H&#45;&#45;E</title>
<path fill="none" stroke="black" d="M100.55,-138.73C103.54,-158.96 108.35,-191.58 111.34,-211.82"/>
</g>
<!-- I -->
<g id="node9" class="node">
<title>I</title>
<ellipse fill="#d55e00" stroke="#cc79a7" stroke-width="8" cx="26.75" cy="-42.81" rx="27" ry="18"/>
<text text-anchor="middle" x="26.75" y="-39.11" font-family="Times,serif" font-size="14.00">I</text>
</g>
<!-- H&#45;&#45;I -->
<g id="edge8" class="edge">
<title>H&#45;&#45;I</title>
<path fill="none" stroke="black" d="M83.83,-105.32C71.44,-91.75 53.47,-72.07 41.02,-58.43"/>
</g>
<!-- I&#45;&#45;G -->
<g id="edge9" class="edge">
<title>I&#45;&#45;G</title>
<path fill="none" stroke="black" d="M51.86,-35.88C63.8,-32.59 78.06,-28.66 90.02,-25.36"/>
</g>
</g>
</svg>
