<?xml version="1.0" encoding="UTF-8" standalone="no"?>
<!DOCTYPE svg PUBLIC "-//W3C//DTD SVG 1.1//EN"
 "http://www.w3.org/Graphics/SVG/1.1/DTD/svg11.dtd">
<!-- Generated by graphviz version 2.38.0 (20140413.2041)
 -->
<!-- Title: %3 Pages: 1 -->
<svg width="204pt" height="361pt"
 viewBox="0.00 0.00 204.00 361.00" xmlns="http://www.w3.org/2000/svg" xmlns:xlink="http://www.w3.org/1999/xlink">
<g id="graph0" class="graph" transform="scale(1 1) rotate(0) translate(4 357)">
<title>%3</title>
<polygon fill="white" stroke="none" points="-4,4 -4,-357 200,-357 200,4 -4,4"/>
<!-- A -->
<g id="node1" class="node"><title>A</title>
<ellipse fill="none" stroke="black" cx="63.5351" cy="-167.016" rx="27" ry="18"/>
<text text-anchor="middle" x="63.5351" y="-163.316" font-family="Times,serif" font-size="14.00">A</text>
</g>
<!-- B -->
<g id="node2" class="node"><title>B</title>
<ellipse fill="none" stroke="black" cx="102.936" cy="-71.1063" rx="27" ry="18"/>
<text text-anchor="middle" x="102.936" y="-67.4063" font-family="Times,serif" font-size="14.00">B</text>
</g>
<!-- A&#45;&#45;B -->
<g id="edge1" class="edge"><title>A&#45;&#45;B</title>
<path fill="none" stroke="black" d="M70.7619,-149.425C77.8711,-132.119 88.6619,-105.853 95.7552,-88.5861"/>
</g>
<!-- D -->
<g id="node4" class="node"><title>D</title>
<ellipse fill="none" stroke="black" cx="26.826" cy="-266.97" rx="27" ry="18"/>
<text text-anchor="middle" x="26.826" y="-263.27" font-family="Times,serif" font-size="14.00">D</text>
</g>
<!-- A&#45;&#45;D -->
<g id="edge10" class="edge"><title>A&#45;&#45;D</title>
<path fill="none" stroke="black" d="M56.9723,-184.886C50.2905,-203.079 39.9932,-231.118 33.332,-249.255"/>
</g>
<!-- C -->
<g id="node3" class="node"><title>C</title>
<ellipse fill="none" stroke="black" cx="168.603" cy="-146.453" rx="27" ry="18"/>
<text text-anchor="middle" x="168.603" y="-142.753" font-family="Times,serif" font-size="14.00">C</text>
</g>
<!-- B&#45;&#45;C -->
<g id="edge2" class="edge"><title>B&#45;&#45;C</title>
<path fill="none" stroke="black" d="M116.542,-86.7182C127.812,-99.6496 143.749,-117.935 155.014,-130.861"/>
</g>
<!-- G -->
<g id="node7" class="node"><title>G</title>
<ellipse fill="none" stroke="black" cx="115.183" cy="-18.4214" rx="27" ry="18"/>
<text text-anchor="middle" x="115.183" y="-14.7214" font-family="Times,serif" font-size="14.00">G</text>
</g>
<!-- B&#45;&#45;G -->
<g id="edge11" class="edge"><title>B&#45;&#45;G</title>
<path fill="none" stroke="black" d="M107.082,-53.2696C108.359,-47.7768 109.764,-41.7313 111.041,-36.2398"/>
</g>
<!-- C&#45;&#45;A -->
<g id="edge3" class="edge"><title>C&#45;&#45;A</title>
<path fill="none" stroke="black" d="M142.631,-151.536C126.466,-154.7 105.749,-158.754 89.5722,-161.92"/>
</g>
<!-- E -->
<g id="node5" class="node"><title>E</title>
<ellipse fill="none" stroke="black" cx="114.004" cy="-229.869" rx="27" ry="18"/>
<text text-anchor="middle" x="114.004" y="-226.169" font-family="Times,serif" font-size="14.00">E</text>
</g>
<!-- D&#45;&#45;E -->
<g id="edge4" class="edge"><title>D&#45;&#45;E</title>
<path fill="none" stroke="black" d="M49.7311,-257.223C62.444,-251.812 78.2128,-245.101 90.9496,-239.681"/>
</g>
<!-- F -->
<g id="node6" class="node"><title>F</title>
<ellipse fill="none" stroke="black" cx="92.0177" cy="-334.713" rx="27" ry="18"/>
<text text-anchor="middle" x="92.0177" y="-331.013" font-family="Times,serif" font-size="14.00">F</text>
</g>
<!-- E&#45;&#45;F -->
<g id="edge5" class="edge"><title>E&#45;&#45;F</title>
<path fill="none" stroke="black" d="M110.175,-248.132C106.139,-267.375 99.8225,-297.496 95.8036,-316.66"/>
</g>
<!-- F&#45;&#45;D -->
<g id="edge6" class="edge"><title>F&#45;&#45;D</title>
<path fill="none" stroke="black" d="M77.2247,-319.341C66.5557,-308.255 52.216,-293.354 41.5604,-282.281"/>
</g>
<!-- H -->
<g id="node8" class="node"><title>H</title>
<ellipse fill="none" stroke="black" cx="97.8886" cy="-120.708" rx="27" ry="18"/>
<text text-anchor="middle" x="97.8886" y="-117.008" font-family="Times,serif" font-size="14.00">H</text>
</g>
<!-- G&#45;&#45;H -->
<g id="edge7" class="edge"><title>G&#45;&#45;H</title>
<path fill="none" stroke="black" d="M112.091,-36.7083C108.943,-55.3265 104.092,-84.019 100.954,-102.58"/>
</g>
<!-- H&#45;&#45;E -->
<g id="edge12" class="edge"><title>H&#45;&#45;E</title>
<path fill="none" stroke="black" d="M100.55,-138.734C103.536,-158.96 108.352,-191.58 111.339,-211.817"/>
</g>
<!-- I -->
<g id="node9" class="node"><title>I</title>
<ellipse fill="none" stroke="black" cx="26.7513" cy="-42.8075" rx="27" ry="18"/>
<text text-anchor="middle" x="26.7513" y="-39.1075" font-family="Times,serif" font-size="14.00">I</text>
</g>
<!-- H&#45;&#45;I -->
<g id="edge8" class="edge"><title>H&#45;&#45;I</title>
<path fill="none" stroke="black" d="M83.8341,-105.318C71.4438,-91.7493 53.4742,-72.0712 41.02,-58.4329"/>
</g>
<!-- I&#45;&#45;G -->
<g id="edge9" class="edge"><title>I&#45;&#45;G</title>
<path fill="none" stroke="black" d="M51.8557,-35.8847C63.8044,-32.5897 78.0589,-28.6588 90.0157,-25.3616"/>
</g>
</g>
</svg>
