<?xml version="1.0" encoding="UTF-8" standalone="no"?>
<!DOCTYPE svg PUBLIC "-//W3C//DTD SVG 1.1//EN"
 "http://www.w3.org/Graphics/SVG/1.1/DTD/svg11.dtd">
<!-- Generated by graphviz version 2.38.0 (20140413.2041)
 -->
<!-- Title: %3 Pages: 1 -->
<svg width="381pt" height="386pt"
 viewBox="0.00 0.00 380.75 386.38" xmlns="http://www.w3.org/2000/svg" xmlns:xlink="http://www.w3.org/1999/xlink">
<g id="graph0" class="graph" transform="scale(1 1) rotate(0) translate(4 382.38)">
<title>%3</title>
<polygon fill="white" stroke="none" points="-4,4 -4,-382.38 376.748,-382.38 376.748,4 -4,4"/>
<!-- A -->
<g id="node1" class="node"><title>A</title>
<ellipse fill="none" stroke="black" cx="171" cy="-154.952" rx="27" ry="18"/>
<text text-anchor="middle" x="171" y="-151.252" font-family="Times,serif" font-size="14.00">A</text>
</g>
<!-- B -->
<g id="node2" class="node"><title>B</title>
<ellipse fill="none" stroke="black" cx="193.249" cy="-223.428" rx="27" ry="18"/>
<text text-anchor="middle" x="193.249" y="-219.728" font-family="Times,serif" font-size="14.00">B</text>
</g>
<!-- A&#45;&#45;B -->
<g id="edge1" class="edge"><title>A&#45;&#45;B</title>
<path fill="none" stroke="black" d="M176.73,-172.586C180.026,-182.731 184.156,-195.441 187.462,-205.616"/>
</g>
<!-- D -->
<g id="node4" class="node"><title>D</title>
<ellipse fill="none" stroke="black" cx="112.751" cy="-112.632" rx="27" ry="18"/>
<text text-anchor="middle" x="112.751" y="-108.932" font-family="Times,serif" font-size="14.00">D</text>
</g>
<!-- A&#45;&#45;D -->
<g id="edge10" class="edge"><title>A&#45;&#45;D</title>
<path fill="none" stroke="black" d="M152.57,-141.562C145.77,-136.622 138.068,-131.025 131.261,-126.08"/>
</g>
<!-- C -->
<g id="node3" class="node"><title>C</title>
<ellipse fill="none" stroke="black" cx="229.249" cy="-112.632" rx="27" ry="18"/>
<text text-anchor="middle" x="229.249" y="-108.932" font-family="Times,serif" font-size="14.00">C</text>
</g>
<!-- B&#45;&#45;C -->
<g id="edge2" class="edge"><title>B&#45;&#45;C</title>
<path fill="none" stroke="black" d="M199.033,-205.627C205.751,-184.951 216.768,-151.046 223.48,-130.389"/>
</g>
<!-- G -->
<g id="node7" class="node"><title>G</title>
<ellipse fill="none" stroke="black" cx="215.498" cy="-291.904" rx="27" ry="18"/>
<text text-anchor="middle" x="215.498" y="-288.204" font-family="Times,serif" font-size="14.00">G</text>
</g>
<!-- B&#45;&#45;G -->
<g id="edge11" class="edge"><title>B&#45;&#45;G</title>
<path fill="none" stroke="black" d="M198.979,-241.062C202.275,-251.207 206.405,-263.917 209.711,-274.092"/>
</g>
<!-- C&#45;&#45;A -->
<g id="edge3" class="edge"><title>C&#45;&#45;A</title>
<path fill="none" stroke="black" d="M210.819,-126.022C204.019,-130.962 196.317,-136.558 189.51,-141.504"/>
</g>
<!-- E -->
<g id="node5" class="node"><title>E</title>
<ellipse fill="none" stroke="black" cx="27" cy="-154.952" rx="27" ry="18"/>
<text text-anchor="middle" x="27" y="-151.252" font-family="Times,serif" font-size="14.00">E</text>
</g>
<!-- D&#45;&#45;E -->
<g id="edge4" class="edge"><title>D&#45;&#45;E</title>
<path fill="none" stroke="black" d="M90.6678,-123.53C77.7657,-129.898 61.549,-137.901 48.7113,-144.237"/>
</g>
<!-- F -->
<g id="node6" class="node"><title>F</title>
<ellipse fill="none" stroke="black" cx="126.502" cy="-18" rx="27" ry="18"/>
<text text-anchor="middle" x="126.502" y="-14.3" font-family="Times,serif" font-size="14.00">F</text>
</g>
<!-- E&#45;&#45;F -->
<g id="edge5" class="edge"><title>E&#45;&#45;F</title>
<path fill="none" stroke="black" d="M38.8049,-138.704C57.9548,-112.346 95.572,-60.5709 114.712,-34.2269"/>
</g>
<!-- F&#45;&#45;D -->
<g id="edge6" class="edge"><title>F&#45;&#45;D</title>
<path fill="none" stroke="black" d="M123.85,-36.2459C121.415,-53.003 117.826,-77.7023 115.394,-94.4417"/>
</g>
<!-- H -->
<g id="node8" class="node"><title>H</title>
<ellipse fill="none" stroke="black" cx="345.748" cy="-281.914" rx="27" ry="18"/>
<text text-anchor="middle" x="345.748" y="-278.214" font-family="Times,serif" font-size="14.00">H</text>
</g>
<!-- G&#45;&#45;H -->
<g id="edge7" class="edge"><title>G&#45;&#45;H</title>
<path fill="none" stroke="black" d="M242.486,-289.834C264.84,-288.12 296.45,-285.695 318.795,-283.981"/>
</g>
<!-- H&#45;&#45;E -->
<g id="edge12" class="edge"><title>H&#45;&#45;E</title>
<path fill="none" stroke="black" d="M322.567,-272.681C263.831,-249.285 109.632,-187.865 50.5242,-164.322"/>
</g>
<!-- I -->
<g id="node9" class="node"><title>I</title>
<ellipse fill="none" stroke="black" cx="104.252" cy="-360.38" rx="27" ry="18"/>
<text text-anchor="middle" x="104.252" y="-356.68" font-family="Times,serif" font-size="14.00">I</text>
</g>
<!-- H&#45;&#45;I -->
<g id="edge8" class="edge"><title>H&#45;&#45;I</title>
<path fill="none" stroke="black" d="M321.263,-289.869C274.977,-304.909 175.138,-337.348 128.802,-352.404"/>
</g>
<!-- I&#45;&#45;G -->
<g id="edge9" class="edge"><title>I&#45;&#45;G</title>
<path fill="none" stroke="black" d="M124.141,-348.138C144.265,-335.751 175.211,-316.703 195.407,-304.271"/>
</g>
</g>
</svg>
