<?xml version="1.0" encoding="UTF-8" standalone="no"?>
<!DOCTYPE svg PUBLIC "-//W3C//DTD SVG 1.1//EN"
 "http://www.w3.org/Graphics/SVG/1.1/DTD/svg11.dtd">
<!-- Generated by graphviz version 2.38.0 (20140413.2041)
 -->
<!-- Title: graphviz_workflow Pages: 1 -->
<svg width="290pt" height="438pt"
 viewBox="0.00 0.00 290.09 438.43" xmlns="http://www.w3.org/2000/svg" xmlns:xlink="http://www.w3.org/1999/xlink">
<g id="graph0" class="graph" transform="scale(1 1) rotate(0) translate(4 434.434)">
<title>graphviz_workflow</title>
<polygon fill="white" stroke="none" points="-4,4 -4,-434.434 286.087,-434.434 286.087,4 -4,4"/>
<!-- write_asset -->
<g id="node1" class="node"><title>write_asset</title>
<ellipse fill="none" stroke="black" cx="130.397" cy="-403.563" rx="56.6372" ry="26.7407"/>
<text text-anchor="middle" x="130.397" y="-407.363" font-family="Times,serif" font-size="14.00">Write DOT</text>
<text text-anchor="middle" x="130.397" y="-392.363" font-family="Times,serif" font-size="14.00">Separately</text>
</g>
<!-- svg -->
<g id="node2" class="node"><title>svg</title>
<ellipse fill="none" stroke="black" cx="72.3968" cy="-307.693" rx="27" ry="18"/>
<text text-anchor="middle" x="72.3968" y="-303.993" font-family="Times,serif" font-size="14.00">svg</text>
</g>
<!-- write_asset&#45;&gt;svg -->
<g id="edge1" class="edge"><title>write_asset&#45;&gt;svg</title>
<path fill="none" stroke="black" d="M103.245,-379.891C96.9892,-373.569 90.868,-366.326 86.3968,-358.693 82.278,-351.663 79.3224,-343.364 77.2221,-335.568"/>
<polygon fill="black" stroke="black" points="80.6134,-334.699 74.9277,-325.759 73.7974,-336.294 80.6134,-334.699"/>
<text text-anchor="middle" x="121.897" y="-347.493" font-family="Times,serif" font-size="14.00">Emit outputs</text>
</g>
<!-- png -->
<g id="node3" class="node"><title>png</title>
<ellipse fill="none" stroke="black" cx="197.397" cy="-307.693" rx="27" ry="18"/>
<text text-anchor="middle" x="197.397" y="-303.993" font-family="Times,serif" font-size="14.00">png</text>
</g>
<!-- write_asset&#45;&gt;png -->
<g id="edge2" class="edge"><title>write_asset&#45;&gt;png</title>
<path fill="none" stroke="black" d="M148,-377.9C157.923,-363.998 170.269,-346.701 180.135,-332.877"/>
<polygon fill="black" stroke="black" points="183.25,-334.538 186.211,-324.366 177.552,-330.472 183.25,-334.538"/>
<text text-anchor="middle" x="206.897" y="-347.493" font-family="Times,serif" font-size="14.00">Emit outputs</text>
</g>
<!-- discard -->
<g id="node4" class="node"><title>discard</title>
<ellipse fill="none" stroke="black" cx="36.3968" cy="-201.217" rx="36.2938" ry="18"/>
<text text-anchor="middle" x="36.3968" y="-197.517" font-family="Times,serif" font-size="14.00">discard</text>
</g>
<!-- svg&#45;&gt;discard -->
<g id="edge3" class="edge"><title>svg&#45;&gt;discard</title>
<path fill="none" stroke="black" d="M57.2158,-292.337C51.9436,-286.461 46.5637,-279.265 43.3968,-271.693 37.9146,-258.587 35.9847,-242.921 35.5036,-229.786"/>
<polygon fill="black" stroke="black" points="39,-229.421 35.3941,-219.459 32.0004,-229.495 39,-229.421"/>
<text text-anchor="middle" x="118.897" y="-260.493" font-family="Times,serif" font-size="14.00">GH Pages doesn&#39;t like SVG</text>
</g>
<!-- rebuild -->
<g id="node5" class="node"><title>rebuild</title>
<ellipse fill="none" stroke="black" cx="202.397" cy="-201.217" rx="71.3357" ry="37.4533"/>
<text text-anchor="middle" x="202.397" y="-212.517" font-family="Times,serif" font-size="14.00">Rebuild asset</text>
<text text-anchor="middle" x="202.397" y="-197.517" font-family="Times,serif" font-size="14.00">at higherDPI</text>
<text text-anchor="middle" x="202.397" y="-182.517" font-family="Times,serif" font-size="14.00">and scale down</text>
</g>
<!-- png&#45;&gt;rebuild -->
<g id="edge4" class="edge"><title>png&#45;&gt;rebuild</title>
<path fill="none" stroke="black" d="M198.222,-289.441C198.749,-278.435 199.459,-263.593 200.145,-249.276"/>
<polygon fill="black" stroke="black" points="203.654,-249.161 200.636,-239.005 196.662,-248.827 203.654,-249.161"/>
</g>
<!-- embed -->
<g id="node6" class="node"><title>embed</title>
<ellipse fill="none" stroke="black" cx="161.397" cy="-108.74" rx="34.394" ry="18"/>
<text text-anchor="middle" x="161.397" y="-105.04" font-family="Times,serif" font-size="14.00">embed</text>
</g>
<!-- rebuild&#45;&gt;embed -->
<g id="edge5" class="edge"><title>rebuild&#45;&gt;embed</title>
<path fill="none" stroke="black" d="M186.192,-164.458C181.853,-154.882 177.245,-144.712 173.193,-135.772"/>
<polygon fill="black" stroke="black" points="176.37,-134.302 169.054,-126.639 169.994,-137.192 176.37,-134.302"/>
</g>
<!-- rewrite_asset -->
<g id="node7" class="node"><title>rewrite_asset</title>
<ellipse fill="none" stroke="black" cx="223.397" cy="-26.8701" rx="58.8803" ry="26.7407"/>
<text text-anchor="middle" x="223.397" y="-30.6701" font-family="Times,serif" font-size="14.00">Tweak asset</text>
<text text-anchor="middle" x="223.397" y="-15.6701" font-family="Times,serif" font-size="14.00">for use case</text>
</g>
<!-- embed&#45;&gt;rewrite_asset -->
<g id="edge6" class="edge"><title>embed&#45;&gt;rewrite_asset</title>
<path fill="none" stroke="black" d="M173.943,-91.5772C180.88,-82.6416 189.754,-71.2095 198.066,-60.5024"/>
<polygon fill="black" stroke="black" points="200.903,-62.5548 204.27,-52.5093 195.374,-58.2624 200.903,-62.5548"/>
</g>
<!-- done -->
<g id="node8" class="node"><title>done</title>
<ellipse fill="none" stroke="black" cx="118.397" cy="-26.8701" rx="27.8951" ry="18"/>
<text text-anchor="middle" x="118.397" y="-23.1701" font-family="Times,serif" font-size="14.00">done</text>
</g>
<!-- embed&#45;&gt;done -->
<g id="edge7" class="edge"><title>embed&#45;&gt;done</title>
<path fill="none" stroke="black" d="M152.487,-91.191C146.567,-80.1949 138.681,-65.5463 131.984,-53.1082"/>
<polygon fill="black" stroke="black" points="134.97,-51.2706 127.148,-44.1247 128.807,-54.5889 134.97,-51.2706"/>
</g>
<!-- rewrite_asset&#45;&gt;rebuild -->
<g id="edge8" class="edge"><title>rewrite_asset&#45;&gt;rebuild</title>
<path fill="none" stroke="black" d="M220.246,-53.7304C217.035,-80.0792 211.986,-121.518 208.076,-153.607"/>
<polygon fill="black" stroke="black" points="204.586,-153.317 206.85,-163.666 211.534,-154.163 204.586,-153.317"/>
</g>
</g>
</svg>
