<?xml version="1.0" encoding="UTF-8" standalone="no"?>
<!DOCTYPE svg PUBLIC "-//W3C//DTD SVG 1.1//EN"
 "http://www.w3.org/Graphics/SVG/1.1/DTD/svg11.dtd">
<!-- Generated by graphviz version 2.43.0 (0)
 -->
<!-- Title: %3 Pages: 1 -->
<svg width="332pt" height="304pt"
 viewBox="0.00 0.00 332.00 304.00" xmlns="http://www.w3.org/2000/svg" xmlns:xlink="http://www.w3.org/1999/xlink">
<g id="graph0" class="graph" transform="scale(1 1) rotate(0) translate(4 300)">
<title>%3</title>
<polygon fill="white" stroke="transparent" points="-4,4 -4,-300 328,-300 328,4 -4,4"/>
<g id="clust1" class="cluster">
<title>clusterA</title>
<polygon fill="none" stroke="black" points="-0.46,-146.23 -0.46,-296.23 158.54,-296.23 158.54,-146.23 -0.46,-146.23"/>
</g>
<g id="clust2" class="cluster">
<title>clusterB</title>
<polygon fill="none" stroke="black" points="168.59,-145.86 168.59,-284.86 323.59,-284.86 323.59,-145.86 168.59,-145.86"/>
</g>
<g id="clust3" class="cluster">
<title>clusterC</title>
<polygon fill="none" stroke="black" points="98.46,-0.35 98.46,-133.35 233.46,-133.35 233.46,-0.35 98.46,-0.35"/>
</g>
<!-- A -->
<g id="node1" class="node">
<title>A</title>
<ellipse fill="#f0e442" stroke="#e69f00" stroke-width="8" cx="34.93" cy="-270.21" rx="27" ry="18"/>
<text text-anchor="middle" x="34.93" y="-266.51" font-family="Times,serif" font-size="14.00">A</text>
</g>
<!-- B -->
<g id="node2" class="node">
<title>B</title>
<ellipse fill="#f0e442" stroke="#009e73" stroke-width="8" cx="58" cy="-172.52" rx="27" ry="18"/>
<text text-anchor="middle" x="58" y="-168.82" font-family="Times,serif" font-size="14.00">B</text>
</g>
<!-- A&#45;&#45;B -->
<g id="edge1" class="edge">
<title>A&#45;&#45;B</title>
<path fill="none" stroke="black" d="M39.16,-252.29C43.33,-234.67 49.65,-207.91 53.8,-190.33"/>
</g>
<!-- D -->
<g id="node4" class="node">
<title>D</title>
<ellipse fill="#56b4e9" stroke="#e69f00" stroke-width="8" cx="288.91" cy="-258.93" rx="27" ry="18"/>
<text text-anchor="middle" x="288.91" y="-255.23" font-family="Times,serif" font-size="14.00">D</text>
</g>
<!-- A&#45;&#45;D -->
<g id="edge10" class="edge">
<title>A&#45;&#45;D</title>
<path fill="none" stroke="black" d="M62.11,-269C111,-266.83 213.18,-262.29 261.92,-260.13"/>
</g>
<!-- C -->
<g id="node3" class="node">
<title>C</title>
<ellipse fill="#f0e442" stroke="#cc79a7" stroke-width="8" cx="123.91" cy="-221.25" rx="27" ry="18"/>
<text text-anchor="middle" x="123.91" y="-217.55" font-family="Times,serif" font-size="14.00">C</text>
</g>
<!-- B&#45;&#45;C -->
<g id="edge2" class="edge">
<title>B&#45;&#45;C</title>
<path fill="none" stroke="black" d="M76.36,-186.1C85.5,-192.85 96.52,-201 105.65,-207.75"/>
</g>
<!-- G -->
<g id="node7" class="node">
<title>G</title>
<ellipse fill="#d55e00" stroke="#e69f00" stroke-width="8" cx="133.87" cy="-42.73" rx="27" ry="18"/>
<text text-anchor="middle" x="133.87" y="-39.03" font-family="Times,serif" font-size="14.00">G</text>
</g>
<!-- B&#45;&#45;G -->
<g id="edge11" class="edge">
<title>B&#45;&#45;G</title>
<path fill="none" stroke="black" d="M67.92,-155.56C82.46,-130.68 109.41,-84.58 123.95,-59.71"/>
</g>
<!-- C&#45;&#45;A -->
<g id="edge3" class="edge">
<title>C&#45;&#45;A</title>
<path fill="none" stroke="black" d="M102.82,-232.85C88.64,-240.66 70.02,-250.9 55.87,-258.69"/>
</g>
<!-- E -->
<g id="node5" class="node">
<title>E</title>
<ellipse fill="#56b4e9" stroke="#009e73" stroke-width="8" cx="257.77" cy="-171.63" rx="27" ry="18"/>
<text text-anchor="middle" x="257.77" y="-167.93" font-family="Times,serif" font-size="14.00">E</text>
</g>
<!-- D&#45;&#45;E -->
<g id="edge4" class="edge">
<title>D&#45;&#45;E</title>
<path fill="none" stroke="black" d="M282.61,-241.26C277.2,-226.12 269.46,-204.41 264.06,-189.27"/>
</g>
<!-- F -->
<g id="node6" class="node">
<title>F</title>
<ellipse fill="#56b4e9" stroke="#cc79a7" stroke-width="8" cx="203.29" cy="-220.26" rx="27" ry="18"/>
<text text-anchor="middle" x="203.29" y="-216.56" font-family="Times,serif" font-size="14.00">F</text>
</g>
<!-- E&#45;&#45;F -->
<g id="edge5" class="edge">
<title>E&#45;&#45;F</title>
<path fill="none" stroke="black" d="M241.42,-186.22C234.53,-192.38 226.52,-199.53 219.63,-205.68"/>
</g>
<!-- F&#45;&#45;D -->
<g id="edge6" class="edge">
<title>F&#45;&#45;D</title>
<path fill="none" stroke="black" d="M225.79,-230.42C238.27,-236.06 253.76,-243.06 266.27,-248.7"/>
</g>
<!-- H -->
<g id="node8" class="node">
<title>H</title>
<ellipse fill="#d55e00" stroke="#009e73" stroke-width="8" cx="187.74" cy="-107.68" rx="27" ry="18"/>
<text text-anchor="middle" x="187.74" y="-103.98" font-family="Times,serif" font-size="14.00">H</text>
</g>
<!-- G&#45;&#45;H -->
<g id="edge7" class="edge">
<title>G&#45;&#45;H</title>
<path fill="none" stroke="black" d="M147.19,-58.79C155.54,-68.86 166.26,-81.78 174.58,-91.81"/>
</g>
<!-- H&#45;&#45;E -->
<g id="edge12" class="edge">
<title>H&#45;&#45;E</title>
<path fill="none" stroke="black" d="M203.98,-122.52C215.3,-132.85 230.32,-146.57 241.61,-156.88"/>
</g>
<!-- I -->
<g id="node9" class="node">
<title>I</title>
<ellipse fill="#d55e00" stroke="#cc79a7" stroke-width="8" cx="198.84" cy="-26.08" rx="27" ry="18"/>
<text text-anchor="middle" x="198.84" y="-22.38" font-family="Times,serif" font-size="14.00">I</text>
</g>
<!-- H&#45;&#45;I -->
<g id="edge8" class="edge">
<title>H&#45;&#45;I</title>
<path fill="none" stroke="black" d="M190.21,-89.57C192.04,-76.05 194.55,-57.65 196.38,-44.14"/>
</g>
<!-- I&#45;&#45;G -->
<g id="edge9" class="edge">
<title>I&#45;&#45;G</title>
<path fill="none" stroke="black" d="M173.54,-32.57C168.83,-33.77 163.92,-35.03 159.22,-36.24"/>
</g>
</g>
</svg>
