<?xml version="1.0" encoding="UTF-8" standalone="no"?>
<!DOCTYPE svg PUBLIC "-//W3C//DTD SVG 1.1//EN"
 "http://www.w3.org/Graphics/SVG/1.1/DTD/svg11.dtd">
<!-- Generated by graphviz version 2.43.0 (0)
 -->
<!-- Title: blog_tools Pages: 1 -->
<svg width="2410pt" height="397pt"
 viewBox="0.00 0.00 2410.00 397.00" xmlns="http://www.w3.org/2000/svg" xmlns:xlink="http://www.w3.org/1999/xlink">
<g id="graph0" class="graph" transform="scale(1 1) rotate(0) translate(4 393)">
<title>blog_tools</title>
<polygon fill="white" stroke="transparent" points="-4,4 -4,-393 2406,-393 2406,4 -4,4"/>
<g id="clust2" class="cluster">
<title>clusterTracking</title>
<polygon fill="none" stroke="black" points="440,-140 440,-324 794,-324 794,-140 440,-140"/>
</g>
<g id="clust3" class="cluster">
<title>clusterCreation</title>
<polygon fill="none" stroke="black" points="8,-8 8,-324 432,-324 432,-8 8,-8"/>
</g>
<g id="clust6" class="cluster">
<title>clusterPublication</title>
<polygon fill="none" stroke="black" points="1396,-8 1396,-324 2394,-324 2394,-8 1396,-8"/>
</g>
<!-- content -->
<g id="node1" class="node">
<title>content</title>
<ellipse fill="none" stroke="black" cx="849" cy="-371" rx="46.29" ry="18"/>
<text text-anchor="middle" x="849" y="-367.3" font-family="Times,serif" font-size="14.00">content</text>
</g>
<!-- content_creation -->
<g id="node2" class="node">
<title>content_creation</title>
<ellipse fill="none" stroke="black" cx="183" cy="-298" rx="50.89" ry="18"/>
<text text-anchor="middle" x="183" y="-294.3" font-family="Times,serif" font-size="14.00">Creation</text>
</g>
<!-- content&#45;&#45;content_creation -->
<g id="edge1" class="edge">
<title>content&#45;&#45;content_creation</title>
<path fill="none" stroke="black" d="M805.04,-365.31C685.44,-352.56 354.79,-317.31 230.79,-304.1"/>
</g>
<!-- content_publication -->
<g id="node3" class="node">
<title>content_publication</title>
<ellipse fill="none" stroke="black" cx="1945" cy="-298" rx="63.09" ry="18"/>
<text text-anchor="middle" x="1945" y="-294.3" font-family="Times,serif" font-size="14.00">Publication</text>
</g>
<!-- content&#45;&#45;content_publication -->
<g id="edge2" class="edge">
<title>content&#45;&#45;content_publication</title>
<path fill="none" stroke="black" d="M895.6,-370.21C1035.7,-370.32 1465.23,-366.86 1818,-324 1844.66,-320.76 1874.1,-315.1 1897.92,-309.98"/>
</g>
<!-- content_storage -->
<g id="node4" class="node">
<title>content_storage</title>
<ellipse fill="none" stroke="black" cx="849" cy="-298" rx="47.39" ry="18"/>
<text text-anchor="middle" x="849" y="-294.3" font-family="Times,serif" font-size="14.00">Storage</text>
</g>
<!-- content&#45;&#45;content_storage -->
<g id="edge3" class="edge">
<title>content&#45;&#45;content_storage</title>
<path fill="none" stroke="black" d="M849,-352.81C849,-341.65 849,-327.16 849,-316.03"/>
</g>
<!-- content_tracking -->
<g id="node5" class="node">
<title>content_tracking</title>
<ellipse fill="none" stroke="black" cx="663" cy="-298" rx="51.19" ry="18"/>
<text text-anchor="middle" x="663" y="-294.3" font-family="Times,serif" font-size="14.00">Tracking</text>
</g>
<!-- content&#45;&#45;content_tracking -->
<g id="edge4" class="edge">
<title>content&#45;&#45;content_tracking</title>
<path fill="none" stroke="black" d="M817.03,-357.79C783.37,-344.95 730.63,-324.82 696.44,-311.76"/>
</g>
<!-- content_social -->
<g id="node6" class="node">
<title>content_social</title>
<ellipse fill="none" stroke="black" cx="1732" cy="-298" rx="76.89" ry="18"/>
<text text-anchor="middle" x="1732" y="-294.3" font-family="Times,serif" font-size="14.00">content_social</text>
</g>
<!-- content&#45;&#45;content_social -->
<g id="edge5" class="edge">
<title>content&#45;&#45;content_social</title>
<path fill="none" stroke="black" d="M893.7,-366.41C1036.91,-354.89 1485.23,-318.84 1660.64,-304.74"/>
</g>
<!-- content_editing -->
<g id="node10" class="node">
<title>content_editing</title>
<ellipse fill="none" stroke="black" cx="61" cy="-166" rx="44.69" ry="18"/>
<text text-anchor="middle" x="61" y="-162.3" font-family="Times,serif" font-size="14.00">Editing</text>
</g>
<!-- content_creation&#45;&#45;content_editing -->
<g id="edge9" class="edge">
<title>content_creation&#45;&#45;content_editing</title>
<path fill="none" stroke="black" d="M167.8,-280.8C144.29,-255.75 99.4,-207.92 76.01,-183"/>
</g>
<!-- content_rendering -->
<g id="node11" class="node">
<title>content_rendering</title>
<ellipse fill="none" stroke="black" cx="183" cy="-166" rx="59.29" ry="18"/>
<text text-anchor="middle" x="183" y="-162.3" font-family="Times,serif" font-size="14.00">Rendering</text>
</g>
<!-- content_creation&#45;&#45;content_rendering -->
<g id="edge10" class="edge">
<title>content_creation&#45;&#45;content_rendering</title>
<path fill="none" stroke="black" d="M183,-279.74C183,-254.87 183,-209.24 183,-184.33"/>
</g>
<!-- jekyll -->
<g id="node8" class="node">
<title>jekyll</title>
<ellipse fill="none" stroke="black" cx="750" cy="-166" rx="36" ry="18"/>
<text text-anchor="middle" x="750" y="-162.3" font-family="Times,serif" font-size="14.00">jekyll</text>
</g>
<!-- content_publication&#45;&#45;jekyll -->
<g id="edge18" class="edge">
<title>content_publication&#45;&#45;jekyll</title>
<path fill="none" stroke="black" d="M1889.38,-289.45C1867.18,-286.46 1841.39,-283.02 1818,-280 1540.38,-244.1 1471.49,-230.36 1193,-202 1041.61,-186.58 860.51,-174.14 785.37,-169.25"/>
</g>
<!-- ghp -->
<g id="node16" class="node">
<title>ghp</title>
<ellipse fill="none" stroke="black" cx="1479" cy="-166" rx="74.99" ry="18"/>
<text text-anchor="middle" x="1479" y="-162.3" font-family="Times,serif" font-size="14.00">GitHub Pages</text>
</g>
<!-- content_publication&#45;&#45;ghp -->
<g id="edge19" class="edge">
<title>content_publication&#45;&#45;ghp</title>
<path fill="none" stroke="black" d="M1950.15,-279.87C1955.42,-258.45 1960.25,-222.15 1940,-202 1925.14,-187.21 1583.81,-186.59 1563,-184 1552.81,-182.73 1542.01,-180.91 1531.67,-178.93"/>
</g>
<!-- rss -->
<g id="node17" class="node">
<title>rss</title>
<ellipse fill="none" stroke="black" cx="2155" cy="-166" rx="27" ry="18"/>
<text text-anchor="middle" x="2155" y="-162.3" font-family="Times,serif" font-size="14.00">rss</text>
</g>
<!-- content_publication&#45;&#45;rss -->
<g id="edge20" class="edge">
<title>content_publication&#45;&#45;rss</title>
<path fill="none" stroke="black" d="M2006.7,-293.7C2057.04,-289.66 2122.71,-280.86 2141,-262 2161.08,-241.3 2160.42,-205.19 2157.87,-183.95"/>
</g>
<!-- content_publication_ifttt -->
<g id="node18" class="node">
<title>content_publication_ifttt</title>
<ellipse fill="none" stroke="black" cx="2347" cy="-166" rx="38.99" ry="18"/>
<text text-anchor="middle" x="2347" y="-162.3" font-family="Times,serif" font-size="14.00">IFTTT</text>
</g>
<!-- content_publication&#45;&#45;content_publication_ifttt -->
<g id="edge21" class="edge">
<title>content_publication&#45;&#45;content_publication_ifttt</title>
<path fill="none" stroke="black" d="M2004.49,-291.8C2047.15,-286.94 2105.58,-277.96 2155,-262 2219.59,-241.15 2289.67,-201.74 2324.58,-180.84"/>
</g>
<!-- git -->
<g id="node9" class="node">
<title>git</title>
<ellipse fill="none" stroke="black" cx="669" cy="-166" rx="27" ry="18"/>
<text text-anchor="middle" x="669" y="-162.3" font-family="Times,serif" font-size="14.00">git</text>
</g>
<!-- content_storage&#45;&#45;git -->
<g id="edge14" class="edge">
<title>content_storage&#45;&#45;git</title>
<path fill="none" stroke="black" d="M830.44,-281.42C824.39,-275.72 817.95,-268.96 813,-262 795.95,-238.02 807.92,-220.45 785,-202 756.61,-179.15 739.46,-195.85 705,-184 699.9,-182.25 694.57,-179.98 689.62,-177.68"/>
</g>
<!-- github -->
<g id="node15" class="node">
<title>github</title>
<ellipse fill="none" stroke="black" cx="1247" cy="-166" rx="40.89" ry="18"/>
<text text-anchor="middle" x="1247" y="-162.3" font-family="Times,serif" font-size="14.00">github</text>
</g>
<!-- content_storage&#45;&#45;github -->
<g id="edge15" class="edge">
<title>content_storage&#45;&#45;github</title>
<path fill="none" stroke="black" d="M840.15,-280.19C830.43,-259.1 818.57,-223.16 838,-202 862.55,-175.26 1107.1,-168.91 1205.91,-167.44"/>
</g>
<!-- content_storage&#45;&#45;ghp -->
<g id="edge16" class="edge">
<title>content_storage&#45;&#45;ghp</title>
<path fill="none" stroke="black" d="M845.75,-279.98C842.72,-258.32 841.44,-221.41 863,-202 880.93,-185.85 1272.92,-185.62 1297,-184 1335.15,-181.43 1377.71,-177.51 1412.08,-174.09"/>
</g>
<!-- ga -->
<g id="node7" class="node">
<title>ga</title>
<ellipse fill="none" stroke="black" cx="536" cy="-166" rx="88.28" ry="18"/>
<text text-anchor="middle" x="536" y="-162.3" font-family="Times,serif" font-size="14.00">Google Analytics</text>
</g>
<!-- content_tracking&#45;&#45;ga -->
<g id="edge6" class="edge">
<title>content_tracking&#45;&#45;ga</title>
<path fill="none" stroke="black" d="M632.99,-283.21C622.5,-277.54 611.09,-270.34 602,-262 576.84,-238.92 555.99,-204.6 544.82,-184.15"/>
</g>
<!-- content_tracking&#45;&#45;jekyll -->
<g id="edge7" class="edge">
<title>content_tracking&#45;&#45;jekyll</title>
<path fill="none" stroke="black" d="M675.67,-280.43C679.98,-274.66 684.78,-268.1 689,-262 707.72,-234.91 728.14,-202.46 739.97,-183.36"/>
<text text-anchor="middle" x="763.5" y="-243.3" font-family="Times,serif" font-size="14.00">Jekyll</text>
<text text-anchor="middle" x="763.5" y="-228.3" font-family="Times,serif" font-size="14.00">Organizes</text>
<text text-anchor="middle" x="763.5" y="-213.3" font-family="Times,serif" font-size="14.00">content</text>
</g>
<!-- content_tracking&#45;&#45;git -->
<g id="edge8" class="edge">
<title>content_tracking&#45;&#45;git</title>
<path fill="none" stroke="black" d="M635.02,-282.61C627.45,-277.24 620.2,-270.36 616,-262 604.03,-238.17 603.37,-225.48 616,-202 619.66,-195.2 635.16,-185.37 648.47,-177.86"/>
<text text-anchor="middle" x="652.5" y="-250.8" font-family="Times,serif" font-size="14.00">Git</text>
<text text-anchor="middle" x="652.5" y="-235.8" font-family="Times,serif" font-size="14.00">tracks</text>
<text text-anchor="middle" x="652.5" y="-220.8" font-family="Times,serif" font-size="14.00">changes</text>
<text text-anchor="middle" x="652.5" y="-205.8" font-family="Times,serif" font-size="14.00">to content</text>
</g>
<!-- twitter -->
<g id="node19" class="node">
<title>twitter</title>
<ellipse fill="none" stroke="black" cx="1615" cy="-166" rx="42.79" ry="18"/>
<text text-anchor="middle" x="1615" y="-162.3" font-family="Times,serif" font-size="14.00">twitter</text>
</g>
<!-- content_social&#45;&#45;twitter -->
<g id="edge29" class="edge">
<title>content_social&#45;&#45;twitter</title>
<path fill="none" stroke="black" d="M1716.94,-280.27C1694.35,-255.17 1651.97,-208.08 1629.63,-183.26"/>
</g>
<!-- facebook -->
<g id="node20" class="node">
<title>facebook</title>
<ellipse fill="none" stroke="black" cx="1728" cy="-166" rx="51.99" ry="18"/>
<text text-anchor="middle" x="1728" y="-162.3" font-family="Times,serif" font-size="14.00">facebook</text>
</g>
<!-- content_social&#45;&#45;facebook -->
<g id="edge30" class="edge">
<title>content_social&#45;&#45;facebook</title>
<path fill="none" stroke="black" d="M1731.47,-279.74C1730.7,-254.87 1729.3,-209.24 1728.53,-184.33"/>
</g>
<!-- reddit -->
<g id="node21" class="node">
<title>reddit</title>
<ellipse fill="none" stroke="black" cx="1837" cy="-166" rx="38.99" ry="18"/>
<text text-anchor="middle" x="1837" y="-162.3" font-family="Times,serif" font-size="14.00">reddit</text>
</g>
<!-- content_social&#45;&#45;reddit -->
<g id="edge31" class="edge">
<title>content_social&#45;&#45;reddit</title>
<path fill="none" stroke="black" d="M1731.3,-279.98C1730.66,-255.98 1730.93,-213.82 1740,-202 1740.55,-201.29 1778.77,-187.63 1807.07,-177.59"/>
</g>
<!-- linkedin -->
<g id="node22" class="node">
<title>linkedin</title>
<ellipse fill="none" stroke="black" cx="1942" cy="-166" rx="48.19" ry="18"/>
<text text-anchor="middle" x="1942" y="-162.3" font-family="Times,serif" font-size="14.00">linkedin</text>
</g>
<!-- content_social&#45;&#45;linkedin -->
<g id="edge32" class="edge">
<title>content_social&#45;&#45;linkedin</title>
<path fill="none" stroke="black" d="M1734.44,-279.88C1738.32,-252.89 1745.61,-203.35 1747,-202 1769.16,-180.43 1854.75,-190.44 1885,-184 1892.17,-182.47 1899.75,-180.49 1906.96,-178.41"/>
</g>
<!-- gplus -->
<g id="node24" class="node">
<title>gplus</title>
<ellipse fill="none" stroke="black" cx="2059" cy="-166" rx="50.89" ry="18"/>
<text text-anchor="middle" x="2059" y="-162.3" font-family="Times,serif" font-size="14.00">Google+</text>
</g>
<!-- content_social&#45;&#45;gplus -->
<g id="edge33" class="edge">
<title>content_social&#45;&#45;gplus</title>
<path fill="none" stroke="black" d="M1738.56,-279.72C1740.51,-274.13 1742.52,-267.85 1744,-262 1747.31,-248.9 1744.01,-211.11 1754,-202 1774.17,-183.61 1972.12,-188.74 1999,-184 2006.68,-182.64 2014.78,-180.71 2022.47,-178.62"/>
</g>
<!-- jekyll&#45;&#45;rss -->
<g id="edge17" class="edge">
<title>jekyll&#45;&#45;rss</title>
<path fill="none" stroke="black" d="M785.3,-169.44C948.22,-185.09 1628.51,-248.15 1841,-230.5 1965.84,-220.13 1999.88,-222.77 2119,-184 2124.05,-182.36 2129.27,-180.1 2134.12,-177.74"/>
<text text-anchor="middle" x="1798" y="-228.3" font-family="Times,serif" font-size="14.00">Jekyll Emits</text>
</g>
<!-- git&#45;&#45;github -->
<g id="edge35" class="edge">
<title>git&#45;&#45;github</title>
<path fill="none" stroke="black" d="M689.88,-177.72C694.73,-180.07 699.96,-182.34 705,-184 873.83,-239.67 921.89,-237.61 1099,-253 1118.92,-254.73 1171.37,-262.44 1189,-253 1216.21,-238.44 1232.86,-204.85 1240.97,-183.93"/>
<text text-anchor="middle" x="1144" y="-250.8" font-family="Times,serif" font-size="14.00">Github</text>
<text text-anchor="middle" x="1144" y="-235.8" font-family="Times,serif" font-size="14.00">Hosts</text>
<text text-anchor="middle" x="1144" y="-220.8" font-family="Times,serif" font-size="14.00">Git</text>
<text text-anchor="middle" x="1144" y="-205.8" font-family="Times,serif" font-size="14.00">Repositories</text>
</g>
<!-- git&#45;&#45;ghp -->
<g id="edge34" class="edge">
<title>git&#45;&#45;ghp</title>
<path fill="none" stroke="black" d="M690.03,-177.31C694.87,-179.69 700.06,-182.06 705,-184 773.74,-210.95 791.4,-220.06 864.5,-230.5 1073.43,-260.33 1324.18,-206.21 1429.06,-179.56"/>
<text text-anchor="middle" x="979" y="-228.3" font-family="Times,serif" font-size="14.00">GHP Draws its content from Git</text>
</g>
<!-- vscode -->
<g id="node12" class="node">
<title>vscode</title>
<ellipse fill="none" stroke="black" cx="58" cy="-34" rx="42.49" ry="18"/>
<text text-anchor="middle" x="58" y="-30.3" font-family="Times,serif" font-size="14.00">vscode</text>
</g>
<!-- content_editing&#45;&#45;vscode -->
<g id="edge11" class="edge">
<title>content_editing&#45;&#45;vscode</title>
<path fill="none" stroke="black" d="M48.55,-148.4C45.08,-142.84 41.78,-136.42 40,-130 32.88,-104.3 33.73,-95.92 40,-70 41.54,-63.62 44.46,-57.11 47.5,-51.45"/>
</g>
<!-- graphviz -->
<g id="node13" class="node">
<title>graphviz</title>
<ellipse fill="none" stroke="black" cx="373" cy="-34" rx="51.19" ry="18"/>
<text text-anchor="middle" x="373" y="-30.3" font-family="Times,serif" font-size="14.00">graphviz</text>
</g>
<!-- content_rendering&#45;&#45;graphviz -->
<g id="edge12" class="edge">
<title>content_rendering&#45;&#45;graphviz</title>
<path fill="none" stroke="black" d="M171.47,-148.04C158.82,-127.14 142.71,-91.73 162,-70 184.44,-44.73 279.86,-58.63 313,-52 320.43,-50.51 328.29,-48.57 335.77,-46.53"/>
<text text-anchor="middle" x="198" y="-111.3" font-family="Times,serif" font-size="14.00">Graphviz</text>
<text text-anchor="middle" x="198" y="-96.3" font-family="Times,serif" font-size="14.00">generates</text>
<text text-anchor="middle" x="198" y="-81.3" font-family="Times,serif" font-size="14.00">charts</text>
</g>
<!-- markdown -->
<g id="node14" class="node">
<title>markdown</title>
<ellipse fill="none" stroke="black" cx="244" cy="-34" rx="59.59" ry="18"/>
<text text-anchor="middle" x="244" y="-30.3" font-family="Times,serif" font-size="14.00">markdown</text>
</g>
<!-- content_rendering&#45;&#45;markdown -->
<g id="edge13" class="edge">
<title>content_rendering&#45;&#45;markdown</title>
<path fill="none" stroke="black" d="M149.13,-151.24C138.35,-147.22 126.29,-143.08 115,-140 91.03,-133.47 75.92,-149.07 60,-130 42.91,-109.53 43,-90.54 60,-70 68.32,-59.95 138.53,-48.74 189.76,-41.78"/>
<text text-anchor="middle" x="99.5" y="-118.8" font-family="Times,serif" font-size="14.00">MarkDown</text>
<text text-anchor="middle" x="99.5" y="-103.8" font-family="Times,serif" font-size="14.00">formats</text>
<text text-anchor="middle" x="99.5" y="-88.8" font-family="Times,serif" font-size="14.00">text</text>
<text text-anchor="middle" x="99.5" y="-73.8" font-family="Times,serif" font-size="14.00">media</text>
</g>
<!-- vscode&#45;&#45;git -->
<g id="edge37" class="edge">
<title>vscode&#45;&#45;git</title>
<path fill="none" stroke="black" d="M97.25,-40.8C119.96,-44.13 149.08,-48.36 175,-52 380.27,-80.8 442.86,-57.46 633,-140 639.84,-142.97 646.72,-147.33 652.6,-151.58"/>
<text text-anchor="middle" x="729" y="-96.3" font-family="Times,serif" font-size="14.00">VSCode is the Primary Git Interface</text>
</g>
<!-- vscode&#45;&#45;graphviz -->
<g id="edge38" class="edge">
<title>vscode&#45;&#45;graphviz</title>
<path fill="none" stroke="black" d="M84.17,-48.17C118.36,-65.81 180.66,-94.96 238,-106 266.8,-111.55 277.02,-117.51 304,-106 329.64,-95.06 350.32,-69.4 362.14,-51.87"/>
<text text-anchor="middle" x="271" y="-103.8" font-family="Times,serif" font-size="14.00">VSCode</text>
<text text-anchor="middle" x="271" y="-88.8" font-family="Times,serif" font-size="14.00">Previews</text>
</g>
<!-- vscode&#45;&#45;markdown -->
<g id="edge39" class="edge">
<title>vscode&#45;&#45;markdown</title>
<path fill="none" stroke="black" d="M100.67,-34C125.34,-34 156.77,-34 183.91,-34"/>
<text text-anchor="middle" x="142.23" y="-55.8" font-family="Times,serif" font-size="14.00">VSCode</text>
<text text-anchor="middle" x="142.23" y="-40.8" font-family="Times,serif" font-size="14.00">Previews</text>
</g>
<!-- github&#45;&#45;ghp -->
<g id="edge36" class="edge">
<title>github&#45;&#45;ghp</title>
<path fill="none" stroke="black" d="M1288.21,-166C1320.24,-166 1365.54,-166 1403.96,-166"/>
<text text-anchor="middle" x="1346.1" y="-202.8" font-family="Times,serif" font-size="14.00">GitHub Hosts</text>
<text text-anchor="middle" x="1346.1" y="-187.8" font-family="Times,serif" font-size="14.00">GitHub Pages</text>
<text text-anchor="middle" x="1346.1" y="-172.8" font-family="Times,serif" font-size="14.00">Content</text>
</g>
<!-- content_publication_ifttt&#45;&#45;rss -->
<g id="edge27" class="edge">
<title>content_publication_ifttt&#45;&#45;rss</title>
<path fill="none" stroke="black" d="M2307.72,-166C2270.27,-166 2214.87,-166 2182.1,-166"/>
<text text-anchor="middle" x="2245" y="-172.8" font-family="Times,serif" font-size="14.00">IFTTT Watches</text>
</g>
<!-- content_publication_ifttt&#45;&#45;twitter -->
<g id="edge22" class="edge">
<title>content_publication_ifttt&#45;&#45;twitter</title>
<path fill="none" stroke="black" d="M2317.04,-177.54C2239.26,-206.03 2024.51,-275.31 1846,-245.5 1770.49,-232.89 1686.62,-198.54 1643.72,-179.38"/>
<text text-anchor="middle" x="1868" y="-243.3" font-family="Times,serif" font-size="14.00">IFTTT</text>
<text text-anchor="middle" x="1868" y="-228.3" font-family="Times,serif" font-size="14.00">Posts</text>
<text text-anchor="middle" x="1868" y="-213.3" font-family="Times,serif" font-size="14.00">to</text>
</g>
<!-- content_publication_ifttt&#45;&#45;facebook -->
<g id="edge23" class="edge">
<title>content_publication_ifttt&#45;&#45;facebook</title>
<path fill="none" stroke="black" d="M2313.49,-175.35C2223.11,-200.02 1975.73,-263.74 1895,-245.5 1840.97,-233.3 1783.93,-201.44 1752.47,-181.96"/>
<text text-anchor="middle" x="1917" y="-243.3" font-family="Times,serif" font-size="14.00">IFTTT</text>
<text text-anchor="middle" x="1917" y="-228.3" font-family="Times,serif" font-size="14.00">Posts</text>
<text text-anchor="middle" x="1917" y="-213.3" font-family="Times,serif" font-size="14.00">to</text>
</g>
<!-- content_publication_ifttt&#45;&#45;reddit -->
<g id="edge24" class="edge">
<title>content_publication_ifttt&#45;&#45;reddit</title>
<path fill="none" stroke="black" d="M2320.71,-179.52C2281.8,-198.7 2206.02,-232.87 2137,-245.5 2033.12,-264.51 1912.45,-207.81 1861.59,-180.19"/>
<text text-anchor="middle" x="2115" y="-243.3" font-family="Times,serif" font-size="14.00">IFTTT</text>
<text text-anchor="middle" x="2115" y="-228.3" font-family="Times,serif" font-size="14.00">Posts</text>
<text text-anchor="middle" x="2115" y="-213.3" font-family="Times,serif" font-size="14.00">to</text>
</g>
<!-- content_publication_ifttt&#45;&#45;linkedin -->
<g id="edge25" class="edge">
<title>content_publication_ifttt&#45;&#45;linkedin</title>
<path fill="none" stroke="black" d="M2317.73,-177.91C2250.19,-204.66 2085.21,-265.64 2032,-245.5 1999.44,-233.18 1971.06,-203.1 1955.26,-183.68"/>
<text text-anchor="middle" x="2054" y="-243.3" font-family="Times,serif" font-size="14.00">IFTTT</text>
<text text-anchor="middle" x="2054" y="-228.3" font-family="Times,serif" font-size="14.00">Posts</text>
<text text-anchor="middle" x="2054" y="-213.3" font-family="Times,serif" font-size="14.00">to</text>
</g>
<!-- content_publication_buffer -->
<g id="node23" class="node">
<title>content_publication_buffer</title>
<ellipse fill="none" stroke="black" cx="2342" cy="-34" rx="39.79" ry="18"/>
<text text-anchor="middle" x="2342" y="-30.3" font-family="Times,serif" font-size="14.00">Buffer</text>
</g>
<!-- content_publication_ifttt&#45;&#45;content_publication_buffer -->
<g id="edge26" class="edge">
<title>content_publication_ifttt&#45;&#45;content_publication_buffer</title>
<path fill="none" stroke="black" d="M2346.34,-147.74C2345.38,-122.87 2343.62,-77.24 2342.67,-52.33"/>
<text text-anchor="middle" x="2367" y="-111.3" font-family="Times,serif" font-size="14.00">IFTTT</text>
<text text-anchor="middle" x="2367" y="-96.3" font-family="Times,serif" font-size="14.00">Posts</text>
<text text-anchor="middle" x="2367" y="-81.3" font-family="Times,serif" font-size="14.00">to</text>
</g>
<!-- content_publication_buffer&#45;&#45;gplus -->
<g id="edge28" class="edge">
<title>content_publication_buffer&#45;&#45;gplus</title>
<path fill="none" stroke="black" d="M2308.03,-43.67C2285.48,-49.89 2255.46,-59.08 2230,-70 2175.06,-93.55 2114.84,-129.62 2082.57,-149.87"/>
<text text-anchor="middle" x="2284.5" y="-96.3" font-family="Times,serif" font-size="14.00">Buffer Posts To</text>
</g>
</g>
</svg>
