<?xml version="1.0" encoding="UTF-8" standalone="no"?>
<!DOCTYPE svg PUBLIC "-//W3C//DTD SVG 1.1//EN"
 "http://www.w3.org/Graphics/SVG/1.1/DTD/svg11.dtd">
<!-- Generated by graphviz version 2.43.0 (0)
 -->
<!-- Title: script_flow Pages: 1 -->
<svg width="954pt" height="908pt"
 viewBox="0.00 0.00 954.12 908.00" xmlns="http://www.w3.org/2000/svg" xmlns:xlink="http://www.w3.org/1999/xlink">
<g id="graph0" class="graph" transform="scale(1 1) rotate(0) translate(4 904)">
<title>script_flow</title>
<polygon fill="white" stroke="transparent" points="-4,4 -4,-904 950.12,-904 950.12,4 -4,4"/>
<!-- begin -->
<g id="node1" class="node">
<title>begin</title>
<ellipse fill="none" stroke="black" cx="770.62" cy="-882" rx="42.79" ry="18"/>
<text text-anchor="middle" x="770.62" y="-878.3" font-family="Times,serif" font-size="14.00">BEGIN</text>
</g>
<!-- find_dot_files -->
<g id="node2" class="node">
<title>find_dot_files</title>
<ellipse fill="none" stroke="black" cx="770.62" cy="-810" rx="76.89" ry="18"/>
<text text-anchor="middle" x="770.62" y="-806.3" font-family="Times,serif" font-size="14.00">Find &#39;dot&#39; files</text>
</g>
<!-- begin&#45;&gt;find_dot_files -->
<g id="edge1" class="edge">
<title>begin&#45;&gt;find_dot_files</title>
<path fill="none" stroke="black" d="M770.62,-863.7C770.62,-855.98 770.62,-846.71 770.62,-838.11"/>
<polygon fill="black" stroke="black" points="774.12,-838.1 770.62,-828.1 767.12,-838.1 774.12,-838.1"/>
</g>
<!-- for_each_dot_file -->
<g id="node3" class="node">
<title>for_each_dot_file</title>
<ellipse fill="none" stroke="black" cx="770.62" cy="-738" rx="90.98" ry="18"/>
<text text-anchor="middle" x="770.62" y="-734.3" font-family="Times,serif" font-size="14.00">For each &#39;dot&#39; file</text>
</g>
<!-- find_dot_files&#45;&gt;for_each_dot_file -->
<g id="edge2" class="edge">
<title>find_dot_files&#45;&gt;for_each_dot_file</title>
<path fill="none" stroke="black" d="M770.62,-791.7C770.62,-783.98 770.62,-774.71 770.62,-766.11"/>
<polygon fill="black" stroke="black" points="774.12,-766.1 770.62,-756.1 767.12,-766.1 774.12,-766.1"/>
</g>
<!-- for_each_format -->
<g id="node4" class="node">
<title>for_each_format</title>
<ellipse fill="none" stroke="black" cx="376.62" cy="-666" rx="85.29" ry="18"/>
<text text-anchor="middle" x="376.62" y="-662.3" font-family="Times,serif" font-size="14.00">For each format</text>
</g>
<!-- for_each_dot_file&#45;&gt;for_each_format -->
<g id="edge3" class="edge">
<title>for_each_dot_file&#45;&gt;for_each_format</title>
<path fill="none" stroke="black" d="M705.12,-725.36C634.69,-712.85 522.99,-693 449.74,-679.99"/>
<polygon fill="black" stroke="black" points="450.13,-676.51 439.67,-678.2 448.9,-683.4 450.13,-676.51"/>
</g>
<!-- no_more_dot_files -->
<g id="node16" class="node">
<title>no_more_dot_files</title>
<text text-anchor="middle" x="872.62" y="-518.3" font-family="Times,serif" font-size="14.00">No more &#39;dot&#39; files</text>
</g>
<!-- for_each_dot_file&#45;&gt;no_more_dot_files -->
<g id="edge19" class="edge">
<title>for_each_dot_file&#45;&gt;no_more_dot_files</title>
<path fill="none" stroke="black" d="M778.79,-719.85C796.55,-682.6 838.75,-594.07 859.97,-549.54"/>
<polygon fill="black" stroke="black" points="863.26,-550.77 864.41,-540.23 856.94,-547.75 863.26,-550.77"/>
</g>
<!-- if_newer -->
<g id="node5" class="node">
<title>if_newer</title>
<ellipse fill="none" stroke="black" cx="170.62" cy="-594" rx="140.28" ry="18"/>
<text text-anchor="middle" x="170.62" y="-590.3" font-family="Times,serif" font-size="14.00">If &#39;dot&#39; file newer than asset</text>
</g>
<!-- for_each_format&#45;&gt;if_newer -->
<g id="edge4" class="edge">
<title>for_each_format&#45;&gt;if_newer</title>
<path fill="none" stroke="black" d="M333.69,-650.41C302.88,-639.94 261.07,-625.73 227.49,-614.33"/>
<polygon fill="black" stroke="black" points="228.4,-610.94 217.81,-611.04 226.15,-617.57 228.4,-610.94"/>
</g>
<!-- if_not_newer -->
<g id="node12" class="node">
<title>if_not_newer</title>
<ellipse fill="none" stroke="black" cx="573.62" cy="-594" rx="168.97" ry="18"/>
<text text-anchor="middle" x="573.62" y="-590.3" font-family="Times,serif" font-size="14.00">If &#39;dot&#39; file is not newer than asset</text>
</g>
<!-- for_each_format&#45;&gt;if_not_newer -->
<g id="edge12" class="edge">
<title>for_each_format&#45;&gt;if_not_newer</title>
<path fill="none" stroke="black" d="M414.15,-649.64C441.96,-639.32 480.35,-625.63 512.53,-614.53"/>
<polygon fill="black" stroke="black" points="513.97,-617.74 522.3,-611.18 511.7,-611.11 513.97,-617.74"/>
</g>
<!-- no_more_formats -->
<g id="node14" class="node">
<title>no_more_formats</title>
<text text-anchor="middle" x="521.62" y="-446.3" font-family="Times,serif" font-size="14.00">No more formats</text>
</g>
<!-- for_each_format&#45;&gt;no_more_formats -->
<g id="edge16" class="edge">
<title>for_each_format&#45;&gt;no_more_formats</title>
<path fill="none" stroke="black" d="M377.38,-647.93C378.84,-629.24 383.12,-598.88 395.62,-576 418.54,-534.03 459.97,-497.01 489.05,-474.36"/>
<polygon fill="black" stroke="black" points="491.45,-476.94 497.27,-468.09 487.2,-471.37 491.45,-476.94"/>
</g>
<!-- commit_dot -->
<g id="node6" class="node">
<title>commit_dot</title>
<ellipse fill="none" stroke="black" cx="170.62" cy="-522" rx="87.18" ry="18"/>
<text text-anchor="middle" x="170.62" y="-518.3" font-family="Times,serif" font-size="14.00">Commit &#39;dot&#39; file</text>
</g>
<!-- if_newer&#45;&gt;commit_dot -->
<g id="edge5" class="edge">
<title>if_newer&#45;&gt;commit_dot</title>
<path fill="none" stroke="black" d="M170.62,-575.7C170.62,-567.98 170.62,-558.71 170.62,-550.11"/>
<polygon fill="black" stroke="black" points="174.12,-550.1 170.62,-540.1 167.12,-550.1 174.12,-550.1"/>
</g>
<!-- render_asset -->
<g id="node7" class="node">
<title>render_asset</title>
<ellipse fill="none" stroke="black" cx="170.62" cy="-450" rx="71.49" ry="18"/>
<text text-anchor="middle" x="170.62" y="-446.3" font-family="Times,serif" font-size="14.00">Render asset</text>
</g>
<!-- commit_dot&#45;&gt;render_asset -->
<g id="edge6" class="edge">
<title>commit_dot&#45;&gt;render_asset</title>
<path fill="none" stroke="black" d="M170.62,-503.7C170.62,-495.98 170.62,-486.71 170.62,-478.11"/>
<polygon fill="black" stroke="black" points="174.12,-478.1 170.62,-468.1 167.12,-478.1 174.12,-478.1"/>
</g>
<!-- if_asset_png -->
<g id="node8" class="node">
<title>if_asset_png</title>
<ellipse fill="none" stroke="black" cx="125.62" cy="-378" rx="88.28" ry="18"/>
<text text-anchor="middle" x="125.62" y="-374.3" font-family="Times,serif" font-size="14.00">If asset is a PNG</text>
</g>
<!-- render_asset&#45;&gt;if_asset_png -->
<g id="edge7" class="edge">
<title>render_asset&#45;&gt;if_asset_png</title>
<path fill="none" stroke="black" d="M159.73,-432.05C154.5,-423.92 148.12,-414 142.3,-404.94"/>
<polygon fill="black" stroke="black" points="145.08,-402.79 136.72,-396.28 139.19,-406.58 145.08,-402.79"/>
</g>
<!-- if_asset_not_png -->
<g id="node13" class="node">
<title>if_asset_not_png</title>
<ellipse fill="none" stroke="black" cx="338.62" cy="-378" rx="106.68" ry="18"/>
<text text-anchor="middle" x="338.62" y="-374.3" font-family="Times,serif" font-size="14.00">If asset is not a PNG</text>
</g>
<!-- render_asset&#45;&gt;if_asset_not_png -->
<g id="edge14" class="edge">
<title>render_asset&#45;&gt;if_asset_not_png</title>
<path fill="none" stroke="black" d="M205.84,-434.33C230.62,-424 264.09,-410.06 291.22,-398.75"/>
<polygon fill="black" stroke="black" points="292.64,-401.95 300.52,-394.87 289.95,-395.49 292.64,-401.95"/>
</g>
<!-- pngquant -->
<g id="node9" class="node">
<title>pngquant</title>
<ellipse fill="none" stroke="black" cx="125.62" cy="-306" rx="76.89" ry="18"/>
<text text-anchor="middle" x="125.62" y="-302.3" font-family="Times,serif" font-size="14.00">Quantize PNG</text>
</g>
<!-- if_asset_png&#45;&gt;pngquant -->
<g id="edge8" class="edge">
<title>if_asset_png&#45;&gt;pngquant</title>
<path fill="none" stroke="black" d="M125.62,-359.7C125.62,-351.98 125.62,-342.71 125.62,-334.11"/>
<polygon fill="black" stroke="black" points="129.12,-334.1 125.62,-324.1 122.12,-334.1 129.12,-334.1"/>
</g>
<!-- pngcrush -->
<g id="node10" class="node">
<title>pngcrush</title>
<ellipse fill="none" stroke="black" cx="125.62" cy="-234" rx="63.09" ry="18"/>
<text text-anchor="middle" x="125.62" y="-230.3" font-family="Times,serif" font-size="14.00">Crush PNG</text>
</g>
<!-- pngquant&#45;&gt;pngcrush -->
<g id="edge9" class="edge">
<title>pngquant&#45;&gt;pngcrush</title>
<path fill="none" stroke="black" d="M125.62,-287.7C125.62,-279.98 125.62,-270.71 125.62,-262.11"/>
<polygon fill="black" stroke="black" points="129.12,-262.1 125.62,-252.1 122.12,-262.1 129.12,-262.1"/>
</g>
<!-- stage_for_commit -->
<g id="node11" class="node">
<title>stage_for_commit</title>
<ellipse fill="none" stroke="black" cx="125.62" cy="-162" rx="118.08" ry="18"/>
<text text-anchor="middle" x="125.62" y="-158.3" font-family="Times,serif" font-size="14.00">Stage asset for commit</text>
</g>
<!-- pngcrush&#45;&gt;stage_for_commit -->
<g id="edge10" class="edge">
<title>pngcrush&#45;&gt;stage_for_commit</title>
<path fill="none" stroke="black" d="M125.62,-215.7C125.62,-207.98 125.62,-198.71 125.62,-190.11"/>
<polygon fill="black" stroke="black" points="129.12,-190.1 125.62,-180.1 122.12,-190.1 129.12,-190.1"/>
</g>
<!-- stage_for_commit&#45;&gt;for_each_format -->
<g id="edge11" class="edge">
<title>stage_for_commit&#45;&gt;for_each_format</title>
<path fill="none" stroke="black" d="M96.47,-179.51C60.1,-202.52 2.62,-247.92 2.62,-305 2.62,-523 2.62,-523 2.62,-523 2.62,-563.45 -7.86,-584.3 21.62,-612 58.28,-646.45 189.89,-658.53 282.11,-662.75"/>
<polygon fill="black" stroke="black" points="282.17,-666.25 292.31,-663.19 282.47,-659.26 282.17,-666.25"/>
</g>
<!-- commit_staged -->
<g id="node15" class="node">
<title>commit_staged</title>
<ellipse fill="none" stroke="black" cx="607.62" cy="-90" rx="103.18" ry="18"/>
<text text-anchor="middle" x="607.62" y="-86.3" font-family="Times,serif" font-size="14.00">Commit staged files</text>
</g>
<!-- stage_for_commit&#45;&gt;commit_staged -->
<g id="edge21" class="edge">
<title>stage_for_commit&#45;&gt;commit_staged</title>
</g>
<!-- if_not_newer&#45;&gt;for_each_format -->
<g id="edge13" class="edge">
<title>if_not_newer&#45;&gt;for_each_format</title>
<path fill="none" stroke="black" d="M532.94,-611.53C503.79,-622.31 464.27,-636.36 432.22,-647.36"/>
<polygon fill="black" stroke="black" points="430.86,-644.12 422.53,-650.67 433.13,-650.75 430.86,-644.12"/>
</g>
<!-- if_asset_not_png&#45;&gt;for_each_format -->
<g id="edge15" class="edge">
<title>if_asset_not_png&#45;&gt;for_each_format</title>
<path fill="none" stroke="black" d="M340.92,-396.31C347.3,-444.31 365.25,-579.44 372.99,-637.7"/>
<polygon fill="black" stroke="black" points="369.57,-638.51 374.36,-647.97 376.51,-637.59 369.57,-638.51"/>
</g>
<!-- no_more_formats&#45;&gt;commit_staged -->
<g id="edge17" class="edge">
<title>no_more_formats&#45;&gt;commit_staged</title>
<path fill="none" stroke="black" d="M525.46,-431.61C531.02,-404.94 540.62,-352.27 540.62,-307 540.62,-307 540.62,-307 540.62,-233 540.62,-188.73 567.59,-143.47 587.31,-116.3"/>
<polygon fill="black" stroke="black" points="590.22,-118.25 593.41,-108.14 584.62,-114.05 590.22,-118.25"/>
</g>
<!-- commit_staged&#45;&gt;for_each_dot_file -->
<g id="edge18" class="edge">
<title>commit_staged&#45;&gt;for_each_dot_file</title>
<path fill="none" stroke="black" d="M650.02,-106.52C698.32,-127.27 770.62,-169.01 770.62,-233 770.62,-595 770.62,-595 770.62,-595 770.62,-635 770.62,-681.35 770.62,-709.92"/>
<polygon fill="black" stroke="black" points="767.12,-709.95 770.62,-719.95 774.12,-709.95 767.12,-709.95"/>
</g>
<!-- done -->
<g id="node17" class="node">
<title>done</title>
<ellipse fill="none" stroke="black" cx="672.62" cy="-18" rx="46.29" ry="18"/>
<text text-anchor="middle" x="672.62" y="-14.3" font-family="Times,serif" font-size="14.00">FINISH</text>
</g>
<!-- commit_staged&#45;&gt;done -->
<g id="edge22" class="edge">
<title>commit_staged&#45;&gt;done</title>
</g>
<!-- no_more_dot_files&#45;&gt;done -->
<g id="edge20" class="edge">
<title>no_more_dot_files&#45;&gt;done</title>
<path fill="none" stroke="black" d="M866.14,-503.79C856.79,-477.36 840.62,-424.99 840.62,-379 840.62,-379 840.62,-379 840.62,-161 840.62,-95.84 765.99,-54.46 716.21,-34.1"/>
<polygon fill="black" stroke="black" points="717.2,-30.73 706.62,-30.31 714.63,-37.24 717.2,-30.73"/>
</g>
</g>
</svg>
