<?xml version="1.0" encoding="UTF-8" standalone="no"?>
<!DOCTYPE svg PUBLIC "-//W3C//DTD SVG 1.1//EN"
 "http://www.w3.org/Graphics/SVG/1.1/DTD/svg11.dtd">
<!-- Generated by graphviz version 2.43.0 (0)
 -->
<!-- Title: blog_workflow Pages: 1 -->
<svg width="826pt" height="775pt"
 viewBox="0.00 0.00 826.14 775.48" xmlns="http://www.w3.org/2000/svg" xmlns:xlink="http://www.w3.org/1999/xlink">
<g id="graph0" class="graph" transform="scale(1 1) rotate(0) translate(4 771.48)">
<title>blog_workflow</title>
<polygon fill="white" stroke="transparent" points="-4,4 -4,-771.48 822.14,-771.48 822.14,4 -4,4"/>
<!-- vscode -->
<g id="node1" class="node">
<title>vscode</title>
<ellipse fill="none" stroke="black" cx="538.5" cy="-662.48" rx="98.58" ry="18"/>
<text text-anchor="middle" x="538.5" y="-658.78" font-family="Times,serif" font-size="14.00">Visual Studio Code</text>
</g>
<!-- git_local -->
<g id="node2" class="node">
<title>git_local</title>
<ellipse fill="none" stroke="black" cx="271.5" cy="-575.48" rx="74.99" ry="18"/>
<text text-anchor="middle" x="271.5" y="-571.78" font-family="Times,serif" font-size="14.00">Local git repo</text>
</g>
<!-- vscode&#45;&gt;git_local -->
<g id="edge1" class="edge">
<title>vscode&#45;&gt;git_local</title>
<path fill="none" stroke="black" d="M447.36,-655.47C392.14,-650.38 327.96,-641.45 304.5,-626.48 295.52,-620.75 288.44,-611.6 283.18,-602.69"/>
<polygon fill="black" stroke="black" points="286.15,-600.81 278.36,-593.64 279.97,-604.11 286.15,-600.81"/>
<text text-anchor="middle" x="380" y="-615.28" font-family="Times,serif" font-size="14.00">Primary interface for</text>
</g>
<!-- vscode&#45;&gt;git_local -->
<g id="edge2" class="edge">
<title>vscode&#45;&gt;git_local</title>
<path fill="none" stroke="black" d="M506.63,-645.41C496.17,-639.79 484.64,-633.19 474.5,-626.48 465.52,-620.54 465.28,-615.95 455.5,-611.48 435.85,-602.51 387.04,-593.43 344.63,-586.76"/>
<polygon fill="black" stroke="black" points="344.99,-583.27 334.57,-585.21 343.92,-590.19 344.99,-583.27"/>
<text text-anchor="middle" x="524.5" y="-615.28" font-family="Times,serif" font-size="14.00">For writing to</text>
</g>
<!-- gv_preview -->
<g id="node3" class="node">
<title>gv_preview</title>
<ellipse fill="none" stroke="black" cx="600.5" cy="-575.48" rx="27.1" ry="18"/>
<text text-anchor="middle" x="600.5" y="-571.78" font-family="Times,serif" font-size="14.00">Dot</text>
</g>
<!-- vscode&#45;&gt;gv_preview -->
<g id="edge3" class="edge">
<title>vscode&#45;&gt;gv_preview</title>
<path fill="none" stroke="black" d="M560.94,-644.86C567.18,-639.49 573.58,-633.17 578.5,-626.48 583.76,-619.31 588.13,-610.67 591.54,-602.61"/>
<polygon fill="black" stroke="black" points="594.83,-603.79 595.23,-593.21 588.32,-601.24 594.83,-603.79"/>
<text text-anchor="middle" x="620.5" y="-615.28" font-family="Times,serif" font-size="14.00">Previews</text>
</g>
<!-- md_preview -->
<g id="node4" class="node">
<title>md_preview</title>
<ellipse fill="none" stroke="black" cx="705.5" cy="-575.48" rx="59.59" ry="18"/>
<text text-anchor="middle" x="705.5" y="-571.78" font-family="Times,serif" font-size="14.00">Markdown</text>
</g>
<!-- vscode&#45;&gt;md_preview -->
<g id="edge4" class="edge">
<title>vscode&#45;&gt;md_preview</title>
<path fill="none" stroke="black" d="M603.75,-648.85C621.96,-643.61 641.21,-636.38 657.5,-626.48 668.31,-619.91 678.35,-610.3 686.41,-601.25"/>
<polygon fill="black" stroke="black" points="689.16,-603.43 692.96,-593.54 683.82,-598.89 689.16,-603.43"/>
<text text-anchor="middle" x="708.5" y="-615.28" font-family="Times,serif" font-size="14.00">Previews</text>
</g>
<!-- jekyll_local -->
<g id="node6" class="node">
<title>jekyll_local</title>
<ellipse fill="none" stroke="black" cx="271.5" cy="-479.61" rx="72.25" ry="26.74"/>
<text text-anchor="middle" x="271.5" y="-483.41" font-family="Times,serif" font-size="14.00">Jekyll</text>
<text text-anchor="middle" x="271.5" y="-468.41" font-family="Times,serif" font-size="14.00">(locally&#45;run)</text>
</g>
<!-- git_local&#45;&gt;jekyll_local -->
<g id="edge6" class="edge">
<title>git_local&#45;&gt;jekyll_local</title>
<path fill="none" stroke="black" d="M271.5,-557.26C271.5,-545.96 271.5,-530.75 271.5,-516.86"/>
<polygon fill="black" stroke="black" points="275,-516.58 271.5,-506.58 268,-516.58 275,-516.58"/>
<text text-anchor="middle" x="321.5" y="-528.28" font-family="Times,serif" font-size="14.00">Read from for</text>
</g>
<!-- gv_render -->
<g id="node7" class="node">
<title>gv_render</title>
<ellipse fill="none" stroke="black" cx="127.5" cy="-479.61" rx="53.89" ry="18"/>
<text text-anchor="middle" x="127.5" y="-475.91" font-family="Times,serif" font-size="14.00">GraphViz</text>
</g>
<!-- git_local&#45;&gt;gv_render -->
<g id="edge7" class="edge">
<title>git_local&#45;&gt;gv_render</title>
<path fill="none" stroke="black" d="M216.4,-563.18C199.57,-557.9 181.76,-550.31 167.5,-539.48 156.08,-530.81 146.8,-517.92 140.06,-506.4"/>
<polygon fill="black" stroke="black" points="143.09,-504.65 135.21,-497.57 136.95,-508.02 143.09,-504.65"/>
<text text-anchor="middle" x="217.5" y="-528.28" font-family="Times,serif" font-size="14.00">Read from for</text>
</g>
<!-- git_github -->
<g id="node8" class="node">
<title>git_github</title>
<ellipse fill="none" stroke="black" cx="445.5" cy="-479.61" rx="83.69" ry="18"/>
<text text-anchor="middle" x="445.5" y="-475.91" font-family="Times,serif" font-size="14.00">GitHub git repo</text>
</g>
<!-- git_local&#45;&gt;git_github -->
<g id="edge8" class="edge">
<title>git_local&#45;&gt;git_github</title>
<path fill="none" stroke="black" d="M320.99,-561.97C338.8,-556.42 358.64,-548.95 375.5,-539.48 392.35,-530.01 409,-516.24 421.84,-504.39"/>
<polygon fill="black" stroke="black" points="424.45,-506.74 429.3,-497.32 419.63,-501.66 424.45,-506.74"/>
<text text-anchor="middle" x="431.5" y="-528.28" font-family="Times,serif" font-size="14.00">Pushes to</text>
</g>
<!-- Content -->
<g id="node5" class="node">
<title>Content</title>
<ellipse fill="none" stroke="black" cx="538.5" cy="-749.48" rx="48.19" ry="18"/>
<text text-anchor="middle" x="538.5" y="-745.78" font-family="Times,serif" font-size="14.00">Content</text>
</g>
<!-- Content&#45;&gt;vscode -->
<g id="edge5" class="edge">
<title>Content&#45;&gt;vscode</title>
<path fill="none" stroke="black" d="M538.5,-731.28C538.5,-719.64 538.5,-704.03 538.5,-690.72"/>
<polygon fill="black" stroke="black" points="542,-690.66 538.5,-680.66 535,-690.66 542,-690.66"/>
<text text-anchor="middle" x="581" y="-702.28" font-family="Times,serif" font-size="14.00">Authored in</text>
</g>
<!-- PNG -->
<g id="node9" class="node">
<title>PNG</title>
<ellipse fill="none" stroke="black" cx="32.5" cy="-662.48" rx="32.49" ry="18"/>
<text text-anchor="middle" x="32.5" y="-658.78" font-family="Times,serif" font-size="14.00">PNG</text>
</g>
<!-- gv_render&#45;&gt;PNG -->
<g id="edge9" class="edge">
<title>gv_render&#45;&gt;PNG</title>
<path fill="none" stroke="black" d="M108.31,-496.83C83.17,-519.48 40.33,-563.25 23.5,-611.48 20.94,-618.81 21.2,-627.01 22.65,-634.61"/>
<polygon fill="black" stroke="black" points="19.31,-635.67 25.21,-644.47 26.09,-633.92 19.31,-635.67"/>
<text text-anchor="middle" x="107" y="-571.78" font-family="Times,serif" font-size="14.00">Renders Dot to</text>
</g>
<!-- SVG -->
<g id="node10" class="node">
<title>SVG</title>
<ellipse fill="none" stroke="black" cx="180.5" cy="-662.48" rx="30.59" ry="18"/>
<text text-anchor="middle" x="180.5" y="-658.78" font-family="Times,serif" font-size="14.00">SVG</text>
</g>
<!-- gv_render&#45;&gt;SVG -->
<g id="edge10" class="edge">
<title>gv_render&#45;&gt;SVG</title>
<path fill="none" stroke="black" d="M156.65,-494.89C167.09,-499.38 179.09,-503.85 190.5,-506.48 220.87,-513.49 449.17,-501.74 470.5,-524.48 475.06,-529.34 474.07,-533.85 470.5,-539.48 455.36,-563.31 382.72,-585.99 355.5,-593.48 316.1,-604.32 199.94,-581.2 172.5,-611.48 166.64,-617.94 166.52,-626.9 168.58,-635.45"/>
<polygon fill="black" stroke="black" points="165.31,-636.73 171.77,-645.13 171.96,-634.54 165.31,-636.73"/>
<text text-anchor="middle" x="503" y="-571.78" font-family="Times,serif" font-size="14.00">Renders Dot to</text>
</g>
<!-- jekyll_gh -->
<g id="node11" class="node">
<title>jekyll_gh</title>
<ellipse fill="none" stroke="black" cx="445.5" cy="-374.87" rx="103.89" ry="26.74"/>
<text text-anchor="middle" x="445.5" y="-378.67" font-family="Times,serif" font-size="14.00">Jekyll</text>
<text text-anchor="middle" x="445.5" y="-363.67" font-family="Times,serif" font-size="14.00">(on GitHub Pages)</text>
</g>
<!-- git_github&#45;&gt;jekyll_gh -->
<g id="edge11" class="edge">
<title>git_github&#45;&gt;jekyll_gh</title>
<path fill="none" stroke="black" d="M445.5,-461.18C445.5,-447.72 445.5,-428.62 445.5,-411.91"/>
<polygon fill="black" stroke="black" points="449,-411.88 445.5,-401.88 442,-411.88 449,-411.88"/>
<text text-anchor="middle" x="467" y="-423.54" font-family="Times,serif" font-size="14.00">Feeds</text>
</g>
<!-- PNG&#45;&gt;git_local -->
<g id="edge15" class="edge">
<title>PNG&#45;&gt;git_local</title>
<path fill="none" stroke="black" d="M27.8,-644.66C25.9,-633.9 25.69,-620.34 33.5,-611.48 34.89,-609.9 129.03,-596.41 198.48,-586.65"/>
<polygon fill="black" stroke="black" points="199.12,-590.1 208.53,-585.24 198.14,-583.17 199.12,-590.1"/>
<text text-anchor="middle" x="83.5" y="-615.28" font-family="Times,serif" font-size="14.00">For writing to</text>
</g>
<!-- SVG&#45;&gt;git_local -->
<g id="edge16" class="edge">
<title>SVG&#45;&gt;git_local</title>
<path fill="none" stroke="black" d="M176.35,-644.26C174.87,-633.87 174.93,-620.87 181.5,-611.48 187.54,-602.84 196.04,-596.33 205.44,-591.43"/>
<polygon fill="black" stroke="black" points="207.03,-594.55 214.66,-587.2 204.12,-588.18 207.03,-594.55"/>
<text text-anchor="middle" x="231.5" y="-615.28" font-family="Times,serif" font-size="14.00">For writing to</text>
</g>
<!-- ga -->
<g id="node12" class="node">
<title>ga</title>
<ellipse fill="none" stroke="black" cx="396.5" cy="-279" rx="88.28" ry="18"/>
<text text-anchor="middle" x="396.5" y="-275.3" font-family="Times,serif" font-size="14.00">Google Analytics</text>
</g>
<!-- jekyll_gh&#45;&gt;ga -->
<g id="edge12" class="edge">
<title>jekyll_gh&#45;&gt;ga</title>
<path fill="none" stroke="black" d="M427.12,-347.95C423.38,-342.18 419.63,-335.99 416.5,-330 412.59,-322.55 408.96,-314.15 405.9,-306.4"/>
<polygon fill="black" stroke="black" points="409.16,-305.15 402.33,-297.05 402.62,-307.64 409.16,-305.15"/>
<text text-anchor="middle" x="454" y="-318.8" font-family="Times,serif" font-size="14.00">Integrates</text>
</g>
<!-- RSS -->
<g id="node13" class="node">
<title>RSS</title>
<ellipse fill="none" stroke="black" cx="532.5" cy="-279" rx="29.8" ry="18"/>
<text text-anchor="middle" x="532.5" y="-275.3" font-family="Times,serif" font-size="14.00">RSS</text>
</g>
<!-- jekyll_gh&#45;&gt;RSS -->
<g id="edge13" class="edge">
<title>jekyll_gh&#45;&gt;RSS</title>
<path fill="none" stroke="black" d="M472.8,-348.89C479.09,-342.85 485.64,-336.31 491.5,-330 499.17,-321.73 507.14,-312.25 513.99,-303.78"/>
<polygon fill="black" stroke="black" points="516.91,-305.73 520.41,-295.73 511.44,-301.36 516.91,-305.73"/>
<text text-anchor="middle" x="541.5" y="-318.8" font-family="Times,serif" font-size="14.00">Generates</text>
</g>
<!-- IFTTT -->
<g id="node14" class="node">
<title>IFTTT</title>
<ellipse fill="none" stroke="black" cx="532.5" cy="-192" rx="38.99" ry="18"/>
<text text-anchor="middle" x="532.5" y="-188.3" font-family="Times,serif" font-size="14.00">IFTTT</text>
</g>
<!-- RSS&#45;&gt;IFTTT -->
<g id="edge14" class="edge">
<title>RSS&#45;&gt;IFTTT</title>
<path fill="none" stroke="black" d="M532.5,-260.8C532.5,-249.16 532.5,-233.55 532.5,-220.24"/>
<polygon fill="black" stroke="black" points="536,-220.18 532.5,-210.18 529,-220.18 536,-220.18"/>
<text text-anchor="middle" x="581" y="-231.8" font-family="Times,serif" font-size="14.00">Monitored by</text>
</g>
<!-- Twitter -->
<g id="node15" class="node">
<title>Twitter</title>
<ellipse fill="none" stroke="black" cx="301.5" cy="-105" rx="44.69" ry="18"/>
<text text-anchor="middle" x="301.5" y="-101.3" font-family="Times,serif" font-size="14.00">Twitter</text>
</g>
<!-- IFTTT&#45;&gt;Twitter -->
<g id="edge17" class="edge">
<title>IFTTT&#45;&gt;Twitter</title>
<path fill="none" stroke="black" d="M498.3,-183.21C472.66,-176.96 436.91,-167.37 406.5,-156 382.5,-147.03 356.49,-134.67 336.36,-124.48"/>
<polygon fill="black" stroke="black" points="337.77,-121.27 327.27,-119.82 334.58,-127.5 337.77,-121.27"/>
<text text-anchor="middle" x="431.5" y="-144.8" font-family="Times,serif" font-size="14.00">Post to</text>
</g>
<!-- Facebook -->
<g id="node16" class="node">
<title>Facebook</title>
<ellipse fill="none" stroke="black" cx="418.5" cy="-105" rx="53.89" ry="18"/>
<text text-anchor="middle" x="418.5" y="-101.3" font-family="Times,serif" font-size="14.00">Facebook</text>
</g>
<!-- IFTTT&#45;&gt;Facebook -->
<g id="edge18" class="edge">
<title>IFTTT&#45;&gt;Facebook</title>
<path fill="none" stroke="black" d="M510.02,-177.28C500.17,-171.05 488.57,-163.42 478.5,-156 467.04,-147.56 454.89,-137.64 444.55,-128.87"/>
<polygon fill="black" stroke="black" points="446.56,-125.98 436.68,-122.13 442,-131.29 446.56,-125.98"/>
<text text-anchor="middle" x="503.5" y="-144.8" font-family="Times,serif" font-size="14.00">Post to</text>
</g>
<!-- Reddit -->
<g id="node17" class="node">
<title>Reddit</title>
<ellipse fill="none" stroke="black" cx="532.5" cy="-105" rx="41.69" ry="18"/>
<text text-anchor="middle" x="532.5" y="-101.3" font-family="Times,serif" font-size="14.00">Reddit</text>
</g>
<!-- IFTTT&#45;&gt;Reddit -->
<g id="edge19" class="edge">
<title>IFTTT&#45;&gt;Reddit</title>
<path fill="none" stroke="black" d="M532.5,-173.8C532.5,-162.16 532.5,-146.55 532.5,-133.24"/>
<polygon fill="black" stroke="black" points="536,-133.18 532.5,-123.18 529,-133.18 536,-133.18"/>
<text text-anchor="middle" x="557.5" y="-144.8" font-family="Times,serif" font-size="14.00">Post to</text>
</g>
<!-- LinkedIn -->
<g id="node18" class="node">
<title>LinkedIn</title>
<ellipse fill="none" stroke="black" cx="643.5" cy="-105" rx="51.19" ry="18"/>
<text text-anchor="middle" x="643.5" y="-101.3" font-family="Times,serif" font-size="14.00">LinkedIn</text>
</g>
<!-- IFTTT&#45;&gt;LinkedIn -->
<g id="edge20" class="edge">
<title>IFTTT&#45;&gt;LinkedIn</title>
<path fill="none" stroke="black" d="M555.33,-177.23C565.14,-171.05 576.61,-163.48 586.5,-156 597.43,-147.73 608.9,-137.91 618.67,-129.18"/>
<polygon fill="black" stroke="black" points="621.03,-131.76 626.09,-122.45 616.33,-126.57 621.03,-131.76"/>
<text text-anchor="middle" x="629.5" y="-144.8" font-family="Times,serif" font-size="14.00">Post to</text>
</g>
<!-- Buffer -->
<g id="node19" class="node">
<title>Buffer</title>
<ellipse fill="none" stroke="black" cx="752.5" cy="-105" rx="39.79" ry="18"/>
<text text-anchor="middle" x="752.5" y="-101.3" font-family="Times,serif" font-size="14.00">Buffer</text>
</g>
<!-- IFTTT&#45;&gt;Buffer -->
<g id="edge21" class="edge">
<title>IFTTT&#45;&gt;Buffer</title>
<path fill="none" stroke="black" d="M567.12,-183.54C592.81,-177.48 628.45,-168 658.5,-156 679.99,-147.42 702.94,-135.28 720.78,-125.1"/>
<polygon fill="black" stroke="black" points="722.71,-128.03 729.61,-119.99 719.2,-121.97 722.71,-128.03"/>
<text text-anchor="middle" x="718" y="-144.8" font-family="Times,serif" font-size="14.00">Adds to</text>
</g>
<!-- gplus -->
<g id="node20" class="node">
<title>gplus</title>
<ellipse fill="none" stroke="black" cx="752.5" cy="-18" rx="65.79" ry="18"/>
<text text-anchor="middle" x="752.5" y="-14.3" font-family="Times,serif" font-size="14.00">Google Plus</text>
</g>
<!-- Buffer&#45;&gt;gplus -->
<g id="edge22" class="edge">
<title>Buffer&#45;&gt;gplus</title>
<path fill="none" stroke="black" d="M752.5,-86.8C752.5,-75.16 752.5,-59.55 752.5,-46.24"/>
<polygon fill="black" stroke="black" points="756,-46.18 752.5,-36.18 749,-46.18 756,-46.18"/>
<text text-anchor="middle" x="781.5" y="-57.8" font-family="Times,serif" font-size="14.00">Posts to</text>
</g>
</g>
</svg>
