<?xml version="1.0" encoding="UTF-8" standalone="no"?>
<!DOCTYPE svg PUBLIC "-//W3C//DTD SVG 1.1//EN"
 "http://www.w3.org/Graphics/SVG/1.1/DTD/svg11.dtd">
<!-- Generated by graphviz version 2.43.0 (0)
 -->
<!-- Title: %3 Pages: 1 -->
<svg width="557pt" height="249pt"
 viewBox="0.00 0.00 557.00 249.00" xmlns="http://www.w3.org/2000/svg" xmlns:xlink="http://www.w3.org/1999/xlink">
<g id="graph0" class="graph" transform="scale(1 1) rotate(0) translate(4 245)">
<title>%3</title>
<polygon fill="white" stroke="transparent" points="-4,4 -4,-245 553,-245 553,4 -4,4"/>
<!-- sh_nn -->
<g id="node1" class="node">
<title>sh_nn</title>
<text text-anchor="middle" x="359" y="-225.8" font-family="Times,serif" font-size="14.00">Sh</text>
<text text-anchor="middle" x="359" y="-210.8" font-family="Times,serif" font-size="14.00">Non&#45;Login</text>
<text text-anchor="middle" x="359" y="-195.8" font-family="Times,serif" font-size="14.00">Non&#45;Interactive</text>
</g>
<!-- sh_nn_running -->
<g id="node5" class="node">
<title>sh_nn_running</title>
<text text-anchor="middle" x="504" y="-205.8" font-family="Times,serif" font-size="14.00">Running...</text>
</g>
<!-- sh_nn&#45;&gt;sh_nn_running -->
<g id="edge6" class="edge">
<title>sh_nn&#45;&gt;sh_nn_running</title>
<path fill="none" stroke="black" stroke-width="5" d="M423.14,-212.29C431.56,-212 440.13,-211.7 448.38,-211.41"/>
<polygon fill="black" stroke="black" stroke-width="5" points="448.79,-215.77 458.64,-211.05 448.49,-207.03 448.79,-215.77"/>
</g>
<!-- sh_ni -->
<g id="node2" class="node">
<title>sh_ni</title>
<text text-anchor="middle" x="195" y="-171.8" font-family="Times,serif" font-size="14.00">Sh</text>
<text text-anchor="middle" x="195" y="-156.8" font-family="Times,serif" font-size="14.00">Non&#45;Login</text>
<text text-anchor="middle" x="195" y="-141.8" font-family="Times,serif" font-size="14.00">Interactive</text>
</g>
<!-- sh_ni_env -->
<g id="node9" class="node">
<title>sh_ni_env</title>
<text text-anchor="middle" x="359" y="-147.8" font-family="Times,serif" font-size="14.00">$ENV</text>
</g>
<!-- sh_ni&#45;&gt;sh_ni_env -->
<g id="edge7" class="edge">
<title>sh_ni&#45;&gt;sh_ni_env</title>
<path fill="none" stroke="orange" stroke-width="5" d="M242.86,-157.9C267.17,-156.55 296.5,-154.92 319.48,-153.64"/>
<polygon fill="orange" stroke="orange" stroke-width="5" points="319.8,-158 329.54,-153.08 319.32,-149.27 319.8,-158"/>
</g>
<!-- sh_ln -->
<g id="node3" class="node">
<title>sh_ln</title>
<text text-anchor="middle" x="195" y="-100.8" font-family="Times,serif" font-size="14.00">Sh</text>
<text text-anchor="middle" x="195" y="-85.8" font-family="Times,serif" font-size="14.00">Login</text>
<text text-anchor="middle" x="195" y="-70.8" font-family="Times,serif" font-size="14.00">Non&#45;Interactive</text>
</g>
<!-- sh_ln_home_profile -->
<g id="node11" class="node">
<title>sh_ln_home_profile</title>
<text text-anchor="middle" x="359" y="-85.8" font-family="Times,serif" font-size="14.00">~/.profile</text>
</g>
<!-- sh_ln&#45;&gt;sh_ln_home_profile -->
<g id="edge9" class="edge">
<title>sh_ln&#45;&gt;sh_ln_home_profile</title>
<path fill="none" stroke="#35b4e9" stroke-width="5" d="M259.1,-89.5C274.98,-89.5 291.82,-89.5 307.03,-89.5"/>
<polygon fill="#35b4e9" stroke="#35b4e9" stroke-width="5" points="307.26,-93.88 317.26,-89.5 307.26,-85.13 307.26,-93.88"/>
</g>
<!-- sh_li -->
<g id="node4" class="node">
<title>sh_li</title>
<text text-anchor="middle" x="47.5" y="-37.8" font-family="Times,serif" font-size="14.00">Sh</text>
<text text-anchor="middle" x="47.5" y="-22.8" font-family="Times,serif" font-size="14.00">Login</text>
<text text-anchor="middle" x="47.5" y="-7.8" font-family="Times,serif" font-size="14.00">Interactive</text>
</g>
<!-- sh_li_home_profile -->
<g id="node12" class="node">
<title>sh_li_home_profile</title>
<text text-anchor="middle" x="195" y="-22.8" font-family="Times,serif" font-size="14.00">~/.profile</text>
</g>
<!-- sh_li&#45;&gt;sh_li_home_profile -->
<g id="edge11" class="edge">
<title>sh_li&#45;&gt;sh_li_home_profile</title>
<path fill="none" stroke="#009e73" stroke-width="5" d="M95.34,-26.5C110.46,-26.5 127.29,-26.5 142.72,-26.5"/>
<polygon fill="#009e73" stroke="#009e73" stroke-width="5" points="143.13,-30.88 153.13,-26.5 143.13,-22.13 143.13,-30.88"/>
</g>
<!-- sh_ni_running -->
<g id="node6" class="node">
<title>sh_ni_running</title>
<text text-anchor="middle" x="504" y="-147.8" font-family="Times,serif" font-size="14.00">Running...</text>
</g>
<!-- sh_nn_running&#45;&gt;sh_ni_running -->
<g id="edge1" class="edge">
<title>sh_nn_running&#45;&gt;sh_ni_running</title>
<path fill="none" stroke="black" stroke-dasharray="1,5" d="M504,-191.43C504,-184.16 504,-176.89 504,-169.62"/>
</g>
<!-- sh_ln_running -->
<g id="node7" class="node">
<title>sh_ln_running</title>
<text text-anchor="middle" x="504" y="-85.8" font-family="Times,serif" font-size="14.00">Running...</text>
</g>
<!-- sh_ni_running&#45;&gt;sh_ln_running -->
<g id="edge2" class="edge">
<title>sh_ni_running&#45;&gt;sh_ln_running</title>
<path fill="none" stroke="black" stroke-dasharray="1,5" d="M504,-133.45C504,-124.94 504,-116.42 504,-107.91"/>
</g>
<!-- sh_li_running -->
<g id="node8" class="node">
<title>sh_li_running</title>
<text text-anchor="middle" x="504" y="-29.8" font-family="Times,serif" font-size="14.00">Running...</text>
</g>
<!-- sh_ln_running&#45;&gt;sh_li_running -->
<g id="edge3" class="edge">
<title>sh_ln_running&#45;&gt;sh_li_running</title>
<path fill="none" stroke="black" stroke-dasharray="1,5" d="M504,-71.28C504,-64.81 504,-58.34 504,-51.88"/>
</g>
<!-- sh_ni_env&#45;&gt;sh_ni_running -->
<g id="edge8" class="edge">
<title>sh_ni_env&#45;&gt;sh_ni_running</title>
<path fill="none" stroke="orange" stroke-width="5" d="M388.25,-151.5C405.45,-151.5 428,-151.5 448.55,-151.5"/>
<polygon fill="orange" stroke="orange" stroke-width="5" points="448.76,-155.88 458.76,-151.5 448.76,-147.13 448.76,-155.88"/>
</g>
<!-- sh_li_env -->
<g id="node10" class="node">
<title>sh_li_env</title>
<text text-anchor="middle" x="359" y="-25.8" font-family="Times,serif" font-size="14.00">$ENV</text>
</g>
<!-- sh_ni_env&#45;&gt;sh_li_env -->
<g id="edge4" class="edge">
<title>sh_ni_env&#45;&gt;sh_li_env</title>
<path fill="none" stroke="black" stroke-dasharray="1,5" d="M329.68,-144.13C311.05,-137.76 288.36,-126.49 277,-107.5 268.79,-93.77 268.65,-85.15 277,-71.5 288.43,-52.8 311.11,-42.09 329.73,-36.17"/>
</g>
<!-- sh_li_env&#45;&gt;sh_li_running -->
<g id="edge13" class="edge">
<title>sh_li_env&#45;&gt;sh_li_running</title>
<path fill="none" stroke="#009e73" stroke-width="5" d="M388.25,-30.29C405.45,-30.77 428,-31.4 448.55,-31.98"/>
<polygon fill="#009e73" stroke="#009e73" stroke-width="5" points="448.64,-36.36 458.76,-32.26 448.89,-27.61 448.64,-36.36"/>
</g>
<!-- sh_ln_home_profile&#45;&gt;sh_ln_running -->
<g id="edge10" class="edge">
<title>sh_ln_home_profile&#45;&gt;sh_ln_running</title>
<path fill="none" stroke="#35b4e9" stroke-width="5" d="M400.6,-89.5C415.5,-89.5 432.62,-89.5 448.54,-89.5"/>
<polygon fill="#35b4e9" stroke="#35b4e9" stroke-width="5" points="448.79,-93.88 458.79,-89.5 448.79,-85.13 448.79,-93.88"/>
</g>
<!-- sh_ln_home_profile&#45;&gt;sh_li_home_profile -->
<g id="edge5" class="edge">
<title>sh_ln_home_profile&#45;&gt;sh_li_home_profile</title>
<path fill="none" stroke="black" stroke-dasharray="1,5" d="M317.41,-73.72C292.82,-64.15 261.53,-51.98 236.88,-42.4"/>
</g>
<!-- sh_li_home_profile&#45;&gt;sh_li_env -->
<g id="edge12" class="edge">
<title>sh_li_home_profile&#45;&gt;sh_li_env</title>
<path fill="none" stroke="#009e73" stroke-width="5" d="M236.88,-27.26C262.3,-27.73 294.79,-28.33 319.71,-28.79"/>
<polygon fill="#009e73" stroke="#009e73" stroke-width="5" points="319.81,-33.17 329.89,-28.98 319.97,-24.42 319.81,-33.17"/>
</g>
</g>
</svg>
