<?xml version="1.0" encoding="UTF-8" standalone="no"?>
<!DOCTYPE svg PUBLIC "-//W3C//DTD SVG 1.1//EN"
 "http://www.w3.org/Graphics/SVG/1.1/DTD/svg11.dtd">
<!-- Generated by graphviz version 2.38.0 (20140413.2041)
 -->
<!-- Title: %3 Pages: 1 -->
<svg width="468pt" height="249pt"
 viewBox="0.00 0.00 468.00 249.00" xmlns="http://www.w3.org/2000/svg" xmlns:xlink="http://www.w3.org/1999/xlink">
<g id="graph0" class="graph" transform="scale(1 1) rotate(0) translate(4 245)">
<title>%3</title>
<polygon fill="white" stroke="none" points="-4,4 -4,-245 464,-245 464,4 -4,4"/>
<!-- sh_nn -->
<g id="node1" class="node"><title>sh_nn</title>
<text text-anchor="middle" x="299" y="-225.8" font-family="Times,serif" font-size="14.00">Sh</text>
<text text-anchor="middle" x="299" y="-210.8" font-family="Times,serif" font-size="14.00">Non&#45;Login</text>
<text text-anchor="middle" x="299" y="-195.8" font-family="Times,serif" font-size="14.00">Non&#45;Interactive</text>
</g>
<!-- sh_nn_running -->
<g id="node5" class="node"><title>sh_nn_running</title>
<text text-anchor="middle" x="423" y="-205.8" font-family="Times,serif" font-size="14.00">Running...</text>
</g>
<!-- sh_nn&#45;&gt;sh_nn_running -->
<g id="edge6" class="edge"><title>sh_nn&#45;&gt;sh_nn_running</title>
<path fill="none" stroke="black" stroke-width="5" d="M350.326,-212.437C358.726,-212.093 367.404,-211.738 375.697,-211.398"/>
<polygon fill="black" stroke="black" stroke-width="5" points="376.133,-215.759 385.945,-210.978 375.774,-207.016 376.133,-215.759"/>
</g>
<!-- sh_ni -->
<g id="node2" class="node"><title>sh_ni</title>
<text text-anchor="middle" x="161" y="-171.8" font-family="Times,serif" font-size="14.00">Sh</text>
<text text-anchor="middle" x="161" y="-156.8" font-family="Times,serif" font-size="14.00">Non&#45;Login</text>
<text text-anchor="middle" x="161" y="-141.8" font-family="Times,serif" font-size="14.00">Interactive</text>
</g>
<!-- sh_ni_env -->
<g id="node9" class="node"><title>sh_ni_env</title>
<text text-anchor="middle" x="299" y="-147.8" font-family="Times,serif" font-size="14.00">$ENV</text>
</g>
<!-- sh_ni&#45;&gt;sh_ni_env -->
<g id="edge7" class="edge"><title>sh_ni&#45;&gt;sh_ni_env</title>
<path fill="none" stroke="orange" stroke-width="5" d="M199.523,-158.017C218.893,-156.735 242.425,-155.178 261.627,-153.907"/>
<polygon fill="orange" stroke="orange" stroke-width="5" points="262.106,-158.26 271.795,-153.234 261.528,-149.529 262.106,-158.26"/>
</g>
<!-- sh_ln -->
<g id="node3" class="node"><title>sh_ln</title>
<text text-anchor="middle" x="161" y="-100.8" font-family="Times,serif" font-size="14.00">Sh</text>
<text text-anchor="middle" x="161" y="-85.8" font-family="Times,serif" font-size="14.00">Login</text>
<text text-anchor="middle" x="161" y="-70.8" font-family="Times,serif" font-size="14.00">Non&#45;Interactive</text>
</g>
<!-- sh_ln_home_profile -->
<g id="node11" class="node"><title>sh_ln_home_profile</title>
<text text-anchor="middle" x="299" y="-85.8" font-family="Times,serif" font-size="14.00">~/.profile</text>
</g>
<!-- sh_ln&#45;&gt;sh_ln_home_profile -->
<g id="edge9" class="edge"><title>sh_ln&#45;&gt;sh_ln_home_profile</title>
<path fill="none" stroke="#35b4e9" stroke-width="5" d="M212.255,-89.5C226.244,-89.5 241.31,-89.5 254.852,-89.5"/>
<polygon fill="#35b4e9" stroke="#35b4e9" stroke-width="5" points="254.867,-93.8751 264.867,-89.5 254.867,-85.1251 254.867,-93.8751"/>
</g>
<!-- sh_li -->
<g id="node4" class="node"><title>sh_li</title>
<text text-anchor="middle" x="37" y="-37.8" font-family="Times,serif" font-size="14.00">Sh</text>
<text text-anchor="middle" x="37" y="-22.8" font-family="Times,serif" font-size="14.00">Login</text>
<text text-anchor="middle" x="37" y="-7.8" font-family="Times,serif" font-size="14.00">Interactive</text>
</g>
<!-- sh_li_home_profile -->
<g id="node12" class="node"><title>sh_li_home_profile</title>
<text text-anchor="middle" x="161" y="-22.8" font-family="Times,serif" font-size="14.00">~/.profile</text>
</g>
<!-- sh_li&#45;&gt;sh_li_home_profile -->
<g id="edge11" class="edge"><title>sh_li&#45;&gt;sh_li_home_profile</title>
<path fill="none" stroke="#009e73" stroke-width="5" d="M74.2737,-26.5C87.5949,-26.5 102.81,-26.5 116.688,-26.5"/>
<polygon fill="#009e73" stroke="#009e73" stroke-width="5" points="116.986,-30.8751 126.986,-26.5 116.986,-22.1251 116.986,-30.8751"/>
</g>
<!-- sh_ni_running -->
<g id="node6" class="node"><title>sh_ni_running</title>
<text text-anchor="middle" x="423" y="-147.8" font-family="Times,serif" font-size="14.00">Running...</text>
</g>
<!-- sh_nn_running&#45;&gt;sh_ni_running -->
<g id="edge1" class="edge"><title>sh_nn_running&#45;&gt;sh_ni_running</title>
<path fill="none" stroke="black" stroke-dasharray="1,5" d="M423,-191.432C423,-184.163 423,-176.894 423,-169.625"/>
</g>
<!-- sh_ln_running -->
<g id="node7" class="node"><title>sh_ln_running</title>
<text text-anchor="middle" x="423" y="-85.8" font-family="Times,serif" font-size="14.00">Running...</text>
</g>
<!-- sh_ni_running&#45;&gt;sh_ln_running -->
<g id="edge2" class="edge"><title>sh_ni_running&#45;&gt;sh_ln_running</title>
<path fill="none" stroke="black" stroke-dasharray="1,5" d="M423,-133.449C423,-124.935 423,-116.421 423,-107.906"/>
</g>
<!-- sh_li_running -->
<g id="node8" class="node"><title>sh_li_running</title>
<text text-anchor="middle" x="423" y="-29.8" font-family="Times,serif" font-size="14.00">Running...</text>
</g>
<!-- sh_ln_running&#45;&gt;sh_li_running -->
<g id="edge3" class="edge"><title>sh_ln_running&#45;&gt;sh_li_running</title>
<path fill="none" stroke="black" stroke-dasharray="1,5" d="M423,-71.2754C423,-64.8086 423,-58.3418 423,-51.875"/>
</g>
<!-- sh_ni_env&#45;&gt;sh_ni_running -->
<g id="edge8" class="edge"><title>sh_ni_env&#45;&gt;sh_ni_running</title>
<path fill="none" stroke="orange" stroke-width="5" d="M326.172,-151.5C340.551,-151.5 358.814,-151.5 375.53,-151.5"/>
<polygon fill="orange" stroke="orange" stroke-width="5" points="375.69,-155.875 385.69,-151.5 375.69,-147.125 375.69,-155.875"/>
</g>
<!-- sh_li_env -->
<g id="node10" class="node"><title>sh_li_env</title>
<text text-anchor="middle" x="299" y="-27.8" font-family="Times,serif" font-size="14.00">$ENV</text>
</g>
<!-- sh_ni_env&#45;&gt;sh_li_env -->
<g id="edge4" class="edge"><title>sh_ni_env&#45;&gt;sh_li_env</title>
<path fill="none" stroke="black" stroke-dasharray="1,5" d="M271.762,-141.785C256.535,-134.788 238.88,-123.695 230,-107.5 222.307,-93.4707 222.012,-85.3635 230,-71.5 238.986,-55.9032 256.639,-45.832 271.839,-39.6964"/>
</g>
<!-- sh_li_env&#45;&gt;sh_li_running -->
<g id="edge13" class="edge"><title>sh_li_env&#45;&gt;sh_li_running</title>
<path fill="none" stroke="#009e73" stroke-width="5" d="M326.172,-31.9291C340.551,-32.1648 358.814,-32.4642 375.53,-32.7382"/>
<polygon fill="#009e73" stroke="#009e73" stroke-width="5" points="375.62,-37.1152 385.69,-32.9048 375.763,-28.3663 375.62,-37.1152"/>
</g>
<!-- sh_ln_home_profile&#45;&gt;sh_ln_running -->
<g id="edge10" class="edge"><title>sh_ln_home_profile&#45;&gt;sh_ln_running</title>
<path fill="none" stroke="#35b4e9" stroke-width="5" d="M333.015,-89.5C346.189,-89.5 361.587,-89.5 375.835,-89.5"/>
<polygon fill="#35b4e9" stroke="#35b4e9" stroke-width="5" points="375.958,-93.8751 385.958,-89.5 375.958,-85.1251 375.958,-93.8751"/>
</g>
<!-- sh_ln_home_profile&#45;&gt;sh_li_home_profile -->
<g id="edge5" class="edge"><title>sh_ln_home_profile&#45;&gt;sh_li_home_profile</title>
<path fill="none" stroke="black" stroke-dasharray="1,5" d="M264.603,-74.0292C243.503,-64.2552 216.344,-51.6742 195.269,-41.9115"/>
</g>
<!-- sh_li_home_profile&#45;&gt;sh_li_env -->
<g id="edge12" class="edge"><title>sh_li_home_profile&#45;&gt;sh_li_env</title>
<path fill="none" stroke="#009e73" stroke-width="5" d="M195.269,-27.7231C215.359,-28.4617 240.977,-29.4036 261.605,-30.1619"/>
<polygon fill="#009e73" stroke="#009e73" stroke-width="5" points="261.727,-34.5443 271.881,-30.5397 262.048,-25.8002 261.727,-34.5443"/>
</g>
</g>
</svg>
