<?xml version="1.0" encoding="UTF-8" standalone="no"?>
<!DOCTYPE svg PUBLIC "-//W3C//DTD SVG 1.1//EN"
 "http://www.w3.org/Graphics/SVG/1.1/DTD/svg11.dtd">
<!-- Generated by graphviz version 2.43.0 (0)
 -->
<!-- Title: node_edge_label_many Pages: 1 -->
<svg width="468pt" height="131pt"
 viewBox="0.00 0.00 468.00 131.00" xmlns="http://www.w3.org/2000/svg" xmlns:xlink="http://www.w3.org/1999/xlink">
<g id="graph0" class="graph" transform="scale(1 1) rotate(0) translate(4 127)">
<title>node_edge_label_many</title>
<polygon fill="white" stroke="transparent" points="-4,4 -4,-127 464,-127 464,4 -4,4"/>
<!-- A -->
<g id="node1" class="node">
<title>A</title>
<ellipse fill="none" stroke="black" cx="183" cy="-105" rx="27" ry="18"/>
<text text-anchor="middle" x="183" y="-101.3" font-family="Times,serif" font-size="14.00">A</text>
</g>
<!-- B -->
<g id="node2" class="node">
<title>B</title>
<ellipse fill="none" stroke="black" cx="27" cy="-18" rx="27" ry="18"/>
<text text-anchor="middle" x="27" y="-14.3" font-family="Times,serif" font-size="14.00">B</text>
</g>
<!-- A&#45;&gt;B -->
<g id="edge1" class="edge">
<title>A&#45;&gt;B</title>
<path fill="none" stroke="black" d="M155.93,-104.15C125.56,-102.88 76.58,-96.31 46,-69 39.23,-62.95 34.86,-54.24 32.04,-45.77"/>
<polygon fill="black" stroke="black" points="35.42,-44.84 29.4,-36.11 28.67,-46.68 35.42,-44.84"/>
<text text-anchor="middle" x="112.5" y="-57.8" font-family="Times,serif" font-size="14.00">A descriptive label</text>
</g>
<!-- C -->
<g id="node3" class="node">
<title>C</title>
<ellipse fill="none" stroke="black" cx="183" cy="-18" rx="27" ry="18"/>
<text text-anchor="middle" x="183" y="-14.3" font-family="Times,serif" font-size="14.00">C</text>
</g>
<!-- A&#45;&gt;C -->
<g id="edge2" class="edge">
<title>A&#45;&gt;C</title>
<path fill="none" stroke="black" d="M183,-86.8C183,-75.16 183,-59.55 183,-46.24"/>
<polygon fill="black" stroke="black" points="186.5,-46.18 183,-36.18 179.5,-46.18 186.5,-46.18"/>
<text text-anchor="middle" x="249.5" y="-57.8" font-family="Times,serif" font-size="14.00">A descriptive label</text>
</g>
<!-- D -->
<g id="node4" class="node">
<title>D</title>
<ellipse fill="none" stroke="black" cx="339" cy="-18" rx="27" ry="18"/>
<text text-anchor="middle" x="339" y="-14.3" font-family="Times,serif" font-size="14.00">D</text>
</g>
<!-- A&#45;&gt;D -->
<g id="edge3" class="edge">
<title>A&#45;&gt;D</title>
<path fill="none" stroke="black" d="M210.04,-103.65C239.58,-101.88 286.72,-94.81 317,-69 324.06,-62.99 328.93,-54.28 332.26,-45.8"/>
<polygon fill="black" stroke="black" points="335.64,-46.74 335.5,-36.14 329,-44.51 335.64,-46.74"/>
<text text-anchor="middle" x="393.5" y="-57.8" font-family="Times,serif" font-size="14.00">A descriptive label</text>
</g>
</g>
</svg>
