<?xml version="1.0" encoding="UTF-8" standalone="no"?>
<!DOCTYPE svg PUBLIC "-//W3C//DTD SVG 1.1//EN"
 "http://www.w3.org/Graphics/SVG/1.1/DTD/svg11.dtd">
<!-- Generated by graphviz version 2.38.0 (20140413.2041)
 -->
<!-- Title: node_edge_label_many Pages: 1 -->
<svg width="378pt" height="131pt"
 viewBox="0.00 0.00 378.00 131.00" xmlns="http://www.w3.org/2000/svg" xmlns:xlink="http://www.w3.org/1999/xlink">
<g id="graph0" class="graph" transform="scale(1 1) rotate(0) translate(4 127)">
<title>node_edge_label_many</title>
<polygon fill="white" stroke="none" points="-4,4 -4,-127 374,-127 374,4 -4,4"/>
<!-- A -->
<g id="node1" class="node"><title>A</title>
<ellipse fill="none" stroke="black" cx="153" cy="-105" rx="27" ry="18"/>
<text text-anchor="middle" x="153" y="-101.3" font-family="Times,serif" font-size="14.00">A</text>
</g>
<!-- B -->
<g id="node2" class="node"><title>B</title>
<ellipse fill="none" stroke="black" cx="27" cy="-18" rx="27" ry="18"/>
<text text-anchor="middle" x="27" y="-14.3" font-family="Times,serif" font-size="14.00">B</text>
</g>
<!-- A&#45;&gt;B -->
<g id="edge1" class="edge"><title>A&#45;&gt;B</title>
<path fill="none" stroke="black" d="M126.412,-101.72C102.521,-98.3317 67.9192,-89.9121 46,-69 39.5993,-62.8933 35.3312,-54.4075 32.4949,-46.159"/>
<polygon fill="black" stroke="black" points="35.8157,-45.0414 29.6983,-36.3911 29.086,-46.9682 35.8157,-45.0414"/>
<text text-anchor="middle" x="97.5" y="-57.8" font-family="Times,serif" font-size="14.00">A descriptive label</text>
</g>
<!-- C -->
<g id="node3" class="node"><title>C</title>
<ellipse fill="none" stroke="black" cx="153" cy="-18" rx="27" ry="18"/>
<text text-anchor="middle" x="153" y="-14.3" font-family="Times,serif" font-size="14.00">C</text>
</g>
<!-- A&#45;&gt;C -->
<g id="edge2" class="edge"><title>A&#45;&gt;C</title>
<path fill="none" stroke="black" d="M153,-86.799C153,-75.1626 153,-59.5479 153,-46.2368"/>
<polygon fill="black" stroke="black" points="156.5,-46.1754 153,-36.1754 149.5,-46.1755 156.5,-46.1754"/>
<text text-anchor="middle" x="204.5" y="-57.8" font-family="Times,serif" font-size="14.00">A descriptive label</text>
</g>
<!-- D -->
<g id="node4" class="node"><title>D</title>
<ellipse fill="none" stroke="black" cx="279" cy="-18" rx="27" ry="18"/>
<text text-anchor="middle" x="279" y="-14.3" font-family="Times,serif" font-size="14.00">D</text>
</g>
<!-- A&#45;&gt;D -->
<g id="edge3" class="edge"><title>A&#45;&gt;D</title>
<path fill="none" stroke="black" d="M179.511,-101.111C202.539,-97.3249 235.485,-88.6637 257,-69 263.843,-62.746 268.668,-53.9781 272.018,-45.5278"/>
<polygon fill="black" stroke="black" points="275.378,-46.5182 275.306,-35.9236 268.755,-44.251 275.378,-46.5182"/>
<text text-anchor="middle" x="318.5" y="-57.8" font-family="Times,serif" font-size="14.00">A descriptive label</text>
</g>
</g>
</svg>
