<?xml version="1.0" encoding="UTF-8" standalone="no"?>
<!DOCTYPE svg PUBLIC "-//W3C//DTD SVG 1.1//EN"
 "http://www.w3.org/Graphics/SVG/1.1/DTD/svg11.dtd">
<!-- Generated by graphviz version 2.43.0 (0)
 -->
<!-- Title: blog_workflow Pages: 1 -->
<svg width="826pt" height="775pt"
 viewBox="0.00 0.00 826.14 775.48" xmlns="http://www.w3.org/2000/svg" xmlns:xlink="http://www.w3.org/1999/xlink">
<g id="graph0" class="graph" transform="scale(1 1) rotate(0) translate(4 771.48)">
<title>blog_workflow</title>
<polygon fill="white" stroke="transparent" points="-4,4 -4,-771.48 822.14,-771.48 822.14,4 -4,4"/>
<!-- vscode -->
<g id="node1" class="node">
<title>vscode</title>
<ellipse fill="none" stroke="black" cx="538.5" cy="-662.48" rx="98.58" ry="18"/>
<text text-anchor="middle" x="538.5" y="-658.78" font-family="Times,serif" font-size="14.00">Visual Studio Code</text>
</g>
<!-- git_local -->
<g id="node2" class="node">
<title>git_local</title>
<ellipse fill="none" stroke="black" cx="271.5" cy="-575.48" rx="74.99" ry="18"/>
<text text-anchor="middle" x="271.5" y="-571.78" font-family="Times,serif" font-size="14.00">Local git repo</text>
</g>
<!-- vscode&#45;&gt;git_local -->
<g id="edge1" class="edge">
<title>vscode&#45;&gt;git_local</title>
<path fill="none" stroke="black" d="M491.68,-646.58C444.95,-631.7 373.25,-608.87 324.46,-593.34"/>
<polygon fill="black" stroke="black" points="325.31,-589.94 314.72,-590.24 323.19,-596.61 325.31,-589.94"/>
<text text-anchor="middle" x="380" y="-615.28" font-family="Times,serif" font-size="14.00">Primary interface for</text>
</g>
<!-- vscode&#45;&gt;git_local -->
<g id="edge2" class="edge">
<title>vscode&#45;&gt;git_local</title>
<path fill="none" stroke="black" d="M491.68,-646.58C444.95,-631.7 373.25,-608.87 324.46,-593.34"/>
<polygon fill="black" stroke="black" points="325.31,-589.94 314.72,-590.24 323.19,-596.61 325.31,-589.94"/>
<text text-anchor="middle" x="524.5" y="-615.28" font-family="Times,serif" font-size="14.00">For writing to</text>
</g>
<!-- gv_preview -->
<g id="node3" class="node">
<title>gv_preview</title>
<ellipse fill="none" stroke="black" cx="600.5" cy="-575.48" rx="27.1" ry="18"/>
<text text-anchor="middle" x="600.5" y="-571.78" font-family="Times,serif" font-size="14.00">Dot</text>
</g>
<!-- vscode&#45;&gt;gv_preview -->
<g id="edge3" class="edge">
<title>vscode&#45;&gt;gv_preview</title>
<path fill="none" stroke="black" d="M551.04,-644.28C560.3,-631.58 573.02,-614.16 583.23,-600.15"/>
<polygon fill="black" stroke="black" points="586.15,-602.08 589.22,-591.94 580.5,-597.96 586.15,-602.08"/>
<text text-anchor="middle" x="618.5" y="-615.28" font-family="Times,serif" font-size="14.00">Previews</text>
</g>
<!-- md_preview -->
<g id="node4" class="node">
<title>md_preview</title>
<ellipse fill="none" stroke="black" cx="705.5" cy="-575.48" rx="59.59" ry="18"/>
<text text-anchor="middle" x="705.5" y="-571.78" font-family="Times,serif" font-size="14.00">Markdown</text>
</g>
<!-- vscode&#45;&gt;md_preview -->
<g id="edge4" class="edge">
<title>vscode&#45;&gt;md_preview</title>
<path fill="none" stroke="black" d="M570.3,-645.29C597.88,-631.25 637.87,-610.9 667.21,-595.97"/>
<polygon fill="black" stroke="black" points="669,-598.98 676.33,-591.33 665.83,-592.74 669,-598.98"/>
<text text-anchor="middle" x="703.5" y="-615.28" font-family="Times,serif" font-size="14.00">Previews</text>
</g>
<!-- jekyll_local -->
<g id="node6" class="node">
<title>jekyll_local</title>
<ellipse fill="none" stroke="black" cx="271.5" cy="-479.61" rx="72.25" ry="26.74"/>
<text text-anchor="middle" x="271.5" y="-483.41" font-family="Times,serif" font-size="14.00">Jekyll</text>
<text text-anchor="middle" x="271.5" y="-468.41" font-family="Times,serif" font-size="14.00">(locally&#45;run)</text>
</g>
<!-- git_local&#45;&gt;jekyll_local -->
<g id="edge6" class="edge">
<title>git_local&#45;&gt;jekyll_local</title>
<path fill="none" stroke="black" d="M271.5,-557.26C271.5,-545.96 271.5,-530.75 271.5,-516.86"/>
<polygon fill="black" stroke="black" points="275,-516.58 271.5,-506.58 268,-516.58 275,-516.58"/>
<text text-anchor="middle" x="321.5" y="-528.28" font-family="Times,serif" font-size="14.00">Read from for</text>
</g>
<!-- gv_render -->
<g id="node7" class="node">
<title>gv_render</title>
<ellipse fill="none" stroke="black" cx="127.5" cy="-479.61" rx="53.89" ry="18"/>
<text text-anchor="middle" x="127.5" y="-475.91" font-family="Times,serif" font-size="14.00">GraphViz</text>
</g>
<!-- git_local&#45;&gt;gv_render -->
<g id="edge7" class="edge">
<title>git_local&#45;&gt;gv_render</title>
<path fill="none" stroke="black" d="M246.74,-558.34C222.61,-542.61 185.81,-518.62 159.47,-501.45"/>
<polygon fill="black" stroke="black" points="161.26,-498.44 150.98,-495.91 157.44,-504.31 161.26,-498.44"/>
<text text-anchor="middle" x="217.5" y="-528.28" font-family="Times,serif" font-size="14.00">Read from for</text>
</g>
<!-- git_github -->
<g id="node8" class="node">
<title>git_github</title>
<ellipse fill="none" stroke="black" cx="445.5" cy="-479.61" rx="83.69" ry="18"/>
<text text-anchor="middle" x="445.5" y="-475.91" font-family="Times,serif" font-size="14.00">GitHub git repo</text>
</g>
<!-- git_local&#45;&gt;git_github -->
<g id="edge8" class="edge">
<title>git_local&#45;&gt;git_github</title>
<path fill="none" stroke="black" d="M300.62,-558.77C329.77,-543.04 374.77,-518.77 406.88,-501.44"/>
<polygon fill="black" stroke="black" points="408.85,-504.36 415.99,-496.53 405.52,-498.2 408.85,-504.36"/>
<text text-anchor="middle" x="427.5" y="-528.28" font-family="Times,serif" font-size="14.00">Pushes to</text>
</g>
<!-- Content -->
<g id="node5" class="node">
<title>Content</title>
<ellipse fill="none" stroke="black" cx="538.5" cy="-749.48" rx="48.19" ry="18"/>
<text text-anchor="middle" x="538.5" y="-745.78" font-family="Times,serif" font-size="14.00">Content</text>
</g>
<!-- Content&#45;&gt;vscode -->
<g id="edge5" class="edge">
<title>Content&#45;&gt;vscode</title>
<path fill="none" stroke="black" d="M538.5,-731.28C538.5,-719.64 538.5,-704.03 538.5,-690.72"/>
<polygon fill="black" stroke="black" points="542,-690.66 538.5,-680.66 535,-690.66 542,-690.66"/>
<text text-anchor="middle" x="581" y="-702.28" font-family="Times,serif" font-size="14.00">Authored in</text>
</g>
<!-- PNG -->
<g id="node9" class="node">
<title>PNG</title>
<ellipse fill="none" stroke="black" cx="32.5" cy="-662.48" rx="32.49" ry="18"/>
<text text-anchor="middle" x="32.5" y="-658.78" font-family="Times,serif" font-size="14.00">PNG</text>
</g>
<!-- gv_render&#45;&gt;PNG -->
<g id="edge9" class="edge">
<title>gv_render&#45;&gt;PNG</title>
<path fill="none" stroke="black" d="M111.72,-497.15C85.19,-526.64 34.5,-582.98 34.5,-582.98 34.5,-582.98 33.78,-611.3 33.21,-634.14"/>
<polygon fill="black" stroke="black" points="29.7,-634.36 32.95,-644.44 36.7,-634.53 29.7,-634.36"/>
<text text-anchor="middle" x="89" y="-571.78" font-family="Times,serif" font-size="14.00">Renders Dot to</text>
</g>
<!-- SVG -->
<g id="node10" class="node">
<title>SVG</title>
<ellipse fill="none" stroke="black" cx="180.5" cy="-662.48" rx="30.59" ry="18"/>
<text text-anchor="middle" x="180.5" y="-658.78" font-family="Times,serif" font-size="14.00">SVG</text>
</g>
<!-- gv_render&#45;&gt;SVG -->
<g id="edge10" class="edge">
<title>gv_render&#45;&gt;SVG</title>
<path fill="none" stroke="black" d="M164.43,-492.91C241.94,-520.83 414.5,-582.98 414.5,-582.98 414.5,-582.98 282.68,-627.76 216.92,-650.11"/>
<polygon fill="black" stroke="black" points="215.68,-646.83 207.34,-653.36 217.93,-653.46 215.68,-646.83"/>
<text text-anchor="middle" x="469" y="-571.78" font-family="Times,serif" font-size="14.00">Renders Dot to</text>
</g>
<!-- jekyll_gh -->
<g id="node11" class="node">
<title>jekyll_gh</title>
<ellipse fill="none" stroke="black" cx="445.5" cy="-374.87" rx="103.89" ry="26.74"/>
<text text-anchor="middle" x="445.5" y="-378.67" font-family="Times,serif" font-size="14.00">Jekyll</text>
<text text-anchor="middle" x="445.5" y="-363.67" font-family="Times,serif" font-size="14.00">(on GitHub Pages)</text>
</g>
<!-- git_github&#45;&gt;jekyll_gh -->
<g id="edge11" class="edge">
<title>git_github&#45;&gt;jekyll_gh</title>
<path fill="none" stroke="black" d="M445.5,-461.18C445.5,-447.72 445.5,-428.62 445.5,-411.91"/>
<polygon fill="black" stroke="black" points="449,-411.88 445.5,-401.88 442,-411.88 449,-411.88"/>
<text text-anchor="middle" x="467" y="-423.54" font-family="Times,serif" font-size="14.00">Feeds</text>
</g>
<!-- PNG&#45;&gt;git_local -->
<g id="edge15" class="edge">
<title>PNG&#45;&gt;git_local</title>
<path fill="none" stroke="black" d="M59.45,-651.89C98.7,-637.93 172.29,-611.76 221.6,-594.22"/>
<polygon fill="black" stroke="black" points="222.88,-597.49 231.13,-590.84 220.53,-590.89 222.88,-597.49"/>
<text text-anchor="middle" x="83.5" y="-615.28" font-family="Times,serif" font-size="14.00">For writing to</text>
</g>
<!-- SVG&#45;&gt;git_local -->
<g id="edge16" class="edge">
<title>SVG&#45;&gt;git_local</title>
<path fill="none" stroke="black" d="M196.35,-646.67C210.09,-633.84 230.22,-615.04 246.19,-600.12"/>
<polygon fill="black" stroke="black" points="248.73,-602.54 253.65,-593.15 243.95,-597.42 248.73,-602.54"/>
<text text-anchor="middle" x="231.5" y="-615.28" font-family="Times,serif" font-size="14.00">For writing to</text>
</g>
<!-- ga -->
<g id="node12" class="node">
<title>ga</title>
<ellipse fill="none" stroke="black" cx="396.5" cy="-279" rx="88.28" ry="18"/>
<text text-anchor="middle" x="396.5" y="-275.3" font-family="Times,serif" font-size="14.00">Google Analytics</text>
</g>
<!-- jekyll_gh&#45;&gt;ga -->
<g id="edge12" class="edge">
<title>jekyll_gh&#45;&gt;ga</title>
<path fill="none" stroke="black" d="M432.11,-348.22C425.27,-335.12 416.96,-319.2 410.09,-306.04"/>
<polygon fill="black" stroke="black" points="413.12,-304.27 405.38,-297.03 406.91,-307.51 413.12,-304.27"/>
<text text-anchor="middle" x="454" y="-318.8" font-family="Times,serif" font-size="14.00">Integrates</text>
</g>
<!-- RSS -->
<g id="node13" class="node">
<title>RSS</title>
<ellipse fill="none" stroke="black" cx="532.5" cy="-279" rx="29.8" ry="18"/>
<text text-anchor="middle" x="532.5" y="-275.3" font-family="Times,serif" font-size="14.00">RSS</text>
</g>
<!-- jekyll_gh&#45;&gt;RSS -->
<g id="edge13" class="edge">
<title>jekyll_gh&#45;&gt;RSS</title>
<path fill="none" stroke="black" d="M469.27,-348.22C482.48,-333.97 498.76,-316.4 511.49,-302.66"/>
<polygon fill="black" stroke="black" points="514.3,-304.78 518.53,-295.07 509.17,-300.02 514.3,-304.78"/>
<text text-anchor="middle" x="541.5" y="-318.8" font-family="Times,serif" font-size="14.00">Generates</text>
</g>
<!-- IFTTT -->
<g id="node14" class="node">
<title>IFTTT</title>
<ellipse fill="none" stroke="black" cx="532.5" cy="-192" rx="38.99" ry="18"/>
<text text-anchor="middle" x="532.5" y="-188.3" font-family="Times,serif" font-size="14.00">IFTTT</text>
</g>
<!-- RSS&#45;&gt;IFTTT -->
<g id="edge14" class="edge">
<title>RSS&#45;&gt;IFTTT</title>
<path fill="none" stroke="black" d="M532.5,-260.8C532.5,-249.16 532.5,-233.55 532.5,-220.24"/>
<polygon fill="black" stroke="black" points="536,-220.18 532.5,-210.18 529,-220.18 536,-220.18"/>
<text text-anchor="middle" x="581" y="-231.8" font-family="Times,serif" font-size="14.00">Monitored by</text>
</g>
<!-- Twitter -->
<g id="node15" class="node">
<title>Twitter</title>
<ellipse fill="none" stroke="black" cx="301.5" cy="-105" rx="44.69" ry="18"/>
<text text-anchor="middle" x="301.5" y="-101.3" font-family="Times,serif" font-size="14.00">Twitter</text>
</g>
<!-- IFTTT&#45;&gt;Twitter -->
<g id="edge17" class="edge">
<title>IFTTT&#45;&gt;Twitter</title>
<path fill="none" stroke="black" d="M502.77,-180.06C462.13,-165.11 389.03,-138.21 343,-121.27"/>
<polygon fill="black" stroke="black" points="343.92,-117.88 333.33,-117.71 341.51,-124.45 343.92,-117.88"/>
<text text-anchor="middle" x="432.5" y="-144.8" font-family="Times,serif" font-size="14.00">Post to</text>
</g>
<!-- Facebook -->
<g id="node16" class="node">
<title>Facebook</title>
<ellipse fill="none" stroke="black" cx="418.5" cy="-105" rx="53.89" ry="18"/>
<text text-anchor="middle" x="418.5" y="-101.3" font-family="Times,serif" font-size="14.00">Facebook</text>
</g>
<!-- IFTTT&#45;&gt;Facebook -->
<g id="edge18" class="edge">
<title>IFTTT&#45;&gt;Facebook</title>
<path fill="none" stroke="black" d="M512.9,-176.39C495,-163.04 468.28,-143.12 447.83,-127.87"/>
<polygon fill="black" stroke="black" points="449.88,-125.03 439.77,-121.86 445.7,-130.65 449.88,-125.03"/>
<text text-anchor="middle" x="503.5" y="-144.8" font-family="Times,serif" font-size="14.00">Post to</text>
</g>
<!-- Reddit -->
<g id="node17" class="node">
<title>Reddit</title>
<ellipse fill="none" stroke="black" cx="532.5" cy="-105" rx="41.69" ry="18"/>
<text text-anchor="middle" x="532.5" y="-101.3" font-family="Times,serif" font-size="14.00">Reddit</text>
</g>
<!-- IFTTT&#45;&gt;Reddit -->
<g id="edge19" class="edge">
<title>IFTTT&#45;&gt;Reddit</title>
<path fill="none" stroke="black" d="M532.5,-173.8C532.5,-162.16 532.5,-146.55 532.5,-133.24"/>
<polygon fill="black" stroke="black" points="536,-133.18 532.5,-123.18 529,-133.18 536,-133.18"/>
<text text-anchor="middle" x="557.5" y="-144.8" font-family="Times,serif" font-size="14.00">Post to</text>
</g>
<!-- LinkedIn -->
<g id="node18" class="node">
<title>LinkedIn</title>
<ellipse fill="none" stroke="black" cx="643.5" cy="-105" rx="51.19" ry="18"/>
<text text-anchor="middle" x="643.5" y="-101.3" font-family="Times,serif" font-size="14.00">LinkedIn</text>
</g>
<!-- IFTTT&#45;&gt;LinkedIn -->
<g id="edge20" class="edge">
<title>IFTTT&#45;&gt;LinkedIn</title>
<path fill="none" stroke="black" d="M551.83,-176.19C569.22,-162.88 595.01,-143.13 614.8,-127.97"/>
<polygon fill="black" stroke="black" points="617.07,-130.65 622.88,-121.79 612.81,-125.09 617.07,-130.65"/>
<text text-anchor="middle" x="628.5" y="-144.8" font-family="Times,serif" font-size="14.00">Post to</text>
</g>
<!-- Buffer -->
<g id="node19" class="node">
<title>Buffer</title>
<ellipse fill="none" stroke="black" cx="752.5" cy="-105" rx="39.79" ry="18"/>
<text text-anchor="middle" x="752.5" y="-101.3" font-family="Times,serif" font-size="14.00">Buffer</text>
</g>
<!-- IFTTT&#45;&gt;Buffer -->
<g id="edge21" class="edge">
<title>IFTTT&#45;&gt;Buffer</title>
<path fill="none" stroke="black" d="M561.71,-179.71C600.83,-164.6 670.33,-137.75 713.78,-120.96"/>
<polygon fill="black" stroke="black" points="715.1,-124.2 723.16,-117.33 712.57,-117.67 715.1,-124.2"/>
<text text-anchor="middle" x="714" y="-144.8" font-family="Times,serif" font-size="14.00">Adds to</text>
</g>
<!-- gplus -->
<g id="node20" class="node">
<title>gplus</title>
<ellipse fill="none" stroke="black" cx="752.5" cy="-18" rx="65.79" ry="18"/>
<text text-anchor="middle" x="752.5" y="-14.3" font-family="Times,serif" font-size="14.00">Google Plus</text>
</g>
<!-- Buffer&#45;&gt;gplus -->
<g id="edge22" class="edge">
<title>Buffer&#45;&gt;gplus</title>
<path fill="none" stroke="black" d="M752.5,-86.8C752.5,-75.16 752.5,-59.55 752.5,-46.24"/>
<polygon fill="black" stroke="black" points="756,-46.18 752.5,-36.18 749,-46.18 756,-46.18"/>
<text text-anchor="middle" x="781.5" y="-57.8" font-family="Times,serif" font-size="14.00">Posts to</text>
</g>
</g>
</svg>
