<?xml version="1.0" encoding="UTF-8" standalone="no"?>
<!DOCTYPE svg PUBLIC "-//W3C//DTD SVG 1.1//EN"
 "http://www.w3.org/Graphics/SVG/1.1/DTD/svg11.dtd">
<!-- Generated by graphviz version 2.43.0 (0)
 -->
<!-- Title: graphviz_workflow Pages: 1 -->
<svg width="356pt" height="438pt"
 viewBox="0.00 0.00 356.39 438.43" xmlns="http://www.w3.org/2000/svg" xmlns:xlink="http://www.w3.org/1999/xlink">
<g id="graph0" class="graph" transform="scale(1 1) rotate(0) translate(4 434.43)">
<title>graphviz_workflow</title>
<polygon fill="white" stroke="transparent" points="-4,4 -4,-434.43 352.39,-434.43 352.39,4 -4,4"/>
<!-- write_asset -->
<g id="node1" class="node">
<title>write_asset</title>
<ellipse fill="none" stroke="black" cx="169.85" cy="-403.56" rx="66.44" ry="26.74"/>
<text text-anchor="middle" x="169.85" y="-407.36" font-family="Times,serif" font-size="14.00">Write DOT</text>
<text text-anchor="middle" x="169.85" y="-392.36" font-family="Times,serif" font-size="14.00">Separately</text>
</g>
<!-- svg -->
<g id="node2" class="node">
<title>svg</title>
<ellipse fill="none" stroke="black" cx="89.85" cy="-307.69" rx="27" ry="18"/>
<text text-anchor="middle" x="89.85" y="-303.99" font-family="Times,serif" font-size="14.00">svg</text>
</g>
<!-- write_asset&#45;&gt;svg -->
<g id="edge1" class="edge">
<title>write_asset&#45;&gt;svg</title>
<path fill="none" stroke="black" d="M134.78,-380.57C126.52,-374.24 118.27,-366.82 111.85,-358.69 106.33,-351.71 101.9,-343.13 98.5,-335.06"/>
<polygon fill="black" stroke="black" points="101.72,-333.69 94.87,-325.61 95.19,-336.2 101.72,-333.69"/>
<text text-anchor="middle" x="158.85" y="-347.49" font-family="Times,serif" font-size="14.00">Emit outputs</text>
</g>
<!-- png -->
<g id="node3" class="node">
<title>png</title>
<ellipse fill="none" stroke="black" cx="245.85" cy="-307.69" rx="28.7" ry="18"/>
<text text-anchor="middle" x="245.85" y="-303.99" font-family="Times,serif" font-size="14.00">png</text>
</g>
<!-- write_asset&#45;&gt;png -->
<g id="edge2" class="edge">
<title>write_asset&#45;&gt;png</title>
<path fill="none" stroke="black" d="M193.2,-377.95C198.8,-371.78 204.65,-365.1 209.85,-358.69 216.45,-350.56 223.27,-341.32 229.18,-333.03"/>
<polygon fill="black" stroke="black" points="232.07,-335 234.95,-324.8 226.34,-330.98 232.07,-335"/>
<text text-anchor="middle" x="267.85" y="-347.49" font-family="Times,serif" font-size="14.00">Emit outputs</text>
</g>
<!-- discard -->
<g id="node4" class="node">
<title>discard</title>
<ellipse fill="none" stroke="black" cx="44.85" cy="-201.22" rx="44.69" ry="18"/>
<text text-anchor="middle" x="44.85" y="-197.52" font-family="Times,serif" font-size="14.00">discard</text>
</g>
<!-- svg&#45;&gt;discard -->
<g id="edge3" class="edge">
<title>svg&#45;&gt;discard</title>
<path fill="none" stroke="black" d="M71.17,-294.14C63.89,-288.22 56.26,-280.52 51.85,-271.69 45.39,-258.77 43.43,-242.83 43.17,-229.48"/>
<polygon fill="black" stroke="black" points="46.67,-229.47 43.28,-219.43 39.67,-229.39 46.67,-229.47"/>
<text text-anchor="middle" x="147.85" y="-260.49" font-family="Times,serif" font-size="14.00">GH Pages doesn&#39;t like SVG</text>
</g>
<!-- rebuild -->
<g id="node5" class="node">
<title>rebuild</title>
<ellipse fill="none" stroke="black" cx="251.85" cy="-201.22" rx="89.19" ry="37.45"/>
<text text-anchor="middle" x="251.85" y="-212.52" font-family="Times,serif" font-size="14.00">Rebuild asset</text>
<text text-anchor="middle" x="251.85" y="-197.52" font-family="Times,serif" font-size="14.00">at higherDPI</text>
<text text-anchor="middle" x="251.85" y="-182.52" font-family="Times,serif" font-size="14.00">and scale down</text>
</g>
<!-- png&#45;&gt;rebuild -->
<g id="edge4" class="edge">
<title>png&#45;&gt;rebuild</title>
<path fill="none" stroke="black" d="M246.84,-289.44C247.47,-278.43 248.32,-263.59 249.14,-249.28"/>
<polygon fill="black" stroke="black" points="252.65,-249.19 249.73,-239.01 245.67,-248.79 252.65,-249.19"/>
</g>
<!-- embed -->
<g id="node6" class="node">
<title>embed</title>
<ellipse fill="none" stroke="black" cx="204.85" cy="-108.74" rx="42.49" ry="18"/>
<text text-anchor="middle" x="204.85" y="-105.04" font-family="Times,serif" font-size="14.00">embed</text>
</g>
<!-- rebuild&#45;&gt;embed -->
<g id="edge5" class="edge">
<title>rebuild&#45;&gt;embed</title>
<path fill="none" stroke="black" d="M233.27,-164.46C228.3,-154.88 223.01,-144.71 218.37,-135.77"/>
<polygon fill="black" stroke="black" points="221.34,-133.9 213.62,-126.64 215.13,-137.13 221.34,-133.9"/>
</g>
<!-- rewrite_asset -->
<g id="node7" class="node">
<title>rewrite_asset</title>
<ellipse fill="none" stroke="black" cx="274.85" cy="-26.87" rx="73.58" ry="26.74"/>
<text text-anchor="middle" x="274.85" y="-30.67" font-family="Times,serif" font-size="14.00">Tweak asset</text>
<text text-anchor="middle" x="274.85" y="-15.67" font-family="Times,serif" font-size="14.00">for use case</text>
</g>
<!-- embed&#45;&gt;rewrite_asset -->
<g id="edge6" class="edge">
<title>embed&#45;&gt;rewrite_asset</title>
<path fill="none" stroke="black" d="M219.01,-91.58C226.86,-82.63 236.89,-71.17 246.29,-60.45"/>
<polygon fill="black" stroke="black" points="249.02,-62.65 252.98,-52.82 243.76,-58.03 249.02,-62.65"/>
</g>
<!-- done -->
<g id="node8" class="node">
<title>done</title>
<ellipse fill="none" stroke="black" cx="149.85" cy="-26.87" rx="33.29" ry="18"/>
<text text-anchor="middle" x="149.85" y="-23.17" font-family="Times,serif" font-size="14.00">done</text>
</g>
<!-- embed&#45;&gt;done -->
<g id="edge7" class="edge">
<title>embed&#45;&gt;done</title>
<path fill="none" stroke="black" d="M193.45,-91.19C185.68,-79.91 175.26,-64.77 166.55,-52.13"/>
<polygon fill="black" stroke="black" points="169.41,-50.1 160.85,-43.85 163.64,-54.07 169.41,-50.1"/>
</g>
<!-- rewrite_asset&#45;&gt;rebuild -->
<g id="edge8" class="edge">
<title>rewrite_asset&#45;&gt;rebuild</title>
<path fill="none" stroke="black" d="M271.39,-53.73C267.88,-80.08 262.35,-121.52 258.07,-153.61"/>
<polygon fill="black" stroke="black" points="254.58,-153.29 256.72,-163.67 261.52,-154.22 254.58,-153.29"/>
</g>
</g>
</svg>
