<?xml version="1.0" encoding="UTF-8" standalone="no"?>
<!DOCTYPE svg PUBLIC "-//W3C//DTD SVG 1.1//EN"
 "http://www.w3.org/Graphics/SVG/1.1/DTD/svg11.dtd">
<!-- Generated by graphviz version 2.38.0 (20140413.2041)
 -->
<!-- Title: blog_tools Pages: 1 -->
<svg width="2031pt" height="397pt"
 viewBox="0.00 0.00 2031.00 397.00" xmlns="http://www.w3.org/2000/svg" xmlns:xlink="http://www.w3.org/1999/xlink">
<g id="graph0" class="graph" transform="scale(1 1) rotate(0) translate(4 393)">
<title>blog_tools</title>
<polygon fill="white" stroke="none" points="-4,4 -4,-393 2027,-393 2027,4 -4,4"/>
<g id="clust2" class="cluster"><title>clusterTracking</title>
<polygon fill="none" stroke="black" points="368,-140 368,-324 682,-324 682,-140 368,-140"/>
</g>
<g id="clust3" class="cluster"><title>clusterCreation</title>
<polygon fill="none" stroke="black" points="8,-8 8,-324 360,-324 360,-8 8,-8"/>
</g>
<g id="clust6" class="cluster"><title>clusterPublication</title>
<polygon fill="none" stroke="black" points="1163,-8 1163,-324 2015,-324 2015,-8 1163,-8"/>
</g>
<!-- content -->
<g id="node1" class="node"><title>content</title>
<ellipse fill="none" stroke="black" cx="728" cy="-371" rx="36.2938" ry="18"/>
<text text-anchor="middle" x="728" y="-367.3" font-family="Times,serif" font-size="14.00">content</text>
</g>
<!-- content_creation -->
<g id="node2" class="node"><title>content_creation</title>
<ellipse fill="none" stroke="black" cx="154" cy="-298" rx="40.8928" ry="18"/>
<text text-anchor="middle" x="154" y="-294.3" font-family="Times,serif" font-size="14.00">Creation</text>
</g>
<!-- content&#45;&#45;content_creation -->
<g id="edge1" class="edge"><title>content&#45;&#45;content_creation</title>
<path fill="none" stroke="black" d="M692.958,-365.666C591.701,-353.141 299.19,-316.959 193.058,-303.831"/>
</g>
<!-- content_publication -->
<g id="node3" class="node"><title>content_publication</title>
<ellipse fill="none" stroke="black" cx="1625" cy="-298" rx="50.8918" ry="18"/>
<text text-anchor="middle" x="1625" y="-294.3" font-family="Times,serif" font-size="14.00">Publication</text>
</g>
<!-- content&#45;&#45;content_publication -->
<g id="edge2" class="edge"><title>content&#45;&#45;content_publication</title>
<path fill="none" stroke="black" d="M764.593,-369.944C876.953,-369.326 1226.71,-364.073 1513,-324 1537.37,-320.589 1564.29,-314.651 1585.63,-309.418"/>
</g>
<!-- content_storage -->
<g id="node4" class="node"><title>content_storage</title>
<ellipse fill="none" stroke="black" cx="728" cy="-298" rx="37.8943" ry="18"/>
<text text-anchor="middle" x="728" y="-294.3" font-family="Times,serif" font-size="14.00">Storage</text>
</g>
<!-- content&#45;&#45;content_storage -->
<g id="edge3" class="edge"><title>content&#45;&#45;content_storage</title>
<path fill="none" stroke="black" d="M728,-352.813C728,-341.65 728,-327.16 728,-316.029"/>
</g>
<!-- content_tracking -->
<g id="node5" class="node"><title>content_tracking</title>
<ellipse fill="none" stroke="black" cx="569" cy="-298" rx="42.4939" ry="18"/>
<text text-anchor="middle" x="569" y="-294.3" font-family="Times,serif" font-size="14.00">Tracking</text>
</g>
<!-- content&#45;&#45;content_tracking -->
<g id="edge4" class="edge"><title>content&#45;&#45;content_tracking</title>
<path fill="none" stroke="black" d="M701.744,-358.276C672.902,-345.396 626.754,-324.79 597.171,-311.58"/>
</g>
<!-- content_social -->
<g id="node6" class="node"><title>content_social</title>
<ellipse fill="none" stroke="black" cx="1442" cy="-298" rx="61.99" ry="18"/>
<text text-anchor="middle" x="1442" y="-294.3" font-family="Times,serif" font-size="14.00">content_social</text>
</g>
<!-- content&#45;&#45;content_social -->
<g id="edge5" class="edge"><title>content&#45;&#45;content_social</title>
<path fill="none" stroke="black" d="M763.407,-366.479C878.495,-355.035 1242.74,-318.814 1384.63,-304.704"/>
</g>
<!-- content_editing -->
<g id="node10" class="node"><title>content_editing</title>
<ellipse fill="none" stroke="black" cx="52" cy="-166" rx="36.2938" ry="18"/>
<text text-anchor="middle" x="52" y="-162.3" font-family="Times,serif" font-size="14.00">Editing</text>
</g>
<!-- content_creation&#45;&#45;content_editing -->
<g id="edge9" class="edge"><title>content_creation&#45;&#45;content_editing</title>
<path fill="none" stroke="black" d="M141.288,-280.798C121.635,-255.751 84.107,-207.921 64.5519,-182.998"/>
</g>
<!-- content_rendering -->
<g id="node11" class="node"><title>content_rendering</title>
<ellipse fill="none" stroke="black" cx="154" cy="-166" rx="47.3916" ry="18"/>
<text text-anchor="middle" x="154" y="-162.3" font-family="Times,serif" font-size="14.00">Rendering</text>
</g>
<!-- content_creation&#45;&#45;content_rendering -->
<g id="edge10" class="edge"><title>content_creation&#45;&#45;content_rendering</title>
<path fill="none" stroke="black" d="M154,-279.737C154,-254.873 154,-209.238 154,-184.334"/>
</g>
<!-- jekyll -->
<g id="node8" class="node"><title>jekyll</title>
<ellipse fill="none" stroke="black" cx="643" cy="-166" rx="30.5947" ry="18"/>
<text text-anchor="middle" x="643" y="-162.3" font-family="Times,serif" font-size="14.00">jekyll</text>
</g>
<!-- content_publication&#45;&#45;jekyll -->
<g id="edge18" class="edge"><title>content_publication&#45;&#45;jekyll</title>
<path fill="none" stroke="black" d="M1579.23,-290.049C1558.94,-286.969 1534.78,-283.302 1513,-280 1284.12,-245.296 1227.71,-230.7 998,-202 878.167,-187.028 734.915,-174.557 673.451,-169.464"/>
</g>
<!-- ghp -->
<g id="node16" class="node"><title>ghp</title>
<ellipse fill="none" stroke="black" cx="1231" cy="-166" rx="59.5901" ry="18"/>
<text text-anchor="middle" x="1231" y="-162.3" font-family="Times,serif" font-size="14.00">GitHub Pages</text>
</g>
<!-- content_publication&#45;&#45;ghp -->
<g id="edge19" class="edge"><title>content_publication&#45;&#45;ghp</title>
<path fill="none" stroke="black" d="M1630.12,-279.9C1635.36,-258.509 1640.17,-222.24 1620,-202 1594.86,-176.773 1335.22,-189.282 1300,-184 1291.34,-182.701 1282.17,-180.814 1273.45,-178.767"/>
</g>
<!-- rss -->
<g id="node17" class="node"><title>rss</title>
<ellipse fill="none" stroke="black" cx="1806" cy="-166" rx="27" ry="18"/>
<text text-anchor="middle" x="1806" y="-162.3" font-family="Times,serif" font-size="14.00">rss</text>
</g>
<!-- content_publication&#45;&#45;rss -->
<g id="edge20" class="edge"><title>content_publication&#45;&#45;rss</title>
<path fill="none" stroke="black" d="M1673.78,-293.018C1717.47,-288.391 1777.05,-279.101 1793,-262 1812.53,-241.064 1811.69,-205.376 1809.03,-184.21"/>
</g>
<!-- content_publication_ifttt -->
<g id="node18" class="node"><title>content_publication_ifttt</title>
<ellipse fill="none" stroke="black" cx="1973" cy="-166" rx="34.394" ry="18"/>
<text text-anchor="middle" x="1973" y="-162.3" font-family="Times,serif" font-size="14.00">IFTTT</text>
</g>
<!-- content_publication&#45;&#45;content_publication_ifttt -->
<g id="edge21" class="edge"><title>content_publication&#45;&#45;content_publication_ifttt</title>
<path fill="none" stroke="black" d="M1673.03,-292.042C1710.18,-287.184 1762.47,-278.092 1806,-262 1862.94,-240.949 1923.33,-201.814 1953.48,-180.948"/>
</g>
<!-- git -->
<g id="node9" class="node"><title>git</title>
<ellipse fill="none" stroke="black" cx="567" cy="-166" rx="27" ry="18"/>
<text text-anchor="middle" x="567" y="-162.3" font-family="Times,serif" font-size="14.00">git</text>
</g>
<!-- content_storage&#45;&#45;git -->
<g id="edge14" class="edge"><title>content_storage&#45;&#45;git</title>
<path fill="none" stroke="black" d="M710.184,-282.108C703.914,-276.275 697.152,-269.246 692,-262 674.948,-238.016 686.306,-221.194 664,-202 642.574,-183.563 629.414,-194.065 603,-184 598.091,-182.13 592.924,-179.871 588.085,-177.621"/>
</g>
<!-- github -->
<g id="node15" class="node"><title>github</title>
<ellipse fill="none" stroke="black" cx="1045" cy="-166" rx="33.2948" ry="18"/>
<text text-anchor="middle" x="1045" y="-162.3" font-family="Times,serif" font-size="14.00">github</text>
</g>
<!-- content_storage&#45;&#45;github -->
<g id="edge15" class="edge"><title>content_storage&#45;&#45;github</title>
<path fill="none" stroke="black" d="M719.225,-280.253C709.572,-259.236 697.797,-223.361 717,-202 736.502,-180.306 932.734,-170.974 1012.02,-168.068"/>
</g>
<!-- content_storage&#45;&#45;ghp -->
<g id="edge16" class="edge"><title>content_storage&#45;&#45;ghp</title>
<path fill="none" stroke="black" d="M724.785,-280.012C721.788,-258.395 720.545,-221.523 742,-202 770.39,-176.165 1048.75,-187.252 1087,-184 1116.97,-181.451 1150.34,-177.578 1177.4,-174.172"/>
</g>
<!-- ga -->
<g id="node7" class="node"><title>ga</title>
<ellipse fill="none" stroke="black" cx="449" cy="-166" rx="72.5877" ry="18"/>
<text text-anchor="middle" x="449" y="-162.3" font-family="Times,serif" font-size="14.00">Google Analytics</text>
</g>
<!-- content_tracking&#45;&#45;ga -->
<g id="edge6" class="edge"><title>content_tracking&#45;&#45;ga</title>
<path fill="none" stroke="black" d="M545.908,-282.679C537.314,-276.807 527.77,-269.605 520,-262 495.13,-237.661 472.154,-204.056 459.41,-184.025"/>
</g>
<!-- content_tracking&#45;&#45;jekyll -->
<g id="edge7" class="edge"><title>content_tracking&#45;&#45;jekyll</title>
<path fill="none" stroke="black" d="M578.523,-280.271C592.81,-255.172 619.619,-208.075 633.747,-183.256"/>
<text text-anchor="middle" x="649.5" y="-243.3" font-family="Times,serif" font-size="14.00">Jekyll</text>
<text text-anchor="middle" x="649.5" y="-228.3" font-family="Times,serif" font-size="14.00">Organizes</text>
<text text-anchor="middle" x="649.5" y="-213.3" font-family="Times,serif" font-size="14.00">content</text>
</g>
<!-- content_tracking&#45;&#45;git -->
<g id="edge8" class="edge"><title>content_tracking&#45;&#45;git</title>
<path fill="none" stroke="black" d="M547.075,-282.315C540.666,-276.779 534.458,-269.886 531,-262 520.291,-237.578 520.622,-226.564 531,-202 534.732,-193.167 541.903,-185.463 548.869,-179.548"/>
<text text-anchor="middle" x="558.5" y="-250.8" font-family="Times,serif" font-size="14.00">Git</text>
<text text-anchor="middle" x="558.5" y="-235.8" font-family="Times,serif" font-size="14.00">tracks</text>
<text text-anchor="middle" x="558.5" y="-220.8" font-family="Times,serif" font-size="14.00">changes</text>
<text text-anchor="middle" x="558.5" y="-205.8" font-family="Times,serif" font-size="14.00">to content</text>
</g>
<!-- twitter -->
<g id="node19" class="node"><title>twitter</title>
<ellipse fill="none" stroke="black" cx="1343" cy="-166" rx="33.5952" ry="18"/>
<text text-anchor="middle" x="1343" y="-162.3" font-family="Times,serif" font-size="14.00">twitter</text>
</g>
<!-- content_social&#45;&#45;twitter -->
<g id="edge29" class="edge"><title>content_social&#45;&#45;twitter</title>
<path fill="none" stroke="black" d="M1429.26,-280.271C1410.04,-255.035 1373.89,-207.56 1355.07,-182.851"/>
</g>
<!-- facebook -->
<g id="node20" class="node"><title>facebook</title>
<ellipse fill="none" stroke="black" cx="1438" cy="-166" rx="42.7926" ry="18"/>
<text text-anchor="middle" x="1438" y="-162.3" font-family="Times,serif" font-size="14.00">facebook</text>
</g>
<!-- content_social&#45;&#45;facebook -->
<g id="edge30" class="edge"><title>content_social&#45;&#45;facebook</title>
<path fill="none" stroke="black" d="M1441.47,-279.737C1440.7,-254.873 1439.3,-209.238 1438.53,-184.334"/>
</g>
<!-- reddit -->
<g id="node21" class="node"><title>reddit</title>
<ellipse fill="none" stroke="black" cx="1530" cy="-166" rx="31.3957" ry="18"/>
<text text-anchor="middle" x="1530" y="-162.3" font-family="Times,serif" font-size="14.00">reddit</text>
</g>
<!-- content_social&#45;&#45;reddit -->
<g id="edge31" class="edge"><title>content_social&#45;&#45;reddit</title>
<path fill="none" stroke="black" d="M1441.4,-279.656C1440.9,-255.693 1441.38,-214.046 1450,-202 1450.89,-200.76 1482.3,-187.236 1505.49,-177.37"/>
</g>
<!-- linkedin -->
<g id="node22" class="node"><title>linkedin</title>
<ellipse fill="none" stroke="black" cx="1619" cy="-166" rx="39.7935" ry="18"/>
<text text-anchor="middle" x="1619" y="-162.3" font-family="Times,serif" font-size="14.00">linkedin</text>
</g>
<!-- content_social&#45;&#45;linkedin -->
<g id="edge32" class="edge"><title>content_social&#45;&#45;linkedin</title>
<path fill="none" stroke="black" d="M1444.44,-279.884C1448.33,-252.901 1455.63,-203.373 1457,-202 1474.97,-184.008 1545.34,-190.191 1570,-184 1576.38,-182.4 1583.1,-180.33 1589.45,-178.188"/>
</g>
<!-- gplus -->
<g id="node24" class="node"><title>gplus</title>
<ellipse fill="none" stroke="black" cx="1719" cy="-166" rx="42.4939" ry="18"/>
<text text-anchor="middle" x="1719" y="-162.3" font-family="Times,serif" font-size="14.00">Google+</text>
</g>
<!-- content_social&#45;&#45;gplus -->
<g id="edge33" class="edge"><title>content_social&#45;&#45;gplus</title>
<path fill="none" stroke="black" d="M1448.43,-280.08C1450.42,-274.395 1452.49,-267.978 1454,-262 1457.31,-248.895 1454.08,-211.182 1464,-202 1497.4,-171.085 1623.44,-193.259 1668,-184 1674.67,-182.614 1681.68,-180.636 1688.3,-178.516"/>
</g>
<!-- jekyll&#45;&#45;rss -->
<g id="edge17" class="edge"><title>jekyll&#45;&#45;rss</title>
<path fill="none" stroke="black" d="M672.289,-171.725C784.307,-192.857 1196.27,-263.573 1534.5,-230.5 1640.68,-220.117 1669.04,-218.5 1770,-184 1775.03,-182.283 1780.24,-179.999 1785.09,-177.636"/>
<text text-anchor="middle" x="1500" y="-228.3" font-family="Times,serif" font-size="14.00">Jekyll Emits</text>
</g>
<!-- git&#45;&#45;github -->
<g id="edge35" class="edge"><title>git&#45;&#45;github</title>
<path fill="none" stroke="black" d="M587.932,-177.578C592.779,-179.944 597.988,-182.244 603,-184 741.535,-232.546 780.017,-237.581 926,-253 956.055,-256.174 967.777,-268.024 994,-253 1019.83,-238.204 1033.84,-204.693 1040.34,-183.849"/>
<text text-anchor="middle" x="960" y="-250.8" font-family="Times,serif" font-size="14.00">Github</text>
<text text-anchor="middle" x="960" y="-235.8" font-family="Times,serif" font-size="14.00">Hosts</text>
<text text-anchor="middle" x="960" y="-220.8" font-family="Times,serif" font-size="14.00">Git</text>
<text text-anchor="middle" x="960" y="-205.8" font-family="Times,serif" font-size="14.00">Repositories</text>
</g>
<!-- git&#45;&#45;ghp -->
<g id="edge34" class="edge"><title>git&#45;&#45;ghp</title>
<path fill="none" stroke="black" d="M588.469,-177.361C593.198,-179.686 598.222,-182.024 603,-184 663.587,-209.058 678.276,-220.032 743,-230.5 908.351,-257.242 1106.57,-205.227 1190.39,-179.375"/>
<text text-anchor="middle" x="832" y="-228.3" font-family="Times,serif" font-size="14.00">GHP Draws its content from Git</text>
</g>
<!-- vscode -->
<g id="node12" class="node"><title>vscode</title>
<ellipse fill="none" stroke="black" cx="51" cy="-34" rx="35.194" ry="18"/>
<text text-anchor="middle" x="51" y="-30.3" font-family="Times,serif" font-size="14.00">vscode</text>
</g>
<!-- content_editing&#45;&#45;vscode -->
<g id="edge11" class="edge"><title>content_editing&#45;&#45;vscode</title>
<path fill="none" stroke="black" d="M43.822,-148.304C41.4539,-142.634 39.1881,-136.169 38,-130 32.9571,-103.814 33.2831,-96.2462 38,-70 39.1007,-63.8754 41.204,-57.4224 43.4032,-51.7485"/>
</g>
<!-- graphviz -->
<g id="node13" class="node"><title>graphviz</title>
<ellipse fill="none" stroke="black" cx="310" cy="-34" rx="41.6928" ry="18"/>
<text text-anchor="middle" x="310" y="-30.3" font-family="Times,serif" font-size="14.00">graphviz</text>
</g>
<!-- content_rendering&#45;&#45;graphviz -->
<g id="edge12" class="edge"><title>content_rendering&#45;&#45;graphviz</title>
<path fill="none" stroke="black" d="M145.745,-148.021C136.905,-127.093 126.474,-91.651 145,-70 161.817,-50.3461 234.884,-58.1863 260,-52 266.41,-50.4212 273.169,-48.3858 279.574,-46.2754"/>
<text text-anchor="middle" x="171" y="-111.3" font-family="Times,serif" font-size="14.00">Graphviz</text>
<text text-anchor="middle" x="171" y="-96.3" font-family="Times,serif" font-size="14.00">generates</text>
<text text-anchor="middle" x="171" y="-81.3" font-family="Times,serif" font-size="14.00">charts</text>
</g>
<!-- markdown -->
<g id="node14" class="node"><title>markdown</title>
<ellipse fill="none" stroke="black" cx="202" cy="-34" rx="48.9926" ry="18"/>
<text text-anchor="middle" x="202" y="-30.3" font-family="Times,serif" font-size="14.00">markdown</text>
</g>
<!-- content_rendering&#45;&#45;markdown -->
<g id="edge13" class="edge"><title>content_rendering&#45;&#45;markdown</title>
<path fill="none" stroke="black" d="M125.656,-151.486C116.62,-147.472 106.5,-143.277 97,-140 80.0841,-134.165 68.9697,-144.137 58,-130 41.6524,-108.932 41.5203,-90.965 58,-70 64.3598,-61.9092 119.02,-50.2601 159.121,-42.6609"/>
<text text-anchor="middle" x="90" y="-118.8" font-family="Times,serif" font-size="14.00">MarkDown</text>
<text text-anchor="middle" x="90" y="-103.8" font-family="Times,serif" font-size="14.00">formats</text>
<text text-anchor="middle" x="90" y="-88.8" font-family="Times,serif" font-size="14.00">text</text>
<text text-anchor="middle" x="90" y="-73.8" font-family="Times,serif" font-size="14.00">media</text>
</g>
<!-- vscode&#45;&#45;git -->
<g id="edge37" class="edge"><title>vscode&#45;&#45;git</title>
<path fill="none" stroke="black" d="M83.6818,-41.1394C101.497,-44.4444 123.944,-48.541 144,-52 317.825,-81.978 370.497,-66.839 531,-140 537.785,-143.093 544.651,-147.481 550.542,-151.72"/>
<text text-anchor="middle" x="604" y="-96.3" font-family="Times,serif" font-size="14.00">VSCode is the Primary Git Interface</text>
</g>
<!-- vscode&#45;&#45;graphviz -->
<g id="edge38" class="edge"><title>vscode&#45;&#45;graphviz</title>
<path fill="none" stroke="black" d="M72.7123,-48.3008C100.901,-65.9285 152.273,-94.9111 201,-106 222.668,-110.931 230.915,-115.509 251,-106 274.517,-94.8668 291.79,-69.2594 301.371,-51.7871"/>
<text text-anchor="middle" x="226" y="-103.8" font-family="Times,serif" font-size="14.00">VSCode</text>
<text text-anchor="middle" x="226" y="-88.8" font-family="Times,serif" font-size="14.00">Previews</text>
</g>
<!-- vscode&#45;&#45;markdown -->
<g id="edge39" class="edge"><title>vscode&#45;&#45;markdown</title>
<path fill="none" stroke="black" d="M86.4028,-34C106.278,-34 131.375,-34 153.102,-34"/>
<text text-anchor="middle" x="119.676" y="-55.8" font-family="Times,serif" font-size="14.00">VSCode</text>
<text text-anchor="middle" x="119.676" y="-40.8" font-family="Times,serif" font-size="14.00">Previews</text>
</g>
<!-- github&#45;&#45;ghp -->
<g id="edge36" class="edge"><title>github&#45;&#45;ghp</title>
<path fill="none" stroke="black" d="M1078.25,-166C1103.96,-166 1140.22,-166 1170.97,-166"/>
<text text-anchor="middle" x="1124.68" y="-202.8" font-family="Times,serif" font-size="14.00">GitHub Hosts</text>
<text text-anchor="middle" x="1124.68" y="-187.8" font-family="Times,serif" font-size="14.00">GitHub Pages</text>
<text text-anchor="middle" x="1124.68" y="-172.8" font-family="Times,serif" font-size="14.00">Content</text>
</g>
<!-- content_publication_ifttt&#45;&#45;rss -->
<g id="edge27" class="edge"><title>content_publication_ifttt&#45;&#45;rss</title>
<path fill="none" stroke="black" d="M1938.27,-166C1907.06,-166 1861.85,-166 1833.2,-166"/>
<text text-anchor="middle" x="1885.78" y="-172.8" font-family="Times,serif" font-size="14.00">IFTTT Watches</text>
</g>
<!-- content_publication_ifttt&#45;&#45;twitter -->
<g id="edge22" class="edge"><title>content_publication_ifttt&#45;&#45;twitter</title>
<path fill="none" stroke="black" d="M1946.58,-177.745C1878.85,-206.357 1693.52,-275.206 1539.5,-245.5 1473.92,-232.85 1402.56,-198.176 1366.58,-179.066"/>
<text text-anchor="middle" x="1558" y="-243.3" font-family="Times,serif" font-size="14.00">IFTTT</text>
<text text-anchor="middle" x="1558" y="-228.3" font-family="Times,serif" font-size="14.00">Posts</text>
<text text-anchor="middle" x="1558" y="-213.3" font-family="Times,serif" font-size="14.00">to</text>
</g>
<!-- content_publication_ifttt&#45;&#45;facebook -->
<g id="edge23" class="edge"><title>content_publication_ifttt&#45;&#45;facebook</title>
<path fill="none" stroke="black" d="M1943.39,-175.508C1864.59,-200.246 1651.08,-263.487 1581.5,-245.5 1534.07,-233.24 1485.6,-201.567 1458.89,-182.101"/>
<text text-anchor="middle" x="1600" y="-243.3" font-family="Times,serif" font-size="14.00">IFTTT</text>
<text text-anchor="middle" x="1600" y="-228.3" font-family="Times,serif" font-size="14.00">Posts</text>
<text text-anchor="middle" x="1600" y="-213.3" font-family="Times,serif" font-size="14.00">to</text>
</g>
<!-- content_publication_ifttt&#45;&#45;reddit -->
<g id="edge24" class="edge"><title>content_publication_ifttt&#45;&#45;reddit</title>
<path fill="none" stroke="black" d="M1950.13,-179.506C1916.22,-198.666 1849.99,-232.817 1788.5,-245.5 1697.91,-264.187 1593.67,-207.035 1550.43,-179.699"/>
<text text-anchor="middle" x="1770" y="-243.3" font-family="Times,serif" font-size="14.00">IFTTT</text>
<text text-anchor="middle" x="1770" y="-228.3" font-family="Times,serif" font-size="14.00">Posts</text>
<text text-anchor="middle" x="1770" y="-213.3" font-family="Times,serif" font-size="14.00">to</text>
</g>
<!-- content_publication_ifttt&#45;&#45;linkedin -->
<g id="edge25" class="edge"><title>content_publication_ifttt&#45;&#45;linkedin</title>
<path fill="none" stroke="black" d="M1946.81,-178.074C1887.52,-204.69 1744.57,-264.582 1698.5,-245.5 1668.38,-233.026 1643.73,-202.995 1630.23,-183.622"/>
<text text-anchor="middle" x="1717" y="-243.3" font-family="Times,serif" font-size="14.00">IFTTT</text>
<text text-anchor="middle" x="1717" y="-228.3" font-family="Times,serif" font-size="14.00">Posts</text>
<text text-anchor="middle" x="1717" y="-213.3" font-family="Times,serif" font-size="14.00">to</text>
</g>
<!-- content_publication_buffer -->
<g id="node23" class="node"><title>content_publication_buffer</title>
<ellipse fill="none" stroke="black" cx="1970" cy="-34" rx="33.5952" ry="18"/>
<text text-anchor="middle" x="1970" y="-30.3" font-family="Times,serif" font-size="14.00">Buffer</text>
</g>
<!-- content_publication_ifttt&#45;&#45;content_publication_buffer -->
<g id="edge26" class="edge"><title>content_publication_ifttt&#45;&#45;content_publication_buffer</title>
<path fill="none" stroke="black" d="M1972.6,-147.737C1972.03,-122.873 1970.97,-77.2384 1970.4,-52.3344"/>
<text text-anchor="middle" x="1990.5" y="-111.3" font-family="Times,serif" font-size="14.00">IFTTT</text>
<text text-anchor="middle" x="1990.5" y="-96.3" font-family="Times,serif" font-size="14.00">Posts</text>
<text text-anchor="middle" x="1990.5" y="-81.3" font-family="Times,serif" font-size="14.00">to</text>
</g>
<!-- content_publication_buffer&#45;&#45;gplus -->
<g id="edge28" class="edge"><title>content_publication_buffer&#45;&#45;gplus</title>
<path fill="none" stroke="black" d="M1942.01,-44.3837C1923.74,-50.8418 1899.56,-60.0298 1879,-70 1827.69,-94.8778 1771.08,-130.609 1740.86,-150.403"/>
<text text-anchor="middle" x="1922.5" y="-96.3" font-family="Times,serif" font-size="14.00">Buffer Posts To</text>
</g>
</g>
</svg>
