<?xml version="1.0" encoding="UTF-8" standalone="no"?>
<!DOCTYPE svg PUBLIC "-//W3C//DTD SVG 1.1//EN"
 "http://www.w3.org/Graphics/SVG/1.1/DTD/svg11.dtd">
<!-- Generated by graphviz version 2.38.0 (20140413.2041)
 -->
<!-- Title: %3 Pages: 1 -->
<svg width="348pt" height="293pt"
 viewBox="0.00 0.00 348.00 293.00" xmlns="http://www.w3.org/2000/svg" xmlns:xlink="http://www.w3.org/1999/xlink">
<g id="graph0" class="graph" transform="scale(1 1) rotate(0) translate(4 289)">
<title>%3</title>
<polygon fill="white" stroke="none" points="-4,4 -4,-289 344,-289 344,4 -4,4"/>
<g id="clust1" class="cluster"><title>clusterA</title>
<polygon fill="none" stroke="black" points="-0.276903,-141.084 -0.276903,-283.084 161.723,-283.084 161.723,-141.084 -0.276903,-141.084"/>
</g>
<g id="clust2" class="cluster"><title>clusterB</title>
<polygon fill="none" stroke="black" points="172.415,-141.685 172.415,-284.685 340.415,-284.685 340.415,-141.685 172.415,-141.685"/>
</g>
<g id="clust3" class="cluster"><title>clusterC</title>
<polygon fill="none" stroke="black" points="96.2135,0.194885 96.2135,-128.805 229.214,-128.805 229.214,0.194885 96.2135,0.194885"/>
</g>
<!-- A -->
<g id="node1" class="node"><title>A</title>
<ellipse fill="#f0e442" stroke="#e69f00" stroke-width="8" cx="34.3831" cy="-257.288" rx="27" ry="18"/>
<text text-anchor="middle" x="34.3831" y="-253.588" font-family="Times,serif" font-size="14.00">A</text>
</g>
<!-- B -->
<g id="node2" class="node"><title>B</title>
<ellipse fill="#f0e442" stroke="#009e73" stroke-width="8" cx="59.7895" cy="-167.162" rx="27" ry="18"/>
<text text-anchor="middle" x="59.7895" y="-163.462" font-family="Times,serif" font-size="14.00">B</text>
</g>
<!-- A&#45;&#45;B -->
<g id="edge1" class="edge"><title>A&#45;&#45;B</title>
<path fill="none" stroke="black" d="M39.4026,-239.482C43.8567,-223.682 50.3295,-200.72 54.7804,-184.931"/>
</g>
<!-- D -->
<g id="node4" class="node"><title>D</title>
<ellipse fill="#56b4e9" stroke="#e69f00" stroke-width="8" cx="305.042" cy="-255.16" rx="27" ry="18"/>
<text text-anchor="middle" x="305.042" y="-251.46" font-family="Times,serif" font-size="14.00">D</text>
</g>
<!-- A&#45;&#45;D -->
<g id="edge10" class="edge"><title>A&#45;&#45;D</title>
<path fill="none" stroke="black" d="M61.5741,-257.074C113.453,-256.666 226.004,-255.781 277.869,-255.373"/>
</g>
<!-- C -->
<g id="node3" class="node"><title>C</title>
<ellipse fill="#f0e442" stroke="#cc79a7" stroke-width="8" cx="127.113" cy="-205.701" rx="27" ry="18"/>
<text text-anchor="middle" x="127.113" y="-202.001" font-family="Times,serif" font-size="14.00">C</text>
</g>
<!-- B&#45;&#45;C -->
<g id="edge2" class="edge"><title>B&#45;&#45;C</title>
<path fill="none" stroke="black" d="M80.3545,-178.935C88.5523,-183.628 97.9779,-189.023 106.209,-193.735"/>
</g>
<!-- G -->
<g id="node7" class="node"><title>G</title>
<ellipse fill="#d55e00" stroke="#e69f00" stroke-width="8" cx="131.168" cy="-35.4315" rx="27" ry="18"/>
<text text-anchor="middle" x="131.168" y="-31.7315" font-family="Times,serif" font-size="14.00">G</text>
</g>
<!-- B&#45;&#45;G -->
<g id="edge11" class="edge"><title>B&#45;&#45;G</title>
<path fill="none" stroke="black" d="M68.9749,-150.211C82.6052,-125.055 108.051,-78.094 121.792,-52.7365"/>
</g>
<!-- C&#45;&#45;A -->
<g id="edge3" class="edge"><title>C&#45;&#45;A</title>
<path fill="none" stroke="black" d="M106.071,-217.407C90.8951,-225.849 70.4982,-237.196 55.3416,-245.628"/>
</g>
<!-- E -->
<g id="node5" class="node"><title>E</title>
<ellipse fill="#56b4e9" stroke="#009e73" stroke-width="8" cx="271.208" cy="-167.862" rx="27" ry="18"/>
<text text-anchor="middle" x="271.208" y="-164.162" font-family="Times,serif" font-size="14.00">E</text>
</g>
<!-- D&#45;&#45;E -->
<g id="edge4" class="edge"><title>D&#45;&#45;E</title>
<path fill="none" stroke="black" d="M298.195,-237.494C292.325,-222.348 283.912,-200.64 278.045,-185.502"/>
</g>
<!-- F -->
<g id="node6" class="node"><title>F</title>
<ellipse fill="#56b4e9" stroke="#cc79a7" stroke-width="8" cx="207.799" cy="-212.793" rx="27" ry="18"/>
<text text-anchor="middle" x="207.799" y="-209.093" font-family="Times,serif" font-size="14.00">F</text>
</g>
<!-- E&#45;&#45;F -->
<g id="edge5" class="edge"><title>E&#45;&#45;F</title>
<path fill="none" stroke="black" d="M252.526,-181.1C244.343,-186.898 234.759,-193.689 226.566,-199.494"/>
</g>
<!-- F&#45;&#45;D -->
<g id="edge6" class="edge"><title>F&#45;&#45;D</title>
<path fill="none" stroke="black" d="M230.844,-222.833C246.345,-229.587 266.695,-238.453 282.162,-245.191"/>
</g>
<!-- H -->
<g id="node8" class="node"><title>H</title>
<ellipse fill="#d55e00" stroke="#009e73" stroke-width="8" cx="188.598" cy="-102.554" rx="27" ry="18"/>
<text text-anchor="middle" x="188.598" y="-98.8543" font-family="Times,serif" font-size="14.00">H</text>
</g>
<!-- G&#45;&#45;H -->
<g id="edge7" class="edge"><title>G&#45;&#45;H</title>
<path fill="none" stroke="black" d="M144.778,-51.3386C153.933,-62.0386 165.951,-76.0853 175.085,-86.7613"/>
</g>
<!-- H&#45;&#45;E -->
<g id="edge12" class="edge"><title>H&#45;&#45;E</title>
<path fill="none" stroke="black" d="M206.117,-116.404C220.137,-127.487 239.701,-142.954 253.714,-154.032"/>
</g>
<!-- I -->
<g id="node9" class="node"><title>I</title>
<ellipse fill="#d55e00" stroke="#cc79a7" stroke-width="8" cx="194.572" cy="-25.7843" rx="27" ry="18"/>
<text text-anchor="middle" x="194.572" y="-22.0843" font-family="Times,serif" font-size="14.00">I</text>
</g>
<!-- H&#45;&#45;I -->
<g id="edge8" class="edge"><title>H&#45;&#45;I</title>
<path fill="none" stroke="black" d="M190.014,-84.3609C190.966,-72.1231 192.216,-56.0575 193.166,-43.8471"/>
</g>
<!-- I&#45;&#45;G -->
<g id="edge9" class="edge"><title>I&#45;&#45;G</title>
<path fill="none" stroke="black" d="M168.05,-29.8197C164.657,-30.336 161.182,-30.8647 157.787,-31.3813"/>
</g>
</g>
</svg>
