<?xml version="1.0" encoding="UTF-8" standalone="no"?>
<!DOCTYPE svg PUBLIC "-//W3C//DTD SVG 1.1//EN"
 "http://www.w3.org/Graphics/SVG/1.1/DTD/svg11.dtd">
<!-- Generated by graphviz version 2.38.0 (20140413.2041)
 -->
<!-- Title: %3 Pages: 1 -->
<svg width="825pt" height="61pt"
 viewBox="0.00 0.00 825.00 61.00" xmlns="http://www.w3.org/2000/svg" xmlns:xlink="http://www.w3.org/1999/xlink">
<g id="graph0" class="graph" transform="scale(1 1) rotate(0) translate(4 57)">
<title>%3</title>
<polygon fill="white" stroke="none" points="-4,4 -4,-57 821,-57 821,4 -4,4"/>
<!-- zsh_li -->
<g id="node1" class="node"><title>zsh_li</title>
<text text-anchor="middle" x="37" y="-37.8" font-family="Times,serif" font-size="14.00">Zsh</text>
<text text-anchor="middle" x="37" y="-22.8" font-family="Times,serif" font-size="14.00">Login</text>
<text text-anchor="middle" x="37" y="-7.8" font-family="Times,serif" font-size="14.00">Interactive</text>
</g>
<!-- zsh_li_etc_zshenv -->
<g id="node8" class="node"><title>zsh_li_etc_zshenv</title>
<text text-anchor="middle" x="148.5" y="-22.8" font-family="Times,serif" font-size="14.00">/etc/zshenv</text>
</g>
<!-- zsh_li&#45;&gt;zsh_li_etc_zshenv -->
<g id="edge1" class="edge"><title>zsh_li&#45;&gt;zsh_li_etc_zshenv</title>
<path fill="none" stroke="#009e73" stroke-width="5" d="M74.1579,-26.5C82.3068,-26.5 91.0793,-26.5 99.6247,-26.5"/>
<polygon fill="#009e73" stroke="#009e73" stroke-width="5" points="99.8786,-30.8751 109.879,-26.5 99.8785,-22.1251 99.8786,-30.8751"/>
</g>
<!-- zsh_li_home_zlogin -->
<g id="node2" class="node"><title>zsh_li_home_zlogin</title>
<text text-anchor="middle" x="566.5" y="-22.8" font-family="Times,serif" font-size="14.00">~/.zlogin</text>
</g>
<!-- zsh_li_running_to_logout -->
<g id="node4" class="node"><title>zsh_li_running_to_logout</title>
<text text-anchor="middle" x="672" y="-22.8" font-family="Times,serif" font-size="14.00">Running...</text>
</g>
<!-- zsh_li_home_zlogin&#45;&gt;zsh_li_running_to_logout -->
<g id="edge6" class="edge"><title>zsh_li_home_zlogin&#45;&gt;zsh_li_running_to_logout</title>
<path fill="none" stroke="#009e73" stroke-width="5" d="M599.116,-26.5C607.234,-26.5 616.136,-26.5 624.825,-26.5"/>
<polygon fill="#009e73" stroke="#009e73" stroke-width="5" points="624.869,-30.8751 634.869,-26.5 624.869,-22.1251 624.869,-30.8751"/>
</g>
<!-- zsh_li_home_zshrc -->
<g id="node3" class="node"><title>zsh_li_home_zshrc</title>
<text text-anchor="middle" x="468" y="-22.8" font-family="Times,serif" font-size="14.00">~/.zshrc</text>
</g>
<!-- zsh_li_home_zshrc&#45;&gt;zsh_li_home_zlogin -->
<g id="edge5" class="edge"><title>zsh_li_home_zshrc&#45;&gt;zsh_li_home_zlogin</title>
<path fill="none" stroke="#009e73" stroke-width="5" d="M498.215,-26.5C506.182,-26.5 514.973,-26.5 523.499,-26.5"/>
<polygon fill="#009e73" stroke="#009e73" stroke-width="5" points="523.694,-30.8751 533.694,-26.5 523.694,-22.1251 523.694,-30.8751"/>
</g>
<!-- zsh_li_home_zlogout -->
<g id="node5" class="node"><title>zsh_li_home_zlogout</title>
<text text-anchor="middle" x="781" y="-22.8" font-family="Times,serif" font-size="14.00">~/.zlogout</text>
</g>
<!-- zsh_li_running_to_logout&#45;&gt;zsh_li_home_zlogout -->
<g id="edge7" class="edge"><title>zsh_li_running_to_logout&#45;&gt;zsh_li_home_zlogout</title>
<path fill="none" stroke="#009e73" stroke-width="5" d="M709.225,-26.5C717.415,-26.5 726.209,-26.5 734.72,-26.5"/>
<polygon fill="#009e73" stroke="#009e73" stroke-width="5" points="734.899,-30.8751 744.899,-26.5 734.899,-22.1251 734.899,-30.8751"/>
</g>
<!-- zsh_li_home_zprofile -->
<g id="node6" class="node"><title>zsh_li_home_zprofile</title>
<text text-anchor="middle" x="365" y="-22.8" font-family="Times,serif" font-size="14.00">~/.zprofile</text>
</g>
<!-- zsh_li_home_zprofile&#45;&gt;zsh_li_home_zshrc -->
<g id="edge4" class="edge"><title>zsh_li_home_zprofile&#45;&gt;zsh_li_home_zshrc</title>
<path fill="none" stroke="#009e73" stroke-width="5" d="M402.178,-26.5C410.377,-26.5 419.124,-26.5 427.454,-26.5"/>
<polygon fill="#009e73" stroke="#009e73" stroke-width="5" points="427.709,-30.8751 437.709,-26.5 427.709,-22.1251 427.709,-30.8751"/>
</g>
<!-- zsh_li_home_zshenv -->
<g id="node7" class="node"><title>zsh_li_home_zshenv</title>
<text text-anchor="middle" x="257.5" y="-22.8" font-family="Times,serif" font-size="14.00">~/.zshenv</text>
</g>
<!-- zsh_li_home_zshenv&#45;&gt;zsh_li_home_zprofile -->
<g id="edge3" class="edge"><title>zsh_li_home_zshenv&#45;&gt;zsh_li_home_zprofile</title>
<path fill="none" stroke="#009e73" stroke-width="5" d="M292.171,-26.5C300.231,-26.5 308.978,-26.5 317.503,-26.5"/>
<polygon fill="#009e73" stroke="#009e73" stroke-width="5" points="317.732,-30.8751 327.732,-26.5 317.732,-22.1251 317.732,-30.8751"/>
</g>
<!-- zsh_li_etc_zshenv&#45;&gt;zsh_li_home_zshenv -->
<g id="edge2" class="edge"><title>zsh_li_etc_zshenv&#45;&gt;zsh_li_home_zshenv</title>
<path fill="none" stroke="#009e73" stroke-width="5" d="M187.224,-26.5C195.437,-26.5 204.195,-26.5 212.623,-26.5"/>
<polygon fill="#009e73" stroke="#009e73" stroke-width="5" points="212.681,-30.8751 222.681,-26.5 212.681,-22.1251 212.681,-30.8751"/>
</g>
</g>
</svg>
