<?xml version="1.0" encoding="UTF-8" standalone="no"?>
<!DOCTYPE svg PUBLIC "-//W3C//DTD SVG 1.1//EN"
 "http://www.w3.org/Graphics/SVG/1.1/DTD/svg11.dtd">
<!-- Generated by graphviz version 2.43.0 (0)
 -->
<!-- Title: %3 Pages: 1 -->
<svg width="966pt" height="61pt"
 viewBox="0.00 0.00 966.00 61.00" xmlns="http://www.w3.org/2000/svg" xmlns:xlink="http://www.w3.org/1999/xlink">
<g id="graph0" class="graph" transform="scale(1 1) rotate(0) translate(4 57)">
<title>%3</title>
<polygon fill="white" stroke="transparent" points="-4,4 -4,-57 962,-57 962,4 -4,4"/>
<!-- zsh_li -->
<g id="node1" class="node">
<title>zsh_li</title>
<text text-anchor="middle" x="47.5" y="-37.8" font-family="Times,serif" font-size="14.00">Zsh</text>
<text text-anchor="middle" x="47.5" y="-22.8" font-family="Times,serif" font-size="14.00">Login</text>
<text text-anchor="middle" x="47.5" y="-7.8" font-family="Times,serif" font-size="14.00">Interactive</text>
</g>
<!-- zsh_li_etc_zshenv -->
<g id="node8" class="node">
<title>zsh_li_etc_zshenv</title>
<text text-anchor="middle" x="179.5" y="-22.8" font-family="Times,serif" font-size="14.00">/etc/zshenv</text>
</g>
<!-- zsh_li&#45;&gt;zsh_li_etc_zshenv -->
<g id="edge1" class="edge">
<title>zsh_li&#45;&gt;zsh_li_etc_zshenv</title>
<path fill="none" stroke="#009e73" stroke-width="5" d="M95.07,-26.5C103.44,-26.5 112.27,-26.5 120.91,-26.5"/>
<polygon fill="#009e73" stroke="#009e73" stroke-width="5" points="120.95,-30.88 130.95,-26.5 120.95,-22.13 120.95,-30.88"/>
</g>
<!-- zsh_li_home_zlogin -->
<g id="node2" class="node">
<title>zsh_li_home_zlogin</title>
<text text-anchor="middle" x="666" y="-22.8" font-family="Times,serif" font-size="14.00">~/.zlogin</text>
</g>
<!-- zsh_li_running_to_logout -->
<g id="node4" class="node">
<title>zsh_li_running_to_logout</title>
<text text-anchor="middle" x="787" y="-22.8" font-family="Times,serif" font-size="14.00">Running...</text>
</g>
<!-- zsh_li_home_zlogin&#45;&gt;zsh_li_running_to_logout -->
<g id="edge6" class="edge">
<title>zsh_li_home_zlogin&#45;&gt;zsh_li_running_to_logout</title>
<path fill="none" stroke="#009e73" stroke-width="5" d="M706.29,-26.5C714.38,-26.5 723.03,-26.5 731.54,-26.5"/>
<polygon fill="#009e73" stroke="#009e73" stroke-width="5" points="731.81,-30.88 741.81,-26.5 731.81,-22.13 731.81,-30.88"/>
</g>
<!-- zsh_li_home_zshrc -->
<g id="node3" class="node">
<title>zsh_li_home_zshrc</title>
<text text-anchor="middle" x="552" y="-22.8" font-family="Times,serif" font-size="14.00">~/.zshrc</text>
</g>
<!-- zsh_li_home_zshrc&#45;&gt;zsh_li_home_zlogin -->
<g id="edge5" class="edge">
<title>zsh_li_home_zshrc&#45;&gt;zsh_li_home_zlogin</title>
<path fill="none" stroke="#009e73" stroke-width="5" d="M590.29,-26.5C598.44,-26.5 607.18,-26.5 615.71,-26.5"/>
<polygon fill="#009e73" stroke="#009e73" stroke-width="5" points="615.95,-30.88 625.95,-26.5 615.95,-22.13 615.95,-30.88"/>
</g>
<!-- zsh_li_home_zlogout -->
<g id="node5" class="node">
<title>zsh_li_home_zlogout</title>
<text text-anchor="middle" x="913" y="-22.8" font-family="Times,serif" font-size="14.00">~/.zlogout</text>
</g>
<!-- zsh_li_running_to_logout&#45;&gt;zsh_li_home_zlogout -->
<g id="edge7" class="edge">
<title>zsh_li_running_to_logout&#45;&gt;zsh_li_home_zlogout</title>
<path fill="none" stroke="#009e73" stroke-width="5" d="M832.07,-26.5C840.28,-26.5 848.96,-26.5 857.44,-26.5"/>
<polygon fill="#009e73" stroke="#009e73" stroke-width="5" points="857.66,-30.88 867.66,-26.5 857.66,-22.13 857.66,-30.88"/>
</g>
<!-- zsh_li_home_zprofile -->
<g id="node6" class="node">
<title>zsh_li_home_zprofile</title>
<text text-anchor="middle" x="432.5" y="-22.8" font-family="Times,serif" font-size="14.00">~/.zprofile</text>
</g>
<!-- zsh_li_home_zprofile&#45;&gt;zsh_li_home_zshrc -->
<g id="edge4" class="edge">
<title>zsh_li_home_zprofile&#45;&gt;zsh_li_home_zshrc</title>
<path fill="none" stroke="#009e73" stroke-width="5" d="M478.26,-26.5C486.56,-26.5 495.25,-26.5 503.63,-26.5"/>
<polygon fill="#009e73" stroke="#009e73" stroke-width="5" points="503.63,-30.88 513.63,-26.5 503.63,-22.13 503.63,-30.88"/>
</g>
<!-- zsh_li_home_zshenv -->
<g id="node7" class="node">
<title>zsh_li_home_zshenv</title>
<text text-anchor="middle" x="307.5" y="-22.8" font-family="Times,serif" font-size="14.00">~/.zshenv</text>
</g>
<!-- zsh_li_home_zshenv&#45;&gt;zsh_li_home_zprofile -->
<g id="edge3" class="edge">
<title>zsh_li_home_zshenv&#45;&gt;zsh_li_home_zprofile</title>
<path fill="none" stroke="#009e73" stroke-width="5" d="M351.17,-26.5C359.36,-26.5 368.04,-26.5 376.56,-26.5"/>
<polygon fill="#009e73" stroke="#009e73" stroke-width="5" points="376.81,-30.88 386.81,-26.5 376.81,-22.13 376.81,-30.88"/>
</g>
<!-- zsh_li_etc_zshenv&#45;&gt;zsh_li_home_zshenv -->
<g id="edge2" class="edge">
<title>zsh_li_etc_zshenv&#45;&gt;zsh_li_home_zshenv</title>
<path fill="none" stroke="#009e73" stroke-width="5" d="M228.14,-26.5C236.46,-26.5 245.16,-26.5 253.62,-26.5"/>
<polygon fill="#009e73" stroke="#009e73" stroke-width="5" points="253.77,-30.88 263.77,-26.5 253.77,-22.13 253.77,-30.88"/>
</g>
</g>
</svg>
