<?xml version="1.0" encoding="UTF-8" standalone="no"?>
<!DOCTYPE svg PUBLIC "-//W3C//DTD SVG 1.1//EN"
 "http://www.w3.org/Graphics/SVG/1.1/DTD/svg11.dtd">
<!-- Generated by graphviz version 2.38.0 (20140413.2041)
 -->
<!-- Title: script_flow Pages: 1 -->
<svg width="785pt" height="908pt"
 viewBox="0.00 0.00 784.51 908.00" xmlns="http://www.w3.org/2000/svg" xmlns:xlink="http://www.w3.org/1999/xlink">
<g id="graph0" class="graph" transform="scale(1 1) rotate(0) translate(4 904)">
<title>script_flow</title>
<polygon fill="white" stroke="none" points="-4,4 -4,-904 780.511,-904 780.511,4 -4,4"/>
<!-- begin -->
<g id="node1" class="node"><title>begin</title>
<ellipse fill="none" stroke="black" cx="630.511" cy="-882" rx="37.8943" ry="18"/>
<text text-anchor="middle" x="630.511" y="-878.3" font-family="Times,serif" font-size="14.00">BEGIN</text>
</g>
<!-- find_dot_files -->
<g id="node2" class="node"><title>find_dot_files</title>
<ellipse fill="none" stroke="black" cx="630.511" cy="-810" rx="61.1893" ry="18"/>
<text text-anchor="middle" x="630.511" y="-806.3" font-family="Times,serif" font-size="14.00">Find &#39;dot&#39; files</text>
</g>
<!-- begin&#45;&gt;find_dot_files -->
<g id="edge1" class="edge"><title>begin&#45;&gt;find_dot_files</title>
<path fill="none" stroke="black" d="M630.511,-863.697C630.511,-855.983 630.511,-846.712 630.511,-838.112"/>
<polygon fill="black" stroke="black" points="634.011,-838.104 630.511,-828.104 627.011,-838.104 634.011,-838.104"/>
</g>
<!-- for_each_dot_file -->
<g id="node3" class="node"><title>for_each_dot_file</title>
<ellipse fill="none" stroke="black" cx="630.511" cy="-738" rx="72.2875" ry="18"/>
<text text-anchor="middle" x="630.511" y="-734.3" font-family="Times,serif" font-size="14.00">For each &#39;dot&#39; file</text>
</g>
<!-- find_dot_files&#45;&gt;for_each_dot_file -->
<g id="edge2" class="edge"><title>find_dot_files&#45;&gt;for_each_dot_file</title>
<path fill="none" stroke="black" d="M630.511,-791.697C630.511,-783.983 630.511,-774.712 630.511,-766.112"/>
<polygon fill="black" stroke="black" points="634.011,-766.104 630.511,-756.104 627.011,-766.104 634.011,-766.104"/>
</g>
<!-- for_each_format -->
<g id="node4" class="node"><title>for_each_format</title>
<ellipse fill="none" stroke="black" cx="314.511" cy="-666" rx="67.6881" ry="18"/>
<text text-anchor="middle" x="314.511" y="-662.3" font-family="Times,serif" font-size="14.00">For each format</text>
</g>
<!-- for_each_dot_file&#45;&gt;for_each_format -->
<g id="edge3" class="edge"><title>for_each_dot_file&#45;&gt;for_each_format</title>
<path fill="none" stroke="black" d="M578.33,-725.441C522.32,-713.034 433.474,-693.352 374.588,-680.308"/>
<polygon fill="black" stroke="black" points="375.201,-676.859 364.681,-678.113 373.687,-683.693 375.201,-676.859"/>
</g>
<!-- no_more_dot_files -->
<g id="node16" class="node"><title>no_more_dot_files</title>
<text text-anchor="middle" x="717.511" y="-518.3" font-family="Times,serif" font-size="14.00">No more &#39;dot&#39; files</text>
</g>
<!-- for_each_dot_file&#45;&gt;no_more_dot_files -->
<g id="edge19" class="edge"><title>for_each_dot_file&#45;&gt;no_more_dot_files</title>
<path fill="none" stroke="black" d="M637.484,-719.849C652.628,-682.597 688.62,-594.067 706.722,-549.539"/>
<polygon fill="black" stroke="black" points="709.982,-550.814 710.506,-540.232 703.497,-548.178 709.982,-550.814"/>
</g>
<!-- if_newer -->
<g id="node5" class="node"><title>if_newer</title>
<ellipse fill="none" stroke="black" cx="139.511" cy="-594" rx="108.581" ry="18"/>
<text text-anchor="middle" x="139.511" y="-590.3" font-family="Times,serif" font-size="14.00">If &#39;dot&#39; file newer than asset</text>
</g>
<!-- for_each_format&#45;&gt;if_newer -->
<g id="edge4" class="edge"><title>for_each_format&#45;&gt;if_newer</title>
<path fill="none" stroke="black" d="M278.675,-650.666C252.621,-640.244 217.046,-626.014 188.387,-614.55"/>
<polygon fill="black" stroke="black" points="189.542,-611.243 178.957,-610.778 186.942,-617.742 189.542,-611.243"/>
</g>
<!-- if_not_newer -->
<g id="node12" class="node"><title>if_not_newer</title>
<ellipse fill="none" stroke="black" cx="472.511" cy="-594" rx="129.977" ry="18"/>
<text text-anchor="middle" x="472.511" y="-590.3" font-family="Times,serif" font-size="14.00">If &#39;dot&#39; file is not newer than asset</text>
</g>
<!-- for_each_format&#45;&gt;if_not_newer -->
<g id="edge12" class="edge"><title>for_each_format&#45;&gt;if_not_newer</title>
<path fill="none" stroke="black" d="M343.486,-649.638C365.239,-639.459 395.457,-626.002 421.224,-614.991"/>
<polygon fill="black" stroke="black" points="422.655,-618.186 430.492,-611.055 419.919,-611.743 422.655,-618.186"/>
</g>
<!-- no_more_formats -->
<g id="node14" class="node"><title>no_more_formats</title>
<text text-anchor="middle" x="414.511" y="-446.3" font-family="Times,serif" font-size="14.00">No more formats</text>
</g>
<!-- for_each_format&#45;&gt;no_more_formats -->
<g id="edge16" class="edge"><title>for_each_format&#45;&gt;no_more_formats</title>
<path fill="none" stroke="black" d="M316.311,-647.717C318.649,-629.369 323.657,-599.793 333.511,-576 349.001,-538.6 375.835,-500.199 394.347,-476.006"/>
<polygon fill="black" stroke="black" points="397.145,-478.11 400.516,-468.066 391.617,-473.815 397.145,-478.11"/>
</g>
<!-- commit_dot -->
<g id="node6" class="node"><title>commit_dot</title>
<ellipse fill="none" stroke="black" cx="139.511" cy="-522" rx="71.4873" ry="18"/>
<text text-anchor="middle" x="139.511" y="-518.3" font-family="Times,serif" font-size="14.00">Commit &#39;dot&#39; file</text>
</g>
<!-- if_newer&#45;&gt;commit_dot -->
<g id="edge5" class="edge"><title>if_newer&#45;&gt;commit_dot</title>
<path fill="none" stroke="black" d="M139.511,-575.697C139.511,-567.983 139.511,-558.712 139.511,-550.112"/>
<polygon fill="black" stroke="black" points="143.011,-550.104 139.511,-540.104 136.011,-550.104 143.011,-550.104"/>
</g>
<!-- render_asset -->
<g id="node7" class="node"><title>render_asset</title>
<ellipse fill="none" stroke="black" cx="139.511" cy="-450" rx="55.7903" ry="18"/>
<text text-anchor="middle" x="139.511" y="-446.3" font-family="Times,serif" font-size="14.00">Render asset</text>
</g>
<!-- commit_dot&#45;&gt;render_asset -->
<g id="edge6" class="edge"><title>commit_dot&#45;&gt;render_asset</title>
<path fill="none" stroke="black" d="M139.511,-503.697C139.511,-495.983 139.511,-486.712 139.511,-478.112"/>
<polygon fill="black" stroke="black" points="143.011,-478.104 139.511,-468.104 136.011,-478.104 143.011,-478.104"/>
</g>
<!-- if_asset_png -->
<g id="node8" class="node"><title>if_asset_png</title>
<ellipse fill="none" stroke="black" cx="103.511" cy="-378" rx="70.6878" ry="18"/>
<text text-anchor="middle" x="103.511" y="-374.3" font-family="Times,serif" font-size="14.00">If asset is a PNG</text>
</g>
<!-- render_asset&#45;&gt;if_asset_png -->
<g id="edge7" class="edge"><title>render_asset&#45;&gt;if_asset_png</title>
<path fill="none" stroke="black" d="M130.797,-432.055C126.658,-424.007 121.617,-414.205 116.999,-405.226"/>
<polygon fill="black" stroke="black" points="120.082,-403.567 112.396,-396.275 113.857,-406.769 120.082,-403.567"/>
</g>
<!-- if_asset_not_png -->
<g id="node13" class="node"><title>if_asset_not_png</title>
<ellipse fill="none" stroke="black" cx="276.511" cy="-378" rx="84.485" ry="18"/>
<text text-anchor="middle" x="276.511" y="-374.3" font-family="Times,serif" font-size="14.00">If asset is not a PNG</text>
</g>
<!-- render_asset&#45;&gt;if_asset_not_png -->
<g id="edge14" class="edge"><title>render_asset&#45;&gt;if_asset_not_png</title>
<path fill="none" stroke="black" d="M168.231,-434.326C188.004,-424.223 214.543,-410.663 236.399,-399.495"/>
<polygon fill="black" stroke="black" points="238.133,-402.54 245.445,-394.873 234.948,-396.306 238.133,-402.54"/>
</g>
<!-- pngquant -->
<g id="node9" class="node"><title>pngquant</title>
<ellipse fill="none" stroke="black" cx="103.511" cy="-306" rx="62.2891" ry="18"/>
<text text-anchor="middle" x="103.511" y="-302.3" font-family="Times,serif" font-size="14.00">Quantize PNG</text>
</g>
<!-- if_asset_png&#45;&gt;pngquant -->
<g id="edge8" class="edge"><title>if_asset_png&#45;&gt;pngquant</title>
<path fill="none" stroke="black" d="M103.511,-359.697C103.511,-351.983 103.511,-342.712 103.511,-334.112"/>
<polygon fill="black" stroke="black" points="107.011,-334.104 103.511,-324.104 100.011,-334.104 107.011,-334.104"/>
</g>
<!-- pngcrush -->
<g id="node10" class="node"><title>pngcrush</title>
<ellipse fill="none" stroke="black" cx="103.511" cy="-234" rx="51.9908" ry="18"/>
<text text-anchor="middle" x="103.511" y="-230.3" font-family="Times,serif" font-size="14.00">Crush PNG</text>
</g>
<!-- pngquant&#45;&gt;pngcrush -->
<g id="edge9" class="edge"><title>pngquant&#45;&gt;pngcrush</title>
<path fill="none" stroke="black" d="M103.511,-287.697C103.511,-279.983 103.511,-270.712 103.511,-262.112"/>
<polygon fill="black" stroke="black" points="107.011,-262.104 103.511,-252.104 100.011,-262.104 107.011,-262.104"/>
</g>
<!-- stage_for_commit -->
<g id="node11" class="node"><title>stage_for_commit</title>
<ellipse fill="none" stroke="black" cx="103.511" cy="-162" rx="92.8835" ry="18"/>
<text text-anchor="middle" x="103.511" y="-158.3" font-family="Times,serif" font-size="14.00">Stage asset for commit</text>
</g>
<!-- pngcrush&#45;&gt;stage_for_commit -->
<g id="edge10" class="edge"><title>pngcrush&#45;&gt;stage_for_commit</title>
<path fill="none" stroke="black" d="M103.511,-215.697C103.511,-207.983 103.511,-198.712 103.511,-190.112"/>
<polygon fill="black" stroke="black" points="107.011,-190.104 103.511,-180.104 100.011,-190.104 107.011,-190.104"/>
</g>
<!-- stage_for_commit&#45;&gt;for_each_format -->
<g id="edge11" class="edge"><title>stage_for_commit&#45;&gt;for_each_format</title>
<path fill="none" stroke="black" d="M79.8564,-179.603C67.5212,-189.164 52.8853,-202.035 42.5113,-216 16.6503,-250.812 2.51134,-261.633 2.51134,-305 2.51134,-523 2.51134,-523 2.51134,-523 2.51134,-563.447 -7.53403,-583.852 21.5113,-612 51.7978,-641.351 162.514,-654.818 238.824,-660.725"/>
<polygon fill="black" stroke="black" points="238.651,-664.222 248.884,-661.476 239.172,-657.242 238.651,-664.222"/>
</g>
<!-- commit_staged -->
<g id="node15" class="node"><title>commit_staged</title>
<ellipse fill="none" stroke="black" cx="523.511" cy="-90" rx="83.3857" ry="18"/>
<text text-anchor="middle" x="523.511" y="-86.3" font-family="Times,serif" font-size="14.00">Commit staged files</text>
</g>
<!-- stage_for_commit&#45;&gt;commit_staged -->
<g id="edge21" class="edge"><title>stage_for_commit&#45;&gt;commit_staged</title>
</g>
<!-- if_not_newer&#45;&gt;for_each_format -->
<g id="edge13" class="edge"><title>if_not_newer&#45;&gt;for_each_format</title>
<path fill="none" stroke="black" d="M441.142,-611.48C418.275,-622.13 387.034,-635.995 361.258,-646.944"/>
<polygon fill="black" stroke="black" points="359.887,-643.723 352.034,-650.834 362.608,-650.173 359.887,-643.723"/>
</g>
<!-- if_asset_not_png&#45;&gt;for_each_format -->
<g id="edge15" class="edge"><title>if_asset_not_png&#45;&gt;for_each_format</title>
<path fill="none" stroke="black" d="M278.811,-396.306C285.189,-444.313 303.143,-579.439 310.884,-637.702"/>
<polygon fill="black" stroke="black" points="307.461,-638.514 312.248,-647.966 314.4,-637.592 307.461,-638.514"/>
</g>
<!-- no_more_formats&#45;&gt;commit_staged -->
<g id="edge17" class="edge"><title>no_more_formats&#45;&gt;commit_staged</title>
<path fill="none" stroke="black" d="M425.493,-431.841C441.017,-405.892 467.511,-354.628 467.511,-307 467.511,-307 467.511,-307 467.511,-233 467.511,-189.905 490.108,-144.262 506.593,-116.697"/>
<polygon fill="black" stroke="black" points="509.642,-118.421 511.908,-108.072 503.682,-114.749 509.642,-118.421"/>
</g>
<!-- commit_staged&#45;&gt;for_each_dot_file -->
<g id="edge18" class="edge"><title>commit_staged&#45;&gt;for_each_dot_file</title>
<path fill="none" stroke="black" d="M547.524,-107.412C579.071,-131.132 630.511,-178.209 630.511,-233 630.511,-595 630.511,-595 630.511,-595 630.511,-635.004 630.511,-681.347 630.511,-709.92"/>
<polygon fill="black" stroke="black" points="627.011,-709.951 630.511,-719.951 634.011,-709.951 627.011,-709.951"/>
</g>
<!-- done -->
<g id="node17" class="node"><title>done</title>
<ellipse fill="none" stroke="black" cx="635.511" cy="-18" rx="38.9931" ry="18"/>
<text text-anchor="middle" x="635.511" y="-14.3" font-family="Times,serif" font-size="14.00">FINISH</text>
</g>
<!-- commit_staged&#45;&gt;done -->
<g id="edge22" class="edge"><title>commit_staged&#45;&gt;done</title>
</g>
<!-- no_more_dot_files&#45;&gt;done -->
<g id="edge20" class="edge"><title>no_more_dot_files&#45;&gt;done</title>
<path fill="none" stroke="black" d="M712.452,-503.684C705.147,-477.11 692.511,-424.558 692.511,-379 692.511,-379 692.511,-379 692.511,-161 692.511,-117.562 669.256,-71.6818 652.454,-44.2006"/>
<polygon fill="black" stroke="black" points="655.338,-42.2118 647.046,-35.6164 649.415,-45.943 655.338,-42.2118"/>
</g>
</g>
</svg>
