<?xml version="1.0" encoding="UTF-8" standalone="no"?>
<!DOCTYPE svg PUBLIC "-//W3C//DTD SVG 1.1//EN"
 "http://www.w3.org/Graphics/SVG/1.1/DTD/svg11.dtd">
<!-- Generated by graphviz version 2.43.0 (0)
 -->
<!-- Title: %3 Pages: 1 -->
<svg width="743pt" height="491pt"
 viewBox="0.00 0.00 742.79 490.50" xmlns="http://www.w3.org/2000/svg" xmlns:xlink="http://www.w3.org/1999/xlink">
<g id="graph0" class="graph" transform="scale(1 1) rotate(0) translate(4 486.5)">
<title>%3</title>
<polygon fill="white" stroke="transparent" points="-4,4 -4,-486.5 738.79,-486.5 738.79,4 -4,4"/>
<!-- sh_nn -->
<g id="node1" class="node">
<title>sh_nn</title>
<polygon fill="#f0e444" stroke="#f0e444" points="128,-266 0,-266 0,-213 128,-213 128,-266"/>
<text text-anchor="middle" x="64" y="-250.8" font-family="Times,serif" font-size="14.00">Sh</text>
<text text-anchor="middle" x="64" y="-235.8" font-family="Times,serif" font-size="14.00">Non&#45;Login</text>
<text text-anchor="middle" x="64" y="-220.8" font-family="Times,serif" font-size="14.00">Non&#45;Interactive</text>
</g>
<!-- sh_ni -->
<g id="node2" class="node">
<title>sh_ni</title>
<polygon fill="#f0e444" stroke="#f0e444" points="111.5,-195 16.5,-195 16.5,-142 111.5,-142 111.5,-195"/>
<text text-anchor="middle" x="64" y="-179.8" font-family="Times,serif" font-size="14.00">Sh</text>
<text text-anchor="middle" x="64" y="-164.8" font-family="Times,serif" font-size="14.00">Non&#45;Login</text>
<text text-anchor="middle" x="64" y="-149.8" font-family="Times,serif" font-size="14.00">Interactive</text>
</g>
<!-- sh_nn&#45;&gt;sh_ni -->
<g id="edge1" class="edge">
<title>sh_nn&#45;&gt;sh_ni</title>
<path fill="none" stroke="#f0e444" stroke-width="4" d="M64,-212.81C64,-206.91 64,-201.02 64,-195.12"/>
</g>
<!-- sh_nn_running -->
<g id="node5" class="node">
<title>sh_nn_running</title>
<polygon fill="#0072b2" stroke="#0072b2" points="617.8,-262.5 500.82,-228 734.78,-228 617.8,-262.5"/>
<text text-anchor="middle" x="617.8" y="-235.8" font-family="Times,serif" font-size="14.00">Running...</text>
</g>
<!-- sh_nn&#45;&gt;sh_nn_running -->
<g id="edge16" class="edge">
<title>sh_nn&#45;&gt;sh_nn_running</title>
<path fill="none" stroke="black" stroke-width="4" stroke-dasharray="5,2" d="M128.03,-239.5C226.61,-239.5 417.55,-239.5 529.37,-239.5"/>
<polygon fill="black" stroke="black" stroke-width="4" points="529.6,-243 539.6,-239.5 529.6,-236 529.6,-243"/>
</g>
<!-- sh_ln -->
<g id="node3" class="node">
<title>sh_ln</title>
<polygon fill="#f0e444" stroke="#f0e444" points="128,-124 0,-124 0,-71 128,-71 128,-124"/>
<text text-anchor="middle" x="64" y="-108.8" font-family="Times,serif" font-size="14.00">Sh</text>
<text text-anchor="middle" x="64" y="-93.8" font-family="Times,serif" font-size="14.00">Login</text>
<text text-anchor="middle" x="64" y="-78.8" font-family="Times,serif" font-size="14.00">Non&#45;Interactive</text>
</g>
<!-- sh_ni&#45;&gt;sh_ln -->
<g id="edge2" class="edge">
<title>sh_ni&#45;&gt;sh_ln</title>
<path fill="none" stroke="#f0e444" stroke-width="4" d="M64,-141.81C64,-135.91 64,-130.02 64,-124.12"/>
</g>
<!-- sh_ni_env -->
<g id="node9" class="node">
<title>sh_ni_env</title>
<polygon fill="#d55e00" stroke="#d55e00" points="411.5,-186.5 358.38,-168.5 411.5,-150.5 464.62,-168.5 411.5,-186.5"/>
<text text-anchor="middle" x="411.5" y="-164.8" font-family="Times,serif" font-size="14.00">$ENV</text>
</g>
<!-- sh_ni&#45;&gt;sh_ni_env -->
<g id="edge17" class="edge">
<title>sh_ni&#45;&gt;sh_ni_env</title>
<path fill="none" stroke="orange" stroke-width="4" stroke-dasharray="5,2" d="M111.6,-168.5C172.65,-168.5 279.94,-168.5 348,-168.5"/>
<polygon fill="orange" stroke="orange" stroke-width="4" points="348.16,-172 358.16,-168.5 348.16,-165 348.16,-172"/>
</g>
<!-- sh_li -->
<g id="node4" class="node">
<title>sh_li</title>
<polygon fill="#f0e444" stroke="#f0e444" points="111.5,-53 16.5,-53 16.5,0 111.5,0 111.5,-53"/>
<text text-anchor="middle" x="64" y="-37.8" font-family="Times,serif" font-size="14.00">Sh</text>
<text text-anchor="middle" x="64" y="-22.8" font-family="Times,serif" font-size="14.00">Login</text>
<text text-anchor="middle" x="64" y="-7.8" font-family="Times,serif" font-size="14.00">Interactive</text>
</g>
<!-- sh_ln&#45;&gt;sh_li -->
<g id="edge3" class="edge">
<title>sh_ln&#45;&gt;sh_li</title>
<path fill="none" stroke="#f0e444" stroke-width="4" d="M64,-70.81C64,-64.91 64,-59.02 64,-53.12"/>
</g>
<!-- sh_ln_home_profile -->
<g id="node11" class="node">
<title>sh_ln_home_profile</title>
<polygon fill="#cc79a7" stroke="#cc79a7" points="322.28,-115.5 196.31,-115.5 163.91,-79.5 289.88,-79.5 322.28,-115.5"/>
<text text-anchor="middle" x="243.09" y="-93.8" font-family="Times,serif" font-size="14.00">~/.profile</text>
</g>
<!-- sh_ln&#45;&gt;sh_ln_home_profile -->
<g id="edge19" class="edge">
<title>sh_ln&#45;&gt;sh_ln_home_profile</title>
<path fill="none" stroke="#35b4e9" stroke-width="4" stroke-dasharray="5,2" d="M128.43,-97.5C141.8,-97.5 156,-97.5 169.67,-97.5"/>
<polygon fill="#35b4e9" stroke="#35b4e9" stroke-width="4" points="169.99,-101 179.99,-97.5 169.99,-94 169.99,-101"/>
</g>
<!-- sh_li_home_profile -->
<g id="node12" class="node">
<title>sh_li_home_profile</title>
<polygon fill="#cc79a7" stroke="#cc79a7" points="322.28,-44.5 196.31,-44.5 163.91,-8.5 289.88,-8.5 322.28,-44.5"/>
<text text-anchor="middle" x="243.09" y="-22.8" font-family="Times,serif" font-size="14.00">~/.profile</text>
</g>
<!-- sh_li&#45;&gt;sh_li_home_profile -->
<g id="edge21" class="edge">
<title>sh_li&#45;&gt;sh_li_home_profile</title>
<path fill="none" stroke="#009e73" stroke-width="4" stroke-dasharray="5,2" d="M111.53,-26.5C129.33,-26.5 150.08,-26.5 169.74,-26.5"/>
<polygon fill="#009e73" stroke="#009e73" stroke-width="4" points="169.89,-30 179.89,-26.5 169.89,-23 169.89,-30"/>
</g>
<!-- sh_ni_running -->
<g id="node6" class="node">
<title>sh_ni_running</title>
<polygon fill="#0072b2" stroke="#0072b2" points="617.8,-191.5 500.82,-157 734.78,-157 617.8,-191.5"/>
<text text-anchor="middle" x="617.8" y="-164.8" font-family="Times,serif" font-size="14.00">Running...</text>
</g>
<!-- sh_nn_running&#45;&gt;sh_ni_running -->
<g id="edge4" class="edge">
<title>sh_nn_running&#45;&gt;sh_ni_running</title>
<path fill="none" stroke="#0072b2" stroke-width="4" d="M617.8,-227.88C617.8,-215.76 617.8,-203.64 617.8,-191.52"/>
</g>
<!-- sh_ln_running -->
<g id="node7" class="node">
<title>sh_ln_running</title>
<polygon fill="#0072b2" stroke="#0072b2" points="617.8,-120.5 500.82,-86 734.78,-86 617.8,-120.5"/>
<text text-anchor="middle" x="617.8" y="-93.8" font-family="Times,serif" font-size="14.00">Running...</text>
</g>
<!-- sh_ni_running&#45;&gt;sh_ln_running -->
<g id="edge5" class="edge">
<title>sh_ni_running&#45;&gt;sh_ln_running</title>
<path fill="none" stroke="#0072b2" stroke-width="4" d="M617.8,-156.88C617.8,-144.76 617.8,-132.64 617.8,-120.52"/>
</g>
<!-- sh_li_running -->
<g id="node8" class="node">
<title>sh_li_running</title>
<polygon fill="#0072b2" stroke="#0072b2" points="617.8,-49.5 500.82,-15 734.78,-15 617.8,-49.5"/>
<text text-anchor="middle" x="617.8" y="-22.8" font-family="Times,serif" font-size="14.00">Running...</text>
</g>
<!-- sh_ln_running&#45;&gt;sh_li_running -->
<g id="edge6" class="edge">
<title>sh_ln_running&#45;&gt;sh_li_running</title>
<path fill="none" stroke="#0072b2" stroke-width="4" d="M617.8,-85.88C617.8,-73.76 617.8,-61.64 617.8,-49.52"/>
</g>
<!-- sh_ni_env&#45;&gt;sh_ni_running -->
<g id="edge18" class="edge">
<title>sh_ni_env&#45;&gt;sh_ni_running</title>
<path fill="none" stroke="orange" stroke-width="4" stroke-dasharray="5,2" d="M464.85,-168.5C484.53,-168.5 507.48,-168.5 529.49,-168.5"/>
<polygon fill="orange" stroke="orange" stroke-width="4" points="529.53,-172 539.53,-168.5 529.53,-165 529.53,-172"/>
</g>
<!-- sh_li_env -->
<g id="node10" class="node">
<title>sh_li_env</title>
<polygon fill="#d55e00" stroke="#d55e00" points="411.5,-44.5 358.38,-26.5 411.5,-8.5 464.62,-26.5 411.5,-44.5"/>
<text text-anchor="middle" x="411.5" y="-22.8" font-family="Times,serif" font-size="14.00">$ENV</text>
</g>
<!-- sh_ni_env&#45;&gt;sh_li_env -->
<g id="edge7" class="edge">
<title>sh_ni_env&#45;&gt;sh_li_env</title>
<path fill="none" stroke="#d55e00" stroke-width="4" d="M411.5,-150.1C411.5,-114.91 411.5,-79.72 411.5,-44.53"/>
</g>
<!-- sh_li_env&#45;&gt;sh_li_running -->
<g id="edge23" class="edge">
<title>sh_li_env&#45;&gt;sh_li_running</title>
<path fill="none" stroke="#009e73" stroke-width="4" stroke-dasharray="5,2" d="M464.85,-26.5C484.53,-26.5 507.48,-26.5 529.49,-26.5"/>
<polygon fill="#009e73" stroke="#009e73" stroke-width="4" points="529.53,-30 539.53,-26.5 529.53,-23 529.53,-30"/>
</g>
<!-- sh_ln_home_profile&#45;&gt;sh_ln_running -->
<g id="edge20" class="edge">
<title>sh_ln_home_profile&#45;&gt;sh_ln_running</title>
<path fill="none" stroke="#35b4e9" stroke-width="4" stroke-dasharray="5,2" d="M306.48,-97.5C367.48,-97.5 460.93,-97.5 529.34,-97.5"/>
<polygon fill="#35b4e9" stroke="#35b4e9" stroke-width="4" points="529.67,-101 539.67,-97.5 529.67,-94 529.67,-101"/>
</g>
<!-- sh_ln_home_profile&#45;&gt;sh_li_home_profile -->
<g id="edge8" class="edge">
<title>sh_ln_home_profile&#45;&gt;sh_li_home_profile</title>
<path fill="none" stroke="#cc79a7" stroke-width="4" d="M243.09,-79.29C243.09,-67.7 243.09,-56.12 243.09,-44.53"/>
</g>
<!-- sh_li_home_profile&#45;&gt;sh_li_env -->
<g id="edge22" class="edge">
<title>sh_li_home_profile&#45;&gt;sh_li_env</title>
<path fill="none" stroke="#009e73" stroke-width="4" stroke-dasharray="5,2" d="M306.53,-26.5C320.13,-26.5 334.51,-26.5 348.11,-26.5"/>
<polygon fill="#009e73" stroke="#009e73" stroke-width="4" points="348.32,-30 358.32,-26.5 348.32,-23 348.32,-30"/>
</g>
<!-- B2 -->
<g id="node13" class="node">
<title>B2</title>
<ellipse fill="black" stroke="black" cx="243.09" cy="-410.5" rx="18" ry="18"/>
<text text-anchor="middle" x="243.09" y="-406.8" font-family="Times,serif" font-size="14.00" fill="white">B</text>
</g>
<!-- B3 -->
<g id="node14" class="node">
<title>B3</title>
<ellipse fill="black" stroke="black" cx="243.09" cy="-356.5" rx="18" ry="18"/>
<text text-anchor="middle" x="243.09" y="-352.8" font-family="Times,serif" font-size="14.00" fill="white">B</text>
</g>
<!-- B2&#45;&gt;B3 -->
<g id="edge9" class="edge">
<title>B2&#45;&gt;B3</title>
<path fill="none" stroke="black" stroke-width="4" d="M243.09,-392.29C243.09,-386.41 243.09,-380.52 243.09,-374.64"/>
</g>
<!-- B4 -->
<g id="node15" class="node">
<title>B4</title>
<ellipse fill="black" stroke="black" cx="243.09" cy="-302.5" rx="18" ry="18"/>
<text text-anchor="middle" x="243.09" y="-298.8" font-family="Times,serif" font-size="14.00" fill="white">B</text>
</g>
<!-- B3&#45;&gt;B4 -->
<g id="edge10" class="edge">
<title>B3&#45;&gt;B4</title>
<path fill="none" stroke="black" stroke-width="4" d="M243.09,-338.29C243.09,-332.41 243.09,-326.52 243.09,-320.64"/>
</g>
<!-- C3 -->
<g id="node19" class="node">
<title>C3</title>
<polygon fill="white" stroke="transparent" points="438.5,-374.5 384.5,-374.5 384.5,-338.5 438.5,-338.5 438.5,-374.5"/>
<text text-anchor="middle" x="411.5" y="-352.8" font-family="Times,serif" font-size="14.00">C</text>
</g>
<!-- B3&#45;&gt;C3 -->
<g id="edge14" class="edge">
<title>B3&#45;&gt;C3</title>
<path fill="none" stroke="black" stroke-width="4" stroke-dasharray="5,2" d="M261.28,-356.5C287.77,-356.5 339.17,-356.5 374.17,-356.5"/>
<polygon fill="black" stroke="black" stroke-width="4" points="374.45,-360 384.45,-356.5 374.45,-353 374.45,-360"/>
</g>
<!-- C4 -->
<g id="node17" class="node">
<title>C4</title>
<polygon fill="white" stroke="transparent" points="438.5,-320.5 384.5,-320.5 384.5,-284.5 438.5,-284.5 438.5,-320.5"/>
<text text-anchor="middle" x="411.5" y="-298.8" font-family="Times,serif" font-size="14.00">C</text>
</g>
<!-- B4&#45;&gt;C4 -->
<g id="edge12" class="edge">
<title>B4&#45;&gt;C4</title>
<path fill="none" stroke="black" stroke-width="4" stroke-dasharray="5,2" d="M261.28,-302.5C287.77,-302.5 339.17,-302.5 374.17,-302.5"/>
<polygon fill="black" stroke="black" stroke-width="4" points="374.45,-306 384.45,-302.5 374.45,-299 374.45,-306"/>
</g>
<!-- A4 -->
<g id="node16" class="node">
<title>A4</title>
<polygon fill="white" stroke="transparent" points="91,-320.5 37,-320.5 37,-284.5 91,-284.5 91,-320.5"/>
<text text-anchor="middle" x="64" y="-298.8" font-family="Times,serif" font-size="14.00">A</text>
</g>
<!-- A4&#45;&gt;B4 -->
<g id="edge11" class="edge">
<title>A4&#45;&gt;B4</title>
<path fill="none" stroke="black" stroke-width="4" stroke-dasharray="5,2" d="M91.13,-302.5C124.3,-302.5 181.23,-302.5 214.89,-302.5"/>
<polygon fill="black" stroke="black" stroke-width="4" points="214.95,-306 224.95,-302.5 214.95,-299 214.95,-306"/>
</g>
<!-- D4 -->
<g id="node18" class="node">
<title>D4</title>
<polygon fill="white" stroke="transparent" points="644.8,-320.5 590.8,-320.5 590.8,-284.5 644.8,-284.5 644.8,-320.5"/>
<text text-anchor="middle" x="617.8" y="-298.8" font-family="Times,serif" font-size="14.00">D</text>
</g>
<!-- C4&#45;&gt;D4 -->
<g id="edge13" class="edge">
<title>C4&#45;&gt;D4</title>
<path fill="none" stroke="black" stroke-width="4" stroke-dasharray="5,2" d="M438.79,-302.5C474.88,-302.5 539.9,-302.5 580.58,-302.5"/>
<polygon fill="black" stroke="black" stroke-width="4" points="580.61,-306 590.61,-302.5 580.61,-299 580.61,-306"/>
</g>
<!-- A2 -->
<g id="node20" class="node">
<title>A2</title>
<polygon fill="white" stroke="transparent" points="91,-428.5 37,-428.5 37,-392.5 91,-392.5 91,-428.5"/>
<text text-anchor="middle" x="64" y="-406.8" font-family="Times,serif" font-size="14.00">A</text>
</g>
<!-- A2&#45;&gt;B2 -->
<g id="edge15" class="edge">
<title>A2&#45;&gt;B2</title>
<path fill="none" stroke="black" stroke-width="4" stroke-dasharray="5,2" d="M91.13,-410.5C124.3,-410.5 181.23,-410.5 214.89,-410.5"/>
<polygon fill="black" stroke="black" stroke-width="4" points="214.95,-414 224.95,-410.5 214.95,-407 214.95,-414"/>
</g>
<!-- A1 -->
<g id="node21" class="node">
<title>A1</title>
<polygon fill="white" stroke="transparent" points="91,-482.5 37,-482.5 37,-446.5 91,-446.5 91,-482.5"/>
<text text-anchor="middle" x="64" y="-460.8" font-family="Times,serif" font-size="14.00">A</text>
</g>
</g>
</svg>
