<?xml version="1.0" encoding="UTF-8" standalone="no"?>
<!DOCTYPE svg PUBLIC "-//W3C//DTD SVG 1.1//EN"
 "http://www.w3.org/Graphics/SVG/1.1/DTD/svg11.dtd">
<!-- Generated by graphviz version 2.38.0 (20140413.2041)
 -->
<!-- Title: %3 Pages: 1 -->
<svg width="412pt" height="399pt"
 viewBox="0.00 0.00 412.08 399.48" xmlns="http://www.w3.org/2000/svg" xmlns:xlink="http://www.w3.org/1999/xlink">
<g id="graph0" class="graph" transform="scale(1 1) rotate(0) translate(4 395.48)">
<title>%3</title>
<polygon fill="white" stroke="none" points="-4,4 -4,-395.48 408.079,-395.48 408.079,4 -4,4"/>
<!-- A -->
<g id="node1" class="node"><title>A</title>
<ellipse fill="none" stroke="black" cx="334.854" cy="-311.751" rx="27" ry="18"/>
<text text-anchor="middle" x="334.854" y="-308.051" font-family="Times,serif" font-size="14.00">A</text>
</g>
<!-- B -->
<g id="node2" class="node"><title>B</title>
<ellipse fill="none" stroke="black" cx="227.938" cy="-373.48" rx="27" ry="18"/>
<text text-anchor="middle" x="227.938" y="-369.78" font-family="Times,serif" font-size="14.00">B</text>
</g>
<!-- A&#45;&#45;B -->
<g id="edge1" class="edge"><title>A&#45;&#45;B</title>
<path fill="none" stroke="black" d="M314.24,-323.653C295.307,-334.584 267.401,-350.695 248.489,-361.614"/>
</g>
<!-- D -->
<g id="node4" class="node"><title>D</title>
<ellipse fill="none" stroke="black" cx="334.854" cy="-79.7284" rx="27" ry="18"/>
<text text-anchor="middle" x="334.854" y="-76.0284" font-family="Times,serif" font-size="14.00">D</text>
</g>
<!-- A&#45;&#45;D -->
<g id="edge10" class="edge"><title>A&#45;&#45;D</title>
<path fill="none" stroke="black" d="M334.854,-293.545C334.854,-250.172 334.854,-141.138 334.854,-97.8502"/>
</g>
<!-- C -->
<g id="node3" class="node"><title>C</title>
<ellipse fill="none" stroke="black" cx="377.079" cy="-195.74" rx="27" ry="18"/>
<text text-anchor="middle" x="377.079" y="-192.04" font-family="Times,serif" font-size="14.00">C</text>
</g>
<!-- B&#45;&#45;C -->
<g id="edge2" class="edge"><title>B&#45;&#45;C</title>
<path fill="none" stroke="black" d="M241.173,-357.706C269.475,-323.977 335.598,-245.175 363.873,-211.478"/>
</g>
<!-- G -->
<g id="node7" class="node"><title>G</title>
<ellipse fill="none" stroke="black" cx="106.356" cy="-352.042" rx="27" ry="18"/>
<text text-anchor="middle" x="106.356" y="-348.342" font-family="Times,serif" font-size="14.00">G</text>
</g>
<!-- B&#45;&#45;G -->
<g id="edge11" class="edge"><title>B&#45;&#45;G</title>
<path fill="none" stroke="black" d="M201.556,-368.828C181.163,-365.232 153.067,-360.278 132.686,-356.684"/>
</g>
<!-- C&#45;&#45;A -->
<g id="edge3" class="edge"><title>C&#45;&#45;A</title>
<path fill="none" stroke="black" d="M370.666,-213.359C362.73,-235.164 349.292,-272.085 341.328,-293.966"/>
</g>
<!-- E -->
<g id="node5" class="node"><title>E</title>
<ellipse fill="none" stroke="black" cx="106.356" cy="-39.438" rx="27" ry="18"/>
<text text-anchor="middle" x="106.356" y="-35.738" font-family="Times,serif" font-size="14.00">E</text>
</g>
<!-- D&#45;&#45;E -->
<g id="edge4" class="edge"><title>D&#45;&#45;E</title>
<path fill="none" stroke="black" d="M308.643,-75.1066C264.683,-67.3554 176.603,-51.8244 132.613,-44.0678"/>
</g>
<!-- F -->
<g id="node6" class="node"><title>F</title>
<ellipse fill="none" stroke="black" cx="227.938" cy="-18" rx="27" ry="18"/>
<text text-anchor="middle" x="227.938" y="-14.3" font-family="Times,serif" font-size="14.00">F</text>
</g>
<!-- E&#45;&#45;F -->
<g id="edge5" class="edge"><title>E&#45;&#45;F</title>
<path fill="none" stroke="black" d="M132.738,-34.7863C153.131,-31.1904 181.228,-26.2362 201.608,-22.6427"/>
</g>
<!-- F&#45;&#45;D -->
<g id="edge6" class="edge"><title>F&#45;&#45;D</title>
<path fill="none" stroke="black" d="M248.552,-29.9019C267.485,-40.8325 295.391,-56.9439 314.303,-67.8631"/>
</g>
<!-- H -->
<g id="node8" class="node"><title>H</title>
<ellipse fill="none" stroke="black" cx="27" cy="-134.011" rx="27" ry="18"/>
<text text-anchor="middle" x="27" y="-130.311" font-family="Times,serif" font-size="14.00">H</text>
</g>
<!-- G&#45;&#45;H -->
<g id="edge7" class="edge"><title>G&#45;&#45;H</title>
<path fill="none" stroke="black" d="M99.8624,-334.199C84.9446,-293.213 48.3694,-192.723 33.4725,-151.794"/>
</g>
<!-- H&#45;&#45;E -->
<g id="edge12" class="edge"><title>H&#45;&#45;E</title>
<path fill="none" stroke="black" d="M40.4617,-117.968C55.1429,-100.472 78.4912,-72.6465 93.0935,-55.2442"/>
</g>
<!-- I -->
<g id="node9" class="node"><title>I</title>
<ellipse fill="none" stroke="black" cx="27" cy="-257.468" rx="27" ry="18"/>
<text text-anchor="middle" x="27" y="-253.768" font-family="Times,serif" font-size="14.00">I</text>
</g>
<!-- H&#45;&#45;I -->
<g id="edge8" class="edge"><title>H&#45;&#45;I</title>
<path fill="none" stroke="black" d="M27,-152.228C27,-175.569 27,-215.799 27,-239.177"/>
</g>
<!-- I&#45;&#45;G -->
<g id="edge9" class="edge"><title>I&#45;&#45;G</title>
<path fill="none" stroke="black" d="M40.4617,-273.511C55.1429,-291.008 78.4912,-318.833 93.0935,-336.235"/>
</g>
</g>
</svg>
