<?xml version="1.0" encoding="UTF-8" standalone="no"?>
<!DOCTYPE svg PUBLIC "-//W3C//DTD SVG 1.1//EN"
 "http://www.w3.org/Graphics/SVG/1.1/DTD/svg11.dtd">
<!-- Generated by graphviz version 2.43.0 (0)
 -->
<!-- Title: %3 Pages: 1 -->
<svg width="412pt" height="399pt"
 viewBox="0.00 0.00 412.08 399.48" xmlns="http://www.w3.org/2000/svg" xmlns:xlink="http://www.w3.org/1999/xlink">
<g id="graph0" class="graph" transform="scale(1 1) rotate(0) translate(4 395.48)">
<title>%3</title>
<polygon fill="white" stroke="transparent" points="-4,4 -4,-395.48 408.08,-395.48 408.08,4 -4,4"/>
<!-- A -->
<g id="node1" class="node">
<title>A</title>
<ellipse fill="#f0e442" stroke="#e69f00" stroke-width="8" cx="334.85" cy="-311.75" rx="27" ry="18"/>
<text text-anchor="middle" x="334.85" y="-308.05" font-family="Times,serif" font-size="14.00">A</text>
</g>
<!-- B -->
<g id="node2" class="node">
<title>B</title>
<ellipse fill="#f0e442" stroke="#009e73" stroke-width="8" cx="227.94" cy="-373.48" rx="27" ry="18"/>
<text text-anchor="middle" x="227.94" y="-369.78" font-family="Times,serif" font-size="14.00">B</text>
</g>
<!-- A&#45;&#45;B -->
<g id="edge1" class="edge">
<title>A&#45;&#45;B</title>
<path fill="none" stroke="black" d="M314.24,-323.65C295.31,-334.58 267.4,-350.7 248.49,-361.61"/>
</g>
<!-- D -->
<g id="node4" class="node">
<title>D</title>
<ellipse fill="#56b4e9" stroke="#e69f00" stroke-width="8" cx="334.85" cy="-79.73" rx="27" ry="18"/>
<text text-anchor="middle" x="334.85" y="-76.03" font-family="Times,serif" font-size="14.00">D</text>
</g>
<!-- A&#45;&#45;D -->
<g id="edge10" class="edge">
<title>A&#45;&#45;D</title>
<path fill="none" stroke="black" d="M334.85,-293.54C334.85,-250.17 334.85,-141.14 334.85,-97.85"/>
</g>
<!-- C -->
<g id="node3" class="node">
<title>C</title>
<ellipse fill="#f0e442" stroke="#cc79a7" stroke-width="8" cx="377.08" cy="-195.74" rx="27" ry="18"/>
<text text-anchor="middle" x="377.08" y="-192.04" font-family="Times,serif" font-size="14.00">C</text>
</g>
<!-- B&#45;&#45;C -->
<g id="edge2" class="edge">
<title>B&#45;&#45;C</title>
<path fill="none" stroke="black" d="M241.17,-357.71C269.48,-323.98 335.6,-245.18 363.87,-211.48"/>
</g>
<!-- G -->
<g id="node7" class="node">
<title>G</title>
<ellipse fill="#d55e00" stroke="#e69f00" stroke-width="8" cx="106.36" cy="-352.04" rx="27" ry="18"/>
<text text-anchor="middle" x="106.36" y="-348.34" font-family="Times,serif" font-size="14.00">G</text>
</g>
<!-- B&#45;&#45;G -->
<g id="edge11" class="edge">
<title>B&#45;&#45;G</title>
<path fill="none" stroke="black" d="M201.56,-368.83C181.16,-365.23 153.07,-360.28 132.69,-356.68"/>
</g>
<!-- C&#45;&#45;A -->
<g id="edge3" class="edge">
<title>C&#45;&#45;A</title>
<path fill="none" stroke="black" d="M370.67,-213.36C362.73,-235.16 349.29,-272.08 341.33,-293.97"/>
</g>
<!-- E -->
<g id="node5" class="node">
<title>E</title>
<ellipse fill="#56b4e9" stroke="#009e73" stroke-width="8" cx="106.36" cy="-39.44" rx="27" ry="18"/>
<text text-anchor="middle" x="106.36" y="-35.74" font-family="Times,serif" font-size="14.00">E</text>
</g>
<!-- D&#45;&#45;E -->
<g id="edge4" class="edge">
<title>D&#45;&#45;E</title>
<path fill="none" stroke="black" d="M308.64,-75.11C264.68,-67.36 176.6,-51.82 132.61,-44.07"/>
</g>
<!-- F -->
<g id="node6" class="node">
<title>F</title>
<ellipse fill="#56b4e9" stroke="#cc79a7" stroke-width="8" cx="227.94" cy="-18" rx="27" ry="18"/>
<text text-anchor="middle" x="227.94" y="-14.3" font-family="Times,serif" font-size="14.00">F</text>
</g>
<!-- E&#45;&#45;F -->
<g id="edge5" class="edge">
<title>E&#45;&#45;F</title>
<path fill="none" stroke="black" d="M132.74,-34.79C153.13,-31.19 181.23,-26.24 201.61,-22.64"/>
</g>
<!-- F&#45;&#45;D -->
<g id="edge6" class="edge">
<title>F&#45;&#45;D</title>
<path fill="none" stroke="black" d="M248.55,-29.9C267.48,-40.83 295.39,-56.94 314.3,-67.86"/>
</g>
<!-- H -->
<g id="node8" class="node">
<title>H</title>
<ellipse fill="#d55e00" stroke="#009e73" stroke-width="8" cx="27" cy="-134.01" rx="27" ry="18"/>
<text text-anchor="middle" x="27" y="-130.31" font-family="Times,serif" font-size="14.00">H</text>
</g>
<!-- G&#45;&#45;H -->
<g id="edge7" class="edge">
<title>G&#45;&#45;H</title>
<path fill="none" stroke="black" d="M99.86,-334.2C84.94,-293.21 48.37,-192.72 33.47,-151.79"/>
</g>
<!-- H&#45;&#45;E -->
<g id="edge12" class="edge">
<title>H&#45;&#45;E</title>
<path fill="none" stroke="black" d="M40.46,-117.97C55.14,-100.47 78.49,-72.65 93.09,-55.24"/>
</g>
<!-- I -->
<g id="node9" class="node">
<title>I</title>
<ellipse fill="#d55e00" stroke="#cc79a7" stroke-width="8" cx="27" cy="-257.47" rx="27" ry="18"/>
<text text-anchor="middle" x="27" y="-253.77" font-family="Times,serif" font-size="14.00">I</text>
</g>
<!-- H&#45;&#45;I -->
<g id="edge8" class="edge">
<title>H&#45;&#45;I</title>
<path fill="none" stroke="black" d="M27,-152.23C27,-175.57 27,-215.8 27,-239.18"/>
</g>
<!-- I&#45;&#45;G -->
<g id="edge9" class="edge">
<title>I&#45;&#45;G</title>
<path fill="none" stroke="black" d="M40.46,-273.51C55.14,-291.01 78.49,-318.83 93.09,-336.24"/>
</g>
</g>
</svg>
