<?xml version="1.0" encoding="UTF-8" standalone="no"?>
<!DOCTYPE svg PUBLIC "-//W3C//DTD SVG 1.1//EN"
 "http://www.w3.org/Graphics/SVG/1.1/DTD/svg11.dtd">
<!-- Generated by graphviz version 2.43.0 (0)
 -->
<!-- Title: %3 Pages: 1 -->
<svg width="381pt" height="386pt"
 viewBox="0.00 0.00 380.75 386.38" xmlns="http://www.w3.org/2000/svg" xmlns:xlink="http://www.w3.org/1999/xlink">
<g id="graph0" class="graph" transform="scale(1 1) rotate(0) translate(4 382.38)">
<title>%3</title>
<polygon fill="white" stroke="transparent" points="-4,4 -4,-382.38 376.75,-382.38 376.75,4 -4,4"/>
<!-- A -->
<g id="node1" class="node">
<title>A</title>
<ellipse fill="#f0e442" stroke="#e69f00" stroke-width="8" cx="171" cy="-154.95" rx="27" ry="18"/>
<text text-anchor="middle" x="171" y="-151.25" font-family="Times,serif" font-size="14.00">A</text>
</g>
<!-- B -->
<g id="node2" class="node">
<title>B</title>
<ellipse fill="#f0e442" stroke="#009e73" stroke-width="8" cx="193.25" cy="-223.43" rx="27" ry="18"/>
<text text-anchor="middle" x="193.25" y="-219.73" font-family="Times,serif" font-size="14.00">B</text>
</g>
<!-- A&#45;&#45;B -->
<g id="edge1" class="edge">
<title>A&#45;&#45;B</title>
<path fill="none" stroke="black" d="M176.73,-172.59C180.03,-182.73 184.16,-195.44 187.46,-205.62"/>
</g>
<!-- D -->
<g id="node4" class="node">
<title>D</title>
<ellipse fill="#56b4e9" stroke="#e69f00" stroke-width="8" cx="112.75" cy="-112.63" rx="27" ry="18"/>
<text text-anchor="middle" x="112.75" y="-108.93" font-family="Times,serif" font-size="14.00">D</text>
</g>
<!-- A&#45;&#45;D -->
<g id="edge10" class="edge">
<title>A&#45;&#45;D</title>
<path fill="none" stroke="black" d="M152.57,-141.56C145.77,-136.62 138.07,-131.03 131.26,-126.08"/>
</g>
<!-- C -->
<g id="node3" class="node">
<title>C</title>
<ellipse fill="#f0e442" stroke="#cc79a7" stroke-width="8" cx="229.25" cy="-112.63" rx="27" ry="18"/>
<text text-anchor="middle" x="229.25" y="-108.93" font-family="Times,serif" font-size="14.00">C</text>
</g>
<!-- B&#45;&#45;C -->
<g id="edge2" class="edge">
<title>B&#45;&#45;C</title>
<path fill="none" stroke="black" d="M199.03,-205.63C205.75,-184.95 216.77,-151.05 223.48,-130.39"/>
</g>
<!-- G -->
<g id="node7" class="node">
<title>G</title>
<ellipse fill="#d55e00" stroke="#e69f00" stroke-width="8" cx="215.5" cy="-291.9" rx="27" ry="18"/>
<text text-anchor="middle" x="215.5" y="-288.2" font-family="Times,serif" font-size="14.00">G</text>
</g>
<!-- B&#45;&#45;G -->
<g id="edge11" class="edge">
<title>B&#45;&#45;G</title>
<path fill="none" stroke="black" d="M198.98,-241.06C202.28,-251.21 206.4,-263.92 209.71,-274.09"/>
</g>
<!-- C&#45;&#45;A -->
<g id="edge3" class="edge">
<title>C&#45;&#45;A</title>
<path fill="none" stroke="black" d="M210.82,-126.02C204.02,-130.96 196.32,-136.56 189.51,-141.5"/>
</g>
<!-- E -->
<g id="node5" class="node">
<title>E</title>
<ellipse fill="#56b4e9" stroke="#009e73" stroke-width="8" cx="27" cy="-154.95" rx="27" ry="18"/>
<text text-anchor="middle" x="27" y="-151.25" font-family="Times,serif" font-size="14.00">E</text>
</g>
<!-- D&#45;&#45;E -->
<g id="edge4" class="edge">
<title>D&#45;&#45;E</title>
<path fill="none" stroke="black" d="M90.67,-123.53C77.77,-129.9 61.55,-137.9 48.71,-144.24"/>
</g>
<!-- F -->
<g id="node6" class="node">
<title>F</title>
<ellipse fill="#56b4e9" stroke="#cc79a7" stroke-width="8" cx="126.5" cy="-18" rx="27" ry="18"/>
<text text-anchor="middle" x="126.5" y="-14.3" font-family="Times,serif" font-size="14.00">F</text>
</g>
<!-- E&#45;&#45;F -->
<g id="edge5" class="edge">
<title>E&#45;&#45;F</title>
<path fill="none" stroke="black" d="M38.8,-138.7C57.95,-112.35 95.57,-60.57 114.71,-34.23"/>
</g>
<!-- F&#45;&#45;D -->
<g id="edge6" class="edge">
<title>F&#45;&#45;D</title>
<path fill="none" stroke="black" d="M123.85,-36.25C121.42,-53 117.83,-77.7 115.39,-94.44"/>
</g>
<!-- H -->
<g id="node8" class="node">
<title>H</title>
<ellipse fill="#d55e00" stroke="#009e73" stroke-width="8" cx="345.75" cy="-281.91" rx="27" ry="18"/>
<text text-anchor="middle" x="345.75" y="-278.21" font-family="Times,serif" font-size="14.00">H</text>
</g>
<!-- G&#45;&#45;H -->
<g id="edge7" class="edge">
<title>G&#45;&#45;H</title>
<path fill="none" stroke="black" d="M242.49,-289.83C264.84,-288.12 296.45,-285.7 318.79,-283.98"/>
</g>
<!-- H&#45;&#45;E -->
<g id="edge12" class="edge">
<title>H&#45;&#45;E</title>
<path fill="none" stroke="black" d="M322.57,-272.68C263.83,-249.29 109.63,-187.87 50.52,-164.32"/>
</g>
<!-- I -->
<g id="node9" class="node">
<title>I</title>
<ellipse fill="#d55e00" stroke="#cc79a7" stroke-width="8" cx="104.25" cy="-360.38" rx="27" ry="18"/>
<text text-anchor="middle" x="104.25" y="-356.68" font-family="Times,serif" font-size="14.00">I</text>
</g>
<!-- H&#45;&#45;I -->
<g id="edge8" class="edge">
<title>H&#45;&#45;I</title>
<path fill="none" stroke="black" d="M321.26,-289.87C274.98,-304.91 175.14,-337.35 128.8,-352.4"/>
</g>
<!-- I&#45;&#45;G -->
<g id="edge9" class="edge">
<title>I&#45;&#45;G</title>
<path fill="none" stroke="black" d="M124.14,-348.14C144.26,-335.75 175.21,-316.7 195.41,-304.27"/>
</g>
</g>
</svg>
