<?xml version="1.0" encoding="UTF-8" standalone="no"?>
<!DOCTYPE svg PUBLIC "-//W3C//DTD SVG 1.1//EN"
 "http://www.w3.org/Graphics/SVG/1.1/DTD/svg11.dtd">
<!-- Generated by graphviz version 2.38.0 (20140413.2041)
 -->
<!-- Title: blog_workflow Pages: 1 -->
<svg width="556pt" height="1248pt"
 viewBox="0.00 0.00 555.54 1248.48" xmlns="http://www.w3.org/2000/svg" xmlns:xlink="http://www.w3.org/1999/xlink">
<g id="graph0" class="graph" transform="scale(1 1) rotate(0) translate(4 1244.48)">
<title>blog_workflow</title>
<polygon fill="white" stroke="none" points="-4,4 -4,-1244.48 551.542,-1244.48 551.542,4 -4,4"/>
<!-- content_vscode_label -->
<g id="node1" class="node"><title>content_vscode_label</title>
<text text-anchor="middle" x="248.046" y="-1146.78" font-family="Times,serif" font-size="14.00">Authored in</text>
</g>
<!-- vscode -->
<g id="node2" class="node"><title>vscode</title>
<ellipse fill="none" stroke="black" cx="248.046" cy="-1078.48" rx="79.8859" ry="18"/>
<text text-anchor="middle" x="248.046" y="-1074.78" font-family="Times,serif" font-size="14.00">Visual Studio Code</text>
</g>
<!-- content_vscode_label&#45;&gt;vscode -->
<g id="edge1" class="edge"><title>content_vscode_label&#45;&gt;vscode</title>
<path fill="none" stroke="black" d="M248.046,-1132.18C248.046,-1124.46 248.046,-1115.19 248.046,-1106.59"/>
<polygon fill="black" stroke="black" points="251.546,-1106.58 248.046,-1096.58 244.546,-1106.58 251.546,-1106.58"/>
</g>
<!-- vscode_git_label -->
<g id="node4" class="node"><title>vscode_git_label</title>
<text text-anchor="middle" x="248.046" y="-1009.28" font-family="Times,serif" font-size="14.00">Primary</text>
<text text-anchor="middle" x="248.046" y="-994.28" font-family="Times,serif" font-size="14.00">Interface</text>
<text text-anchor="middle" x="248.046" y="-979.28" font-family="Times,serif" font-size="14.00">For</text>
</g>
<!-- vscode&#45;&gt;vscode_git_label -->
<g id="edge3" class="edge"><title>vscode&#45;&gt;vscode_git_label</title>
<path fill="none" stroke="black" d="M248.046,-1060.45C248.046,-1052.93 248.046,-1043.79 248.046,-1034.88"/>
<polygon fill="black" stroke="black" points="251.546,-1034.64 248.046,-1024.64 244.546,-1034.64 251.546,-1034.64"/>
</g>
<!-- vscode_preview_label -->
<g id="node5" class="node"><title>vscode_preview_label</title>
<text text-anchor="middle" x="164.046" y="-994.28" font-family="Times,serif" font-size="14.00">Previews</text>
</g>
<!-- vscode&#45;&gt;vscode_preview_label -->
<g id="edge4" class="edge"><title>vscode&#45;&gt;vscode_preview_label</title>
<path fill="none" stroke="black" d="M230.231,-1060.83C218.476,-1049.85 202.886,-1035.28 189.79,-1023.04"/>
<polygon fill="black" stroke="black" points="192.111,-1020.42 182.415,-1016.15 187.331,-1025.53 192.111,-1020.42"/>
</g>
<!-- git_write_label -->
<g id="node6" class="node"><title>git_write_label</title>
<text text-anchor="middle" x="345.046" y="-994.28" font-family="Times,serif" font-size="14.00">For writing to</text>
</g>
<!-- vscode&#45;&gt;git_write_label -->
<g id="edge5" class="edge"><title>vscode&#45;&gt;git_write_label</title>
<path fill="none" stroke="black" d="M268.617,-1060.83C282.318,-1049.74 300.531,-1035.01 315.74,-1022.7"/>
<polygon fill="black" stroke="black" points="318.262,-1025.16 323.833,-1016.15 313.858,-1019.72 318.262,-1025.16"/>
</g>
<!-- Content -->
<g id="node3" class="node"><title>Content</title>
<ellipse fill="none" stroke="black" cx="248.046" cy="-1222.48" rx="38.1938" ry="18"/>
<text text-anchor="middle" x="248.046" y="-1218.78" font-family="Times,serif" font-size="14.00">Content</text>
</g>
<!-- Content&#45;&gt;content_vscode_label -->
<g id="edge2" class="edge"><title>Content&#45;&gt;content_vscode_label</title>
<path fill="none" stroke="black" d="M248.046,-1204.18C248.046,-1196.46 248.046,-1187.19 248.046,-1178.59"/>
<polygon fill="black" stroke="black" points="251.546,-1178.58 248.046,-1168.58 244.546,-1178.58 251.546,-1178.58"/>
</g>
<!-- git_local -->
<g id="node7" class="node"><title>git_local</title>
<ellipse fill="none" stroke="black" cx="307.046" cy="-917.48" rx="60.3893" ry="18"/>
<text text-anchor="middle" x="307.046" y="-913.78" font-family="Times,serif" font-size="14.00">Local git repo</text>
</g>
<!-- vscode_git_label&#45;&gt;git_local -->
<g id="edge6" class="edge"><title>vscode_git_label&#45;&gt;git_local</title>
<path fill="none" stroke="black" d="M267.364,-971.276C274.088,-962.331 281.616,-952.315 288.293,-943.431"/>
<polygon fill="black" stroke="black" points="291.169,-945.429 294.38,-935.332 285.573,-941.224 291.169,-945.429"/>
</g>
<!-- gv_preview -->
<g id="node8" class="node"><title>gv_preview</title>
<ellipse fill="none" stroke="black" cx="183.046" cy="-917.48" rx="27" ry="18"/>
<text text-anchor="middle" x="183.046" y="-913.78" font-family="Times,serif" font-size="14.00">Dot</text>
</g>
<!-- vscode_preview_label&#45;&gt;gv_preview -->
<g id="edge7" class="edge"><title>vscode_preview_label&#45;&gt;gv_preview</title>
<path fill="none" stroke="black" d="M168.168,-979.947C170.608,-969.866 173.754,-956.869 176.524,-945.425"/>
<polygon fill="black" stroke="black" points="179.98,-946.023 178.931,-935.48 173.177,-944.376 179.98,-946.023"/>
</g>
<!-- md_preview -->
<g id="node9" class="node"><title>md_preview</title>
<ellipse fill="none" stroke="black" cx="50.0456" cy="-917.48" rx="50.0912" ry="18"/>
<text text-anchor="middle" x="50.0456" y="-913.78" font-family="Times,serif" font-size="14.00">Markdown</text>
</g>
<!-- vscode_preview_label&#45;&gt;md_preview -->
<g id="edge8" class="edge"><title>vscode_preview_label&#45;&gt;md_preview</title>
<path fill="none" stroke="black" d="M139.309,-979.947C122.201,-968.166 99.3115,-952.405 80.9946,-939.792"/>
<polygon fill="black" stroke="black" points="82.6365,-936.673 72.4153,-933.884 78.6665,-942.438 82.6365,-936.673"/>
</g>
<!-- git_write_label&#45;&gt;git_local -->
<g id="edge9" class="edge"><title>git_write_label&#45;&gt;git_local</title>
<path fill="none" stroke="black" d="M336.8,-979.947C331.821,-969.66 325.371,-956.338 319.751,-944.727"/>
<polygon fill="black" stroke="black" points="322.782,-942.956 315.275,-935.48 316.482,-946.006 322.782,-942.956"/>
</g>
<!-- git_local_source_label -->
<g id="node10" class="node"><title>git_local_source_label</title>
<text text-anchor="middle" x="378.046" y="-841.78" font-family="Times,serif" font-size="14.00">Read from for</text>
</g>
<!-- git_local&#45;&gt;git_local_source_label -->
<g id="edge10" class="edge"><title>git_local&#45;&gt;git_local_source_label</title>
<path fill="none" stroke="black" d="M323.872,-899.891C332.695,-891.193 343.669,-880.373 353.428,-870.751"/>
<polygon fill="black" stroke="black" points="355.935,-873.194 360.599,-863.681 351.021,-868.21 355.935,-873.194"/>
</g>
<!-- git_local_github_label -->
<g id="node11" class="node"><title>git_local_github_label</title>
<text text-anchor="middle" x="235.046" y="-841.78" font-family="Times,serif" font-size="14.00">Pushes to</text>
</g>
<!-- git_local&#45;&gt;git_local_github_label -->
<g id="edge11" class="edge"><title>git_local&#45;&gt;git_local_github_label</title>
<path fill="none" stroke="black" d="M289.983,-899.891C281.035,-891.193 269.906,-880.373 260.01,-870.751"/>
<polygon fill="black" stroke="black" points="262.348,-868.143 252.738,-863.681 257.468,-873.162 262.348,-868.143"/>
</g>
<!-- jekyll_local -->
<g id="node12" class="node"><title>jekyll_local</title>
<ellipse fill="none" stroke="black" cx="378.046" cy="-764.61" rx="60.2083" ry="26.7407"/>
<text text-anchor="middle" x="378.046" y="-768.41" font-family="Times,serif" font-size="14.00">Jekyll</text>
<text text-anchor="middle" x="378.046" y="-753.41" font-family="Times,serif" font-size="14.00">(locally&#45;run)</text>
</g>
<!-- git_local_source_label&#45;&gt;jekyll_local -->
<g id="edge12" class="edge"><title>git_local_source_label&#45;&gt;jekyll_local</title>
<path fill="none" stroke="black" d="M378.046,-827.367C378.046,-819.877 378.046,-810.786 378.046,-801.908"/>
<polygon fill="black" stroke="black" points="381.546,-801.693 378.046,-791.693 374.546,-801.693 381.546,-801.693"/>
</g>
<!-- gv_render -->
<g id="node13" class="node"><title>gv_render</title>
<ellipse fill="none" stroke="black" cx="502.046" cy="-764.61" rx="45.4919" ry="18"/>
<text text-anchor="middle" x="502.046" y="-760.91" font-family="Times,serif" font-size="14.00">GraphViz</text>
</g>
<!-- git_local_source_label&#45;&gt;gv_render -->
<g id="edge13" class="edge"><title>git_local_source_label&#45;&gt;gv_render</title>
<path fill="none" stroke="black" d="M404.952,-827.367C424.186,-815.132 450.14,-798.624 470.375,-785.754"/>
<polygon fill="black" stroke="black" points="472.383,-788.625 478.942,-780.305 468.626,-782.719 472.383,-788.625"/>
</g>
<!-- git_github -->
<g id="node14" class="node"><title>git_github</title>
<ellipse fill="none" stroke="black" cx="233.046" cy="-764.61" rx="66.8882" ry="18"/>
<text text-anchor="middle" x="233.046" y="-760.91" font-family="Times,serif" font-size="14.00">GitHub git repo</text>
</g>
<!-- git_local_github_label&#45;&gt;git_github -->
<g id="edge14" class="edge"><title>git_local_github_label&#45;&gt;git_github</title>
<path fill="none" stroke="black" d="M234.612,-827.367C234.357,-817.341 234.03,-804.446 233.741,-793.035"/>
<polygon fill="black" stroke="black" points="237.231,-792.598 233.479,-782.69 230.233,-792.776 237.231,-792.598"/>
</g>
<!-- gv_render_label -->
<g id="node20" class="node"><title>gv_render_label</title>
<text text-anchor="middle" x="459.046" y="-994.28" font-family="Times,serif" font-size="14.00">Renders Dot to</text>
</g>
<!-- gv_render&#45;&gt;gv_render_label -->
<g id="edge19" class="edge"><title>gv_render&#45;&gt;gv_render_label</title>
<path fill="none" stroke="black" d="M498.687,-782.837C491.229,-823.315 473.239,-920.948 464.287,-969.532"/>
<polygon fill="black" stroke="black" points="460.79,-969.199 462.42,-979.668 467.674,-970.468 460.79,-969.199"/>
</g>
<!-- git_github_jekyll_label -->
<g id="node23" class="node"><title>git_github_jekyll_label</title>
<text text-anchor="middle" x="233.046" y="-680.04" font-family="Times,serif" font-size="14.00">Feeds</text>
</g>
<!-- git_github&#45;&gt;git_github_jekyll_label -->
<g id="edge22" class="edge"><title>git_github&#45;&gt;git_github_jekyll_label</title>
<path fill="none" stroke="black" d="M233.046,-746.497C233.046,-736.471 233.046,-723.576 233.046,-712.165"/>
<polygon fill="black" stroke="black" points="236.546,-711.82 233.046,-701.82 229.546,-711.82 236.546,-711.82"/>
</g>
<!-- ga -->
<g id="node15" class="node"><title>ga</title>
<ellipse fill="none" stroke="black" cx="182.046" cy="-450" rx="72.5877" ry="18"/>
<text text-anchor="middle" x="182.046" y="-446.3" font-family="Times,serif" font-size="14.00">Google Analytics</text>
</g>
<!-- jekyll_gh -->
<g id="node16" class="node"><title>jekyll_gh</title>
<ellipse fill="none" stroke="black" cx="233.046" cy="-602.87" rx="84.2917" ry="26.7407"/>
<text text-anchor="middle" x="233.046" y="-606.67" font-family="Times,serif" font-size="14.00">Jekyll</text>
<text text-anchor="middle" x="233.046" y="-591.67" font-family="Times,serif" font-size="14.00">(on GitHub Pages)</text>
</g>
<!-- jekyll_gh_ga_label -->
<g id="node17" class="node"><title>jekyll_gh_ga_label</title>
<text text-anchor="middle" x="189.046" y="-518.3" font-family="Times,serif" font-size="14.00">Integrates</text>
</g>
<!-- jekyll_gh&#45;&gt;jekyll_gh_ga_label -->
<g id="edge15" class="edge"><title>jekyll_gh&#45;&gt;jekyll_gh_ga_label</title>
<path fill="none" stroke="black" d="M218.638,-576.045C213.853,-567.467 208.521,-557.91 203.716,-549.297"/>
<polygon fill="black" stroke="black" points="206.688,-547.44 198.759,-540.412 200.575,-550.85 206.688,-547.44"/>
</g>
<!-- jekyll_gh_RSS_label -->
<g id="node18" class="node"><title>jekyll_gh_RSS_label</title>
<text text-anchor="middle" x="292.046" y="-518.3" font-family="Times,serif" font-size="14.00">Generates</text>
</g>
<!-- jekyll_gh&#45;&gt;jekyll_gh_RSS_label -->
<g id="edge16" class="edge"><title>jekyll_gh&#45;&gt;jekyll_gh_RSS_label</title>
<path fill="none" stroke="black" d="M252.038,-576.481C258.778,-567.472 266.359,-557.338 273.095,-548.333"/>
<polygon fill="black" stroke="black" points="276.051,-550.224 279.239,-540.12 270.446,-546.031 276.051,-550.224"/>
</g>
<!-- jekyll_gh_ga_label&#45;&gt;ga -->
<g id="edge17" class="edge"><title>jekyll_gh_ga_label&#45;&gt;ga</title>
<path fill="none" stroke="black" d="M187.315,-503.697C186.544,-495.983 185.617,-486.712 184.757,-478.112"/>
<polygon fill="black" stroke="black" points="188.234,-477.706 183.756,-468.104 181.268,-478.403 188.234,-477.706"/>
</g>
<!-- RSS -->
<g id="node19" class="node"><title>RSS</title>
<ellipse fill="none" stroke="black" cx="300.046" cy="-450" rx="27" ry="18"/>
<text text-anchor="middle" x="300.046" y="-446.3" font-family="Times,serif" font-size="14.00">RSS</text>
</g>
<!-- jekyll_gh_RSS_label&#45;&gt;RSS -->
<g id="edge18" class="edge"><title>jekyll_gh_RSS_label&#45;&gt;RSS</title>
<path fill="none" stroke="black" d="M294.023,-503.697C294.905,-495.983 295.964,-486.712 296.947,-478.112"/>
<polygon fill="black" stroke="black" points="300.433,-478.437 298.091,-468.104 293.478,-477.642 300.433,-478.437"/>
</g>
<!-- RSS_IFTT_label -->
<g id="node24" class="node"><title>RSS_IFTT_label</title>
<text text-anchor="middle" x="300.046" y="-374.3" font-family="Times,serif" font-size="14.00">Monitored by</text>
</g>
<!-- RSS&#45;&gt;RSS_IFTT_label -->
<g id="edge28" class="edge"><title>RSS&#45;&gt;RSS_IFTT_label</title>
<path fill="none" stroke="black" d="M300.046,-431.697C300.046,-423.983 300.046,-414.712 300.046,-406.112"/>
<polygon fill="black" stroke="black" points="303.546,-406.104 300.046,-396.104 296.546,-406.104 303.546,-406.104"/>
</g>
<!-- PNG -->
<g id="node21" class="node"><title>PNG</title>
<ellipse fill="none" stroke="black" cx="456.046" cy="-1078.48" rx="28.6953" ry="18"/>
<text text-anchor="middle" x="456.046" y="-1074.78" font-family="Times,serif" font-size="14.00">PNG</text>
</g>
<!-- gv_render_label&#45;&gt;PNG -->
<g id="edge20" class="edge"><title>gv_render_label&#45;&gt;PNG</title>
<path fill="none" stroke="black" d="M464.082,-1016.15C464.787,-1026.31 464.532,-1039.4 463.491,-1050.88"/>
<polygon fill="black" stroke="black" points="460.012,-1050.49 462.318,-1060.83 466.964,-1051.31 460.012,-1050.49"/>
</g>
<!-- SVG -->
<g id="node22" class="node"><title>SVG</title>
<ellipse fill="none" stroke="black" cx="379.046" cy="-1078.48" rx="28.6953" ry="18"/>
<text text-anchor="middle" x="379.046" y="-1074.78" font-family="Times,serif" font-size="14.00">SVG</text>
</g>
<!-- gv_render_label&#45;&gt;SVG -->
<g id="edge21" class="edge"><title>gv_render_label&#45;&gt;SVG</title>
<path fill="none" stroke="black" d="M447.299,-1016.09C436.098,-1028.38 419.263,-1044.98 405.018,-1057.82"/>
<polygon fill="black" stroke="black" points="402.61,-1055.28 397.422,-1064.52 407.238,-1060.53 402.61,-1055.28"/>
</g>
<!-- PNG&#45;&gt;git_write_label -->
<g id="edge24" class="edge"><title>PNG&#45;&gt;git_write_label</title>
<path fill="none" stroke="black" d="M437.716,-1064.52C421.41,-1052.99 397.181,-1035.85 377.587,-1021.99"/>
<polygon fill="black" stroke="black" points="379.419,-1019 369.234,-1016.09 375.377,-1024.72 379.419,-1019"/>
</g>
<!-- PNG&#45;&gt;gv_render_label -->
<!-- SVG&#45;&gt;git_write_label -->
<g id="edge26" class="edge"><title>SVG&#45;&gt;git_write_label</title>
<path fill="none" stroke="black" d="M371.835,-1060.83C367.388,-1050.57 361.586,-1037.17 356.518,-1025.47"/>
<polygon fill="black" stroke="black" points="359.667,-1023.93 352.481,-1016.15 353.244,-1026.71 359.667,-1023.93"/>
</g>
<!-- SVG&#45;&gt;gv_render_label -->
<!-- git_github_jekyll_label&#45;&gt;jekyll_gh -->
<g id="edge23" class="edge"><title>git_github_jekyll_label&#45;&gt;jekyll_gh</title>
<path fill="none" stroke="black" d="M233.046,-665.626C233.046,-658.137 233.046,-649.046 233.046,-640.168"/>
<polygon fill="black" stroke="black" points="236.546,-639.953 233.046,-629.953 229.546,-639.953 236.546,-639.953"/>
</g>
<!-- IFTTT -->
<g id="node25" class="node"><title>IFTTT</title>
<ellipse fill="none" stroke="black" cx="300.046" cy="-306" rx="34.394" ry="18"/>
<text text-anchor="middle" x="300.046" y="-302.3" font-family="Times,serif" font-size="14.00">IFTTT</text>
</g>
<!-- RSS_IFTT_label&#45;&gt;IFTTT -->
<g id="edge29" class="edge"><title>RSS_IFTT_label&#45;&gt;IFTTT</title>
<path fill="none" stroke="black" d="M300.046,-359.697C300.046,-351.983 300.046,-342.712 300.046,-334.112"/>
<polygon fill="black" stroke="black" points="303.546,-334.104 300.046,-324.104 296.546,-334.104 303.546,-334.104"/>
</g>
<!-- IFTTT_post_label -->
<g id="node26" class="node"><title>IFTTT_post_label</title>
<text text-anchor="middle" x="263.046" y="-230.3" font-family="Times,serif" font-size="14.00">Post to</text>
</g>
<!-- IFTTT&#45;&gt;IFTTT_post_label -->
<g id="edge30" class="edge"><title>IFTTT&#45;&gt;IFTTT_post_label</title>
<path fill="none" stroke="black" d="M291.277,-288.411C287.026,-280.369 281.818,-270.515 277.037,-261.47"/>
<polygon fill="black" stroke="black" points="280.035,-259.652 272.267,-252.447 273.846,-262.923 280.035,-259.652"/>
</g>
<!-- IFTTT_buffer_label -->
<g id="node27" class="node"><title>IFTTT_buffer_label</title>
<text text-anchor="middle" x="392.046" y="-230.3" font-family="Times,serif" font-size="14.00">Adds to</text>
</g>
<!-- IFTTT&#45;&gt;IFTTT_buffer_label -->
<g id="edge31" class="edge"><title>IFTTT&#45;&gt;IFTTT_buffer_label</title>
<path fill="none" stroke="black" d="M318.663,-290.834C330.953,-281.484 347.342,-269.014 361.514,-258.23"/>
<polygon fill="black" stroke="black" points="363.716,-260.953 369.555,-252.113 359.477,-255.383 363.716,-260.953"/>
</g>
<!-- Twitter -->
<g id="node28" class="node"><title>Twitter</title>
<ellipse fill="none" stroke="black" cx="164.046" cy="-162" rx="36.2938" ry="18"/>
<text text-anchor="middle" x="164.046" y="-158.3" font-family="Times,serif" font-size="14.00">Twitter</text>
</g>
<!-- IFTTT_post_label&#45;&gt;Twitter -->
<g id="edge32" class="edge"><title>IFTTT_post_label&#45;&gt;Twitter</title>
<path fill="none" stroke="black" d="M238.827,-215.876C224.759,-205.929 206.966,-193.348 192.266,-182.954"/>
<polygon fill="black" stroke="black" points="194.205,-180.038 184.019,-177.123 190.164,-185.754 194.205,-180.038"/>
</g>
<!-- Facebook -->
<g id="node29" class="node"><title>Facebook</title>
<ellipse fill="none" stroke="black" cx="263.046" cy="-162" rx="44.6926" ry="18"/>
<text text-anchor="middle" x="263.046" y="-158.3" font-family="Times,serif" font-size="14.00">Facebook</text>
</g>
<!-- IFTTT_post_label&#45;&gt;Facebook -->
<g id="edge33" class="edge"><title>IFTTT_post_label&#45;&gt;Facebook</title>
<path fill="none" stroke="black" d="M263.046,-215.697C263.046,-207.983 263.046,-198.712 263.046,-190.112"/>
<polygon fill="black" stroke="black" points="266.546,-190.104 263.046,-180.104 259.546,-190.104 266.546,-190.104"/>
</g>
<!-- Reddit -->
<g id="node30" class="node"><title>Reddit</title>
<ellipse fill="none" stroke="black" cx="360.046" cy="-162" rx="34.394" ry="18"/>
<text text-anchor="middle" x="360.046" y="-158.3" font-family="Times,serif" font-size="14.00">Reddit</text>
</g>
<!-- IFTTT_post_label&#45;&gt;Reddit -->
<g id="edge34" class="edge"><title>IFTTT_post_label&#45;&gt;Reddit</title>
<path fill="none" stroke="black" d="M287.023,-215.697C300.682,-205.839 317.863,-193.441 332.128,-183.147"/>
<polygon fill="black" stroke="black" points="334.514,-185.741 340.575,-177.051 330.418,-180.065 334.514,-185.741"/>
</g>
<!-- LinkedIn -->
<g id="node31" class="node"><title>LinkedIn</title>
<ellipse fill="none" stroke="black" cx="67.0456" cy="-162" rx="42.7926" ry="18"/>
<text text-anchor="middle" x="67.0456" y="-158.3" font-family="Times,serif" font-size="14.00">LinkedIn</text>
</g>
<!-- IFTTT_post_label&#45;&gt;LinkedIn -->
<g id="edge35" class="edge"><title>IFTTT_post_label&#45;&gt;LinkedIn</title>
<path fill="none" stroke="black" d="M235.793,-223.267C202.77,-211.473 146.798,-191.483 108.438,-177.783"/>
<polygon fill="black" stroke="black" points="109.199,-174.338 98.6044,-174.271 106.845,-180.931 109.199,-174.338"/>
</g>
<!-- Buffer -->
<g id="node32" class="node"><title>Buffer</title>
<ellipse fill="none" stroke="black" cx="446.046" cy="-162" rx="33.5952" ry="18"/>
<text text-anchor="middle" x="446.046" y="-158.3" font-family="Times,serif" font-size="14.00">Buffer</text>
</g>
<!-- IFTTT_buffer_label&#45;&gt;Buffer -->
<g id="edge36" class="edge"><title>IFTTT_buffer_label&#45;&gt;Buffer</title>
<path fill="none" stroke="black" d="M405.394,-215.697C411.994,-207.141 420.07,-196.672 427.28,-187.325"/>
<polygon fill="black" stroke="black" points="430.254,-189.2 433.591,-179.145 424.712,-184.925 430.254,-189.2"/>
</g>
<!-- Buffer_posts_label -->
<g id="node33" class="node"><title>Buffer_posts_label</title>
<text text-anchor="middle" x="446.046" y="-86.3" font-family="Times,serif" font-size="14.00">Posts to</text>
</g>
<!-- Buffer&#45;&gt;Buffer_posts_label -->
<g id="edge37" class="edge"><title>Buffer&#45;&gt;Buffer_posts_label</title>
<path fill="none" stroke="black" d="M446.046,-143.697C446.046,-135.983 446.046,-126.712 446.046,-118.112"/>
<polygon fill="black" stroke="black" points="449.546,-118.104 446.046,-108.104 442.546,-118.104 449.546,-118.104"/>
</g>
<!-- gplus -->
<g id="node34" class="node"><title>gplus</title>
<ellipse fill="none" stroke="black" cx="446.046" cy="-18" rx="53.8905" ry="18"/>
<text text-anchor="middle" x="446.046" y="-14.3" font-family="Times,serif" font-size="14.00">Google Plus</text>
</g>
<!-- Buffer_posts_label&#45;&gt;gplus -->
<g id="edge38" class="edge"><title>Buffer_posts_label&#45;&gt;gplus</title>
<path fill="none" stroke="black" d="M446.046,-71.6966C446.046,-63.9827 446.046,-54.7125 446.046,-46.1124"/>
<polygon fill="black" stroke="black" points="449.546,-46.1043 446.046,-36.1043 442.546,-46.1044 449.546,-46.1043"/>
</g>
</g>
</svg>
