<?xml version="1.0" encoding="UTF-8" standalone="no"?>
<!DOCTYPE svg PUBLIC "-//W3C//DTD SVG 1.1//EN"
 "http://www.w3.org/Graphics/SVG/1.1/DTD/svg11.dtd">
<!-- Generated by graphviz version 2.43.0 (0)
 -->
<!-- Title: %3 Pages: 1 -->
<svg width="475pt" height="274pt"
 viewBox="0.00 0.00 475.00 274.00" xmlns="http://www.w3.org/2000/svg" xmlns:xlink="http://www.w3.org/1999/xlink">
<g id="graph0" class="graph" transform="scale(1 1) rotate(0) translate(4 270)">
<title>%3</title>
<polygon fill="white" stroke="transparent" points="-4,4 -4,-270 471,-270 471,4 -4,4"/>
<!-- sh_nn -->
<g id="node1" class="node">
<title>sh_nn</title>
<text text-anchor="middle" x="64" y="-250.8" font-family="Times,serif" font-size="14.00">Sh</text>
<text text-anchor="middle" x="64" y="-235.8" font-family="Times,serif" font-size="14.00">Non&#45;Login</text>
<text text-anchor="middle" x="64" y="-220.8" font-family="Times,serif" font-size="14.00">Non&#45;Interactive</text>
</g>
<!-- sh_nn_running -->
<g id="node5" class="node">
<title>sh_nn_running</title>
<text text-anchor="middle" x="422" y="-227.8" font-family="Times,serif" font-size="14.00">Running...</text>
</g>
<!-- sh_nn&#45;&gt;sh_nn_running -->
<g id="edge6" class="edge">
<title>sh_nn&#45;&gt;sh_nn_running</title>
<path fill="none" stroke="black" stroke-width="5" d="M128.24,-238.08C195.99,-236.56 302.43,-234.16 366.58,-232.72"/>
<polygon fill="black" stroke="black" stroke-width="5" points="366.99,-237.09 376.89,-232.49 366.79,-228.34 366.99,-237.09"/>
</g>
<!-- sh_ni -->
<g id="node2" class="node">
<title>sh_ni</title>
<text text-anchor="middle" x="64" y="-179.8" font-family="Times,serif" font-size="14.00">Sh</text>
<text text-anchor="middle" x="64" y="-164.8" font-family="Times,serif" font-size="14.00">Non&#45;Login</text>
<text text-anchor="middle" x="64" y="-149.8" font-family="Times,serif" font-size="14.00">Interactive</text>
</g>
<!-- sh_ni_env -->
<g id="node9" class="node">
<title>sh_ni_env</title>
<text text-anchor="middle" x="312" y="-164.8" font-family="Times,serif" font-size="14.00">$ENV</text>
</g>
<!-- sh_ni&#45;&gt;sh_ni_env -->
<g id="edge7" class="edge">
<title>sh_ni&#45;&gt;sh_ni_env</title>
<path fill="none" stroke="orange" stroke-width="5" d="M111.56,-168.5C158.14,-168.5 228.96,-168.5 272.48,-168.5"/>
<polygon fill="orange" stroke="orange" stroke-width="5" points="272.66,-172.88 282.66,-168.5 272.66,-164.13 272.66,-172.88"/>
</g>
<!-- sh_ln -->
<g id="node3" class="node">
<title>sh_ln</title>
<text text-anchor="middle" x="64" y="-108.8" font-family="Times,serif" font-size="14.00">Sh</text>
<text text-anchor="middle" x="64" y="-93.8" font-family="Times,serif" font-size="14.00">Login</text>
<text text-anchor="middle" x="64" y="-78.8" font-family="Times,serif" font-size="14.00">Non&#45;Interactive</text>
</g>
<!-- sh_ln_home_profile -->
<g id="node11" class="node">
<title>sh_ln_home_profile</title>
<text text-anchor="middle" x="205.5" y="-93.8" font-family="Times,serif" font-size="14.00">~/.profile</text>
</g>
<!-- sh_ln&#45;&gt;sh_ln_home_profile -->
<g id="edge9" class="edge">
<title>sh_ln&#45;&gt;sh_ln_home_profile</title>
<path fill="none" stroke="#35b4e9" stroke-width="5" d="M128.22,-97.5C136.74,-97.5 145.38,-97.5 153.65,-97.5"/>
<polygon fill="#35b4e9" stroke="#35b4e9" stroke-width="5" points="153.87,-101.88 163.87,-97.5 153.87,-93.13 153.87,-101.88"/>
</g>
<!-- sh_li -->
<g id="node4" class="node">
<title>sh_li</title>
<text text-anchor="middle" x="64" y="-37.8" font-family="Times,serif" font-size="14.00">Sh</text>
<text text-anchor="middle" x="64" y="-22.8" font-family="Times,serif" font-size="14.00">Login</text>
<text text-anchor="middle" x="64" y="-7.8" font-family="Times,serif" font-size="14.00">Interactive</text>
</g>
<!-- sh_li_home_profile -->
<g id="node12" class="node">
<title>sh_li_home_profile</title>
<text text-anchor="middle" x="205.5" y="-31.8" font-family="Times,serif" font-size="14.00">~/.profile</text>
</g>
<!-- sh_li&#45;&gt;sh_li_home_profile -->
<g id="edge11" class="edge">
<title>sh_li&#45;&gt;sh_li_home_profile</title>
<path fill="none" stroke="#009e73" stroke-width="5" d="M111.84,-29.52C125.21,-30.38 139.85,-31.33 153.46,-32.21"/>
<polygon fill="#009e73" stroke="#009e73" stroke-width="5" points="153.37,-36.58 163.63,-32.86 153.93,-27.85 153.37,-36.58"/>
</g>
<!-- sh_ni_running -->
<g id="node6" class="node">
<title>sh_ni_running</title>
<text text-anchor="middle" x="422" y="-164.8" font-family="Times,serif" font-size="14.00">Running...</text>
</g>
<!-- sh_nn_running&#45;&gt;sh_ni_running -->
<g id="edge1" class="edge">
<title>sh_nn_running&#45;&gt;sh_ni_running</title>
<path fill="none" stroke="black" stroke-dasharray="1,5" d="M422,-213.3C422,-204.44 422,-195.58 422,-186.71"/>
</g>
<!-- sh_ln_running -->
<g id="node7" class="node">
<title>sh_ln_running</title>
<text text-anchor="middle" x="422" y="-93.8" font-family="Times,serif" font-size="14.00">Running...</text>
</g>
<!-- sh_ni_running&#45;&gt;sh_ln_running -->
<g id="edge2" class="edge">
<title>sh_ni_running&#45;&gt;sh_ln_running</title>
<path fill="none" stroke="black" stroke-dasharray="1,5" d="M422,-150.29C422,-138.7 422,-127.12 422,-115.53"/>
</g>
<!-- sh_li_running -->
<g id="node8" class="node">
<title>sh_li_running</title>
<text text-anchor="middle" x="422" y="-39.8" font-family="Times,serif" font-size="14.00">Running...</text>
</g>
<!-- sh_ln_running&#45;&gt;sh_li_running -->
<g id="edge3" class="edge">
<title>sh_ln_running&#45;&gt;sh_li_running</title>
<path fill="none" stroke="black" stroke-dasharray="1,5" d="M422,-79.29C422,-73.41 422,-67.52 422,-61.64"/>
</g>
<!-- sh_ni_env&#45;&gt;sh_ni_running -->
<g id="edge8" class="edge">
<title>sh_ni_env&#45;&gt;sh_ni_running</title>
<path fill="none" stroke="orange" stroke-width="5" d="M341.09,-168.5C348.91,-168.5 357.68,-168.5 366.46,-168.5"/>
<polygon fill="orange" stroke="orange" stroke-width="5" points="366.73,-172.88 376.73,-168.5 366.73,-164.13 366.73,-172.88"/>
</g>
<!-- sh_li_env -->
<g id="node10" class="node">
<title>sh_li_env</title>
<text text-anchor="middle" x="312" y="-39.8" font-family="Times,serif" font-size="14.00">$ENV</text>
</g>
<!-- sh_ni_env&#45;&gt;sh_li_env -->
<g id="edge4" class="edge">
<title>sh_ni_env&#45;&gt;sh_li_env</title>
<path fill="none" stroke="black" stroke-dasharray="1,5" d="M312,-150.12C312,-120.6 312,-91.08 312,-61.57"/>
</g>
<!-- sh_li_env&#45;&gt;sh_li_running -->
<g id="edge13" class="edge">
<title>sh_li_env&#45;&gt;sh_li_running</title>
<path fill="none" stroke="#009e73" stroke-width="5" d="M341.09,-43.5C348.91,-43.5 357.68,-43.5 366.46,-43.5"/>
<polygon fill="#009e73" stroke="#009e73" stroke-width="5" points="366.73,-47.88 376.73,-43.5 366.73,-39.13 366.73,-47.88"/>
</g>
<!-- sh_ln_home_profile&#45;&gt;sh_ln_running -->
<g id="edge10" class="edge">
<title>sh_ln_home_profile&#45;&gt;sh_ln_running</title>
<path fill="none" stroke="#35b4e9" stroke-width="5" d="M247.1,-97.5C280.96,-97.5 329.5,-97.5 366.7,-97.5"/>
<polygon fill="#35b4e9" stroke="#35b4e9" stroke-width="5" points="366.87,-101.88 376.87,-97.5 366.87,-93.13 366.87,-101.88"/>
</g>
<!-- sh_ln_home_profile&#45;&gt;sh_li_home_profile -->
<g id="edge5" class="edge">
<title>sh_ln_home_profile&#45;&gt;sh_li_home_profile</title>
<path fill="none" stroke="black" stroke-dasharray="1,5" d="M205.5,-79.45C205.5,-70.94 205.5,-62.42 205.5,-53.91"/>
</g>
<!-- sh_li_home_profile&#45;&gt;sh_li_env -->
<g id="edge12" class="edge">
<title>sh_li_home_profile&#45;&gt;sh_li_env</title>
<path fill="none" stroke="#009e73" stroke-width="5" d="M247.2,-38.62C255.58,-39.26 264.38,-39.93 272.68,-40.57"/>
<polygon fill="#009e73" stroke="#009e73" stroke-width="5" points="272.54,-44.94 282.84,-41.34 273.2,-36.22 272.54,-44.94"/>
</g>
</g>
</svg>
