<?xml version="1.0" encoding="UTF-8" standalone="no"?>
<!DOCTYPE svg PUBLIC "-//W3C//DTD SVG 1.1//EN"
 "http://www.w3.org/Graphics/SVG/1.1/DTD/svg11.dtd">
<!-- Generated by graphviz version 2.38.0 (20140413.2041)
 -->
<!-- Title: %3 Pages: 1 -->
<svg width="414pt" height="274pt"
 viewBox="0.00 0.00 414.00 274.00" xmlns="http://www.w3.org/2000/svg" xmlns:xlink="http://www.w3.org/1999/xlink">
<g id="graph0" class="graph" transform="scale(1 1) rotate(0) translate(4 270)">
<title>%3</title>
<polygon fill="white" stroke="none" points="-4,4 -4,-270 410,-270 410,4 -4,4"/>
<!-- sh_nn -->
<g id="node1" class="node"><title>sh_nn</title>
<text text-anchor="middle" x="51" y="-250.8" font-family="Times,serif" font-size="14.00">Sh</text>
<text text-anchor="middle" x="51" y="-235.8" font-family="Times,serif" font-size="14.00">Non&#45;Login</text>
<text text-anchor="middle" x="51" y="-220.8" font-family="Times,serif" font-size="14.00">Non&#45;Interactive</text>
</g>
<!-- sh_nn_running -->
<g id="node5" class="node"><title>sh_nn_running</title>
<text text-anchor="middle" x="369" y="-227.8" font-family="Times,serif" font-size="14.00">Running...</text>
</g>
<!-- sh_nn&#45;&gt;sh_nn_running -->
<g id="edge6" class="edge"><title>sh_nn&#45;&gt;sh_nn_running</title>
<path fill="none" stroke="black" stroke-width="5" d="M102.071,-238.232C162.487,-236.703 263.232,-234.152 321.841,-232.669"/>
<polygon fill="black" stroke="black" stroke-width="5" points="322.038,-237.04 331.924,-232.413 321.816,-228.293 322.038,-237.04"/>
</g>
<!-- sh_ni -->
<g id="node2" class="node"><title>sh_ni</title>
<text text-anchor="middle" x="51" y="-179.8" font-family="Times,serif" font-size="14.00">Sh</text>
<text text-anchor="middle" x="51" y="-164.8" font-family="Times,serif" font-size="14.00">Non&#45;Login</text>
<text text-anchor="middle" x="51" y="-149.8" font-family="Times,serif" font-size="14.00">Interactive</text>
</g>
<!-- sh_ni_env -->
<g id="node9" class="node"><title>sh_ni_env</title>
<text text-anchor="middle" x="269" y="-164.8" font-family="Times,serif" font-size="14.00">$ENV</text>
</g>
<!-- sh_ni&#45;&gt;sh_ni_env -->
<g id="edge7" class="edge"><title>sh_ni&#45;&gt;sh_ni_env</title>
<path fill="none" stroke="orange" stroke-width="5" d="M89.6243,-168.5C129.594,-168.5 192.341,-168.5 231.771,-168.5"/>
<polygon fill="orange" stroke="orange" stroke-width="5" points="231.992,-172.875 241.992,-168.5 231.992,-164.125 231.992,-172.875"/>
</g>
<!-- sh_ln -->
<g id="node3" class="node"><title>sh_ln</title>
<text text-anchor="middle" x="51" y="-108.8" font-family="Times,serif" font-size="14.00">Sh</text>
<text text-anchor="middle" x="51" y="-93.8" font-family="Times,serif" font-size="14.00">Login</text>
<text text-anchor="middle" x="51" y="-78.8" font-family="Times,serif" font-size="14.00">Non&#45;Interactive</text>
</g>
<!-- sh_ln_home_profile -->
<g id="node11" class="node"><title>sh_ln_home_profile</title>
<text text-anchor="middle" x="172" y="-93.8" font-family="Times,serif" font-size="14.00">~/.profile</text>
</g>
<!-- sh_ln&#45;&gt;sh_ln_home_profile -->
<g id="edge9" class="edge"><title>sh_ln&#45;&gt;sh_ln_home_profile</title>
<path fill="none" stroke="#35b4e9" stroke-width="5" d="M102.122,-97.5C110.608,-97.5 119.354,-97.5 127.648,-97.5"/>
<polygon fill="#35b4e9" stroke="#35b4e9" stroke-width="5" points="127.858,-101.875 137.858,-97.5 127.858,-93.1251 127.858,-101.875"/>
</g>
<!-- sh_li -->
<g id="node4" class="node"><title>sh_li</title>
<text text-anchor="middle" x="51" y="-37.8" font-family="Times,serif" font-size="14.00">Sh</text>
<text text-anchor="middle" x="51" y="-22.8" font-family="Times,serif" font-size="14.00">Login</text>
<text text-anchor="middle" x="51" y="-7.8" font-family="Times,serif" font-size="14.00">Interactive</text>
</g>
<!-- sh_li_home_profile -->
<g id="node12" class="node"><title>sh_li_home_profile</title>
<text text-anchor="middle" x="172" y="-31.8" font-family="Times,serif" font-size="14.00">~/.profile</text>
</g>
<!-- sh_li&#45;&gt;sh_li_home_profile -->
<g id="edge11" class="edge"><title>sh_li&#45;&gt;sh_li_home_profile</title>
<path fill="none" stroke="#009e73" stroke-width="5" d="M88.0269,-29.2247C100.55,-30.1718 114.725,-31.2439 127.77,-32.2305"/>
<polygon fill="#009e73" stroke="#009e73" stroke-width="5" points="127.634,-36.6077 137.936,-32.9993 128.294,-27.8826 127.634,-36.6077"/>
</g>
<!-- sh_ni_running -->
<g id="node6" class="node"><title>sh_ni_running</title>
<text text-anchor="middle" x="369" y="-164.8" font-family="Times,serif" font-size="14.00">Running...</text>
</g>
<!-- sh_nn_running&#45;&gt;sh_ni_running -->
<g id="edge1" class="edge"><title>sh_nn_running&#45;&gt;sh_ni_running</title>
<path fill="none" stroke="black" stroke-dasharray="1,5" d="M369,-213.304C369,-204.44 369,-195.575 369,-186.711"/>
</g>
<!-- sh_ln_running -->
<g id="node7" class="node"><title>sh_ln_running</title>
<text text-anchor="middle" x="369" y="-93.8" font-family="Times,serif" font-size="14.00">Running...</text>
</g>
<!-- sh_ni_running&#45;&gt;sh_ln_running -->
<g id="edge2" class="edge"><title>sh_ni_running&#45;&gt;sh_ln_running</title>
<path fill="none" stroke="black" stroke-dasharray="1,5" d="M369,-150.291C369,-138.703 369,-127.115 369,-115.527"/>
</g>
<!-- sh_li_running -->
<g id="node8" class="node"><title>sh_li_running</title>
<text text-anchor="middle" x="369" y="-35.8" font-family="Times,serif" font-size="14.00">Running...</text>
</g>
<!-- sh_ln_running&#45;&gt;sh_li_running -->
<g id="edge3" class="edge"><title>sh_ln_running&#45;&gt;sh_li_running</title>
<path fill="none" stroke="black" stroke-dasharray="1,5" d="M369,-79.4316C369,-72.1628 369,-64.8939 369,-57.625"/>
</g>
<!-- sh_ni_env&#45;&gt;sh_ni_running -->
<g id="edge8" class="edge"><title>sh_ni_env&#45;&gt;sh_ni_running</title>
<path fill="none" stroke="orange" stroke-width="5" d="M296.005,-168.5C303.912,-168.5 312.852,-168.5 321.676,-168.5"/>
<polygon fill="orange" stroke="orange" stroke-width="5" points="321.912,-172.875 331.912,-168.5 321.912,-164.125 321.912,-172.875"/>
</g>
<!-- sh_li_env -->
<g id="node10" class="node"><title>sh_li_env</title>
<text text-anchor="middle" x="269" y="-33.8" font-family="Times,serif" font-size="14.00">$ENV</text>
</g>
<!-- sh_ni_env&#45;&gt;sh_li_env -->
<g id="edge4" class="edge"><title>sh_ni_env&#45;&gt;sh_li_env</title>
<path fill="none" stroke="black" stroke-dasharray="1,5" d="M269,-150.429C269,-118.841 269,-87.2537 269,-55.666"/>
</g>
<!-- sh_li_env&#45;&gt;sh_li_running -->
<g id="edge13" class="edge"><title>sh_li_env&#45;&gt;sh_li_running</title>
<path fill="none" stroke="#009e73" stroke-width="5" d="M296.005,-38.0307C303.912,-38.1921 312.852,-38.3745 321.676,-38.5546"/>
<polygon fill="#009e73" stroke="#009e73" stroke-width="5" points="321.825,-42.9335 331.912,-38.7635 322.003,-34.1853 321.825,-42.9335"/>
</g>
<!-- sh_ln_home_profile&#45;&gt;sh_ln_running -->
<g id="edge10" class="edge"><title>sh_ln_home_profile&#45;&gt;sh_ln_running</title>
<path fill="none" stroke="#35b4e9" stroke-width="5" d="M206.079,-97.5C237.825,-97.5 286.065,-97.5 321.638,-97.5"/>
<polygon fill="#35b4e9" stroke="#35b4e9" stroke-width="5" points="321.774,-101.875 331.774,-97.5 321.774,-93.1251 321.774,-101.875"/>
</g>
<!-- sh_ln_home_profile&#45;&gt;sh_li_home_profile -->
<g id="edge5" class="edge"><title>sh_ln_home_profile&#45;&gt;sh_li_home_profile</title>
<path fill="none" stroke="black" stroke-dasharray="1,5" d="M172,-79.4495C172,-70.9351 172,-62.4207 172,-53.9062"/>
</g>
<!-- sh_li_home_profile&#45;&gt;sh_li_env -->
<g id="edge12" class="edge"><title>sh_li_home_profile&#45;&gt;sh_li_env</title>
<path fill="none" stroke="#009e73" stroke-width="5" d="M206.226,-36.1995C214.428,-36.3722 223.255,-36.558 231.599,-36.7337"/>
<polygon fill="#009e73" stroke="#009e73" stroke-width="5" points="231.735,-41.1124 241.825,-36.9489 231.919,-32.3643 231.735,-41.1124"/>
</g>
</g>
</svg>
