<?xml version="1.0" encoding="UTF-8" standalone="no"?>
<!DOCTYPE svg PUBLIC "-//W3C//DTD SVG 1.1//EN"
 "http://www.w3.org/Graphics/SVG/1.1/DTD/svg11.dtd">
<!-- Generated by graphviz version 2.38.0 (20140413.2041)
 -->
<!-- Title: %3 Pages: 1 -->
<svg width="310pt" height="436pt"
 viewBox="0.00 0.00 310.00 436.00" xmlns="http://www.w3.org/2000/svg" xmlns:xlink="http://www.w3.org/1999/xlink">
<g id="graph0" class="graph" transform="scale(1 1) rotate(0) translate(4 432)">
<title>%3</title>
<polygon fill="white" stroke="none" points="-4,4 -4,-432 306,-432 306,4 -4,4"/>
<g id="clust1" class="cluster"><title>clusterA</title>
<polygon fill="none" stroke="black" points="8,-224 8,-420 98,-420 98,-224 8,-224"/>
</g>
<g id="clust2" class="cluster"><title>clusterB</title>
<polygon fill="none" stroke="black" points="204,-8 204,-204 294,-204 294,-8 204,-8"/>
</g>
<g id="clust3" class="cluster"><title>clusterC</title>
<polygon fill="none" stroke="black" points="106,-80 106,-276 196,-276 196,-80 106,-80"/>
</g>
<!-- A -->
<g id="node1" class="node"><title>A</title>
<ellipse fill="none" stroke="black" cx="63" cy="-394" rx="27" ry="18"/>
<text text-anchor="middle" x="63" y="-390.3" font-family="Times,serif" font-size="14.00">A</text>
</g>
<!-- B -->
<g id="node2" class="node"><title>B</title>
<ellipse fill="none" stroke="black" cx="63" cy="-322" rx="27" ry="18"/>
<text text-anchor="middle" x="63" y="-318.3" font-family="Times,serif" font-size="14.00">B</text>
</g>
<!-- A&#45;&#45;B -->
<g id="edge1" class="edge"><title>A&#45;&#45;B</title>
<path fill="none" stroke="black" d="M63,-375.697C63,-364.846 63,-350.917 63,-340.104"/>
</g>
<!-- D -->
<g id="node4" class="node"><title>D</title>
<ellipse fill="none" stroke="black" cx="239" cy="-178" rx="27" ry="18"/>
<text text-anchor="middle" x="239" y="-174.3" font-family="Times,serif" font-size="14.00">D</text>
</g>
<!-- A&#45;&#45;D -->
<g id="edge10" class="edge"><title>A&#45;&#45;D</title>
<path fill="none" stroke="black" d="M82.3965,-380.911C111.55,-361.861 166.779,-322.227 200,-276 218.007,-250.943 229.296,-216.39 234.85,-196.002"/>
</g>
<!-- C -->
<g id="node3" class="node"><title>C</title>
<ellipse fill="none" stroke="black" cx="53" cy="-250" rx="27" ry="18"/>
<text text-anchor="middle" x="53" y="-246.3" font-family="Times,serif" font-size="14.00">C</text>
</g>
<!-- B&#45;&#45;C -->
<g id="edge2" class="edge"><title>B&#45;&#45;C</title>
<path fill="none" stroke="black" d="M60.5793,-304.055C59.0302,-293.211 57.0261,-279.183 55.4679,-268.275"/>
</g>
<!-- G -->
<g id="node7" class="node"><title>G</title>
<ellipse fill="none" stroke="black" cx="141" cy="-250" rx="27" ry="18"/>
<text text-anchor="middle" x="141" y="-246.3" font-family="Times,serif" font-size="14.00">G</text>
</g>
<!-- B&#45;&#45;G -->
<g id="edge11" class="edge"><title>B&#45;&#45;G</title>
<path fill="none" stroke="black" d="M78.4103,-307.17C92.0848,-294.898 111.957,-277.064 125.622,-264.801"/>
</g>
<!-- C&#45;&#45;A -->
<g id="edge3" class="edge"><title>C&#45;&#45;A</title>
<path fill="none" stroke="black" d="M42.7618,-266.983C36.8754,-277.142 30.0583,-290.822 27,-304 23.383,-319.586 22.2972,-324.707 27,-340 31.381,-354.247 41.0392,-368.1 49.2496,-378.069"/>
</g>
<!-- E -->
<g id="node5" class="node"><title>E</title>
<ellipse fill="none" stroke="black" cx="239" cy="-106" rx="27" ry="18"/>
<text text-anchor="middle" x="239" y="-102.3" font-family="Times,serif" font-size="14.00">E</text>
</g>
<!-- D&#45;&#45;E -->
<g id="edge4" class="edge"><title>D&#45;&#45;E</title>
<path fill="none" stroke="black" d="M239,-159.697C239,-148.846 239,-134.917 239,-124.104"/>
</g>
<!-- F -->
<g id="node6" class="node"><title>F</title>
<ellipse fill="none" stroke="black" cx="249" cy="-34" rx="27" ry="18"/>
<text text-anchor="middle" x="249" y="-30.3" font-family="Times,serif" font-size="14.00">F</text>
</g>
<!-- E&#45;&#45;F -->
<g id="edge5" class="edge"><title>E&#45;&#45;F</title>
<path fill="none" stroke="black" d="M241.421,-88.055C242.97,-77.2111 244.974,-63.183 246.532,-52.2753"/>
</g>
<!-- F&#45;&#45;D -->
<g id="edge6" class="edge"><title>F&#45;&#45;D</title>
<path fill="none" stroke="black" d="M260.57,-50.3416C266.111,-58.6493 272.149,-69.3678 275,-80 280.064,-98.8884 280.748,-105.308 275,-124 270.619,-138.247 260.961,-152.1 252.75,-162.069"/>
</g>
<!-- H -->
<g id="node8" class="node"><title>H</title>
<ellipse fill="none" stroke="black" cx="161" cy="-178" rx="27" ry="18"/>
<text text-anchor="middle" x="161" y="-174.3" font-family="Times,serif" font-size="14.00">H</text>
</g>
<!-- G&#45;&#45;H -->
<g id="edge7" class="edge"><title>G&#45;&#45;H</title>
<path fill="none" stroke="black" d="M145.841,-232.055C148.986,-221.049 153.068,-206.764 156.203,-195.789"/>
</g>
<!-- H&#45;&#45;E -->
<g id="edge12" class="edge"><title>H&#45;&#45;E</title>
<path fill="none" stroke="black" d="M176.41,-163.17C190.085,-150.898 209.957,-133.064 223.622,-120.801"/>
</g>
<!-- I -->
<g id="node9" class="node"><title>I</title>
<ellipse fill="none" stroke="black" cx="151" cy="-106" rx="27" ry="18"/>
<text text-anchor="middle" x="151" y="-102.3" font-family="Times,serif" font-size="14.00">I</text>
</g>
<!-- H&#45;&#45;I -->
<g id="edge8" class="edge"><title>H&#45;&#45;I</title>
<path fill="none" stroke="black" d="M158.579,-160.055C157.03,-149.211 155.026,-135.183 153.468,-124.275"/>
</g>
<!-- I&#45;&#45;G -->
<g id="edge9" class="edge"><title>I&#45;&#45;G</title>
<path fill="none" stroke="black" d="M140.762,-122.983C134.875,-133.142 128.058,-146.822 125,-160 120.579,-179.049 121.676,-184.729 125,-204 126.663,-213.642 130.192,-223.956 133.514,-232.274"/>
</g>
</g>
</svg>
