<?xml version="1.0" encoding="UTF-8" standalone="no"?>
<!DOCTYPE svg PUBLIC "-//W3C//DTD SVG 1.1//EN"
 "http://www.w3.org/Graphics/SVG/1.1/DTD/svg11.dtd">
<!-- Generated by graphviz version 2.38.0 (20140413.2041)
 -->
<!-- Title: %3 Pages: 1 -->
<svg width="103pt" height="103pt"
 viewBox="0.00 0.00 102.87 102.87" xmlns="http://www.w3.org/2000/svg" xmlns:xlink="http://www.w3.org/1999/xlink">
<g id="graph0" class="graph" transform="scale(1 1) rotate(0) translate(4 98.8689)">
<title>%3</title>
<polygon fill="white" stroke="none" points="-4,4 -4,-98.8689 98.8689,-98.8689 98.8689,4 -4,4"/>
<g id="clust1" class="cluster"><title>clusterA</title>
<polygon fill="none" stroke="black" points="0,-31.6237 0,-94.8689 47.4344,-94.8689 47.4344,-31.6237 0,-31.6237"/>
</g>
<g id="clust2" class="cluster"><title>clusterB</title>
<polygon fill="none" stroke="black" points="47.4344,-31.6237 47.4344,-94.8689 94.8689,-94.8689 94.8689,-31.6237 47.4344,-31.6237"/>
</g>
<g id="clust3" class="cluster"><title>clusterC</title>
<polygon fill="none" stroke="black" points="0,-0 0,-31.6237 94.8657,-31.6237 94.8657,-0 0,-0"/>
</g>
<!-- A -->
<g id="node1" class="node"><title>A</title>
<polygon fill="#f0e442" stroke="#e69f00" stroke-width="8" points="23.7172,-94.8689 0,-94.8689 0,-52.7054 23.7172,-52.7054 23.7172,-94.8689"/>
<text text-anchor="middle" x="11.8586" y="-70.0871" font-family="Times,serif" font-size="14.00">A</text>
</g>
<!-- B -->
<g id="node2" class="node"><title>B</title>
<polygon fill="#f0e442" stroke="#009e73" stroke-width="8" points="47.4344,-94.8689 23.7172,-94.8689 23.7172,-52.7054 47.4344,-52.7054 47.4344,-94.8689"/>
<text text-anchor="middle" x="35.5758" y="-70.0871" font-family="Times,serif" font-size="14.00">B</text>
</g>
<!-- D -->
<g id="node4" class="node"><title>D</title>
<polygon fill="#56b4e9" stroke="#e69f00" stroke-width="8" points="71.1516,-94.8689 47.4344,-94.8689 47.4344,-52.7054 71.1516,-52.7054 71.1516,-94.8689"/>
<text text-anchor="middle" x="59.293" y="-70.0871" font-family="Times,serif" font-size="14.00">D</text>
</g>
<!-- C -->
<g id="node3" class="node"><title>C</title>
<polygon fill="#f0e442" stroke="#cc79a7" stroke-width="8" points="47.4344,-52.7054 0,-52.7054 0,-31.6237 47.4344,-31.6237 47.4344,-52.7054"/>
<text text-anchor="middle" x="23.7172" y="-38.4645" font-family="Times,serif" font-size="14.00">C</text>
</g>
<!-- G -->
<g id="node7" class="node"><title>G</title>
<polygon fill="#d55e00" stroke="#e69f00" stroke-width="8" points="31.6219,-31.6237 0,-31.6237 0,-0 31.6219,-0 31.6219,-31.6237"/>
<text text-anchor="middle" x="15.8109" y="-12.1118" font-family="Times,serif" font-size="14.00">G</text>
</g>
<!-- E -->
<g id="node5" class="node"><title>E</title>
<polygon fill="#56b4e9" stroke="#009e73" stroke-width="8" points="94.8689,-94.8689 71.1516,-94.8689 71.1516,-52.7054 94.8689,-52.7054 94.8689,-94.8689"/>
<text text-anchor="middle" x="83.0102" y="-70.0871" font-family="Times,serif" font-size="14.00">E</text>
</g>
<!-- F -->
<g id="node6" class="node"><title>F</title>
<polygon fill="#56b4e9" stroke="#cc79a7" stroke-width="8" points="94.8689,-52.7054 47.4344,-52.7054 47.4344,-31.6237 94.8689,-31.6237 94.8689,-52.7054"/>
<text text-anchor="middle" x="71.1516" y="-38.4645" font-family="Times,serif" font-size="14.00">F</text>
</g>
<!-- H -->
<g id="node8" class="node"><title>H</title>
<polygon fill="#d55e00" stroke="#009e73" stroke-width="8" points="63.2438,-31.6237 31.6219,-31.6237 31.6219,-0 63.2438,-0 63.2438,-31.6237"/>
<text text-anchor="middle" x="47.4328" y="-12.1118" font-family="Times,serif" font-size="14.00">H</text>
</g>
<!-- I -->
<g id="node9" class="node"><title>I</title>
<polygon fill="#d55e00" stroke="#cc79a7" stroke-width="8" points="94.8657,-31.6237 63.2438,-31.6237 63.2438,-8.88178e-15 94.8657,-8.88178e-15 94.8657,-31.6237"/>
<text text-anchor="middle" x="79.0547" y="-12.1118" font-family="Times,serif" font-size="14.00">I</text>
</g>
</g>
</svg>
