<?xml version="1.0" encoding="UTF-8" standalone="no"?>
<!DOCTYPE svg PUBLIC "-//W3C//DTD SVG 1.1//EN"
 "http://www.w3.org/Graphics/SVG/1.1/DTD/svg11.dtd">
<!-- Generated by graphviz version 2.43.0 (0)
 -->
<!-- Title: %3 Pages: 1 -->
<svg width="310pt" height="436pt"
 viewBox="0.00 0.00 310.00 436.00" xmlns="http://www.w3.org/2000/svg" xmlns:xlink="http://www.w3.org/1999/xlink">
<g id="graph0" class="graph" transform="scale(1 1) rotate(0) translate(4 432)">
<title>%3</title>
<polygon fill="white" stroke="transparent" points="-4,4 -4,-432 306,-432 306,4 -4,4"/>
<g id="clust1" class="cluster">
<title>clusterA</title>
<polygon fill="none" stroke="black" points="8,-224 8,-420 98,-420 98,-224 8,-224"/>
</g>
<g id="clust2" class="cluster">
<title>clusterB</title>
<polygon fill="none" stroke="black" points="204,-8 204,-204 294,-204 294,-8 204,-8"/>
</g>
<g id="clust3" class="cluster">
<title>clusterC</title>
<polygon fill="none" stroke="black" points="106,-80 106,-276 196,-276 196,-80 106,-80"/>
</g>
<!-- A -->
<g id="node1" class="node">
<title>A</title>
<ellipse fill="#f0e442" stroke="#e69f00" stroke-width="8" cx="63" cy="-394" rx="27" ry="18"/>
<text text-anchor="middle" x="63" y="-390.3" font-family="Times,serif" font-size="14.00">A</text>
</g>
<!-- B -->
<g id="node2" class="node">
<title>B</title>
<ellipse fill="#f0e442" stroke="#009e73" stroke-width="8" cx="63" cy="-322" rx="27" ry="18"/>
<text text-anchor="middle" x="63" y="-318.3" font-family="Times,serif" font-size="14.00">B</text>
</g>
<!-- A&#45;&#45;B -->
<g id="edge1" class="edge">
<title>A&#45;&#45;B</title>
<path fill="none" stroke="black" d="M63,-375.7C63,-364.85 63,-350.92 63,-340.1"/>
</g>
<!-- D -->
<g id="node4" class="node">
<title>D</title>
<ellipse fill="#56b4e9" stroke="#e69f00" stroke-width="8" cx="239" cy="-178" rx="27" ry="18"/>
<text text-anchor="middle" x="239" y="-174.3" font-family="Times,serif" font-size="14.00">D</text>
</g>
<!-- A&#45;&#45;D -->
<g id="edge10" class="edge">
<title>A&#45;&#45;D</title>
<path fill="none" stroke="black" d="M82.4,-380.91C111.55,-361.86 166.78,-322.23 200,-276 218.01,-250.94 229.3,-216.39 234.85,-196"/>
</g>
<!-- C -->
<g id="node3" class="node">
<title>C</title>
<ellipse fill="#f0e442" stroke="#cc79a7" stroke-width="8" cx="53" cy="-250" rx="27" ry="18"/>
<text text-anchor="middle" x="53" y="-246.3" font-family="Times,serif" font-size="14.00">C</text>
</g>
<!-- B&#45;&#45;C -->
<g id="edge2" class="edge">
<title>B&#45;&#45;C</title>
<path fill="none" stroke="black" d="M60.58,-304.05C59.03,-293.21 57.03,-279.18 55.47,-268.28"/>
</g>
<!-- G -->
<g id="node7" class="node">
<title>G</title>
<ellipse fill="#d55e00" stroke="#e69f00" stroke-width="8" cx="141" cy="-250" rx="27" ry="18"/>
<text text-anchor="middle" x="141" y="-246.3" font-family="Times,serif" font-size="14.00">G</text>
</g>
<!-- B&#45;&#45;G -->
<g id="edge11" class="edge">
<title>B&#45;&#45;G</title>
<path fill="none" stroke="black" d="M78.41,-307.17C92.08,-294.9 111.96,-277.06 125.62,-264.8"/>
</g>
<!-- C&#45;&#45;A -->
<g id="edge3" class="edge">
<title>C&#45;&#45;A</title>
<path fill="none" stroke="black" d="M42.76,-266.98C36.88,-277.14 30.06,-290.82 27,-304 23.38,-319.59 22.3,-324.71 27,-340 31.38,-354.25 41.04,-368.1 49.25,-378.07"/>
</g>
<!-- E -->
<g id="node5" class="node">
<title>E</title>
<ellipse fill="#56b4e9" stroke="#009e73" stroke-width="8" cx="239" cy="-106" rx="27" ry="18"/>
<text text-anchor="middle" x="239" y="-102.3" font-family="Times,serif" font-size="14.00">E</text>
</g>
<!-- D&#45;&#45;E -->
<g id="edge4" class="edge">
<title>D&#45;&#45;E</title>
<path fill="none" stroke="black" d="M239,-159.7C239,-148.85 239,-134.92 239,-124.1"/>
</g>
<!-- F -->
<g id="node6" class="node">
<title>F</title>
<ellipse fill="#56b4e9" stroke="#cc79a7" stroke-width="8" cx="249" cy="-34" rx="27" ry="18"/>
<text text-anchor="middle" x="249" y="-30.3" font-family="Times,serif" font-size="14.00">F</text>
</g>
<!-- E&#45;&#45;F -->
<g id="edge5" class="edge">
<title>E&#45;&#45;F</title>
<path fill="none" stroke="black" d="M241.42,-88.05C242.97,-77.21 244.97,-63.18 246.53,-52.28"/>
</g>
<!-- F&#45;&#45;D -->
<g id="edge6" class="edge">
<title>F&#45;&#45;D</title>
<path fill="none" stroke="black" d="M260.57,-50.34C266.11,-58.65 272.15,-69.37 275,-80 280.06,-98.89 280.75,-105.31 275,-124 270.62,-138.25 260.96,-152.1 252.75,-162.07"/>
</g>
<!-- H -->
<g id="node8" class="node">
<title>H</title>
<ellipse fill="#d55e00" stroke="#009e73" stroke-width="8" cx="161" cy="-178" rx="27" ry="18"/>
<text text-anchor="middle" x="161" y="-174.3" font-family="Times,serif" font-size="14.00">H</text>
</g>
<!-- G&#45;&#45;H -->
<g id="edge7" class="edge">
<title>G&#45;&#45;H</title>
<path fill="none" stroke="black" d="M145.84,-232.05C148.99,-221.05 153.07,-206.76 156.2,-195.79"/>
</g>
<!-- H&#45;&#45;E -->
<g id="edge12" class="edge">
<title>H&#45;&#45;E</title>
<path fill="none" stroke="black" d="M176.41,-163.17C190.08,-150.9 209.96,-133.06 223.62,-120.8"/>
</g>
<!-- I -->
<g id="node9" class="node">
<title>I</title>
<ellipse fill="#d55e00" stroke="#cc79a7" stroke-width="8" cx="151" cy="-106" rx="27" ry="18"/>
<text text-anchor="middle" x="151" y="-102.3" font-family="Times,serif" font-size="14.00">I</text>
</g>
<!-- H&#45;&#45;I -->
<g id="edge8" class="edge">
<title>H&#45;&#45;I</title>
<path fill="none" stroke="black" d="M158.58,-160.05C157.03,-149.21 155.03,-135.18 153.47,-124.28"/>
</g>
<!-- I&#45;&#45;G -->
<g id="edge9" class="edge">
<title>I&#45;&#45;G</title>
<path fill="none" stroke="black" d="M140.76,-122.98C134.88,-133.14 128.06,-146.82 125,-160 120.58,-179.05 121.68,-184.73 125,-204 126.66,-213.64 130.19,-223.96 133.51,-232.27"/>
</g>
</g>
</svg>
