<?xml version="1.0" encoding="UTF-8" standalone="no"?>
<!DOCTYPE svg PUBLIC "-//W3C//DTD SVG 1.1//EN"
 "http://www.w3.org/Graphics/SVG/1.1/DTD/svg11.dtd">
<!-- Generated by graphviz version 2.43.0 (0)
 -->
<!-- Title: %3 Pages: 1 -->
<svg width="1123pt" height="117pt"
 viewBox="0.00 0.00 1123.00 117.00" xmlns="http://www.w3.org/2000/svg" xmlns:xlink="http://www.w3.org/1999/xlink">
<g id="graph0" class="graph" transform="scale(1 1) rotate(0) translate(4 113)">
<title>%3</title>
<polygon fill="white" stroke="transparent" points="-4,4 -4,-113 1119,-113 1119,4 -4,4"/>
<!-- bash_nli -->
<g id="node1" class="node">
<title>bash_nli</title>
<text text-anchor="middle" x="52.5" y="-93.8" font-family="Times,serif" font-size="14.00">Bash</text>
<text text-anchor="middle" x="52.5" y="-78.8" font-family="Times,serif" font-size="14.00">Non&#45;Remote</text>
<text text-anchor="middle" x="52.5" y="-63.8" font-family="Times,serif" font-size="14.00">Login</text>
<text text-anchor="middle" x="52.5" y="-48.8" font-family="Times,serif" font-size="14.00">Interactive</text>
</g>
<!-- bash_nli_etc_profile -->
<g id="node2" class="node">
<title>bash_nli_etc_profile</title>
<text text-anchor="middle" x="187.5" y="-71.3" font-family="Times,serif" font-size="14.00">/etc/profile</text>
</g>
<!-- bash_nli&#45;&gt;bash_nli_etc_profile -->
<g id="edge1" class="edge">
<title>bash_nli&#45;&gt;bash_nli_etc_profile</title>
<path fill="none" stroke="#009e73" stroke-width="5" d="M105.3,-75C113.6,-75 122.22,-75 130.6,-75"/>
<polygon fill="#009e73" stroke="#009e73" stroke-width="5" points="130.68,-79.38 140.68,-75 130.68,-70.63 130.68,-79.38"/>
</g>
<!-- bash_nli_home_profile_case -->
<g id="node7" class="node">
<title>bash_nli_home_profile_case</title>
<polygon fill="none" stroke="black" points="278.5,-54 278.5,-96 351.5,-96 351.5,-54 278.5,-54"/>
<text text-anchor="start" x="281.5" y="-71.3" font-family="Times,serif" font-size="14.00">~/.profile</text>
<polygon fill="none" stroke="black" points="351.5,-75 351.5,-96 429.5,-96 429.5,-75 351.5,-75"/>
<text text-anchor="start" x="368" y="-81.8" font-family="Times,serif" font-size="14.00">Found</text>
<polygon fill="none" stroke="black" points="351.5,-54 351.5,-75 429.5,-75 429.5,-54 351.5,-54"/>
<text text-anchor="start" x="354.5" y="-60.8" font-family="Times,serif" font-size="14.00">Not found</text>
</g>
<!-- bash_nli_etc_profile&#45;&gt;bash_nli_home_profile_case -->
<g id="edge2" class="edge">
<title>bash_nli_etc_profile&#45;&gt;bash_nli_home_profile_case:in</title>
<path fill="none" stroke="#009e73" stroke-width="5" d="M234.23,-75C244.87,-75 256.34,-75 267.44,-75"/>
<polygon fill="#009e73" stroke="#009e73" stroke-width="5" points="267.5,-79.38 277.5,-75 267.5,-70.63 267.5,-79.38"/>
</g>
<!-- bash_nli_home_bash_login_case -->
<g id="node3" class="node">
<title>bash_nli_home_bash_login_case</title>
<polygon fill="none" stroke="black" points="481.5,-28 481.5,-70 584.5,-70 584.5,-28 481.5,-28"/>
<text text-anchor="start" x="484.5" y="-45.3" font-family="Times,serif" font-size="14.00">~/.bash_login</text>
<polygon fill="none" stroke="black" points="584.5,-49 584.5,-70 662.5,-70 662.5,-49 584.5,-49"/>
<text text-anchor="start" x="601" y="-55.8" font-family="Times,serif" font-size="14.00">Found</text>
<polygon fill="none" stroke="black" points="584.5,-28 584.5,-49 662.5,-49 662.5,-28 584.5,-28"/>
<text text-anchor="start" x="587.5" y="-34.8" font-family="Times,serif" font-size="14.00">Not found</text>
</g>
<!-- bash_nli_home_bash_profile -->
<g id="node4" class="node">
<title>bash_nli_home_bash_profile</title>
<text text-anchor="middle" x="768" y="-14.3" font-family="Times,serif" font-size="14.00">~/.bash_profile</text>
</g>
<!-- bash_nli_home_bash_login_case&#45;&gt;bash_nli_home_bash_profile -->
<g id="edge4" class="edge">
<title>bash_nli_home_bash_login_case:not_found&#45;&gt;bash_nli_home_bash_profile</title>
<path fill="none" stroke="#009e73" stroke-width="5" d="M663.5,-38C673.97,-38 684.93,-37 695.64,-35.45"/>
<polygon fill="#009e73" stroke="#009e73" stroke-width="5" points="696.63,-39.72 705.8,-33.81 695.23,-31.08 696.63,-39.72"/>
</g>
<!-- bash_nli_running_to_logout -->
<g id="node5" class="node">
<title>bash_nli_running_to_logout</title>
<text text-anchor="middle" x="911" y="-60.3" font-family="Times,serif" font-size="14.00">Running...</text>
</g>
<!-- bash_nli_home_bash_login_case&#45;&gt;bash_nli_running_to_logout -->
<g id="edge3" class="edge">
<title>bash_nli_home_bash_login_case:found&#45;&gt;bash_nli_running_to_logout</title>
<path fill="none" stroke="#009e73" stroke-width="5" d="M663.5,-60C729.63,-60 805.73,-61.46 855.67,-62.61"/>
<polygon fill="#009e73" stroke="#009e73" stroke-width="5" points="855.82,-66.99 865.92,-62.85 856.03,-58.24 855.82,-66.99"/>
</g>
<!-- bash_nli_home_bash_profile&#45;&gt;bash_nli_running_to_logout -->
<g id="edge5" class="edge">
<title>bash_nli_home_bash_profile&#45;&gt;bash_nli_running_to_logout</title>
<path fill="none" stroke="#009e73" stroke-width="5" d="M824.32,-36.05C834.73,-39.44 845.6,-42.99 855.97,-46.37"/>
<polygon fill="#009e73" stroke="#009e73" stroke-width="5" points="854.86,-50.61 865.72,-49.55 857.57,-42.29 854.86,-50.61"/>
</g>
<!-- bash_nli_logout -->
<g id="node6" class="node">
<title>bash_nli_logout</title>
<text text-anchor="middle" x="1053.5" y="-60.3" font-family="Times,serif" font-size="14.00">~/.bash_logout</text>
</g>
<!-- bash_nli_running_to_logout&#45;&gt;bash_nli_logout -->
<g id="edge8" class="edge">
<title>bash_nli_running_to_logout&#45;&gt;bash_nli_logout</title>
<path fill="none" stroke="#009e73" stroke-width="5" d="M956.07,-64C964.23,-64 972.93,-64 981.65,-64"/>
<polygon fill="#009e73" stroke="#009e73" stroke-width="5" points="981.86,-68.38 991.86,-64 981.86,-59.63 981.86,-68.38"/>
</g>
<!-- bash_nli_home_profile_case&#45;&gt;bash_nli_home_bash_login_case -->
<g id="edge7" class="edge">
<title>bash_nli_home_profile_case:not_found&#45;&gt;bash_nli_home_bash_login_case:in</title>
<path fill="none" stroke="#009e73" stroke-width="5" d="M430.5,-64C449.89,-64 455.59,-53.52 470.49,-50.08"/>
<polygon fill="#009e73" stroke="#009e73" stroke-width="5" points="471.03,-54.42 480.5,-49 470.09,-45.72 471.03,-54.42"/>
</g>
<!-- bash_nli_home_profile_case&#45;&gt;bash_nli_running_to_logout -->
<g id="edge6" class="edge">
<title>bash_nli_home_profile_case:found&#45;&gt;bash_nli_running_to_logout</title>
<path fill="none" stroke="#009e73" stroke-width="5" d="M430.5,-86C608.12,-86 653.15,-91.55 830,-75 838.33,-74.22 847.12,-73.21 855.7,-72.11"/>
<polygon fill="#009e73" stroke="#009e73" stroke-width="5" points="856.31,-76.44 865.65,-70.8 855.16,-67.77 856.31,-76.44"/>
</g>
</g>
</svg>
