<?xml version="1.0" encoding="UTF-8" standalone="no"?>
<!DOCTYPE svg PUBLIC "-//W3C//DTD SVG 1.1//EN"
 "http://www.w3.org/Graphics/SVG/1.1/DTD/svg11.dtd">
<!-- Generated by graphviz version 2.38.0 (20140413.2041)
 -->
<!-- Title: %3 Pages: 1 -->
<svg width="953pt" height="117pt"
 viewBox="0.00 0.00 953.00 117.00" xmlns="http://www.w3.org/2000/svg" xmlns:xlink="http://www.w3.org/1999/xlink">
<g id="graph0" class="graph" transform="scale(1 1) rotate(0) translate(4 113)">
<title>%3</title>
<polygon fill="white" stroke="none" points="-4,4 -4,-113 949,-113 949,4 -4,4"/>
<!-- bash_nli -->
<g id="node1" class="node"><title>bash_nli</title>
<text text-anchor="middle" x="43.5" y="-93.8" font-family="Times,serif" font-size="14.00">Bash</text>
<text text-anchor="middle" x="43.5" y="-78.8" font-family="Times,serif" font-size="14.00">Non&#45;Remote</text>
<text text-anchor="middle" x="43.5" y="-63.8" font-family="Times,serif" font-size="14.00">Login</text>
<text text-anchor="middle" x="43.5" y="-48.8" font-family="Times,serif" font-size="14.00">Interactive</text>
</g>
<!-- bash_nli_etc_profile -->
<g id="node2" class="node"><title>bash_nli_etc_profile</title>
<text text-anchor="middle" x="161" y="-71.3" font-family="Times,serif" font-size="14.00">/etc/profile</text>
</g>
<!-- bash_nli&#45;&gt;bash_nli_etc_profile -->
<g id="edge1" class="edge"><title>bash_nli&#45;&gt;bash_nli_etc_profile</title>
<path fill="none" stroke="#009e73" stroke-width="5" d="M87.1798,-75C95.4946,-75 104.257,-75 112.711,-75"/>
<polygon fill="#009e73" stroke="#009e73" stroke-width="5" points="112.818,-79.3751 122.818,-75 112.818,-70.6251 112.818,-79.3751"/>
</g>
<!-- bash_nli_home_profile_case -->
<g id="node7" class="node"><title>bash_nli_home_profile_case</title>
<polygon fill="none" stroke="black" points="243,-54 243,-96 301,-96 301,-54 243,-54"/>
<text text-anchor="start" x="246" y="-71.3" font-family="Times,serif" font-size="14.00">~/.profile</text>
<polygon fill="none" stroke="black" points="301,-75 301,-96 363,-96 363,-75 301,-75"/>
<text text-anchor="start" x="314.5" y="-81.8" font-family="Times,serif" font-size="14.00">Found</text>
<polygon fill="none" stroke="black" points="301,-54 301,-75 363,-75 363,-54 301,-54"/>
<text text-anchor="start" x="304" y="-60.8" font-family="Times,serif" font-size="14.00">Not found</text>
</g>
<!-- bash_nli_etc_profile&#45;&gt;bash_nli_home_profile_case -->
<g id="edge2" class="edge"><title>bash_nli_etc_profile&#45;&gt;bash_nli_home_profile_case:in</title>
<path fill="none" stroke="#009e73" stroke-width="5" d="M199.041,-75C209.392,-75 220.852,-75 231.951,-75"/>
<polygon fill="#009e73" stroke="#009e73" stroke-width="5" points="232,-79.3751 242,-75 232,-70.6251 232,-79.3751"/>
</g>
<!-- bash_nli_home_bash_login_case -->
<g id="node3" class="node"><title>bash_nli_home_bash_login_case</title>
<polygon fill="none" stroke="black" points="415.5,-28 415.5,-70 496.5,-70 496.5,-28 415.5,-28"/>
<text text-anchor="start" x="418.5" y="-45.3" font-family="Times,serif" font-size="14.00">~/.bash_login</text>
<polygon fill="none" stroke="black" points="496.5,-49 496.5,-70 558.5,-70 558.5,-49 496.5,-49"/>
<text text-anchor="start" x="510" y="-55.8" font-family="Times,serif" font-size="14.00">Found</text>
<polygon fill="none" stroke="black" points="496.5,-28 496.5,-49 558.5,-49 558.5,-28 496.5,-28"/>
<text text-anchor="start" x="499.5" y="-34.8" font-family="Times,serif" font-size="14.00">Not found</text>
</g>
<!-- bash_nli_home_bash_profile -->
<g id="node4" class="node"><title>bash_nli_home_bash_profile</title>
<text text-anchor="middle" x="651.5" y="-14.3" font-family="Times,serif" font-size="14.00">~/.bash_profile</text>
</g>
<!-- bash_nli_home_bash_login_case&#45;&gt;bash_nli_home_bash_profile -->
<g id="edge4" class="edge"><title>bash_nli_home_bash_login_case:not_found&#45;&gt;bash_nli_home_bash_profile</title>
<path fill="none" stroke="#009e73" stroke-width="5" d="M559.5,-38C570.042,-38 581.114,-36.7038 591.763,-34.7714"/>
<polygon fill="#009e73" stroke="#009e73" stroke-width="5" points="592.875,-39.0104 601.813,-32.7452 591.145,-30.433 592.875,-39.0104"/>
</g>
<!-- bash_nli_running_to_logout -->
<g id="node5" class="node"><title>bash_nli_running_to_logout</title>
<text text-anchor="middle" x="774" y="-60.3" font-family="Times,serif" font-size="14.00">Running...</text>
</g>
<!-- bash_nli_home_bash_login_case&#45;&gt;bash_nli_running_to_logout -->
<g id="edge3" class="edge"><title>bash_nli_home_bash_login_case:found&#45;&gt;bash_nli_running_to_logout</title>
<path fill="none" stroke="#009e73" stroke-width="5" d="M559.5,-60C617.038,-60 683.282,-61.4702 726.528,-62.628"/>
<polygon fill="#009e73" stroke="#009e73" stroke-width="5" points="726.623,-67.0071 736.739,-62.907 726.862,-58.2604 726.623,-67.0071"/>
</g>
<!-- bash_nli_home_bash_profile&#45;&gt;bash_nli_running_to_logout -->
<g id="edge5" class="edge"><title>bash_nli_home_bash_profile&#45;&gt;bash_nli_running_to_logout</title>
<path fill="none" stroke="#009e73" stroke-width="5" d="M699.779,-36.0484C708.785,-39.4865 718.198,-43.0796 727.158,-46.5002"/>
<polygon fill="#009e73" stroke="#009e73" stroke-width="5" points="725.761,-50.6496 736.663,-50.1288 728.881,-42.475 725.761,-50.6496"/>
</g>
<!-- bash_nli_logout -->
<g id="node6" class="node"><title>bash_nli_logout</title>
<text text-anchor="middle" x="896" y="-60.3" font-family="Times,serif" font-size="14.00">~/.bash_logout</text>
</g>
<!-- bash_nli_running_to_logout&#45;&gt;bash_nli_logout -->
<g id="edge8" class="edge"><title>bash_nli_running_to_logout&#45;&gt;bash_nli_logout</title>
<path fill="none" stroke="#009e73" stroke-width="5" d="M811.004,-64C819.042,-64 827.769,-64 836.455,-64"/>
<polygon fill="#009e73" stroke="#009e73" stroke-width="5" points="836.589,-68.3751 846.589,-64 836.589,-59.6251 836.589,-68.3751"/>
</g>
<!-- bash_nli_home_profile_case&#45;&gt;bash_nli_home_bash_login_case -->
<g id="edge7" class="edge"><title>bash_nli_home_profile_case:not_found&#45;&gt;bash_nli_home_bash_login_case:in</title>
<path fill="none" stroke="#009e73" stroke-width="5" d="M364,-64C383.572,-64 389.35,-53.5181 404.396,-50.0788"/>
<polygon fill="#009e73" stroke="#009e73" stroke-width="5" points="405.021,-54.412 414.5,-49 404.092,-45.7114 405.021,-54.412"/>
</g>
<!-- bash_nli_home_profile_case&#45;&gt;bash_nli_running_to_logout -->
<g id="edge6" class="edge"><title>bash_nli_home_profile_case:found&#45;&gt;bash_nli_running_to_logout</title>
<path fill="none" stroke="#009e73" stroke-width="5" d="M364,-86C513.858,-86 551.974,-90.7654 701,-75 709.406,-74.1108 718.33,-72.936 726.93,-71.6853"/>
<polygon fill="#009e73" stroke="#009e73" stroke-width="5" points="727.589,-76.0106 736.826,-70.1949 726.286,-67.3581 727.589,-76.0106"/>
</g>
</g>
</svg>
