<?xml version="1.0" encoding="UTF-8" standalone="no"?>
<!DOCTYPE svg PUBLIC "-//W3C//DTD SVG 1.1//EN"
 "http://www.w3.org/Graphics/SVG/1.1/DTD/svg11.dtd">
<!-- Generated by graphviz version 2.43.0 (0)
 -->
<!-- Title: %3 Pages: 1 -->
<svg width="166pt" height="476pt"
 viewBox="0.00 0.00 166.00 476.00" xmlns="http://www.w3.org/2000/svg" xmlns:xlink="http://www.w3.org/1999/xlink">
<g id="graph0" class="graph" transform="scale(1 1) rotate(0) translate(4 472)">
<title>%3</title>
<polygon fill="white" stroke="transparent" points="-4,4 -4,-472 162,-472 162,4 -4,4"/>
<!-- A -->
<g id="node1" class="node">
<title>A</title>
<ellipse fill="#f0e442" stroke="#e69f00" stroke-width="8" cx="112" cy="-450" rx="27" ry="18"/>
<text text-anchor="middle" x="112" y="-446.3" font-family="Times,serif" font-size="14.00">A</text>
</g>
<!-- B -->
<g id="node2" class="node">
<title>B</title>
<ellipse fill="#f0e442" stroke="#009e73" stroke-width="8" cx="57" cy="-378" rx="27" ry="18"/>
<text text-anchor="middle" x="57" y="-374.3" font-family="Times,serif" font-size="14.00">B</text>
</g>
<!-- A&#45;&#45;B -->
<g id="edge1" class="edge">
<title>A&#45;&#45;B</title>
<path fill="none" stroke="black" d="M100.07,-433.81C90.84,-422.07 78.13,-405.89 68.91,-394.16"/>
</g>
<!-- D -->
<g id="node4" class="node">
<title>D</title>
<ellipse fill="#56b4e9" stroke="#e69f00" stroke-width="8" cx="82" cy="-18" rx="27" ry="18"/>
<text text-anchor="middle" x="82" y="-14.3" font-family="Times,serif" font-size="14.00">D</text>
</g>
<!-- A&#45;&#45;D -->
<g id="edge10" class="edge">
<title>A&#45;&#45;D</title>
<path fill="none" stroke="black" d="M120.87,-432.94C134.24,-407.18 158,-354.68 158,-307 158,-307 158,-307 158,-161 158,-109.27 118.31,-58.15 96.3,-33.77"/>
</g>
<!-- C -->
<g id="node3" class="node">
<title>C</title>
<ellipse fill="#f0e442" stroke="#cc79a7" stroke-width="8" cx="103" cy="-306" rx="27" ry="18"/>
<text text-anchor="middle" x="103" y="-302.3" font-family="Times,serif" font-size="14.00">C</text>
</g>
<!-- B&#45;&#45;C -->
<g id="edge2" class="edge">
<title>B&#45;&#45;C</title>
<path fill="none" stroke="black" d="M67.44,-361.12C74.97,-349.66 85.08,-334.26 92.6,-322.82"/>
</g>
<!-- G -->
<g id="node7" class="node">
<title>G</title>
<ellipse fill="#d55e00" stroke="#e69f00" stroke-width="8" cx="31" cy="-306" rx="27" ry="18"/>
<text text-anchor="middle" x="31" y="-302.3" font-family="Times,serif" font-size="14.00">G</text>
</g>
<!-- B&#45;&#45;G -->
<g id="edge11" class="edge">
<title>B&#45;&#45;G</title>
<path fill="none" stroke="black" d="M50.84,-360.41C46.75,-349.41 41.41,-335.03 37.3,-323.96"/>
</g>
<!-- C&#45;&#45;A -->
<g id="edge3" class="edge">
<title>C&#45;&#45;A</title>
<path fill="none" stroke="black" d="M104.09,-324.19C105.82,-351.52 109.18,-404.58 110.91,-431.87"/>
</g>
<!-- E -->
<g id="node5" class="node">
<title>E</title>
<ellipse fill="#56b4e9" stroke="#009e73" stroke-width="8" cx="27" cy="-162" rx="27" ry="18"/>
<text text-anchor="middle" x="27" y="-158.3" font-family="Times,serif" font-size="14.00">E</text>
</g>
<!-- D&#45;&#45;E -->
<g id="edge4" class="edge">
<title>D&#45;&#45;E</title>
<path fill="none" stroke="black" d="M69.25,-34.3C61.44,-44.41 51.85,-58.29 46,-72 35.83,-95.83 30.89,-125.65 28.66,-144.01"/>
</g>
<!-- F -->
<g id="node6" class="node">
<title>F</title>
<ellipse fill="#56b4e9" stroke="#cc79a7" stroke-width="8" cx="82" cy="-90" rx="27" ry="18"/>
<text text-anchor="middle" x="82" y="-86.3" font-family="Times,serif" font-size="14.00">F</text>
</g>
<!-- E&#45;&#45;F -->
<g id="edge5" class="edge">
<title>E&#45;&#45;F</title>
<path fill="none" stroke="black" d="M38.93,-145.81C48.16,-134.07 60.87,-117.89 70.09,-106.16"/>
</g>
<!-- F&#45;&#45;D -->
<g id="edge6" class="edge">
<title>F&#45;&#45;D</title>
<path fill="none" stroke="black" d="M82,-71.7C82,-60.85 82,-46.92 82,-36.1"/>
</g>
<!-- H -->
<g id="node8" class="node">
<title>H</title>
<ellipse fill="#d55e00" stroke="#009e73" stroke-width="8" cx="31" cy="-234" rx="27" ry="18"/>
<text text-anchor="middle" x="31" y="-230.3" font-family="Times,serif" font-size="14.00">H</text>
</g>
<!-- G&#45;&#45;H -->
<g id="edge7" class="edge">
<title>G&#45;&#45;H</title>
<path fill="none" stroke="black" d="M31,-287.7C31,-276.85 31,-262.92 31,-252.1"/>
</g>
<!-- H&#45;&#45;E -->
<g id="edge12" class="edge">
<title>H&#45;&#45;E</title>
<path fill="none" stroke="black" d="M30.01,-215.7C29.39,-204.85 28.6,-190.92 27.98,-180.1"/>
</g>
<!-- I -->
<g id="node9" class="node">
<title>I</title>
<ellipse fill="#d55e00" stroke="#cc79a7" stroke-width="8" cx="99" cy="-162" rx="27" ry="18"/>
<text text-anchor="middle" x="99" y="-158.3" font-family="Times,serif" font-size="14.00">I</text>
</g>
<!-- H&#45;&#45;I -->
<g id="edge8" class="edge">
<title>H&#45;&#45;I</title>
<path fill="none" stroke="black" d="M45.09,-218.5C56.76,-206.48 73.26,-189.49 84.93,-177.49"/>
</g>
<!-- I&#45;&#45;G -->
<g id="edge9" class="edge">
<title>I&#45;&#45;G</title>
<path fill="none" stroke="black" d="M94.31,-179.92C88.91,-198.23 79.22,-228 67,-252 60.24,-265.28 50.69,-279.18 43.13,-289.41"/>
</g>
</g>
</svg>
